<svg width="48" height="45" viewBox="0 0 48 45">
    <path d="M0 4.5C0 2.29086 1.79086 0.5 4 0.5H48V44.5H4C1.79086 44.5 0 42.7091 0 40.5V4.5Z"></path>
    <path
        d="M18.5 17V20H21.5V17H18.5ZM17 17C17 16.1875 17.6562 15.5 18.5 15.5H21.5C22.3125 15.5 23 16.1875 23 17V20C23 20.8438 22.3125 21.5 21.5 21.5H18.5C17.6562 21.5 17 20.8438 17 20V17ZM18.5 25V28H21.5V25H18.5ZM17 25C17 24.1875 17.6562 23.5 18.5 23.5H21.5C22.3125 23.5 23 24.1875 23 25V28C23 28.8438 22.3125 29.5 21.5 29.5H18.5C17.6562 29.5 17 28.8438 17 28V25ZM29.5 17H26.5V20H29.5V17ZM26.5 15.5H29.5C30.3125 15.5 31 16.1875 31 17V20C31 20.8438 30.3125 21.5 29.5 21.5H26.5C25.6562 21.5 25 20.8438 25 20V17C25 16.1875 25.6562 15.5 26.5 15.5ZM26.5 25V28H29.5V25H26.5ZM25 25C25 24.1875 25.6562 23.5 26.5 23.5H29.5C30.3125 23.5 31 24.1875 31 25V28C31 28.8438 30.3125 29.5 29.5 29.5H26.5C25.6562 29.5 25 28.8438 25 28V25Z"></path>
</svg>