<svg width="48" height="45" viewBox="0 0 48 45">
    <mask id="path-1-inside-1_49_1892">
        <path d="M0 0.5H44C46.2091 0.5 48 2.29086 48 4.5V40.5C48 42.7091 46.2091 44.5 44 44.5H0V0.5Z"></path>
    </mask>
    <path
        d="M0 0.5V-1.5H-2V0.5H0ZM0 44.5H-2V46.5H0V44.5ZM0 2.5H44V-1.5H0V2.5ZM46 4.5V40.5H50V4.5H46ZM44 42.5H0V46.5H44V42.5ZM2 44.5V0.5H-2V44.5H2ZM46 40.5C46 41.6046 45.1046 42.5 44 42.5V46.5C47.3137 46.5 50 43.8137 50 40.5H46ZM44 2.5C45.1046 2.5 46 3.39543 46 4.5H50C50 1.18629 47.3137 -1.5 44 -1.5V2.5Z"
        mask="url(#path-1-inside-1_49_1892)"></path>
    <path
        d="M17.25 16H18.75C19.1562 16 19.5 16.3438 19.5 16.75V18.25C19.5 18.6875 19.1562 19 18.75 19H17.25C16.8125 19 16.5 18.6875 16.5 18.25V16.75C16.5 16.3438 16.8125 16 17.25 16ZM21.75 16.75H31.25C31.6562 16.75 32 17.0938 32 17.5C32 17.9375 31.6562 18.25 31.25 18.25H21.75C21.3125 18.25 21 17.9375 21 17.5C21 17.0938 21.3125 16.75 21.75 16.75ZM21.75 21.75H31.25C31.6562 21.75 32 22.0938 32 22.5C32 22.9375 31.6562 23.25 31.25 23.25H21.75C21.3125 23.25 21 22.9375 21 22.5C21 22.0938 21.3125 21.75 21.75 21.75ZM21.75 26.75H31.25C31.6562 26.75 32 27.0938 32 27.5C32 27.9375 31.6562 28.25 31.25 28.25H21.75C21.3125 28.25 21 27.9375 21 27.5C21 27.0938 21.3125 26.75 21.75 26.75ZM16.5 21.75C16.5 21.3438 16.8125 21 17.25 21H18.75C19.1562 21 19.5 21.3438 19.5 21.75V23.25C19.5 23.6875 19.1562 24 18.75 24H17.25C16.8125 24 16.5 23.6875 16.5 23.25V21.75ZM17.25 26H18.75C19.1562 26 19.5 26.3438 19.5 26.75V28.25C19.5 28.6875 19.1562 29 18.75 29H17.25C16.8125 29 16.5 28.6875 16.5 28.25V26.75C16.5 26.3438 16.8125 26 17.25 26Z"></path>
</svg>