<svg width="20" height="20" viewBox="0 0 20 20" fill="none" xmlns="http://www.w3.org/2000/svg">
<g clip-path="url(#clip0_105_1170)">
<path d="M17.1484 0.273437C17.5156 -0.09375 18.1094 -0.09375 18.4727 0.273437L19.7227 1.52344C20.0898 1.89062 20.0898 2.48438 19.7227 2.84766L16.3242 6.24609L17.8477 7.76953C18.1172 8.03906 18.1953 8.44141 18.0508 8.79297C17.9062 9.14453 17.5625 9.37109 17.1836 9.37109H11.5625C11.043 9.37109 10.625 8.95312 10.625 8.43359V2.8125C10.625 2.43359 10.8516 2.08984 11.2031 1.94531C11.5547 1.80078 11.957 1.87891 12.2266 2.14844L13.75 3.67188L17.1484 0.273437ZM2.8125 10.625H8.4375C8.95703 10.625 9.375 11.043 9.375 11.5625V17.1875C9.375 17.5664 9.14844 17.9102 8.79688 18.0547C8.44531 18.1992 8.04297 18.1211 7.77344 17.8516L6.25 16.3281L2.85156 19.7266C2.48438 20.0937 1.89062 20.0937 1.52734 19.7266L0.273437 18.4766C-0.09375 18.1094 -0.09375 17.5156 0.273437 17.1523L3.67188 13.7539L2.14844 12.2266C1.87891 11.957 1.80078 11.5547 1.94531 11.2031C2.08984 10.8516 2.43359 10.625 2.8125 10.625Z" fill="white"/>
</g>
<defs>
<clipPath id="clip0_105_1170">
<rect width="20" height="20" fill="white"/>
</clipPath>
</defs>
</svg>
