<svg width="20" height="20" viewBox="0 0 20 20" fill="none" xmlns="http://www.w3.org/2000/svg">
<g clip-path="url(#clip0_106_1220)">
<g clip-path="url(#clip1_106_1220)">
<path d="M13.4375 0H19.0625C19.582 0 20 0.417969 20 0.9375V6.5625C20 6.94141 19.7734 7.28516 19.4219 7.42969C19.0703 7.57422 18.668 7.49609 18.3984 7.22656L16.875 5.70312L13.4766 9.10156C13.1094 9.46875 12.5156 9.46875 12.1523 9.10156L10.9023 7.85156C10.5352 7.48438 10.5352 6.89063 10.9023 6.52734L14.3008 3.12891L12.7734 1.60156C12.5039 1.33203 12.4258 0.929688 12.5703 0.578125C12.7148 0.226563 13.0586 0 13.4375 0ZM6.5625 20H0.9375C0.417969 20 0 19.582 0 19.0625V13.4375C0 13.0586 0.226563 12.7148 0.578125 12.5703C0.929688 12.4258 1.33203 12.5039 1.60156 12.7734L3.125 14.2969L6.52344 10.8984C6.89062 10.5313 7.48437 10.5313 7.84766 10.8984L9.09766 12.1484C9.46484 12.5156 9.46484 13.1094 9.09766 13.4727L5.69922 16.8711L7.22266 18.3945C7.49219 18.6641 7.57031 19.0664 7.42578 19.418C7.28125 19.7695 6.9375 19.9961 6.55859 19.9961L6.5625 20Z" fill="white"/>
</g>
</g>
<defs>
<clipPath id="clip0_106_1220">
<rect width="20" height="20" fill="white"/>
</clipPath>
<clipPath id="clip1_106_1220">
<rect width="20" height="20" fill="white"/>
</clipPath>
</defs>
</svg>
