<svg width="60" height="60" viewBox="0 0 60 60" fill="none" xmlns="http://www.w3.org/2000/svg">
<circle cx="30" cy="30" r="30" fill="#F6FFF8"/>
<path d="M30 0C24.0666 0 18.2664 1.75947 13.3329 5.05591C8.39943 8.35235 4.55426 13.0377 2.28363 18.5195C0.0129986 24.0013 -0.581101 30.0333 0.576455 35.8527C1.73401 41.6721 4.59123 47.0176 8.78681 51.2132C12.9824 55.4088 18.3279 58.266 24.1473 59.4235C29.9667 60.5811 35.9987 59.987 41.4805 57.7164C46.9623 55.4457 51.6477 51.6006 54.9441 46.6671C58.2405 41.7336 60 35.9334 60 30C59.9917 22.046 56.8284 14.4202 51.2041 8.79593C45.5798 3.17163 37.954 0.00827245 30 0ZM30 56.25C24.8083 56.25 19.7331 54.7105 15.4163 51.8261C11.0995 48.9417 7.73498 44.842 5.74818 40.0454C3.76138 35.2489 3.24154 29.9709 4.2544 24.8789C5.26726 19.7869 7.76733 15.1096 11.4385 11.4384C15.1096 7.76732 19.7869 5.26725 24.8789 4.25439C29.9709 3.24152 35.2489 3.76136 40.0454 5.74816C44.842 7.73496 48.9417 11.0995 51.8261 15.4163C54.7105 19.7331 56.25 24.8082 56.25 30C56.25 36.9619 53.4844 43.6387 48.5616 48.5615C43.6387 53.4844 36.9619 56.25 30 56.25ZM43.5313 38.75C43.8775 39.1065 44.068 39.5859 44.0609 40.0828C44.0539 40.5796 43.8499 41.0534 43.4938 41.4C39.8783 44.9089 35.0382 46.8714 30 46.8714C24.9618 46.8714 20.1217 44.9089 16.5063 41.4C16.149 41.0536 15.9441 40.5794 15.9365 40.0818C15.9288 39.5843 16.1192 39.1041 16.4656 38.7469C16.8121 38.3897 17.2862 38.1847 17.7838 38.1771C18.2813 38.1695 18.7615 38.3598 19.1188 38.7062C22.0344 41.5355 25.9373 43.1179 30 43.1179C34.0627 43.1179 37.9657 41.5355 40.8813 38.7062C41.2386 38.3609 41.7184 38.1715 42.2153 38.1797C42.7122 38.1879 43.1855 38.393 43.5313 38.75ZM36.875 22.1875C36.875 21.6312 37.04 21.0875 37.349 20.625C37.658 20.1624 38.0973 19.802 38.6112 19.5891C39.1251 19.3762 39.6906 19.3205 40.2362 19.429C40.7818 19.5376 41.2829 19.8054 41.6763 20.1988C42.0696 20.5921 42.3374 21.0932 42.446 21.6388C42.5545 22.1844 42.4988 22.7499 42.2859 23.2638C42.073 23.7777 41.7126 24.217 41.2501 24.526C40.7875 24.835 40.2438 25 39.6875 25C39.3182 25 38.9524 24.9272 38.6112 24.7859C38.27 24.6446 37.9599 24.4374 37.6988 24.1762C37.4376 23.9151 37.2304 23.605 37.0891 23.2638C36.9478 22.9226 36.875 22.5568 36.875 22.1875ZM17.5 22.1875C17.5 21.6312 17.665 21.0875 17.974 20.625C18.283 20.1624 18.7223 19.802 19.2362 19.5891C19.7501 19.3762 20.3156 19.3205 20.8612 19.429C21.4068 19.5376 21.9079 19.8054 22.3012 20.1988C22.6946 20.5921 22.9624 21.0932 23.071 21.6388C23.1795 22.1844 23.1238 22.7499 22.9109 23.2638C22.6981 23.7777 22.3376 24.217 21.8751 24.526C21.4125 24.835 20.8688 25 20.3125 25C19.9432 25 19.5774 24.9272 19.2362 24.7859C18.895 24.6446 18.5849 24.4374 18.3238 24.1762C18.0626 23.9151 17.8554 23.605 17.7141 23.2638C17.5728 22.9226 17.5 22.5568 17.5 22.1875Z" fill="#42814A"/>
</svg>
