<svg width="60" height="60" viewBox="0 0 60 60" fill="none" xmlns="http://www.w3.org/2000/svg">
<circle cx="30" cy="30" r="30" fill="#FEF1D8"/>
<path d="M44.375 23.125C44.375 23.6813 44.2101 24.225 43.901 24.6875C43.592 25.15 43.1527 25.5105 42.6388 25.7234C42.1249 25.9363 41.5594 25.992 41.0138 25.8835C40.4682 25.7749 39.9671 25.5071 39.5738 25.1137C39.1804 24.7204 38.9126 24.2193 38.804 23.6737C38.6955 23.1281 38.7512 22.5626 38.9641 22.0487C39.177 21.5348 39.5375 21.0955 40 20.7865C40.4625 20.4774 41.0062 20.3125 41.5625 20.3125C42.3084 20.3125 43.0238 20.6088 43.5512 21.1363C44.0787 21.6637 44.375 22.3791 44.375 23.125ZM18.4375 25.9375C18.9938 25.9375 19.5375 25.7725 20.0001 25.4635C20.4626 25.1545 20.8231 24.7152 21.0359 24.2013C21.2488 23.6874 21.3045 23.1219 21.196 22.5763C21.0874 22.0307 20.8196 21.5296 20.4262 21.1363C20.0329 20.7429 19.5318 20.4751 18.9862 20.3665C18.4406 20.258 17.8751 20.3137 17.3612 20.5266C16.8473 20.7395 16.408 21.0999 16.099 21.5625C15.79 22.025 15.625 22.5687 15.625 23.125C15.6283 23.8687 15.9261 24.5809 16.4532 25.1057C16.9803 25.6304 17.6937 25.925 18.4375 25.925V25.9375ZM60 30C60 35.9334 58.2405 41.7336 54.9441 46.6671C51.6476 51.6006 46.9623 55.4457 41.4805 57.7164C35.9987 59.987 29.9667 60.5811 24.1473 59.4235C18.3279 58.266 12.9824 55.4088 8.78681 51.2132C4.59123 47.0176 1.73401 41.6721 0.576455 35.8527C-0.581101 30.0333 0.0129986 24.0013 2.28363 18.5195C4.55426 13.0377 8.39943 8.35235 13.3329 5.05591C18.2664 1.75947 24.0666 0 30 0C37.954 0.00827245 45.5798 3.17163 51.2041 8.79593C56.8284 14.4202 59.9917 22.046 60 30ZM56.25 30C56.25 24.8082 54.7105 19.7331 51.8261 15.4163C48.9417 11.0995 44.842 7.73496 40.0454 5.74816C35.2489 3.76136 29.9709 3.24152 24.8789 4.25439C19.7869 5.26725 15.1096 7.76732 11.4385 11.4384C7.76733 15.1096 5.26726 19.7869 4.2544 24.8789C3.24154 29.9709 3.76137 35.2489 5.74817 40.0454C7.73497 44.842 11.0995 48.9417 15.4163 51.8261C19.7331 54.7105 24.8083 56.25 30 56.25C36.9619 56.25 43.6387 53.4844 48.5616 48.5615C53.4844 43.6387 56.25 36.9619 56.25 30ZM42.9688 39.95H17.0313C16.6997 39.95 16.3818 40.0817 16.1474 40.3161C15.913 40.5505 15.7813 40.8685 15.7813 41.2C15.7813 41.5315 15.913 41.8495 16.1474 42.0839C16.3818 42.3183 16.6997 42.45 17.0313 42.45H42.9688C43.3003 42.45 43.6182 42.3183 43.8526 42.0839C44.0871 41.8495 44.2188 41.5315 44.2188 41.2C44.2188 40.8685 44.0871 40.5505 43.8526 40.3161C43.6182 40.0817 43.3003 39.95 42.9688 39.95Z" fill="#F8BB47"/>
</svg>
