<svg width="60" height="60" viewBox="0 0 60 60" fill="none" xmlns="http://www.w3.org/2000/svg">
<circle cx="30" cy="30" r="30" fill="#F4E1E2"/>
<path d="M30 0C24.0666 0 18.2664 1.75947 13.3329 5.05591C8.39943 8.35235 4.55426 13.0377 2.28363 18.5195C0.0129986 24.0013 -0.581101 30.0333 0.576455 35.8527C1.73401 41.6721 4.59123 47.0176 8.78681 51.2132C12.9824 55.4088 18.3279 58.266 24.1473 59.4235C29.9667 60.5811 35.9987 59.987 41.4805 57.7164C46.9623 55.4457 51.6476 51.6006 54.9441 46.6671C58.2405 41.7336 60 35.9334 60 30C59.9917 22.046 56.8284 14.4202 51.2041 8.79593C45.5798 3.17163 37.954 0.00827245 30 0ZM30 56.25C24.8083 56.25 19.7331 54.7104 15.4163 51.8261C11.0995 48.9417 7.73497 44.842 5.74817 40.0454C3.76137 35.2489 3.24154 29.9709 4.2544 24.8789C5.26726 19.7869 7.76733 15.1096 11.4385 11.4384C15.1096 7.76732 19.7869 5.26725 24.8789 4.25439C29.9709 3.24152 35.2489 3.76136 40.0454 5.74816C44.842 7.73496 48.9417 11.0995 51.8261 15.4163C54.7105 19.7331 56.25 24.8082 56.25 30C56.25 36.9619 53.4844 43.6387 48.5616 48.5615C43.6387 53.4844 36.9619 56.25 30 56.25ZM45 44.7625C45.0686 45.2473 44.9449 45.7397 44.6552 46.1344C44.3656 46.5292 43.933 46.795 43.45 46.875C43.3543 46.8822 43.2582 46.8822 43.1625 46.875C42.7112 46.8803 42.2732 46.7227 41.9288 46.4311C41.5844 46.1395 41.3567 45.7334 41.2875 45.2875C40.375 39.2562 36.1438 35.625 30 35.625C23.7 35.625 19.575 39.15 18.6875 45.3062C18.6789 45.57 18.6147 45.829 18.4991 46.0663C18.3835 46.3035 18.2191 46.5137 18.0167 46.6831C17.8143 46.8524 17.5784 46.9771 17.3244 47.0491C17.0705 47.121 16.8042 47.1385 16.5431 47.1004C16.2819 47.0623 16.0317 46.9696 15.8089 46.8282C15.586 46.6867 15.3956 46.4999 15.2499 46.2798C15.1042 46.0597 15.0067 45.8113 14.9636 45.5509C14.9206 45.2906 14.933 45.024 15 44.7687C16.125 36.8187 21.875 31.875 30 31.875C38.125 31.875 43.7938 36.8125 45 44.7625ZM36.875 22.1875C36.875 21.6312 37.04 21.0875 37.349 20.625C37.658 20.1624 38.0973 19.802 38.6112 19.5891C39.1251 19.3762 39.6906 19.3205 40.2362 19.429C40.7818 19.5376 41.2829 19.8054 41.6762 20.1988C42.0696 20.5921 42.3374 21.0932 42.446 21.6388C42.5545 22.1844 42.4988 22.7499 42.2859 23.2638C42.073 23.7777 41.7126 24.217 41.25 24.526C40.7875 24.835 40.2438 25 39.6875 25C39.3182 25 38.9524 24.9272 38.6112 24.7859C38.27 24.6446 37.9599 24.4374 37.6988 24.1762C37.4376 23.9151 37.2304 23.605 37.0891 23.2638C36.9478 22.9226 36.875 22.5568 36.875 22.1875ZM17.5 22.1875C17.5 21.6312 17.665 21.0875 17.974 20.625C18.283 20.1624 18.7223 19.802 19.2362 19.5891C19.7501 19.3762 20.3156 19.3205 20.8612 19.429C21.4068 19.5376 21.9079 19.8054 22.3012 20.1988C22.6946 20.5921 22.9624 21.0932 23.071 21.6388C23.1795 22.1844 23.1238 22.7499 22.9109 23.2638C22.6981 23.7777 22.3376 24.217 21.8751 24.526C21.4125 24.835 20.8688 25 20.3125 25C19.9432 25 19.5774 24.9272 19.2362 24.7859C18.895 24.6446 18.5849 24.4374 18.3238 24.1762C18.0626 23.9151 17.8554 23.605 17.7141 23.2638C17.5728 22.9226 17.5 22.5568 17.5 22.1875Z" fill="#CE3E39"/>
</svg>
