<svg width="60" height="60" viewBox="0 0 60 60" fill="none" xmlns="http://www.w3.org/2000/svg">
<circle cx="30" cy="30" r="30" fill="#F4E1E2"/>
<path d="M30 0C24.0666 0 18.2664 1.75947 13.3329 5.05591C8.39943 8.35235 4.55426 13.0377 2.28363 18.5195C0.0129986 24.0013 -0.581101 30.0333 0.576455 35.8527C1.73401 41.6721 4.59123 47.0176 8.78681 51.2132C12.9824 55.4088 18.3279 58.266 24.1473 59.4235C29.9667 60.5811 35.9987 59.987 41.4805 57.7164C46.9623 55.4457 51.6477 51.6006 54.9441 46.6671C58.2405 41.7336 60 35.9334 60 30C59.9917 22.046 56.8284 14.4202 51.2041 8.79593C45.5798 3.17163 37.954 0.00827245 30 0ZM30 56.25C24.8083 56.25 19.7331 54.7105 15.4163 51.8261C11.0995 48.9417 7.73498 44.842 5.74818 40.0454C3.76138 35.2489 3.24154 29.9709 4.2544 24.8789C5.26726 19.7869 7.76733 15.1096 11.4385 11.4384C15.1096 7.76732 19.7869 5.26725 24.8789 4.25439C29.9709 3.24152 35.2489 3.76136 40.0454 5.74816C44.842 7.73496 48.9417 11.0995 51.8261 15.4163C54.7105 19.7331 56.25 24.8082 56.25 30C56.25 36.9619 53.4844 43.6387 48.5616 48.5615C43.6387 53.4844 36.9619 56.25 30 56.25ZM36.5375 39.1875C36.5174 39.3504 36.4654 39.5078 36.3845 39.6506C36.3036 39.7934 36.1953 39.9189 36.0659 40.0199C35.9365 40.1209 35.7884 40.1954 35.6302 40.2392C35.472 40.2829 35.3067 40.2951 35.1438 40.275C33.1187 39.9921 31.0594 40.0725 29.0625 40.5125C26.2046 41.0299 23.6129 42.5179 21.725 44.725C21.5012 44.9736 21.1879 45.1232 20.8538 45.1408C20.5198 45.1584 20.1924 45.0425 19.9438 44.8187C19.6951 44.595 19.5456 44.2816 19.528 43.9475C19.5104 43.6135 19.6262 43.2861 19.85 43.0375C22.0905 40.4315 25.1528 38.6677 28.5313 38.0375C30.789 37.5417 33.1168 37.4507 35.4063 37.7687C35.5754 37.7832 35.7399 37.832 35.8896 37.9122C36.0393 37.9923 36.1711 38.1021 36.2769 38.2349C36.3828 38.3676 36.4605 38.5206 36.5053 38.6844C36.5501 38.8481 36.5611 39.0193 36.5375 39.1875ZM42.5 22.1875C42.5 22.7438 42.3351 23.2875 42.026 23.75C41.717 24.2125 41.2777 24.573 40.7638 24.7859C40.2499 24.9988 39.6844 25.0545 39.1388 24.946C38.5932 24.8374 38.0921 24.5696 37.6988 24.1762C37.3054 23.7829 37.0376 23.2818 36.9291 22.7362C36.8205 22.1906 36.8762 21.6251 37.0891 21.1112C37.302 20.5973 37.6625 20.158 38.125 19.849C38.5875 19.5399 39.1313 19.375 39.6875 19.375C40.4334 19.375 41.1488 19.6713 41.6763 20.1988C42.2037 20.7262 42.5 21.4416 42.5 22.1875ZM20.3125 25C19.7563 25 19.2125 24.835 18.75 24.526C18.2875 24.217 17.927 23.7777 17.7141 23.2638C17.5012 22.7499 17.4455 22.1844 17.5541 21.6388C17.6626 21.0932 17.9304 20.5921 18.3238 20.1988C18.7171 19.8054 19.2182 19.5376 19.7638 19.429C20.3094 19.3205 20.8749 19.3762 21.3888 19.5891C21.9027 19.802 22.342 20.1624 22.651 20.625C22.9601 21.0875 23.125 21.6312 23.125 22.1875C23.125 22.5568 23.0523 22.9226 22.9109 23.2638C22.7696 23.605 22.5624 23.9151 22.3012 24.1762C22.0401 24.4374 21.73 24.6446 21.3888 24.7859C21.0476 24.9272 20.6819 25 20.3125 25Z" fill="#CE3E39"/>
</svg>
