<svg width="131" height="150" viewBox="0 0 131 150" fill="none" xmlns="http://www.w3.org/2000/svg">
<path d="M63.3644 9.2783L64.2701 10.1762C64.8118 10.7133 65.6351 10.8465 66.3185 10.5077L66.6528 10.342C66.8743 10.2322 67.0767 10.0875 67.2522 9.91351L68.7986 8.38036L69.4607 7.72387C70.2219 6.96918 71.0995 6.34177 72.0599 5.86569L72.4213 5.68652L74.2327 4.78857L75.4214 4.39571C76.4338 4.06114 77.4932 3.89062 78.5594 3.89062H78.7611C79.9526 3.89062 81.1279 4.16596 82.1954 4.69514L82.3839 4.78857L84.1953 5.68652L84.864 6.01801C85.6208 6.39321 86.3124 6.88765 86.9123 7.48241L87.818 8.38036L88.7237 9.2783C89.3235 9.87302 89.8233 10.5608 90.2037 11.315L90.5351 11.9721L90.6321 12.1645C91.1638 13.2188 91.4408 14.3831 91.4408 15.5639V17.3598C91.4408 18.5406 91.1638 19.7049 90.6321 20.7592L90.5351 20.9516L89.6294 22.7475L88.7237 24.5434L86.9123 28.1352L83.2896 33.5229L78.7611 38.9105L74.2327 43.4003L69.7043 46.992C67.0518 49.0959 63.2998 49.0959 60.6474 46.992L56.1189 43.4003L52.4962 39.8085L49.3787 36.7176C49.0423 36.3841 48.73 36.0271 48.4442 35.6492L46.1564 32.6249L44.345 29.9311L43.4393 28.1352L42.5336 26.3393L41.628 24.5434L40.7223 22.7475L39.8166 20.9516L39.7196 20.7592C39.1879 19.7049 38.9109 18.5406 38.9109 17.3598C38.9109 16.179 39.1879 15.0147 39.7196 13.9604L39.8166 13.768L40.7223 11.9721L41.628 10.1762L41.9578 9.52221C42.3392 8.76595 42.8403 8.07631 43.4418 7.47997C44.04 6.88683 44.7298 6.39372 45.4846 6.01955L46.1564 5.68652L47.9678 4.78857L49.1565 4.39571C50.1689 4.06114 51.2282 3.89062 52.2944 3.89062H52.4962H54.3076C55.499 3.89062 56.6744 4.16596 57.7419 4.69514L57.9303 4.78857L58.599 5.12006C59.3559 5.49526 60.0475 5.9897 60.6474 6.58446L61.5531 7.48241L62.4588 8.38036L63.3644 9.2783Z" fill="#C1DDFC" stroke="#C1DDFC"/>
<path d="M99.5149 128.279V128.074L99.6592 127.928L100.489 127.088L100.546 127.03L100.619 126.993L100.619 126.993L100.619 126.993L100.621 126.992L100.628 126.989L100.655 126.975L100.76 126.921C100.851 126.874 100.983 126.806 101.143 126.722C101.464 126.552 101.901 126.318 102.362 126.059C102.824 125.799 103.307 125.516 103.723 125.248C104.15 124.973 104.471 124.736 104.637 124.569C105.241 123.957 106.074 122.686 106.966 121.135C107.848 119.601 108.759 117.844 109.521 116.3C110.616 114.083 111.705 111.142 112.805 108.172C113.361 106.673 113.919 105.166 114.482 103.741C115.15 102.049 116.204 100.131 117.284 98.2374C117.495 97.8657 117.708 97.4951 117.92 97.1269C118.794 95.6048 119.644 94.124 120.305 92.7857C120.827 91.7295 121.037 91.3039 121.211 90.9505C121.392 90.5838 121.535 90.2949 121.948 89.4592C122.116 88.9292 122.1 88.487 121.961 88.1409C121.821 87.7919 121.535 87.4851 121.063 87.2676C120.113 86.8303 118.446 86.7805 116.083 87.5532L109.352 96.6032L108.518 97.7247L108.451 96.3286L106.506 55.472L106.505 55.4601V55.4482C106.505 53.579 105.86 51.7277 104.831 50.849C104.337 50.4273 103.761 50.2303 103.09 50.3399C102.408 50.4513 101.568 50.89 100.589 51.8704L98.779 54.7421L97.856 56.2062V54.4755V45.7203C97.856 43.4181 96.8008 42.2866 95.6156 42.19C94.3646 42.088 92.5611 43.0682 90.9466 45.8898L89.9884 51.6387L89.0098 51.6764C88.6433 50.1922 87.2436 48.916 85.6903 48.7611C84.9294 48.6853 84.117 48.876 83.3455 49.4671C82.5781 50.055 81.8288 51.0571 81.2334 52.6376L80.266 65.2133L79.2675 65.1749C79.2675 64.7137 79.0078 64.1471 78.5465 63.6209C78.091 63.1011 77.4996 62.692 76.9561 62.5175C76.413 62.3431 76.024 62.4248 75.7787 62.6946C75.4983 63.0031 75.2542 63.7055 75.4009 65.1234L75.4036 65.1491V65.1749C75.4036 67.7038 75.2522 72.9918 75.1013 78.0562C75.0861 78.5671 75.0709 79.0758 75.0558 79.579C74.9213 84.0752 74.7995 88.1462 74.7995 89.6479C74.7995 90.4912 74.7473 92.237 74.6822 94.4133C74.6174 96.5807 74.5398 99.1751 74.4883 101.73C74.4365 104.3 74.4108 106.838 74.4495 108.889C74.4688 109.914 74.5042 110.812 74.5598 111.528C74.6167 112.26 74.6918 112.755 74.7744 113.006C74.8298 113.174 74.9142 113.462 75.0257 113.841C75.3243 114.858 75.8172 116.537 76.4649 118.351C76.905 119.583 77.4074 120.849 77.9504 121.959C78.4977 123.077 79.0682 123.997 79.6324 124.569L79.7767 124.715V124.92V133.318V134.158V134.658H79.2767H76.4586L76.4586 142.497H103.663V134.658H100.015H99.5151L99.5151 134.158L99.5149 132.478V128.279Z" fill="#C1DDFC" stroke="#C1DDFC"/>
<path d="M26.8047 128.972L26.8045 128.962L26.7649 125.729L26.7618 125.48L26.5619 125.333L24.9246 124.124L24.9169 124.116L24.8274 124.03L24.5008 123.715C24.2266 123.45 23.8518 123.088 23.449 122.697C22.6422 121.916 21.7269 121.026 21.2819 120.583C20.6258 119.93 19.7243 118.576 18.7615 116.929C17.8084 115.298 16.824 113.43 16.0007 111.79C14.8174 109.433 13.6401 106.306 12.4518 103.149C11.8522 101.556 11.2498 99.9559 10.6424 98.4435C9.9215 96.6483 8.78405 94.6117 7.61794 92.5995C7.38923 92.2048 7.15945 91.8112 6.93114 91.42C5.98716 89.8027 5.06825 88.2284 4.35404 86.8056C3.79075 85.6835 3.5637 85.2312 3.37522 84.8559C3.17939 84.4658 3.0252 84.1587 2.5788 83.2694C2.39513 82.7012 2.41198 82.2251 2.56441 81.8506C2.71833 81.4724 3.03389 81.1398 3.55333 80.9046C4.59538 80.4329 6.4105 80.3836 8.96759 81.2069L16.9349 92.6691L17.7762 93.8794L17.8449 92.4071L19.6331 54.1164C20.7437 51.1681 22.697 48.7161 24.5285 47.7413C25.4431 47.2545 26.2586 47.1684 26.9234 47.4645C27.5933 47.763 28.25 48.5111 28.705 50.0044L28.7048 50.0044L28.7089 50.0168L29.6817 52.9349L30.656 52.7767L30.656 44.144C31.5028 42.5672 33.4748 41.2872 35.4302 41.3594C36.4102 41.3955 37.3977 41.7705 38.2607 42.6411C39.1266 43.5147 39.8897 44.9113 40.3626 47.0229L41.3324 55.7508L42.3293 55.6956C42.3293 54.0617 42.68 52.6165 43.2009 51.5304C43.7314 50.424 44.3983 49.7676 44.9778 49.5712C45.2522 49.4782 45.5089 49.4857 45.7539 49.5935C46.007 49.7048 46.2896 49.9423 46.5653 50.3822C47.1229 51.2717 47.5845 52.8821 47.723 55.4552V65.6146H48.223L48.723 65.6146C48.723 64.5929 49.7068 63.6273 50.8956 63.4311C51.4641 63.3373 52.0296 63.4342 52.4957 63.7641C52.9524 64.0874 53.3689 64.6739 53.5773 65.6656C53.5816 68.3675 53.9252 72.0492 54.2651 75.4789C54.2996 75.8263 54.3339 76.1708 54.3679 76.5115C54.674 79.5799 54.9482 82.3287 54.9482 83.906C54.9482 84.8106 55.0057 86.6495 55.0769 88.9288C55.1465 91.156 55.2292 93.8038 55.2843 96.411C55.3402 99.0586 55.3681 101.672 55.3263 103.788C55.3054 104.847 55.2671 105.775 55.207 106.518C55.1457 107.276 55.0646 107.796 54.974 108.067C54.9233 108.218 54.8405 108.488 54.7293 108.849C54.3755 110 53.7336 112.088 52.9182 114.308C52.3847 115.759 51.7834 117.248 51.1521 118.535C50.5151 119.834 49.869 120.882 49.2587 121.49L49.1115 121.637V121.844V129.626V135.216V135.716H49.6115H51.7854V142.745H22.325L22.325 134.99H26.2649H26.7614L26.7649 134.493L26.8047 128.972Z" fill="#C1DDFC" stroke="#C1DDFC"/>
<path d="M130.167 80.3571C128.695 78.3745 125.379 77.9893 120.833 79.2695C120.502 79.3629 120.212 79.5672 120.013 79.8473L113.282 89.3825L111.648 50.6252C111.638 50.3956 111.576 50.1699 111.465 49.9676C110.163 47.592 108.527 46.2555 106.603 45.9967C105.085 45.7924 103.507 46.2574 101.828 47.4131V43.8371C101.828 43.5025 101.718 43.1776 101.511 42.913C99.5346 40.3818 97.4315 39.1172 95.268 39.1542C93.0326 39.1912 90.8691 40.625 88.838 43.4111C88.6707 43.6406 88.5714 43.913 88.5539 44.1971L88.2854 48.3489C87.1843 47.6932 86.0772 47.3878 84.9741 47.4364C83.1064 47.5201 81.3418 48.6115 79.7308 50.6816C79.5324 50.9365 79.4215 51.2497 79.4157 51.5746L79.2464 60.3393C78.2853 59.8471 77.2892 59.6564 76.3086 59.7887C74.5031 60.0358 72.9837 61.3665 72.0265 63.5358C71.9311 63.7518 71.8883 63.9891 71.9019 64.2246C72.221 69.8647 71.8183 76.3473 71.3942 83.2112C70.4 99.2561 69.3727 115.838 77.1335 125.683L77.1841 133.799H73.9526C73.1238 133.799 72.4525 134.471 72.4525 135.299V148.498C72.4525 149.327 73.1238 149.998 73.9526 149.998H107.939C108.768 149.998 109.439 149.327 109.439 148.498V135.299C109.439 134.471 108.768 133.799 107.939 133.799H104.727L104.77 129.091C108.009 127.899 110.86 125.276 113.262 121.274C116.253 116.184 118.154 110.998 119.99 105.982C122.418 99.3534 124.712 93.0907 129.323 87.0789C129.35 87.0439 129.375 87.0089 129.399 86.9719C131.568 83.5672 131.014 81.4952 130.167 80.3571ZM106.441 147H75.4545V136.801H78.6939H78.7036H103.198H106.437V147H106.441ZM126.903 85.3085C122.041 91.6685 119.566 98.4215 117.175 104.951C115.383 109.842 113.531 114.898 110.685 119.743C108.404 123.542 105.86 125.766 102.902 126.539C102.247 126.71 101.788 127.299 101.782 127.976L101.729 133.799H80.1861L80.1316 125.138C80.1297 124.791 80.0071 124.455 79.7853 124.188C72.4136 115.317 73.4175 99.0888 74.3903 83.396C74.8125 76.5924 75.2094 70.1565 74.9195 64.4347C75.4195 63.4405 76.0499 62.8491 76.7172 62.7596C77.4448 62.6584 78.3281 63.1506 79.188 64.0689V87.793C79.188 88.6218 79.8592 89.293 80.6881 89.293C81.5169 89.293 82.1881 88.6218 82.1881 87.793V63.4891L82.406 52.1466C83.3437 51.0473 84.2523 50.4715 85.1103 50.4326C85.9936 50.3936 86.9994 50.9442 88.0967 52.0104V85.0186C88.0967 85.8474 88.7679 86.5186 89.5967 86.5186C90.4255 86.5186 91.0968 85.8474 91.0968 85.0186V51.4209L91.5209 44.8333C92.8711 43.0725 94.1493 42.1717 95.3205 42.1523C96.4003 42.1484 97.5832 42.878 98.8323 44.3663V82.7657C98.8323 83.5945 99.5035 84.2657 100.332 84.2657C101.161 84.2657 101.832 83.5945 101.832 82.7657V51.3392C103.562 49.6602 105.074 48.8177 106.206 48.9695C107.072 49.0862 107.899 49.808 108.671 51.1135L110.428 92.7852C99.9626 96.5304 93.4353 103.968 92.8944 112.854C92.8438 113.68 93.4742 114.393 94.3011 114.441C95.1279 114.492 95.84 113.861 95.8886 113.035C96.3711 105.132 102.544 98.4954 112.408 95.2775C112.739 95.1783 113.019 94.9681 113.21 94.6938L122.157 82.0186C125.336 81.2053 127.284 81.4952 127.765 82.1431C128.049 82.5244 127.992 83.5808 126.907 85.3046L126.903 85.3085ZM59.5224 83.2151C59.0963 76.3512 58.6956 69.8667 59.0146 64.2285C59.0282 63.993 58.9854 63.7557 58.8901 63.5397C57.9348 61.3704 56.4134 60.0377 54.608 59.7926C53.6274 59.6584 52.6313 59.851 51.6702 60.3432L51.5009 51.5785C51.4951 51.2536 51.3842 50.9423 51.1838 50.6855C49.5729 48.6154 47.8083 47.524 45.9405 47.4403C44.8374 47.3917 43.7304 47.6971 42.6292 48.3528L42.3607 44.199C42.3432 43.915 42.244 43.6426 42.0767 43.413C40.0475 40.627 37.884 39.1931 35.6466 39.1561C33.4851 39.1133 31.38 40.3838 29.4034 42.9149C29.1971 43.1795 29.0862 43.5045 29.0862 43.8391V47.415C27.4072 46.2593 25.8294 45.7944 24.3118 45.9986C22.3877 46.2593 20.7515 47.594 19.4499 49.9695C19.339 50.1718 19.2768 50.3975 19.267 50.6271L17.6328 89.3844L10.9012 79.8493C10.7027 79.5691 10.4148 79.3648 10.0821 79.2714C5.53534 77.9893 2.22012 78.3765 0.74734 80.359C-0.0989744 81.4972 -0.65151 83.5692 1.51583 86.9739C1.53918 87.0108 1.56447 87.0459 1.59171 87.0809C6.20266 93.0926 8.49647 99.3554 10.9245 105.984C12.7611 110.999 14.6619 116.186 17.66 121.288C20.055 125.28 22.9052 127.9 26.1446 129.093L26.1874 133.801H22.9753C22.1464 133.801 21.4752 134.473 21.4752 135.301V148.5C21.4752 149.329 22.1464 150 22.9753 150H56.9621C57.7909 150 58.4621 149.329 58.4621 148.5V135.301C58.4621 134.473 57.7909 133.801 56.9621 133.801H53.7305L53.7811 125.685C61.5419 115.84 60.5147 99.2581 59.5205 83.2131L59.5224 83.2151ZM55.4621 147H24.4753V136.801H27.701H27.7146H52.2091H52.2188H55.4582V147H55.4621ZM29.1874 133.801L29.1349 127.978C29.129 127.301 28.6699 126.712 28.0142 126.541C25.057 125.766 22.5122 123.544 20.2398 119.756C17.3876 114.9 15.5335 109.842 13.7417 104.953C11.3486 98.4215 8.87585 91.6704 4.01392 85.3104C2.9283 83.5867 2.87188 82.5322 3.15593 82.1489C3.63843 81.501 5.58592 81.2092 8.76301 82.0244L17.7106 94.6997C17.9013 94.9759 18.1814 95.1841 18.5122 95.2833C28.3742 98.5013 34.5493 105.138 35.0318 113.04C35.0824 113.867 35.7925 114.498 36.6194 114.447C37.4463 114.396 38.0766 113.686 38.026 112.859C37.4852 103.974 30.9578 96.5363 20.4927 92.7911L22.2496 51.1193C23.02 49.8119 23.8488 49.0921 24.7146 48.9753C25.8469 48.8255 27.3586 49.668 29.0882 51.345V82.7715C29.0882 83.6003 29.7594 84.2715 30.5882 84.2715C31.417 84.2715 32.0882 83.6003 32.0882 82.7715V44.3722C33.3373 42.8838 34.5221 42.1465 35.5999 42.1581C36.7712 42.1776 38.0474 43.0803 39.3996 44.8391L39.8237 51.4248V85.0244C39.8237 85.8532 40.4949 86.5245 41.3237 86.5245C42.1525 86.5245 42.8238 85.8532 42.8238 85.0244V52.0162C43.9191 50.952 44.925 50.4014 45.8102 50.4384C46.6682 50.4773 47.5748 51.0532 48.5145 52.1524L48.7324 63.5008V87.7988C48.7324 88.6276 49.4036 89.2988 50.2324 89.2988C51.0612 89.2988 51.7324 88.6276 51.7324 87.7988V64.0748C52.5924 63.1565 53.4756 62.6642 54.2033 62.7654C54.8706 62.8568 55.501 63.4483 56.001 64.4405C55.7111 70.1624 56.1099 76.5983 56.5302 83.4019C57.5029 99.0947 58.5068 115.323 51.1351 124.194C50.9134 124.461 50.7908 124.797 50.7888 125.144L50.7344 133.805H29.1913L29.1874 133.801ZM67.04 57.4657C85.3204 43.129 94.9801 30.7027 96.4879 19.5781C96.4937 19.5528 96.5093 19.5333 96.5132 19.5061C96.5209 19.4594 96.5171 19.4108 96.5248 19.3641C96.628 18.5508 96.696 17.7454 96.7116 16.9457C96.7116 16.9438 96.7116 16.9399 96.7116 16.938C96.7116 16.9302 96.7116 16.9243 96.7116 16.9166C96.7116 7.58959 89.122 0 79.795 0C74.3144 0 69.2735 2.62455 66.1178 6.97285C62.9621 2.62455 57.9212 0 52.4406 0C43.1136 0 35.5241 7.58959 35.5241 16.9166C35.5241 16.9243 35.5241 16.9302 35.5241 16.938C35.5241 16.9399 35.5241 16.9419 35.5241 16.9457C35.5396 17.7454 35.6077 18.5508 35.7108 19.3641C35.7167 19.4108 35.7147 19.4594 35.7225 19.5061C35.7264 19.5314 35.742 19.5528 35.7478 19.5781C37.2556 30.7027 46.9133 43.129 65.1956 57.4657C65.256 57.5124 65.326 57.5338 65.3902 57.5708C65.4427 57.6 65.4914 57.6311 65.5458 57.6544C65.7326 57.7323 65.9252 57.7848 66.1198 57.7848C66.3163 57.7848 66.5089 57.7323 66.6937 57.6544C66.7501 57.6311 66.7968 57.6 66.8494 57.5708C66.9136 57.5338 66.9836 57.5124 67.0439 57.4657H67.04ZM38.6797 19.0158C38.5961 18.4594 38.5669 17.8893 38.5513 17.3212C38.5455 17.1831 38.5241 17.0411 38.5221 16.9029C38.5299 9.23553 44.7693 3.00198 52.4387 3.00198C57.645 3.00198 62.3765 5.87167 64.7871 10.4924C64.8104 10.539 64.8532 10.5663 64.8824 10.6091C64.9388 10.6947 64.9991 10.7706 65.0731 10.8445C65.147 10.9184 65.2229 10.9787 65.3085 11.0352C65.3513 11.0624 65.3785 11.1052 65.4252 11.1305C65.4641 11.1519 65.5089 11.1499 65.5478 11.1655C65.6431 11.2064 65.7385 11.2317 65.8416 11.2511C65.935 11.2686 66.0244 11.2822 66.1198 11.2822C66.2132 11.2822 66.3027 11.2686 66.396 11.2511C66.4992 11.2317 66.5945 11.2064 66.6898 11.1655C66.7307 11.148 66.7735 11.1499 66.8124 11.1305C66.8591 11.1071 66.8863 11.0643 66.9291 11.0371C67.0147 10.9807 67.0906 10.9204 67.1645 10.8464C67.2365 10.7725 67.2988 10.6986 67.3533 10.613C67.3824 10.5702 67.4233 10.5429 67.4486 10.4962C69.8591 5.87556 74.5907 3.00588 79.797 3.00588C87.4663 3.00588 93.7038 9.24136 93.7135 16.9068C93.7116 17.045 93.6882 17.187 93.6843 17.3251C93.6688 17.8932 93.6396 18.4613 93.5559 19.0197C92.2758 29.1677 83.2562 40.769 66.1198 54.3665C48.9853 40.769 39.9657 29.1677 38.6836 19.0197L38.6797 19.0158ZM79.1627 10.4281C79.1413 9.59934 79.797 8.91257 80.6239 8.89117C83.3963 8.82307 85.9294 10.0021 87.5811 12.1286C89.5656 14.6811 90.1006 18.2921 89.0481 22.0334C88.8613 22.6948 88.2601 23.1268 87.6045 23.1268C87.4702 23.1268 87.3341 23.1092 87.1979 23.0703C86.4002 22.8466 85.9352 22.0178 86.1609 21.2201C86.9527 18.4049 86.6084 15.7609 85.2134 13.9691C84.1356 12.5819 82.5324 11.8484 80.6997 11.8912C79.8709 11.9146 79.1841 11.257 79.1627 10.4301V10.4281Z" fill="#053662"/>
</svg>
