<svg width="163" height="150" viewBox="0 0 163 150" fill="none" xmlns="http://www.w3.org/2000/svg">
<path fill-rule="evenodd" clip-rule="evenodd" d="M66.0206 115.141C65.7758 114.761 65.4375 114.448 65.037 114.23C64.6365 114.013 64.1868 113.898 63.7293 113.897H20.6888C12.5204 113.897 6 107.496 6 99.4194V20.4985C6 12.4213 12.5204 6 20.6888 6H138.332C146.501 6 153 12.4204 153 20.4985V99.4194C153 107.497 146.501 113.897 138.332 113.897H95.276C94.8185 113.898 94.3688 114.013 93.9683 114.23C93.5678 114.448 93.2296 114.761 92.9847 115.141L79.5027 136L66.0206 115.141ZM106.648 66.4294C106.612 66.7486 106.571 67.0664 106.526 67.3826C104.584 80.8502 93.7551 91.5379 79.5027 91.5377C65.2503 91.5378 54.4209 80.8501 52.4798 67.3826C52.4342 67.0664 52.3935 66.7486 52.3578 66.4294H106.648ZM59.8697 40.5318C59.8697 36.8823 56.9154 33.9725 53.1978 33.9725C49.4802 33.9725 46.5259 36.8823 46.5259 40.5318C46.5259 44.1814 49.4802 47.0702 53.1978 47.0702C56.9154 47.0702 59.8697 44.1814 59.8697 40.5318ZM112.474 40.5318C112.474 36.8823 109.52 33.9725 105.802 33.9725C102.085 33.9725 99.1303 36.8823 99.1303 40.5318C99.1303 44.1814 102.085 47.0702 105.802 47.0702C109.52 47.0702 112.474 44.1814 112.474 40.5318Z" fill="#C1DDFC"/>
<path d="M20.742 0C9.29232 1.06101e-05 0 9.34779 0 20.8242V103.617C0 115.093 9.29232 124.419 20.742 124.419H63.5747L79.0366 148.708C79.2907 149.104 79.6403 149.43 80.0532 149.656C80.4661 149.882 80.9292 150 81.3997 150C81.8703 150 82.3334 149.882 82.7463 149.656C83.1592 149.43 83.5088 149.104 83.7629 148.708L99.2193 124.419H142.074C153.524 124.419 162.816 115.092 162.816 103.617V20.8242C162.816 9.34883 153.524 1.06101e-05 142.074 0H20.742ZM20.742 5.61452H142.074C150.499 5.61452 157.201 12.3498 157.201 20.8242V103.617C157.201 112.091 150.499 118.804 142.074 118.804H97.6676C97.1958 118.806 96.732 118.926 96.3189 119.154C95.9059 119.382 95.557 119.711 95.3045 120.109L81.3997 141.992L67.495 120.109C67.2425 119.711 66.8936 119.382 66.4806 119.154C66.0675 118.926 65.6037 118.806 65.1319 118.804H20.742C12.3174 118.804 5.5926 112.09 5.5926 103.617V20.8242C5.5926 12.3509 12.3174 5.61452 20.742 5.61452ZM54.2702 29.3447C47.4037 29.3447 41.7745 34.9754 41.7745 41.8403C41.7745 48.7052 47.4037 54.314 54.2702 54.314C61.1366 54.314 66.7658 48.7052 66.7658 41.8403C66.7658 34.9754 61.1366 29.3447 54.2702 29.3447ZM108.524 29.3447C101.657 29.3447 96.0282 34.9754 96.0282 41.8403C96.0282 48.7052 101.657 54.314 108.524 54.314C115.39 54.314 121.019 48.7052 121.019 41.8403C121.019 34.9754 115.39 29.3447 108.524 29.3447ZM54.2702 34.9592C58.1043 34.9592 61.1512 38.0117 61.1512 41.8403C61.1512 45.6689 58.1043 48.6995 54.2702 48.6995C50.436 48.6995 47.3891 45.6689 47.3891 41.8403C47.3891 38.0117 50.436 34.9592 54.2702 34.9592ZM108.524 34.9592C112.358 34.9592 115.405 38.0117 115.405 41.8403C115.405 45.6689 112.358 48.6995 108.524 48.6995C104.69 48.6995 101.643 45.6689 101.643 41.8403C101.643 38.0117 104.69 34.9592 108.524 34.9592ZM49.4232 63.4102C48.6816 63.4132 47.9712 63.7095 47.4473 64.2344C46.9234 64.7594 46.6285 65.4703 46.6269 66.212C46.6267 85.3747 62.2274 100.963 81.3997 100.963C100.572 100.963 116.173 85.3748 116.173 66.212C116.171 65.4703 115.876 64.7594 115.352 64.2344C114.828 63.7095 114.118 63.4132 113.376 63.4102H49.4232ZM53.4039 69.0083H109.396C107.79 83.6037 96.4442 95.3485 81.3997 95.3483C66.3553 95.3484 55.0091 83.6037 53.4039 69.0083Z" fill="#053662"/>
</svg>
