<svg width="70" height="60" viewBox="0 0 70 60" fill="none" xmlns="http://www.w3.org/2000/svg">
<path d="M30.2595 35.0771V48.8836C30.2595 50.7636 31.082 51.5273 31.787 52.0561L36.4871 55.4637C37.4271 56.1099 38.4259 56.3449 39.3659 56.3449H56.5799C59.1062 56.3449 60.575 54.6999 61.28 51.8799L67.3141 31.2037C68.0191 27.9137 66.3542 25.8038 60.7141 25.8038H52.8198V18.0981C52.8198 11.8705 51.9918 7.9175 48.1142 7.8C44.8242 7.74125 47.8256 15.947 42.7143 20.9996L32.1395 30.2595C30.377 32.0221 30.2595 32.8446 30.2595 35.0771Z" fill="#B7F0C4"/>
<path fill-rule="evenodd" clip-rule="evenodd" d="M7.1012 31.2042H17.1278C18.3545 31.2042 19.3144 32.0807 19.3144 33.2311V54.4318C19.3144 55.5275 18.3545 56.404 17.1278 56.404H7.1012C5.87454 56.404 4.91455 55.5275 4.91455 54.4318L4.91455 33.1763C4.91455 32.0807 5.87454 31.2042 7.1012 31.2042Z" fill="#B7F0C4"/>
<path d="M62.2184 53.9704L62.2184 53.9704L62.2156 53.9816C61.8125 55.5939 61.2301 56.7002 60.5314 57.3922C59.8717 58.0456 59.0134 58.4267 57.7957 58.4267H36.2782C35.3665 58.4267 34.4299 58.2035 33.544 57.599L27.6953 53.3587C27.3127 53.071 27.0232 52.8088 26.8074 52.4474C26.598 52.0966 26.3953 51.5439 26.3953 50.6V33.342C26.3953 31.9222 26.4438 31.2163 26.658 30.6115C26.8594 30.043 27.2617 29.4254 28.3027 28.3839C28.3038 28.3829 28.3049 28.3818 28.306 28.3807L40.0494 16.7841L40.05 16.7835C43.6137 13.2608 44.4741 8.87851 45.0008 5.7088C45.0361 5.49652 45.0695 5.29267 45.1016 5.09692C45.324 3.74041 45.4827 2.77264 45.7522 2.08398C45.8941 1.72126 46.013 1.59172 46.0609 1.5521C46.0615 1.55158 46.0622 1.55095 46.063 1.55024C46.077 1.53795 46.122 1.49844 46.3045 1.50056C47.2931 1.53201 48.0506 1.76432 48.6481 2.13561C49.2477 2.50814 49.7715 3.07347 50.2106 3.89951C51.1171 5.60495 51.5956 8.29414 51.5956 12.1183V22.62V24.12H53.0956H61.9817C65.1053 24.12 66.6507 25.2277 67.422 26.4876C68.2505 27.8408 68.3962 29.7095 68.012 31.5296L62.2184 53.9704Z" stroke="#42814A" stroke-width="3"/>
<path d="M3.01098 27.7189H16.8174C17.8334 27.7189 18.3284 28.3696 18.3284 28.9361L18.3284 57.3568C18.3284 57.8247 17.8617 58.5006 16.8174 58.5006H3.01098C1.9667 58.5006 1.5 57.8247 1.5 57.3568L1.5 28.8627C1.5 28.3947 1.9667 27.7189 3.01098 27.7189Z" stroke="#42814A" stroke-width="3"/>
</svg>
