<svg width="35" height="30" viewBox="0 0 35 30" fill="none" xmlns="http://www.w3.org/2000/svg">
<path d="M22.5521 13.3291L22.5521 4.70005C22.5521 3.52502 22.0381 3.04767 21.5974 2.7172L18.6599 0.587463C18.0723 0.183548 17.4481 0.03667 16.8606 0.03667H6.10179C4.52285 0.03667 3.60486 1.06482 3.16422 2.82735L0.263383 14.0635C-0.177252 16.1198 0.483698 18.6902 4.00877 18.6902H8.45183L8.45183 23.9411C8.45183 27.8333 9.40654 29.9263 11.83 29.9998C13.8863 30.0365 12.3074 25.2997 15.502 22.1418L21.3771 16.3401C22.4787 15.2385 22.5521 14.7245 22.5521 13.3291Z" fill="#CE3E39"/>
<path fill-rule="evenodd" clip-rule="evenodd" d="M33.4945 16.8906H26.5912C25.7467 16.8906 25.0857 16.3031 25.0857 15.532V1.32155C25.0857 0.587162 25.7467 -0.000349581 26.5912 -0.000349581H33.4945C34.339 -0.000349581 35 0.587162 35 1.32155V15.5687C35 16.3031 34.339 16.8906 33.4945 16.8906Z" fill="#CE3E39"/>
</svg>
