<svg width="35" height="30" viewBox="0 0 35 30" fill="none" xmlns="http://www.w3.org/2000/svg">
<path d="M12.4479 16.6709V25.3C12.4479 26.475 12.9619 26.9523 13.4026 27.2828L16.3401 29.4125C16.9277 29.8165 17.5519 29.9633 18.1394 29.9633H28.8982C30.4772 29.9633 31.3951 28.9352 31.8358 27.1726L34.7366 15.9365C35.1773 13.8802 34.5163 11.3098 30.9912 11.3098H26.5482V6.05893C26.5482 2.16666 25.5935 0.0736512 23.17 0.000212206C21.1137 -0.0365073 22.6926 4.70031 19.498 7.85819L13.6229 13.6599C12.5213 14.7615 12.4479 15.2755 12.4479 16.6709Z" fill="#42814A"/>
<path fill-rule="evenodd" clip-rule="evenodd" d="M1.5055 13.1094H8.40877C9.25332 13.1094 9.91427 13.6969 9.91427 14.468V28.6784C9.91427 29.4128 9.25332 30.0003 8.40877 30.0003H1.5055C0.660951 30.0003 0 29.4128 0 28.6784V14.4313C0 13.6969 0.660951 13.1094 1.5055 13.1094Z" fill="#42814A"/>
</svg>
