<svg width="70" height="60" viewBox="0 0 70 60" fill="none" xmlns="http://www.w3.org/2000/svg">
<path d="M39.4546 24.9227L39.4546 11.1162C39.4546 9.23612 38.6321 8.47236 37.9271 7.9436L33.227 4.53604C32.287 3.88978 31.2882 3.65477 30.3482 3.65477H13.1341C10.6078 3.65477 9.13904 5.29981 8.43403 8.11986L2.39988 28.7961C1.69487 32.0861 3.35976 34.196 8.99986 34.196H16.8942V41.9017C16.8942 48.1293 17.7222 52.0824 21.5998 52.1999C24.8899 52.2586 21.8885 44.0528 26.9998 39.0002L37.5746 29.7403C39.3371 27.9777 39.4546 27.1552 39.4546 24.9227Z" fill="#FFA7AC"/>
<path fill-rule="evenodd" clip-rule="evenodd" d="M62.6129 28.7959H52.5863C51.3596 28.7959 50.3996 27.9194 50.3996 26.769V5.56815C50.3996 4.47251 51.3596 3.59599 52.5863 3.59599H62.6129C63.8396 3.59599 64.7996 4.47251 64.7996 5.56815V26.8237C64.7996 27.9194 63.8396 28.7959 62.6129 28.7959Z" fill="#FFA7AC"/>
<path d="M7.49556 6.02987L7.49561 6.02988L7.4984 6.01871C7.90147 4.4064 8.48386 3.30012 9.18258 2.60806C9.84227 1.95465 10.7006 1.57355 11.9183 1.57355H33.4358C34.3476 1.57355 35.2842 1.79675 36.1701 2.40131L42.0188 6.64163C42.4014 6.92925 42.6909 7.1915 42.9067 7.55294C43.1161 7.90368 43.3188 8.45635 43.3188 9.40028L43.3188 26.6584C43.3188 28.0782 43.2703 28.784 43.0561 29.3889C42.8547 29.9574 42.4524 30.575 41.4114 31.6165C41.4103 31.6175 41.4092 31.6186 41.4081 31.6197L29.6646 43.2164L29.6641 43.2169C26.1004 46.7397 25.24 51.1219 24.7132 54.2917C24.678 54.5039 24.6445 54.7078 24.6124 54.9035C24.39 56.2601 24.2313 57.2278 23.9619 57.9165C23.8199 58.2792 23.7011 58.4088 23.6532 58.4484C23.6525 58.4489 23.6518 58.4495 23.651 58.4503C23.637 58.4625 23.592 58.502 23.4095 58.4999C22.4209 58.4685 21.6635 58.2362 21.0659 57.8649C20.4663 57.4923 19.9425 56.927 19.5035 56.101C18.597 54.3955 18.1184 51.7063 18.1184 47.8822L18.1184 37.3804V35.8804H16.6184H7.73227C4.60862 35.8804 3.06327 34.7727 2.2919 33.5128C1.46344 32.1596 1.31777 30.291 1.70197 28.4709L7.49556 6.02987Z" stroke="#CE3E39" stroke-width="3"/>
<path d="M66.7031 32.2812H52.8966C51.8806 32.2812 51.3856 31.6305 51.3856 31.064V2.64322C51.3856 2.17528 51.8523 1.49942 52.8966 1.49942H66.7031C67.7474 1.49942 68.2141 2.17528 68.2141 2.64322V31.1375C68.2141 31.6054 67.7474 32.2812 66.7031 32.2812Z" stroke="#CE3E39" stroke-width="3"/>
</svg>
