<?xml version="1.0" encoding="utf-8"?>
<svg version="1.1" xmlns:xlink="http://www.w3.org/1999/xlink" width="8px" height="14px" xmlns="http://www.w3.org/2000/svg">
  <g transform="matrix(1 0 0 1 -1101 -2539 )">
    <path d="M 0.328868416666669 1.75702179166666  L 5.630711875 7.05886525  L 0.328868416666667 12.3607086666667  C 0.00244424999999993 12.687132875  0.00197412499999849 13.2152404833333  0.327411 13.5406773916667  C 0.655116791666666 13.8683831875  1.18113791666667 13.8654618  1.50737970833333 13.5392199875  L 7.39702141666667 7.64957829166667  C 7.397264375 7.64933533333333  7.39750716666667 7.64909225  7.39774979166667 7.64884904166667  C 7.39799279166667 7.648606625  7.398235875 7.64836383333333  7.39847883333333 7.648120875  C 7.56208791666667 7.48451179166667  7.643286 7.27147133333333  7.642982375 7.0585395  C 7.64219695833333 6.845079125  7.560955125 6.632085875  7.39847883333333 6.46960958333333  C 7.398235875 6.469366625  7.39799279166667 6.46912383333333  7.39774958333333 6.46888120833333  C 7.39750716666667 6.46863820833333  7.397264375 6.468395125  7.39702141666667 6.46815216666667  L 1.50737970833334 0.578510458333334  C 1.18095554166667 0.252086291666664  0.652847916666667 0.251616166666665  0.327411000000001 0.577053083333332  C -0.000294791666664906 0.904758874999999  0.00262662500000133 1.43077995833333  0.328868416666669 1.75702179166666  Z " fill-rule="nonzero" fill="#2e6ab0" stroke="none" transform="matrix(1 0 0 1 1101 2539 )" />
  </g>
</svg>