<?xml version="1.0" encoding="utf-8"?>
<svg version="1.1" xmlns:xlink="http://www.w3.org/1999/xlink" width="8px" height="14px" xmlns="http://www.w3.org/2000/svg">
  <g transform="matrix(1 0 0 1 -10 -101 )">
    <path d="M 7.67113158333333 1.75702179166666  L 2.369288125 7.05886525  L 7.67113158333333 12.3607086666667  C 7.99755575 12.687132875  7.998025875 13.2152404833333  7.672589 13.5406773916667  C 7.34488320833333 13.8683831875  6.81886208333333 13.8654618  6.49262029166667 13.5392199875  L 0.602978583333332 7.64957829166667  C 0.602735624999999 7.64933533333333  0.602492833333333 7.64909225  0.602250208333333 7.64884904166667  C 0.602007208333333 7.648606625  0.601764124999999 7.64836383333333  0.601521166666666 7.648120875  C 0.437912083333332 7.48451179166667  0.356714 7.27147133333333  0.357017624999999 7.0585395  C 0.357803041666667 6.845079125  0.439044875 6.632085875  0.601521166666666 6.46960958333333  C 0.601764124999999 6.469366625  0.602007208333333 6.46912383333333  0.602250416666667 6.46888120833333  C 0.602492833333333 6.46863820833333  0.602735624999999 6.468395125  0.602978583333332 6.46815216666667  L 6.49262029166666 0.578510458333334  C 6.81904445833333 0.252086291666664  7.34715208333333 0.251616166666665  7.672589 0.577053083333332  C 8.00029479166666 0.904758874999999  7.997373375 1.43077995833333  7.67113158333333 1.75702179166666  Z " fill-rule="nonzero" fill="#2e6ab0" stroke="none" transform="matrix(1 0 0 1 10 101 )" />
  </g>
</svg>