<svg xmlns="http://www.w3.org/2000/svg" width="16.008" height="15.842" viewBox="0 0 16.008 15.842">
  <path id="clock-date-calendar-icon_1_" data-name="clock-date-calendar-icon (1)" d="M9.2.535A.6.6,0,0,1,9.856,0a.6.6,0,0,1,.653.535V2.876a.6.6,0,0,1-.653.535A.6.6,0,0,1,9.2,2.876Zm1.84,9.432h.56a.187.187,0,0,1,.186.186v1.778H13.3a.188.188,0,0,1,.187.187v.561a.187.187,0,0,1-.187.187H10.855V10.154a.188.188,0,0,1,.188-.186Zm.775-2.52a4.2,4.2,0,0,1,2.968,7.165l-.021.02a4.2,4.2,0,0,1-5.914-.02l-.02-.022a4.2,4.2,0,0,1,2.988-7.144ZM14.278,9.18a3.484,3.484,0,0,0-4.945,4.91l.019.017a3.486,3.486,0,0,0,4.91.018l.017-.018a3.485,3.485,0,0,0,0-4.928Zm-12.5-1.6c-.037,0-.07-.163-.07-.362s.029-.361.07-.361h1.78c.037,0,.07.163.07.361s-.029.362-.07.362Zm2.839,0c-.037,0-.07-.163-.07-.362s.029-.361.07-.361H6.4c.037,0,.07.163.07.361s-.029.362-.07.362Zm2.839,0c-.036,0-.069-.163-.069-.362s.029-.361.069-.361h1.78c.037,0,.07.161.07.359a5.431,5.431,0,0,0-.514.363H7.455ZM1.781,9.65c-.037,0-.07-.163-.07-.362s.029-.362.07-.362H3.562c.037,0,.069.163.069.362s-.028.362-.069.362Zm2.839,0c-.037,0-.07-.163-.07-.362s.029-.362.07-.362H6.4c.037,0,.07.163.07.362s-.029.362-.07.362ZM1.785,11.723c-.037,0-.07-.163-.07-.362S1.744,11,1.785,11H3.566c.037,0,.07.163.07.362s-.029.362-.07.362Zm2.84,0c-.037,0-.07-.163-.07-.362S4.583,11,4.624,11H6.405c.037,0,.07.163.07.362s-.029.362-.07.362ZM3.342.535A.6.6,0,0,1,3.994,0a.6.6,0,0,1,.652.535V2.876a.6.6,0,0,1-.652.535.6.6,0,0,1-.652-.535ZM.718,5.119h12.43v-2.7a.326.326,0,0,0-.1-.232.331.331,0,0,0-.232-.1H11.628a.362.362,0,1,1,0-.724H12.82a1.056,1.056,0,0,1,1.054,1.054V6.7a5.428,5.428,0,0,0-.733-.2V5.838H.718v6.981a.325.325,0,0,0,.1.232.333.333,0,0,0,.233.1h5.9a5.358,5.358,0,0,0,.254.73H1.054a1.049,1.049,0,0,1-.746-.309A1.04,1.04,0,0,1,0,12.825V2.426A1.055,1.055,0,0,1,1.054,1.372H2.327a.362.362,0,0,1,0,.724H1.054a.325.325,0,0,0-.233.1.332.332,0,0,0-.1.232v2.7h0ZM5.69,2.094a.362.362,0,1,1,0-.724H8.116a.362.362,0,1,1,0,.724Z" transform="translate(0 0.003)" fill="#009cde"/>
</svg>
