<svg height='100px' width='100px'  fill="#fffffe" xmlns="http://www.w3.org/2000/svg" viewBox="0 0 32 32" x="0px" y="0px"><title>graph down, Basic , UI , Essential</title><g><path d="M27,30H5a3,3,0,0,1-3-3V7a3,3,0,0,1,.88-2.12A3,3,0,0,1,5,4H5L27,4a3,3,0,0,1,3,3V27A3,3,0,0,1,27,30ZM5,6a1,1,0,0,0-.71.3A1,1,0,0,0,4,7V27a1,1,0,0,0,1,1H27a1,1,0,0,0,1-1V7a1,1,0,0,0-1-1L5,6Z"></path><path d="M7,8A1,1,0,0,1,6,7V3A1,1,0,0,1,8,3V7A1,1,0,0,1,7,8Z"></path><path d="M25,8a1,1,0,0,1-1-1V3a1,1,0,0,1,2,0V7A1,1,0,0,1,25,8Z"></path><path d="M29,12H3a1,1,0,0,1,0-2H29a1,1,0,0,1,0,2Z"></path></g></svg>