<svg aria-hidden="true" style="position: absolute; width: 0; height: 0; overflow: hidden;" version="1.1" xmlns="http://www.w3.org/2000/svg" xmlns:xlink="http://www.w3.org/1999/xlink">
  <defs>
    <symbol id="Listview" viewBox="0 0 17 10.5" style="enable-background:new 0 0 487.3 487.3;" xml:space="preserve">
    <title>List View</title>
      <g transform="translate(-841 -236.75)">
        <circle cx="1.25" cy="1.25" r="1.25" transform="translate(841 236.75)"/>
        <circle id="Ellipse_2" data-name="Ellipse 2" cx="1.25" cy="1.25" r="1.25" transform="translate(841 240.75)"/>
        <circle cx="1.25" cy="1.25" r="1.25" transform="translate(841 244.75)"/>
        <rect width="13" height="2" rx="0.5" transform="translate(845 237)"/>
        <rect width="13" height="2" rx="0.5" transform="translate(845 241)"/>
        <rect width="13" height="2" rx="0.5" transform="translate(845 245)"/>
      </g>
    </symbol>
    <symbol id="calendar_icon" viewBox="0 0 122.88 122.88" style="enable-background:new 0 0 487.3 487.3;" xml:space="preserve">
      <title>calendar_icon</title>
      <g><path d="M81.61,4.73c0-2.61,2.58-4.73,5.77-4.73s5.77,2.12,5.77,4.73v20.72c0,2.61-2.58,4.73-5.77,4.73s-5.77-2.12-5.77-4.73V4.73 L81.61,4.73z M29.61,4.73c0-2.61,2.58-4.73,5.77-4.73s5.77,2.12,5.77,4.73v20.72c0,2.61-2.58,4.73-5.77,4.73s-5.77-2.12-5.77-4.73 V4.73L29.61,4.73z M6.4,45.32h110.08V21.47c0-0.8-0.33-1.53-0.86-2.07c-0.53-0.53-1.26-0.86-2.07-0.86H103 c-1.77,0-3.2-1.43-3.2-3.2c0-1.77,1.43-3.2,3.2-3.2h10.55c2.57,0,4.9,1.05,6.59,2.74c1.69,1.69,2.74,4.02,2.74,6.59v27.06v65.03 c0,2.57-1.05,4.9-2.74,6.59c-1.69,1.69-4.02,2.74-6.59,2.74H9.33c-2.57,0-4.9-1.05-6.59-2.74C1.05,118.45,0,116.12,0,113.55V48.53 V21.47c0-2.57,1.05-4.9,2.74-6.59c1.69-1.69,4.02-2.74,6.59-2.74H20.6c1.77,0,3.2,1.43,3.2,3.2c0,1.77-1.43,3.2-3.2,3.2H9.33 c-0.8,0-1.53,0.33-2.07,0.86c-0.53,0.53-0.86,1.26-0.86,2.07V45.32L6.4,45.32z M116.48,51.73H6.4v61.82c0,0.8,0.33,1.53,0.86,2.07 c0.53,0.53,1.26,0.86,2.07,0.86h104.22c0.8,0,1.53-0.33,2.07-0.86c0.53-0.53,0.86-1.26,0.86-2.07V51.73L116.48,51.73z M50.43,18.54 c-1.77,0-3.2-1.43-3.2-3.2c0-1.77,1.43-3.2,3.2-3.2h21.49c1.77,0,3.2,1.43,3.2,3.2c0,1.77-1.43,3.2-3.2,3.2H50.43L50.43,18.54z"/></g>
    </symbol>
  </defs>
</svg>