<?xml version="1.0" encoding="utf-8"?>
<svg version="1.1" xmlns:xlink="http://www.w3.org/1999/xlink" width="20px" height="25px" xmlns="http://www.w3.org/2000/svg">
  <g transform="matrix(1 0 0 1 -828 -123 )">
    <path d="M 19.0163944444444 9.298125  C 19.0163944444444 4.1705125  14.9385722222222 0  9.92483333333333 0  C 4.91116777777778 0  0.833333333333332 4.1705125  0.833333333333332 9.298125  C 0.833333333333332 11.116625  1.27182694444444 12.421125  2.19512111111111 13.817  L 9.40563333333333 24.71825  C 9.46307777777778 24.8050625  9.54044444444444 24.8760625  9.63095 24.9251875  C 9.72151666666667 24.9743125  9.82241111111111 25  9.92483333333333 25  C 10.0273166666667 25  10.1282111111111 24.9743125  10.2187166666667 24.9251875  C 10.3092833333333 24.8760625  10.38665 24.8050625  10.4440944444444 24.71825  L 17.6545944444444 13.817  C 18.5779222222222 12.421125  19.0163944444444 11.116625  19.0163944444444 9.298125  Z M 2.08733944444444 9.298125  C 2.08733944444444 4.8636375  5.58889 1.28250625  9.92483333333333 1.28250625  C 14.26085 1.28250625  17.7623944444444 4.8636375  17.7623944444444 9.298125  C 17.7623944444444 10.926  17.4495055555556 11.845625  16.6161333333333 13.1055625  L 9.92483333333333 23.2253125  L 3.23355777777778 13.1055625  C 2.40024055555555 11.845625  2.08733944444444 10.926  2.08733944444444 9.298125  Z M 14.3138944444444 8.9775  C 14.3138944444444 6.5060625  12.3414111111111 4.4887625  9.92483333333333 4.4887625  C 7.50831666666667 4.4887625  5.53584555555556 6.5060625  5.53584555555556 8.9775  C 5.53584555555556 11.449  7.50831666666667 13.4663125  9.92483333333333 13.4663125  C 12.3414111111111 13.4663125  14.3138944444444 11.449  14.3138944444444 8.9775  Z M 6.78985166666667 8.9775  C 6.78985166666667 7.1991875  8.18603888888889 5.77126875  9.92483333333333 5.77126875  C 11.6636888888889 5.77126875  13.0598944444444 7.1991875  13.0598944444444 8.9775  C 13.0598944444444 10.755875  11.6636888888889 12.1838125  9.92483333333333 12.1838125  C 8.18603888888889 12.1838125  6.78985166666667 10.755875  6.78985166666667 8.9775  Z " fill-rule="nonzero" fill="#029cdd" stroke="none" transform="matrix(1 0 0 1 828 123 )" />
  </g>
</svg>