<svg height='100px' width='100px'  fill="#029cdd" xmlns="http://www.w3.org/2000/svg" data-name="Layer 1" viewBox="0 0 512 512" x="0px" y="0px"><title>b1</title><g data-name="Group"><path data-name="Compound Path" d="M420,236.129V118.882C420,91.016,397.181,68,369.313,68H363V60.052a36,36,0,1,0-72,0V68H159V60.052a36.5,36.5,0,0,0-73,0V68H80.545C52.678,68,30,91.016,30,118.882V388.106C30,415.973,52.678,439,80.545,439H239.139A137.854,137.854,0,0,0,344.7,488.435c75.7,0,137.365-61.677,137.365-137.379C482.067,303.075,457,260.683,420,236.129ZM311,60.052A15.773,15.773,0,0,1,326.911,44h0A15.921,15.921,0,0,1,343,60.052V99H311Zm-205,0A16.226,16.226,0,0,1,122.444,44h0C131.438,44,139,51.059,139,60.052V99H106ZM80.545,88H86v21.416C86,114.938,90.612,119,96.135,119h52.62c5.522,0,10.245-4.062,10.245-9.584V88H291v21.416A9.32,9.32,0,0,0,300.6,119h52.62A9.466,9.466,0,0,0,363,109.416V88h6.313A31,31,0,0,1,400,118.882V151H50V118.882C50,102.043,63.706,88,80.545,88Zm0,331C63.706,419,50,404.945,50,388.106V171H400v54.254a137.242,137.242,0,0,0-55.224-11.578c-75.7,0-137.327,61.767-137.327,137.469A137.129,137.129,0,0,0,225.288,419ZM344.7,468.257a117.291,117.291,0,1,1,117.291-117.29A117.423,117.423,0,0,1,344.7,468.257Z"></path><path data-name="Path" d="M391.81,351H348V290.83a10,10,0,1,0-20,0v70.16A10.171,10.171,0,0,0,338.188,371H391.81a10,10,0,0,0,0-20Z"></path></g></svg>