<?xml version="1.0" encoding="utf-8"?>
<svg version="1.1" xmlns:xlink="http://www.w3.org/1999/xlink" width="18px" height="22px" xmlns="http://www.w3.org/2000/svg">
  <g transform="matrix(1 0 0 1 -23 -194 )">
    <path d="M 17.114755 8.18235  C 17.114755 3.670051  13.444715 0  8.93235 0  C 4.420051 0  0.749999999999999 3.670051  0.749999999999999 8.18235  C 0.749999999999999 9.78263  1.14464425 10.93059  1.975609 12.15896  L 8.46507 21.75206  C 8.51677 21.828455  8.5864 21.890935  8.667855 21.934165  C 8.749365 21.977395  8.84017 22  8.93235 22  C 9.024585 22  9.11539 21.977395  9.196845 21.934165  C 9.278355 21.890935  9.347985 21.828455  9.399685 21.75206  L 15.889135 12.15896  C 16.72013 10.93059  17.114755 9.78263  17.114755 8.18235  Z M 1.8786055 8.18235  C 1.8786055 4.280001  5.030001 1.1286055  8.93235 1.1286055  C 12.834765 1.1286055  15.986155 4.280001  15.986155 8.18235  C 15.986155 9.61488  15.704555 10.42415  14.95452 11.532895  L 8.93235 20.438275  L 2.910202 11.532895  C 2.1602165 10.42415  1.8786055 9.61488  1.8786055 8.18235  Z M 12.882505 7.9002  C 12.882505 5.725335  11.10727 3.950111  8.93235 3.950111  C 6.757485 3.950111  4.982261 5.725335  4.982261 7.9002  C 4.982261 10.07512  6.757485 11.850355  8.93235 11.850355  C 11.10727 11.850355  12.882505 10.07512  12.882505 7.9002  Z M 6.1108665 7.9002  C 6.1108665 6.335285  7.367435 5.0787165  8.93235 5.0787165  C 10.49732 5.0787165  11.753905 6.335285  11.753905 7.9002  C 11.753905 9.46517  10.49732 10.721755  8.93235 10.721755  C 7.367435 10.721755  6.1108665 9.46517  6.1108665 7.9002  Z " fill-rule="nonzero" fill="#029cdd" stroke="none" transform="matrix(1 0 0 1 23 194 )" />
  </g>
</svg>