<svg width="10" height="13" viewBox="0 0 10 13" fill="none" xmlns="http://www.w3.org/2000/svg">
<path d="M7.26147 0.125L7.45679 0.134766C8.42378 0.233001 9.17944 1.05129 9.17944 2.04395V10.4561C9.17944 11.5146 8.32 12.3748 7.26147 12.375H2.04468C0.985951 12.375 0.125732 11.5148 0.125732 10.4561V10.3311H0.132568L0.131592 9.72754L0.137451 9.66699C0.165029 9.53074 0.284368 9.4307 0.428467 9.43066C0.594466 9.43066 0.725342 9.56281 0.725342 9.72754V10.4492C0.72541 11.178 1.31606 11.7742 2.05054 11.7744H7.26831C7.99721 11.7743 8.59344 11.1838 8.59351 10.4492V2.04395C8.59351 1.31499 8.00296 0.718845 7.26831 0.71875H2.05151C1.32255 0.718818 0.726318 1.30926 0.726318 2.04395V2.4082C0.726134 2.57396 0.59395 2.70495 0.429443 2.70508C0.263561 2.70508 0.132753 2.57277 0.132568 2.4082V2.04395C0.132568 0.985367 0.992014 0.12524 2.05054 0.125H7.26147Z" fill="#2D2D2D" stroke="#2D2D2D" stroke-width="0.25"/>
<path d="M2.94824 3.60205C3.05525 3.48423 3.24399 3.47081 3.36523 3.57959L3.36426 3.58057L6.18066 6.02393L6.22656 6.07178C6.26628 6.12385 6.28711 6.18688 6.28711 6.25049C6.28695 6.3434 6.23614 6.42153 6.18848 6.46924L6.18164 6.4751L3.36426 8.92139L3.36328 8.92041C3.30735 8.9726 3.23523 8.99365 3.17188 8.99365C3.09146 8.99361 3.01241 8.95916 2.9541 8.89404L2.95312 8.896C2.82427 8.76836 2.8589 8.57433 2.97168 8.47314L2.97266 8.47217L5.19141 6.54736H0.421875C0.256107 6.54728 0.125241 6.41495 0.125 6.25049C0.125 6.08454 0.257221 5.95272 0.421875 5.95264H5.19141L2.97266 4.02783L2.97168 4.02686C2.85218 3.91964 2.83892 3.72411 2.94727 3.60303L2.94824 3.60205Z" fill="#2D2D2D" stroke="#2D2D2D" stroke-width="0.25"/>
</svg>
