<svg width="12" height="13" viewBox="0 0 12 13" fill="none" xmlns="http://www.w3.org/2000/svg">
<path d="M9.45874 0.100342C10.1223 0.100342 10.7239 0.369524 11.1589 0.804443C11.5946 1.24026 11.864 1.84203 11.864 2.50562C11.8639 3.16887 11.5946 3.76988 11.1599 4.20483C11.1377 4.22705 11.1137 4.24794 11.0906 4.26929C11.5398 5.29843 11.6737 6.43238 11.49 7.52319C11.2986 8.65759 10.7647 9.74548 9.89038 10.6199C8.7707 11.7396 7.30217 12.2996 5.83472 12.2996C4.3674 12.2995 2.89961 11.7395 1.78003 10.6199C0.660444 9.50029 0.100441 8.03251 0.100342 6.56519C0.100342 5.09774 0.660345 3.62921 1.78003 2.50952C2.57171 1.71788 3.53885 1.20513 4.55737 0.973389C5.53435 0.751032 6.55861 0.789889 7.52026 1.08472C7.59288 0.985783 7.67205 0.89191 7.75854 0.80542C8.19433 0.369827 8.79522 0.100379 9.45874 0.100342ZM7.82593 8.60229C7.5659 8.79581 7.2776 8.95576 6.96558 9.06812C6.61139 9.19532 6.22978 9.2644 5.83472 9.2644C5.43976 9.26436 5.05914 9.19467 4.70483 9.06714C4.39261 8.95485 4.10283 8.79709 3.84253 8.60327C3.51685 8.73142 3.22129 8.92093 2.97144 9.15796L2.86206 9.26831C2.59462 9.55242 2.38897 9.89418 2.2644 10.2712C3.2603 11.2315 4.54693 11.7125 5.83472 11.7126C7.12245 11.7126 8.40909 11.2312 9.40503 10.2712C9.28058 9.89454 9.07562 9.55238 8.80835 9.26831C8.53664 8.97939 8.20128 8.74967 7.82593 8.60229ZM7.22925 1.61011C6.39995 1.37785 5.52379 1.35405 4.68628 1.54468C3.77437 1.75216 2.90702 2.21265 2.19507 2.92456C1.18999 3.92964 0.687256 5.24752 0.687256 6.56519C0.687341 7.70774 1.06629 8.84928 1.82202 9.78784C1.97369 9.44599 2.18267 9.13443 2.4353 8.86597C2.80725 8.47073 3.27628 8.167 3.80249 7.9939C3.90469 7.96028 4.01152 7.98605 4.08667 8.05151C4.32849 8.25053 4.60445 8.40925 4.9021 8.51636C5.19178 8.62051 5.50605 8.67745 5.83472 8.67749C6.16355 8.67749 6.47779 8.62031 6.76733 8.51636C7.06801 8.40805 7.34637 8.24807 7.5896 8.04663C7.65002 7.99671 7.72427 7.9752 7.79663 7.98022L7.86792 7.9939L8.06226 8.06519C8.50969 8.24473 8.90957 8.52092 9.23511 8.86694C9.48708 9.13474 9.69497 9.44503 9.84644 9.78589C10.412 9.08363 10.7696 8.27035 10.9119 7.42651C11.0702 6.48728 10.9638 5.51364 10.6003 4.62085C10.2604 4.80484 9.87165 4.90991 9.45874 4.90991C8.79521 4.90987 8.19359 4.6407 7.75854 4.20581C7.3231 3.7701 7.05359 3.16894 7.05347 2.50562C7.05347 2.18913 7.11781 1.88725 7.22925 1.61011ZM5.83472 3.82495C6.41415 3.82495 6.94002 4.06033 7.32007 4.44019L7.45581 4.5896C7.75591 4.9527 7.93628 5.41902 7.93628 5.92651C7.93616 6.50572 7.70074 7.03094 7.32104 7.41089C6.94025 7.79153 6.41421 8.0271 5.83472 8.0271C5.25484 8.02699 4.72921 7.7917 4.34937 7.41187L4.34644 7.40894L4.33569 7.39722V7.39624C3.96411 7.01735 3.73424 6.49847 3.73413 5.92651C3.73413 5.3472 3.96933 4.82151 4.34937 4.44116L4.35034 4.44019C4.7306 4.06057 5.25571 3.82506 5.83472 3.82495ZM5.83472 4.41187C5.41622 4.41197 5.03763 4.58096 4.7644 4.85425C4.49015 5.12836 4.32104 5.50781 4.32104 5.92651C4.32116 6.33873 4.48596 6.71217 4.75269 6.98511L4.7644 6.99683C5.03818 7.27059 5.41685 7.44008 5.83472 7.44019C6.25308 7.44019 6.63216 7.27053 6.90601 6.99683C7.17956 6.72308 7.34925 6.34466 7.34937 5.92651C7.34937 5.50852 7.17972 5.12926 6.90601 4.85522C6.63233 4.58141 6.25309 4.41187 5.83472 4.41187ZM9.45874 0.687256C8.95645 0.687293 8.50158 0.89065 8.17261 1.21948C7.84393 1.54846 7.64038 2.00343 7.64038 2.50562C7.6405 3.00761 7.84405 3.46189 8.17261 3.79077C8.50158 4.1196 8.95645 4.32296 9.45874 4.323C9.96109 4.323 10.4159 4.11963 10.7449 3.79077C11.0735 3.46188 11.277 3.00768 11.2771 2.50562C11.2771 2.00336 11.0736 1.54848 10.7449 1.21948C10.4159 0.89062 9.96109 0.687256 9.45874 0.687256ZM9.45874 1.14526C9.62034 1.14526 9.75171 1.27663 9.75171 1.43823V2.21167H10.5261C10.6881 2.21183 10.8191 2.34365 10.8191 2.50562C10.8188 2.66737 10.6879 2.79843 10.5261 2.79858H9.75171V3.57202C9.75171 3.73362 9.62034 3.86498 9.45874 3.86499C9.29714 3.86499 9.16577 3.73363 9.16577 3.57202V2.79858H8.39136C8.22964 2.79836 8.09864 2.66733 8.09839 2.50562C8.09839 2.34369 8.22949 2.21189 8.39136 2.21167H9.16577V1.43823C9.16577 1.27673 9.29727 1.14542 9.45874 1.14526Z" fill="#2D2D2D" stroke="#2D2D2D" stroke-width="0.2"/>
</svg>
