<svg width="14" height="13" viewBox="0 0 14 13" fill="none" xmlns="http://www.w3.org/2000/svg">
<path d="M0.21875 7.0625C0.0625 6.90625 0 6.71875 0 6.5C0 6.3125 0.0625 6.125 0.21875 5.96875L5.71875 0.71875C6.03125 0.4375 6.5 0.4375 6.78125 0.75C7.0625 1.03125 7.0625 1.53125 6.75 1.8125L2.59375 5.75H13.25C13.6562 5.75 14 6.09375 14 6.5C14 6.9375 13.6562 7.25 13.25 7.25H2.59375L6.75 11.2188C7.0625 11.5 7.0625 11.9688 6.78125 12.2812C6.5 12.5938 6.03125 12.5938 5.71875 12.3125L0.21875 7.0625Z" fill="#2E6AB0"/>
</svg>
