<svg xmlns="http://www.w3.org/2000/svg" xmlns:xlink="http://www.w3.org/1999/xlink"  viewBox="-115 0 1180.356 624.5" >
<style>.Pathmap path{fill:#224076;} .Pathmap:hover path{fill:#029CDD;}.Pathmap:hover text{fill: #2E6AB0;text-decoration: underline;} line, path#Path_4517{stroke: #D7D7D7; stroke-width: 4; fill:none;} text{font-family: "BCSans","Noto Sans",Verdana,Arial,sans-serif; font-weight: 400; font-style: normal; font-size: 30px; color: #2E6AB0;}</style>
<script>
  <![CDATA[
    window.addEventListener("DOMContentLoaded", onResizeFunction);
    window.addEventListener("resize", onResizeFunction);
    
    function onResizeFunction (e) {
      var namesHidden=2;
      var width = window.innerWidth;
      //console.log("Resized: " + width + " " + namesHidden);
      if((width < 460)&&(namesHidden!=1)){
        namesHidden = 1;
        document.getElementById("Group_2581").style.display = 'none';
        document.getElementById("Group_2587").style.display = 'none';
        document.getElementById("Group_2585").style.display = 'none';
        document.getElementById("Group_2575").style.display = 'none';
        document.getElementById("Group_2577").style.display = 'none';
        document.getElementById("Group_2579").style.display = 'none';
        document.getElementById("Group_2583").style.display = 'none';
      }
      else if((width >= 460)&&(namesHidden!=0)){
        namesHidden==0;
        document.getElementById("Group_2581").style.display = 'block';
        document.getElementById("Group_2587").style.display = 'block';
        document.getElementById("Group_2585").style.display = 'block';
        document.getElementById("Group_2575").style.display = 'block';
        document.getElementById("Group_2577").style.display = 'block';
        document.getElementById("Group_2579").style.display = 'block';
        document.getElementById("Group_2583").style.display = 'block';
      }
    };
    
  ]]>
</script>
  <g id="Group_2595" data-name="Group 2595" transform="translate(5723 5228.5)">
  
	<a xlink:href="/region-profile/north-coast-and-nechako" target="_parent">
    <g id="Group_2594" data-name="Group 2594" transform="translate(566 -298)" class= "Pathmap">
      <path id="North-Coast-_-Nechako" data-name="North-Coast-&amp;-Nechako" d="M116.333,371.693l5.1,2.426a1.175,1.175,0,0,0,.5.111,1.151,1.151,0,0,0,.358-.054l5.326-1.723,6.307-1.545a1.153,1.153,0,0,0,.663-.448l3.113-4.27a1.171,1.171,0,0,0,.22-.6l.758-10.115,2.007-8.122a1.327,1.327,0,0,0,.033-.223l.265-5.353,6.213-4.4a1.18,1.18,0,0,0,.464-.7l1.933-8.928a1.169,1.169,0,0,0-.365-1.118,1.182,1.182,0,0,0-1.154-.23l-9.6,3.31-5.646-2.8a1.221,1.221,0,0,0-.225-.085l-4.81-1.246a1.146,1.146,0,0,0-.626.012l-1.429.424a1.165,1.165,0,0,0-.519-1.246l-4.71-2.948a1.165,1.165,0,0,0-.663-.173l-3.161.121-1.322-2.242a1.162,1.162,0,0,0-1-.573h-6.111a1.166,1.166,0,0,0-1.163,1.135l-.118,4.319-3.173,5.916a1.155,1.155,0,0,0-.133.671l.827,7.909a1.163,1.163,0,0,0,.13.424l2.457,4.637-.064,4.083a1.1,1.1,0,0,0,.052.36l1.609,5.265a1.176,1.176,0,0,0,.438.607l4.594,3.272.99,2.824-3.13,1.815a1.167,1.167,0,0,0-.4,1.628l4.675,7.438A1.137,1.137,0,0,0,116.333,371.693Zm40.34,48.825L155,417.411a1.161,1.161,0,0,0-1.026-.611h-4.09l-2.038-2.651-.3-4.618a1.177,1.177,0,0,0-.213-.6l-7.281-10.257-.578-5.5a1.171,1.171,0,0,0-.467-.817l-2.161-1.595-.5-8.419,4.445,1.178a1.163,1.163,0,0,0,.986-.187l3.642-2.663a1.164,1.164,0,0,0,.211-1.682l-3.443-4.151-1.538-4.938a1.164,1.164,0,0,0-1.737-.635l-4.433,2.808-5.452,3.353-5-.355-7.191-.9a1.167,1.167,0,0,0-1.287,1.386l.855,4.272a1.155,1.155,0,0,0,.806.886l6,1.817-2.322,1.559a1.167,1.167,0,0,0-.336,1.59l9.381,14.8,2.213,6.009a1.177,1.177,0,0,0,.367.509l6.639,5.272,8.731,15.337a1.189,1.189,0,0,0,.09.133l2.054,2.668a1.157,1.157,0,0,0,.924.457,1.24,1.24,0,0,0,.391-.064l3.713-1.322a1.2,1.2,0,0,0,.408-.249l3.514-3.293a1.167,1.167,0,0,0,.19-1.471Zm24.462-75.2a1.172,1.172,0,0,0-.209.865l.322,2.026-1.654.566v-2.744a1.153,1.153,0,0,0-.076-.41l-1.993-5.267a1.167,1.167,0,0,0-.725-.692,1.2,1.2,0,0,0-.365-.057,1.175,1.175,0,0,0-.63.182l-3.267,2.106-.415-.685,1.1-2.365,9.89-5.542,2.128,1.6-.367,5.262Zm14.058,34.2H191.9l-3.1-5.663a1.079,1.079,0,0,0-.225-.289l-8.414-7.881-.817-4.049a1.165,1.165,0,0,0-.308-.581l-3.277-3.365a3.818,3.818,0,0,1-.6-1.2,4.821,4.821,0,0,1,1.443.069c13.409,2.336,18.6,18.6,19.4,21.4Zm35.579,19.247-1.561,10.719-2.414.545-3.327-2.976-6.81-5.075-3.436-8.819-.173-4.592,4.009-6.383a1.131,1.131,0,0,0,.168-.467l.524-3.869,8.973,6.589,3.118,7.947a1.164,1.164,0,0,0,2.244-.521l-.592-7.433a1.163,1.163,0,0,0-.408-.8l-2.91-2.464-4.554-4.917-.7-3.843-1-8.76,1.516-.813a1.158,1.158,0,0,0,.614-.986l.085-2.445,3.291-6.476,2.839-2.779a1.164,1.164,0,0,0-.588-1.974l-2.9-.581a1.169,1.169,0,0,0-.813.133l-4.213,2.445a1.173,1.173,0,0,0-.291.239l-2.41,2.744-6.343,4.443a1.163,1.163,0,0,0-.5.952v8.454l-1.09,2.135-4.213-3.31a1.164,1.164,0,0,0-1.846,1.208l.908,3.474-1.123,5.511-.355.853-4.109-.808-2.706-5.964a1.217,1.217,0,0,0-.175-.277l-2.675-3.125.72-3.476a1.17,1.17,0,0,0-.348-1.092l-3.67-3.4-.8-3.267a1.187,1.187,0,0,0-.325-.566l-3.907-3.753.313-2.076a1.163,1.163,0,0,0-.194-.836l-1.054-1.516,1.737-1.692,12.958,15.153a1.166,1.166,0,0,0,1.914-1.306l-4.772-8.945a1.238,1.238,0,0,0-.166-.235l-5.765-6.338-.623-4.277,1.3-7.414a1.164,1.164,0,0,0-.46-1.14l-4.9-3.585-2.362-6.454a1.157,1.157,0,0,0-.573-.642l-2.573-1.284,1.225-3.327c.014-.04.026-.081.038-.121l2.509-10.042a1.162,1.162,0,0,0-.917-1.429l-3.831-.706-1.353-4.246,9.527-7.684a1.214,1.214,0,0,0,.239-.265l4.732-7.146,5.9-8.2a1.162,1.162,0,0,0,.163-1.04l-1.133-3.49L196.655,259.5l1.576-3.77a1.164,1.164,0,0,0,.062-.706l-1.362-5.969,4.381-6.6a1.163,1.163,0,0,0,.14-1l-2.59-8.2a1.155,1.155,0,0,0-1-.808l-5.381-.526-2.2-5.969a1.164,1.164,0,0,0-.386-.524l-7.668-5.841a1.163,1.163,0,0,0-.358-.182l-7.26-2.265L164.17,205.2a1.152,1.152,0,0,0-.877-.4H157.27l-.161-3.512-.841-6.89a1.168,1.168,0,0,0-.457-.789l-5.362-4.035,2.9-6.6a1.167,1.167,0,0,0-.564-1.519l-7.442-3.566L148.2,170.6a1.171,1.171,0,0,0,0-.851l-14.93-38.292-1.149-6.769a1.194,1.194,0,0,0-.1-.308l-6.075-12.733,2.128-2.542a1.165,1.165,0,0,0,.092-1.37L117.487,90.8a1.175,1.175,0,0,0-.152-.192l-9.722-9.975.334-5.213a1.163,1.163,0,0,0-.107-.566l-1.715-3.684a1.171,1.171,0,0,0-.272-.37L102.1,67.387l-1.488-4.535a1.155,1.155,0,0,0-.853-.772l-3.62-.813-.72-3.092-.14-2.294a1.154,1.154,0,0,0-.166-.528l-1.351-2.239,1.407-3.362a1.152,1.152,0,0,0,.033-.81l-1.865-5.706a1.192,1.192,0,0,0-.05-.128l-4.376-9.366a1.163,1.163,0,0,0-1.346-.63L74.357,36.539l-6.113,1.543a1.16,1.16,0,0,0-.865.943L66.7,43.23,61.154,44.8a1.166,1.166,0,0,0-.841.986l-.7,5.957L54.9,58.615l-5.191.528a1.045,1.045,0,0,0-.308.073l-14.759,5.81-3.469,1.014.915-3.7a1.122,1.122,0,0,0,.026-.408L30.844,50.364a1.191,1.191,0,0,0-.135-.431L5.686,4.2a2.254,2.254,0,0,1-.254-.623c.55-.135,3.031-.194,12.522,4.547C45.139,21.709,206.244,39.678,231.59,42.439a7.379,7.379,0,0,0,.474,3.708l-2.587,3.068a1.165,1.165,0,0,0,.964,1.912l11.85-.751-.235,1.441a1.247,1.247,0,0,0-.014.23,1.157,1.157,0,0,0,.22.64,1.177,1.177,0,0,0,.763.469l5.139.813-1.22,2.834a1.161,1.161,0,0,0,.062,1.045l5.03,8.656a1.165,1.165,0,0,0,.846.566,1.184,1.184,0,0,0,.969-.31l4.822-4.628,8.023,3.384,4.554,4.573a1.189,1.189,0,0,0,.408.265l6.5,2.493,2.858,9.047.246,8.686a1.168,1.168,0,0,0,.7,1.035l5.483,2.4.095,6.009c0,.043,0,.085.009.126l.8,6.381-1.223,5.734a1.166,1.166,0,0,0,.687,1.317l6.618,2.794,4.509,1.758,6.454,3.592.339,1.929a1.162,1.162,0,0,0,.938.943l2.9.535,1.73,2.734a1.159,1.159,0,0,0,1.168.531l4.071-.654,2.936,3.841a1.17,1.17,0,0,0,.794.448l6.765.777,7.473,3.158c.057.021.116.043.175.059l4.073,1,.187,4.644-1.1,3.523-3.033-1.431a1.163,1.163,0,0,0-.87-.05l-7.028,2.379a1.153,1.153,0,0,0-.213.1l-3.09,1.805-3.834,2.384-1.668-.137-1.516-1.905a1.174,1.174,0,0,0-.649-.408l-7.2-1.663a1.164,1.164,0,0,0-1.393.855l-.6,2.433-.929.121-3.962-1.625a1.223,1.223,0,0,0-.4-.085l-4.253-.147a1.228,1.228,0,0,0-.251.019l-5.265.971a1.164,1.164,0,0,0-.725,1.834,4.231,4.231,0,0,1,.438.765c-.057,0-.116-.009-.178-.017-.27-.036-.535-.057-.794-.069-.156-.007-.308,0-.46,0-.092,0-.185,0-.275,0-.194.007-.381.024-.566.045l-.121.012a5.219,5.219,0,0,0-.566.1c-.026,0-.055.009-.081.017-.178.043-.346.092-.509.149l-.1.033c-.147.055-.287.116-.424.182-.047.021-.095.043-.14.066-.116.062-.225.128-.332.2-.059.038-.118.078-.175.118-.088.064-.168.133-.249.2-.038.033-.083.062-.121.1s-.066.069-.1.1c-.017.017-.038.033-.055.05l-.05.059c-.038.04-.071.083-.1.126s-.069.085-.1.13-.076.107-.109.161c-.021.036-.045.071-.066.109-.036.062-.071.126-.1.19-.017.031-.028.064-.045.095-.031.069-.062.137-.088.209-.012.031-.021.062-.031.095a2.244,2.244,0,0,0-.064.216c-.009.038-.017.076-.024.111-.014.069-.028.137-.04.206-.007.052-.009.107-.014.159s-.012.111-.014.168a3.244,3.244,0,0,0,0,.339,9.628,9.628,0,0,1-.419,2.967,1.155,1.155,0,0,0,.1.931l3.09,5.381-4.234,2.175-2.14-.389-.673-1.978a1.173,1.173,0,0,0-1.22-.782l-6.061.611a1.169,1.169,0,0,0-1.047,1.2l.168,5.168-3.384,5.971a1.158,1.158,0,0,0-.145.694l.609,5.959-6.139,3.076a1.085,1.085,0,0,0-.239.161,1.183,1.183,0,0,0-.4.739l-.519,4.2a1.162,1.162,0,0,0,.514,1.116l1.777,1.171,1.806,5.082,1.109,7.248a1.177,1.177,0,0,0,.187.479l2.573,3.786a1.165,1.165,0,0,0,1.471.393l4.135-2,1.99,6.646a1.165,1.165,0,0,0,1.528.753l8.5-3.208a1.185,1.185,0,0,0,.453-.308l2.82-3.113,8.331,4.523,3.168,1.99,1.047,4.187-1.223,1.881a1.1,1.1,0,0,0-.147.327l-1.334,4.881a1.157,1.157,0,0,0-.04.372l.083,1.431c-.09.6-.028,1.948,1.725,3.388a11.594,11.594,0,0,0,3.495,1.692c.254.09.562.2.806.291a6.513,6.513,0,0,0,.445,1.753,9.634,9.634,0,0,1,.31,1,1.454,1.454,0,0,0-.325,1.168,1.53,1.53,0,0,0,.069.261c.365.993,1.561,1.166,3.087,1.287,2.249.178,5.232-1.76,6-2.753.019-.026.045-.054.062-.078a1.573,1.573,0,0,1,.14-.1c.085-.057.194-.121.32-.19l.192.628a1.169,1.169,0,0,0,.756.77,1.225,1.225,0,0,0,.277.055,1.167,1.167,0,0,0,.787-.235l2.967-2.251a8.427,8.427,0,0,0,2.931.009l.149-.036c.031-.007.062-.017.09-.024a2.5,2.5,0,0,0,.486-.194c.007,0,.012-.007.019-.009a1.847,1.847,0,0,0,.185-.114c.019-.012.036-.028.054-.04.043-.033.085-.066.126-.1.024-.021.045-.045.069-.066s.064-.064.092-.1.047-.062.069-.092a.854.854,0,0,0,.066-.095c.024-.04.045-.083.066-.126s.031-.057.043-.088a1.5,1.5,0,0,0,.081-.239,1.075,1.075,0,0,1,.076-.192.871.871,0,0,1,.043-.078,1.117,1.117,0,0,1,.1-.145l.052-.066a2.427,2.427,0,0,1,1.813-.685h.085a5.2,5.2,0,0,1,.559.028c3.249.353,4.135.753,4.291.988a11.106,11.106,0,0,1-.476,1.82c-.045.14-.085.275-.128.405-.009.033-.021.069-.031.1-.031.1-.057.194-.085.289a4.474,4.474,0,0,0-.206,1.071v.014a1.323,1.323,0,0,0,0,.137,1.279,1.279,0,0,0,1.654,1.213.547.547,0,0,0,.081-.028c.021-.007.04-.014.062-.024a1.856,1.856,0,0,0,.355-.192c.017-.009.031-.021.047-.031l.069-.05a4.413,4.413,0,0,0,.5-.441c.007,0,.012-.012.019-.017.41-.408.782-.832,1.125-1.22a11.42,11.42,0,0,1,.957-1.016c.012.014.021.031.036.047s.012.017.017.026c.024.036.05.078.078.123q.547.938,1.085,1.744a17.734,17.734,0,0,0,3.151,3.725c.941.8,2.443,2.251,3.3,3.087.389.379.645.633.652.642a1.158,1.158,0,0,0,1.213.272l1.156-.412a34.489,34.489,0,0,1,1.739,4.708,3.839,3.839,0,0,1,.076.391.194.194,0,0,0-.028.019c-1.057.7-1.258,1.405-.853,3.007a20.01,20.01,0,0,0,1.426,3.557c-.524,1.583-.725,3.985,1.208,5.03.431.235.806.417,1.14.578a3.674,3.674,0,0,1,1.976,1.6,1.674,1.674,0,0,1,.294.862c.123,1.019.474,1.711,2.047,2.689.2.123.379.232.552.334h0a16.054,16.054,0,0,0,1.486.82l2.305,7.665a1.173,1.173,0,0,0,.5.654l7.177,4.471a1.192,1.192,0,0,0,.351.145l3.959.926,2.232,7.874-4.059,6.139-4.547-.746-4.879-2.045a1.168,1.168,0,0,0-1.211.192l-4.372,3.77a1.161,1.161,0,0,0-.1,1.663l4.611,5.063,3.568,6.239-1.206,3.481-3.329,10.174a1.166,1.166,0,0,0,.332,1.232l3.111,2.77a1.147,1.147,0,0,0,.4.235l6.025,2.021,1.6,6.217-.405,6.035a1.159,1.159,0,0,0,.389.945l4.1,3.654-1.45,7.544a1.125,1.125,0,0,0-.019.282l.182,3.358a1.188,1.188,0,0,0,.2.595l3.4,4.983-.457,5.232-17.475.91a1.164,1.164,0,0,0-.844.434l-1.4,1.727-1.576.085-2.367-2.249a1.161,1.161,0,0,0-.474-.272L345,367.648a1.179,1.179,0,0,0-1.156.3,1.16,1.16,0,0,0-.287,1.156l1.334,4.4-.566,1.621-2.3-.173a1.176,1.176,0,0,0-.519.081l-1.867.746-2.5-2.616a1.137,1.137,0,0,0-.531-.315l-4.3-1.2a1.144,1.144,0,0,0-1,.187,1.163,1.163,0,0,0-.472.907l-.479,19.8-44.626.566-2.564-.765-1.734-2.967a1.139,1.139,0,0,0-1.038-.578l-3.331.095-1.471-1.841.737-4.059,1.91-3.042a1.167,1.167,0,0,0-.455-1.659l-2.611-1.336a1.127,1.127,0,0,0-.673-.118l-3.26.4-3.943.038a1.151,1.151,0,0,0-.81.341l-6.035,5.995a1.165,1.165,0,0,0-.242,1.3l1.481,3.289a1.158,1.158,0,0,0,1.159.68l1.175-.1.182,3.476.588,5.03-1.372,3.18-2.779,6.092-1.886,1-1.071-2.694a1.165,1.165,0,0,0-.73-.682l-3.452-1.1a1.169,1.169,0,0,0-1.462.756l-.917,2.867-5.236-.656a1.16,1.16,0,0,0-1.021.391l-2.677,3.052-.716-.969,1.007-4.58a1.161,1.161,0,0,0-.415-1.163l-2.621-2.083a1.366,1.366,0,0,0-.3-.173l-6.786-2.675a1.177,1.177,0,0,0-1.59.919Z" transform="translate(-6169.432 -4934.04)" />
      <g id="Group_2575" data-name="Group 2575">
        <text id="North_Coast_Nechako" data-name="North Coast &amp; Nechako" transform="translate(-6406 -4743.628)" fill="#2E6AB0" font-size="25" font-family="Poppins-Regular, Poppins"><tspan x="0" y="0">North Coast &amp; Nechako</tspan></text>
        <g id="Group_2574" data-name="Group 2574">
          <line id="Line_32" data-name="Line 32" x2="97.386" transform="translate(-6064.085 -4748.716)" />
        </g>
      </g>
    </g></a>
	<a xlink:href="/region-profile/northeast" target="_parent">
    <g id="Group_2588" data-name="Group 2588" transform="translate(566 -298)" class= "Pathmap">
      <g id="Group_2568" data-name="Group 2568" transform="translate(-5936.634 -4891.212)">
        <path id="Northeast" d="M102.933,23.608a1.2,1.2,0,0,0-.085-.313c-.581-1.348-.787-2.891-.545-3.156a1.973,1.973,0,0,1,.412-.014l.2.021a2.338,2.338,0,0,1,.275.054c9.895,2.559,44.555,3.855,103.018,3.853,52.848,0,108.2-1.1,116.716-1.27l17.764,304.506-.91-.616.6-4.078a1.165,1.165,0,0,0-.621-1.206L337.038,320a1.23,1.23,0,0,0-.408-.123l-1.893-.2-.516-1.775,2.009-1.628a1.165,1.165,0,0,0-.533-2.054l-4.812-.825-4.372-1.2a4.512,4.512,0,0,0,.531-2.843,3.248,3.248,0,0,0-1.848-2.282c-1.559-.791-1.6-1.076-1.708-1.768a6.511,6.511,0,0,0-.327-1.37,4.478,4.478,0,0,1-.246-1.557,4.941,4.941,0,0,0-.626-2.538c-.941-1.63-3.647-2.959-3.95-3.1a1.017,1.017,0,0,0-.225-.078,1.173,1.173,0,0,0-.7.047c-.059.024-.137.05-.211.073-.149.047-.365.111-.623.168-.062.014-.123.026-.185.038l-.156.028c-.126.021-.251.038-.379.052l-.026,0q-.227.021-.455.021h-.012a3.574,3.574,0,0,1-.4-.028l-.09-.017a1.813,1.813,0,0,1-.287-.071.709.709,0,0,1-.092-.033,1.253,1.253,0,0,1-.3-.159c-.806-.6-.718-1.163-.7-1.23a1.163,1.163,0,0,0-1.1-1.533h-5.625c-.607-.147-3.175-.772-5.658-1.453a3.432,3.432,0,0,1-.827-.3c0-.069.009-.156.017-.227a4.011,4.011,0,0,0-.436-2.412,21.908,21.908,0,0,1-1.512-3.791,31.1,31.1,0,0,0-2.948-6.059c-1.782-2.628-3.275-3.026-3.554-3.078a1.186,1.186,0,0,0-.448,0l-2.957.6-1.313-5.329a1.176,1.176,0,0,0-.36-.595l-6.362-5.6-5.154-5.826a1.251,1.251,0,0,0-.128-.123l-7.4-6.144a1.155,1.155,0,0,0-.775-.27l-2.623.071-7.627-4.248c-.073-2.253-.3-6.277-.972-7.419a55.009,55.009,0,0,0-4.62-5.324,27.171,27.171,0,0,0-3.7-5.267,10.374,10.374,0,0,0-6.535-2.922c-.6-1.258-1.974-3.907-3.253-4.978a2.729,2.729,0,0,0-.332-.235c-.059-.038-.118-.069-.178-.1s-.109-.055-.163-.076a1.891,1.891,0,0,0-2.012.291,2.174,2.174,0,0,0-.218.225c-.017.019-.033.043-.05.064-.028.038-.059.073-.085.111a2.3,2.3,0,0,0-.147.235c-.017.028-.026.059-.04.088-.038.078-.076.156-.109.239-.021.052-.043.107-.062.161-.036.1-.066.211-.092.322-.014.059-.026.118-.038.178a2.888,2.888,0,0,0-.043.287c-.007.05-.012.1-.017.152-.009.123-.012.249-.012.374,0,.033,0,.064,0,.1a3.891,3.891,0,0,0,.038.441c0,.009,0,.017,0,.026a3.725,3.725,0,0,0,.1.457h0a3.17,3.17,0,0,0,.149.422c.007.017.017.033.024.052a3.061,3.061,0,0,0,.2.382,1.02,1.02,0,0,1,.062.422,11.009,11.009,0,0,1-.6,2.848c-.109.336-.232.675-.363,1a1.152,1.152,0,0,0-.062.652c.017.088.422,2.2,1,4.426a1.849,1.849,0,0,1,.081.891,1.264,1.264,0,0,0-.879.844,2.735,2.735,0,0,1-1.18,1.253c-1.275.836-1.514,2.831-1.708,4.436-.014.114-.028.242-.045.367,0,.038-.009.078-.014.118-.154-.047-.322-.1-.5-.166l.04-.13a5.606,5.606,0,0,0-.585-.149,4.466,4.466,0,0,1-.562-.156,15.693,15.693,0,0,1-1.929-1.019c-.912-.566-.929-.7-.962-.988a4.031,4.031,0,0,0-.635-1.824,5.91,5.91,0,0,0-2.929-2.455c-.308-.152-.654-.318-1.054-.533-.656-.355-.206-2.033.031-2.6a1.164,1.164,0,0,0-.045-1.007,19.815,19.815,0,0,1-1.467-3.5c-.059-.235-.09-.393-.109-.5.145-.1.313-.211.5-.358.569-.457,1.524-1.22-1.905-8.639a1.164,1.164,0,0,0-1.45-.609l-1.481.528c-.841-.827-2.5-2.433-3.559-3.334a19.269,19.269,0,0,1-3.734-4.874,3.711,3.711,0,0,0-.687-.881l-.007,0a2.612,2.612,0,0,0-.23-.185c-.031-.021-.059-.04-.09-.059-.057-.036-.114-.073-.175-.1a1.839,1.839,0,0,0-.3-.126c-.017,0-.033-.007-.047-.012a2.185,2.185,0,0,0-.306-.062c-.017,0-.028-.007-.045-.009-.043,0-.083,0-.126,0-.019,0-.036,0-.054,0l-.026,0a1.616,1.616,0,0,0-.185.012.355.355,0,0,1-.05,0,1.511,1.511,0,0,0-.18.033l-.064.014c-.05.014-.1.028-.149.045s-.073.026-.109.04-.064.026-.1.04c-.062.028-.123.059-.182.092l-.019.012a3.745,3.745,0,0,0-.649.479c0-.019,0-.036,0-.052.007-.05.012-.1.017-.145.152-1.907-1.673-2.706-3.682-3.111-.912-.185-1.862-.287-2.682-.374-.175-.019-.348-.033-.517-.04a4.567,4.567,0,0,0-4.142,1.718.043.043,0,0,0-.012.017q-.06.085-.114.171c-.026.038-.052.078-.076.116l-.028.05a3.47,3.47,0,0,0-.227.474,3.779,3.779,0,0,1-.64.047h-.047q-.156,0-.313-.007h0a13.992,13.992,0,0,1-1.5-.154,1.154,1.154,0,0,0-.9.22l-2.028,1.54-.1-.318a1.166,1.166,0,0,0-1.552-.742,5.742,5.742,0,0,0-2.663,1.685,7.358,7.358,0,0,1-1.768,1.2.038.038,0,0,0-.017.009q-.11.057-.22.107c-.05.024-.1.047-.149.069l-.114.05c-.073.031-.145.062-.218.09-.024.009-.047.017-.069.026-.078.028-.156.057-.232.081-.026.009-.05.017-.076.024-.069.021-.137.04-.206.059-.036.009-.073.019-.109.026-.055.014-.109.024-.163.033s-.095.017-.142.024l-.128.014c-.05,0-.1.007-.149.009a1.322,1.322,0,0,1-.194,0c-.272-.024-.5-.045-.678-.069a5.64,5.64,0,0,0-.453-2.1,8.67,8.67,0,0,1-.31-1.019,1.366,1.366,0,0,0,0-.955c-.294-.78-1.121-1.069-2.372-1.5a9.959,9.959,0,0,1-2.784-1.291c-.836-.69-.9-1.137-.907-1.223a1.17,1.17,0,0,0,.036-.36l-.081-1.384,1.237-4.521,1.4-2.154a1.158,1.158,0,0,0,.154-.917l-1.284-5.137a1.162,1.162,0,0,0-.509-.7l-3.63-2.279-9.193-4.995a1.159,1.159,0,0,0-1.422.239l-3.248,3.585-7.066,2.67-2.024-6.76a1.166,1.166,0,0,0-.647-.734,1.153,1.153,0,0,0-.976.019l-4.459,2.159-1.86-2.737-1.085-7.1a1.246,1.246,0,0,0-.052-.216l-1.974-5.552a1.137,1.137,0,0,0-.078-.173,1.163,1.163,0,0,0-.379-.41l-1.5-.988.355-2.867,6.3-3.158a1.168,1.168,0,0,0,.637-1.159l-.654-6.39,3.362-5.931a1.183,1.183,0,0,0,.152-.611l-.145-4.41,4.056-.41.595,1.749a1.169,1.169,0,0,0,.893.772l3.2.581a1.156,1.156,0,0,0,.739-.111l5.672-2.914a1.185,1.185,0,0,0,.585-.708,1.165,1.165,0,0,0-.107-.91l-3.455-6.014A11.08,11.08,0,0,0,156,132.28a.736.736,0,0,1,.007-.178l.014-.064c.009-.033.017-.069.028-.1s.021-.045.033-.069a.823.823,0,0,1,.05-.088c.014-.021.031-.04.047-.062s.045-.055.071-.081.066-.057.1-.085.083-.069.13-.1c.031-.021.069-.04.1-.059.057-.031.114-.064.175-.09.038-.017.078-.031.116-.045.069-.026.135-.052.209-.073a1.167,1.167,0,0,1,.137-.033c.076-.019.152-.038.232-.052.052-.009.107-.017.161-.024.081-.012.161-.024.246-.033l.2-.012c.081,0,.161-.009.246-.012s.178,0,.265.007c.071,0,.14,0,.211.007.166.009.334.026.509.047.149.019.287.028.415.036.036,0,.073,0,.109,0s.081,0,.118,0,.069,0,.1-.007c.1,0,.192-.009.282-.019.045,0,.088-.009.13-.017a2.867,2.867,0,0,0,.31-.064l.038-.009a1.951,1.951,0,0,0,.8-.438l.019-.019a1.7,1.7,0,0,0,.156-.163,1.457,1.457,0,0,0,.152-.218c0-.007.012-.014.017-.021a.238.238,0,0,0,.017-.036c.012-.021.026-.045.038-.064s.019-.05.031-.073.031-.071.045-.107.028-.085.04-.126.021-.073.031-.111.017-.085.024-.126.012-.078.017-.116,0-.078.007-.118,0-.085,0-.128,0-.069,0-.1,0-.095-.009-.142c0-.026-.007-.05-.012-.078-.007-.055-.014-.111-.026-.166a.105.105,0,0,1,0-.024,3.8,3.8,0,0,0-.116-.436l3.585-.659,3.917.133,4.052,1.666a1.2,1.2,0,0,0,.592.078l2.026-.263a1.169,1.169,0,0,0,.981-.879l.512-2.09,5.687,1.313,1.578,1.978a1.163,1.163,0,0,0,.815.436l2.552.208a1.12,1.12,0,0,0,.708-.173l4.135-2.568,2.959-1.73,6.471-2.192,3.817,1.806a1.167,1.167,0,0,0,1.609-.708l1.561-4.99a1.125,1.125,0,0,0,.052-.4l-.23-5.722a1.169,1.169,0,0,0-.886-1.085l-4.834-1.187-7.542-3.187a1.252,1.252,0,0,0-.32-.085l-6.438-.742-3.057-3.995a1.162,1.162,0,0,0-1.109-.443l-4,.637-1.592-2.519a1.174,1.174,0,0,0-.775-.524l-2.609-.479-.294-1.675a1.165,1.165,0,0,0-.58-.817l-7.009-3.9a1.294,1.294,0,0,0-.142-.069L163.666,91.6l-5.7-2.407,1.064-4.983a1.13,1.13,0,0,0,.017-.389l-.813-6.514-.107-6.7a1.157,1.157,0,0,0-.7-1.047l-5.492-2.4-.23-8.111a1.1,1.1,0,0,0-.055-.315L148.577,49a1.166,1.166,0,0,0-.694-.737L141.1,45.654l-4.54-4.561a1.165,1.165,0,0,0-.372-.249l-8.942-3.77a1.16,1.16,0,0,0-1.258.235l-4.305,4.132-3.992-6.867,1.58-3.67a1.164,1.164,0,0,0-.889-1.611l-5.464-.867L113.2,26.7a1.165,1.165,0,0,0-.287-.967,1.151,1.151,0,0,0-.936-.381l-10.584.671,1.275-1.514a1.157,1.157,0,0,0,.268-.9" transform="translate(-101.39 -20.121)" />
      </g>
      <g id="Group_2577" data-name="Group 2577">
        <text id="Northeast-2" data-name="Northeast" transform="translate(-5642.583 -4762.628)" fill="#2E6AB0" font-size="25" font-family="Poppins-Regular, Poppins"><tspan x="0" y="0">Northeast</tspan></text>
        <g id="Group_2576" data-name="Group 2576">
          <line id="Line_29" data-name="Line 29" x2="125.21" transform="translate(-5781.515 -4770.309)" />
        </g>
      </g>
    </g></a>
	<a xlink:href="/region-profile/cariboo" target="_parent">
    <g id="Group_2589" data-name="Group 2589" transform="translate(566 -298)" class= "Pathmap">
      <g id="Group_2569" data-name="Group 2569" transform="translate(-5881.132 -4685.941)">
        <path id="Cariboo" d="M310.286,212.658a1.211,1.211,0,0,0,.291-.038l.111.076-.024.092,3.348.886,1.253,2.064a1.186,1.186,0,0,0,.164.213l2.4,2.443-.822,2.429c-1.5-.291-2.545-.13-3.1.476a1.633,1.633,0,0,0-.256,1.775,36.834,36.834,0,0,0,3.185,5.189l3.876,4.492a1.165,1.165,0,0,0,1.486.235l2.381-1.45,5.533,2.94,1.55,4.706a1.164,1.164,0,0,0,.844.77l4.649,1.076,1.77,1.76a1.165,1.165,0,0,0,1.967-.625l.659-3.765,3.4,1.64,2.149,3.68.374,1.926a1.153,1.153,0,0,0,.521.763l2.936,1.853,1.37,4.184a1.174,1.174,0,0,0,.713.734l4.09,1.469,1.268,2.225-1.168,1.175a1.155,1.155,0,0,0-.325,1,1.169,1.169,0,0,0,.6.855l4.118,2.192-.334,3.836a1.129,1.129,0,0,0,.168.708l1.9,3.09,1.606,4.421-.979,2.486-5.061,1.687a1.161,1.161,0,0,0-.732.725l-1.981,5.715-1.8,2.365-3.552-.116-2.05-1.936,1.149-.9a1.165,1.165,0,0,0,.1-1.746l-2.971-2.919v-6.234a1.177,1.177,0,0,0-.244-.716l-3.289-4.237a1.185,1.185,0,0,0-.32-.284l-5.184-3.113a1.18,1.18,0,0,0-1.31.073l-3.689,2.834-3.438-.344-3.815-3.523a1.182,1.182,0,0,0-.713-.308l-2.495-.161a1.161,1.161,0,0,0-.817.263l-3.407,2.81a8.873,8.873,0,0,1-3.241-1.242c-.322-1.6-2.81-5.1-3.578-6.163a.941.941,0,0,0-.109-.128l-2.718-2.777a1.167,1.167,0,0,0-.974-.341c-3.329.405-5.312,1.031-5.9,1.851-.851,1.194-1.13,4.042.126,5.289a31.414,31.414,0,0,1,2.355,4.789,9.144,9.144,0,0,0,.066,2.49,5,5,0,0,1-1.289,1.886l-3.135,1.5a4.348,4.348,0,0,0-2.557,1.663,2.037,2.037,0,0,0-.173,1.661,36.891,36.891,0,0,1,.581,5.374,1.093,1.093,0,0,0,.026.2l1.389,6.149a1.189,1.189,0,0,0,.32.576l5.616,5.511.64,5.5c-.017,1.426-.057,3.1-.083,3.324-.076.329-1.192,5.345-1.192,5.345a1.182,1.182,0,0,0-.026.329l.251,3.831-4.58,1.519a1.147,1.147,0,0,0-.725.7l-1.213,3.27a1.189,1.189,0,0,0-.073.405v8.93H283a1.165,1.165,0,0,0-.758.282l-2.874,2.455-2.623.791-4.229-1.744V325.69a1.164,1.164,0,0,0-1.166-1.163H260.867a1.164,1.164,0,0,0-1.166,1.163v1.163H245.724a1.17,1.17,0,0,0-.55.14l-2.436,1.308-4.528,1.512a1.163,1.163,0,0,0-.787.962l-.948,7.684a1.17,1.17,0,0,0,.384,1.016l2.045,1.8a7.58,7.58,0,0,1-.258,3.241,9.321,9.321,0,0,0-.922,1.329,7.408,7.408,0,0,1-.907,1.277c-1.391-.6-6.187-2.5-7.07-2.858l-1.652-1.185a1.167,1.167,0,0,0-.789-.213l-5.132.488a1.164,1.164,0,0,0-.91.6l-3.177,5.741a4.812,4.812,0,0,0-1.168,2.087c-.469,1.2-3.594,3.09-5.732,4.092l-6.781,1.595-3.49-1.057-1.6-1.216-6.409-6.146-2.054-3.855a1.173,1.173,0,0,0-.405-.436,12.516,12.516,0,0,1-1.481-1.062c-.654-.68-1.72-.576-3.545-.332-.405.054-.862.116-1.043.116-.5-.019-3.514-.7-6.016-1.332a1.182,1.182,0,0,0-.938.168,1.5,1.5,0,0,1-.912.272c-.083-.026-.185-.19-.261-.417a5.73,5.73,0,0,1-.273-2.135,1.6,1.6,0,0,0-.68-1.642,1.367,1.367,0,0,0-1.5.147,5.22,5.22,0,0,1-1.334-.092,5.055,5.055,0,0,0-2.8.107,2.615,2.615,0,0,0-1.185,1.192c-.052-.038-.111-.085-.178-.137a6.775,6.775,0,0,0-3.149-1.6,3.332,3.332,0,0,1-.512-.137,12.364,12.364,0,0,1-1.405-3.6,1.176,1.176,0,0,0-.194-.4l-2.6-3.464c-.009-.012-.019-.026-.028-.036a6.377,6.377,0,0,0,1.675-3.58c0-.379.3-3.436.576-6.12a1.176,1.176,0,0,0-.012-.329l-.583-3.182a1.192,1.192,0,0,0-.187-.453l-3.059-4.436a1.077,1.077,0,0,0-.227-.246L152.368,307l-1.265-5.144.5-3.644,1.524-1.647c.3-.258,1.917-1.675,2.6-2.268a4.221,4.221,0,0,0,1.137-3.464,11.6,11.6,0,0,1,.448-2.258,7.946,7.946,0,0,1,.7-1.253,2.469,2.469,0,0,0,1.718-1.329c.265-.5.971-2.286-1.137-4.08-1.58-1.343-2.974-2.476-3.594-2.978-.36-1.72-1.476-4.154-3.827-4.229-1.96-.059-5.964-.209-7.049-.244a2.209,2.209,0,0,1-.851-1.182.8.8,0,0,1,.019-.644,1.237,1.237,0,0,0-.164-1.386c-.514-.585-1.163-.405-1.737-.244a19.723,19.723,0,0,1-2.014.313,13.54,13.54,0,0,0-4.421.979c-1.078.633-2.82,1.54-2.839,1.55a1.212,1.212,0,0,0-.149.095l-.526.381a60.371,60.371,0,0,1-6.063-4.464c.1-.848.566-2.635,1.72-3.125,2-.848,4-1.708,4-1.708a1.167,1.167,0,0,0,.559-1.633l-1.571-2.86a1.163,1.163,0,0,0-.559-.507l-3.834-1.654-.884-4.156,43.344-.547a1.164,1.164,0,0,0,1.149-1.137l.469-19.427,2.554.711,2.824,2.95a1.165,1.165,0,0,0,1.272.277l2.346-.936,2.922.216a1.167,1.167,0,0,0,1.185-.775l.988-2.822a1.15,1.15,0,0,0,.014-.725l-.817-2.694,6.689,1.96,2.523,2.4a1.143,1.143,0,0,0,.862.32l2.592-.137a1.17,1.17,0,0,0,.844-.431l1.4-1.727,17.965-.941a1.164,1.164,0,0,0,1.1-1.064l.583-6.649a1.185,1.185,0,0,0-.2-.761l-3.45-5.059-.156-2.891,1.547-8.051a1.163,1.163,0,0,0-.37-1.09l-4.17-3.715.379-5.651v0a1.16,1.16,0,0,0-.033-.372l-1.81-7.006a1.171,1.171,0,0,0-.758-.813l-6.4-2.147-2.362-2.1,3.085-9.43,1.374-3.962a1.164,1.164,0,0,0-.09-.96l-3.9-6.812a1.175,1.175,0,0,0-.149-.206l-3.891-4.272,2.919-2.516,4.341,1.817a1.239,1.239,0,0,0,.263.076l5.426.893a1.168,1.168,0,0,0,1.161-.509l4.772-7.215a1.165,1.165,0,0,0,.149-.96l-2.566-9.047a1.164,1.164,0,0,0-.855-.817l-4.44-1.035-6.642-4.137-1.7-5.644c.111.028.216.055.31.083a1.281,1.281,0,0,0,.235.047c.038,0,.073.007.111.009.019,0,.043,0,.062,0a1.436,1.436,0,0,0,.145-.009c.012,0,.026,0,.038,0a1.212,1.212,0,0,0,.922-.569,4.29,4.29,0,0,0,.526-1.941c.012-.092.024-.182.033-.275.083-.678.3-2.481.673-2.763a5.47,5.47,0,0,0,1.91-1.99,2.183,2.183,0,0,0,.761-.671,3.349,3.349,0,0,0,.282-2.867c-.431-1.647-.77-3.275-.905-3.947.583-1.531,1.526-4.556.585-6.049a1.523,1.523,0,0,1-.147-.938,21.3,21.3,0,0,1,2.68,4.552,1.156,1.156,0,0,0,.907.666.968.968,0,0,0,.145.021h.026c.246.007,3.7.149,5.554,2.2a25.066,25.066,0,0,1,3.433,4.912,1.24,1.24,0,0,0,.2.284,58.633,58.633,0,0,1,4.407,5c.315.626.6,4.109.673,6.971a1.16,1.16,0,0,0,.6.988l8.485,4.725a1.085,1.085,0,0,0,.6.147l2.5-.069,6.99,5.81,5.144,5.812a1.037,1.037,0,0,0,.1.1l6.142,5.412,1.493,6.059a1.165,1.165,0,0,0,1.362.865l3.711-.751a6.229,6.229,0,0,1,1.95,2.031,18.046,18.046,0,0,1,1.043,1.777,33.743,33.743,0,0,1,1.616,3.677c.012.045.166.585.443,1.355,0,.009.007.019.012.031s0,.007,0,.009a21.893,21.893,0,0,0,1.218,2.784,1.761,1.761,0,0,1,.168,1.13c-.111,1.379.272,2.355,2.521,2.964,2.86.782,5.831,1.493,5.86,1.5a1.171,1.171,0,0,0,.272.031h4.606a3.908,3.908,0,0,0,1.566,2.3,3.552,3.552,0,0,0,.5.308l.083.043a4.1,4.1,0,0,0,.535.208l.1.031a4.38,4.38,0,0,0,.6.126l.081.012a6.037,6.037,0,0,0,.711.047h.009a8.193,8.193,0,0,0,2.336-.367,12.279,12.279,0,0,1,1.706,1.1c.024.019.052.038.073.057l.055.047a3.123,3.123,0,0,1,.692.746,2.781,2.781,0,0,1,.313,1.457,6.858,6.858,0,0,0,.391,2.279,4.376,4.376,0,0,1,.209.912c.192,1.265.517,2.258,2.959,3.5.538.273.595.552.616.654a3.716,3.716,0,0,1-.974,2.336,1.166,1.166,0,0,0,.578,1.881l6.018,1.644,2.391.412-.616.5a1.166,1.166,0,0,0-.386,1.23l.953,3.272a1.163,1.163,0,0,0,1,.832l2.455.261,1.782.912-.59,3.971a1.19,1.19,0,0,0,0,.318c0,.031.017.062.021.092a1.026,1.026,0,0,0,.059.206,1.237,1.237,0,0,0,.059.109,1.352,1.352,0,0,0,.1.159.9.9,0,0,0,.092.1c.031.031.054.066.088.095l3.5,2.85a1.049,1.049,0,0,0,.718.265" transform="translate(-124.814 -106.754)" />
      </g>
      <g id="Group_2579" data-name="Group 2579">
        <text id="Cariboo-2" data-name="Cariboo" transform="translate(-5614.279 -4561.821)" fill="#2E6AB0" font-size="25" font-family="Poppins-Regular, Poppins"><tspan x="0" y="0">Cariboo</tspan></text>
        <g id="Group_2578" data-name="Group 2578">
          <path id="Path_4517" data-name="Path 4517" d="M0,0H140.668" transform="translate(-5767.21 -4569.966)"/>
        </g>
      </g>
    </g></a>
	<a xlink:href="/region-profile/thompson-okanagan" target="_parent">
    <g id="Group_2590" data-name="Group 2590" transform="translate(566 -298)" class= "Pathmap">
      <g id="Group_2572" data-name="Group 2572" transform="translate(-5767.21 -4534.693)">
        <path id="Thompson-Okanagan" d="M277.092,351.474l-1,7.208-20.2,2.753h-19.1l-7.049.265,1.012-2.746a1.165,1.165,0,0,0-.315-1.27l-1.907-1.7a11.759,11.759,0,0,1-.308-2.933c.419-.839,2.054-4.348,2.054-4.348a1.172,1.172,0,0,0,.085-.734,4.251,4.251,0,0,0-2.957-2.912c-1.372-.441-5.078-1.469-7.051-2.009l1.2-2.938a1.259,1.259,0,0,0,.073-.261l.628-4.042,2.805-3.135a1.156,1.156,0,0,0,.294-.839l-.173-3.215a1.165,1.165,0,0,0-1-1.09l-4.914-.682a9.62,9.62,0,0,1-1.609-.488,5.1,5.1,0,0,0-.137-1.832c-.028-.135-.064-.313-.088-.457,3.132-2.846,2.974-3.827,2.568-4.523-.386-.668-2.815-3.459-3.549-4.3a1.1,1.1,0,0,0-.213-.192,8.821,8.821,0,0,1-2.528-2.433c.573-1.77-.967-3.9-1.289-4.31a1.162,1.162,0,0,0-.922-.452h-9.08c-.9-.943-2.128-1.588-3.222-.917-.514.313-2.938,1.417-4.587,2.151l-6.18-1.756-4.388-1.751-1.742-2.595,2.808-4.291a1.228,1.228,0,0,0,.118-.237,25.136,25.136,0,0,1,1.742-3.94,5.662,5.662,0,0,0,.652-.905c.033-.052.071-.114.109-.171.765.076,3.071.424,5.123.758a1.166,1.166,0,0,0,1.2-.578l2.078-3.658,3.1-3.135a1.163,1.163,0,0,0,.336-.817v-9.473l1.948-8.165a1.181,1.181,0,0,0-.045-.689l-1.4-3.639a1.165,1.165,0,0,0-1.206-.742l-6.66.678L187.779,263l-6.554-3.125-3.516-3.637a1.253,1.253,0,0,0-.223-.18l-2.173-1.351a17.63,17.63,0,0,0-.1-1.836,1.167,1.167,0,0,0-.386-.754l-1.933-1.7.784-6.345,3.924-1.31a.938.938,0,0,0,.182-.078l2.265-1.218H194.9a1.163,1.163,0,0,0,1.166-1.163v-1.166h8.153v3.727a1.161,1.161,0,0,0,.723,1.078l5.334,2.2a1.174,1.174,0,0,0,.78.038l3.256-.979a1.145,1.145,0,0,0,.422-.23l2.732-2.336h15.878a1.166,1.166,0,0,0,1.163-1.166v-9.888l.948-2.55,4.9-1.625a1.167,1.167,0,0,0,.8-1.18l-.3-4.564c.19-.865,1.085-4.876,1.152-5.17a27.385,27.385,0,0,0,.14-3.891c0-.05,0-.1-.007-.147l-.694-5.985a1.16,1.16,0,0,0-.341-.694l-5.665-5.561-1.289-5.72a39.763,39.763,0,0,0-.642-5.729,3.239,3.239,0,0,1,1.142-.514,1.022,1.022,0,0,0,.235-.083l3.417-1.64a1.155,1.155,0,0,0,.308-.213c.73-.706,2.393-2.523,2.09-4.087a7.614,7.614,0,0,1-.014-2.1,1.167,1.167,0,0,0-.078-.609c-.609-1.467-2.121-4.964-2.976-5.817a3.029,3.029,0,0,1,.081-2.223,15.554,15.554,0,0,1,3.758-.884l2.251,2.3a25.314,25.314,0,0,1,3.128,5.17c.284,1.917,3.644,2.822,5.623,3.194a1.187,1.187,0,0,0,.955-.244l3.481-2.872,1.625.107,3.8,3.507a1.172,1.172,0,0,0,.673.3l4.284.426a1.172,1.172,0,0,0,.827-.237l3.426-2.63,4.317,2.595,2.912,3.748v6.324a1.159,1.159,0,0,0,.348.829l2.374,2.334-1.171.917a1.176,1.176,0,0,0-.445.865,1.162,1.162,0,0,0,.365.9l3.355,3.168a1.159,1.159,0,0,0,.761.318l4.594.149a1.145,1.145,0,0,0,.964-.457l2.282-2.993a1.134,1.134,0,0,0,.175-.325l1.853-5.35,5.035-1.678a1.155,1.155,0,0,0,.713-.678l.6-1.514,2.407.135a1.158,1.158,0,0,0,1.178-.813l.905-2.886,1.884,2.078a1.174,1.174,0,0,0,.562.344l4.869,1.3,1.04,1.867-3.123,5.521a1.169,1.169,0,0,0,.592,1.659l3.426,1.339a1.186,1.186,0,0,0,.654.057l1.05-.211,1.379,2.08a1.166,1.166,0,0,0,1.407.436l2.422-.974H324.2a1.169,1.169,0,0,0,1.026-.611l.936,3.057a1.149,1.149,0,0,0,.341.528l2.834,2.514c.031.024.059.05.092.071l2.3,1.652,2.182,3.336a1.075,1.075,0,0,0,.258.28l2.549,2,1.429,4.893.524,1.531a1.165,1.165,0,0,0,1.986.384c2.206-2.568,3.327-4.36,3.327-5.326a1.968,1.968,0,0,1,.6-1.237.423.423,0,0,1,.365-.14,6.675,6.675,0,0,1,2.827,1.455,3.511,3.511,0,0,0-.031,2.1,3.069,3.069,0,0,1,.092.573,12.235,12.235,0,0,0,1.3,3.713,1.148,1.148,0,0,0,.346.415l4.8,3.606,1.628,3.72a1.161,1.161,0,0,0,.45.521l2.445,1.524.979,4.007.031.853-1.27,2.85a1.165,1.165,0,0,0-.1.455l-.052,3.033c-.5,2.495-.033,3.073.168,3.324a1.347,1.347,0,0,0,.763.474,2.539,2.539,0,0,1,.576.971,6.892,6.892,0,0,1-.744.986,2.486,2.486,0,0,0-1.723.618c-2.137,1.55-1.732,2.348-1.559,2.687a1.244,1.244,0,0,0,.955.633,27.78,27.78,0,0,1,3.087,2.976,7.712,7.712,0,0,1-.554,1.374c-1.467.14-5.9.8-6.867.941a1.559,1.559,0,0,0-.23.059c-1.37.5-3.753,1.531-4.315,2.794-1.412,3.173-1.758,4.675-1.8,5.447a12.869,12.869,0,0,1-2.343.235,24.209,24.209,0,0,1-3.936-1.789,22.375,22.375,0,0,0-.526-2.341V260.1c0-1.948-2.156-3.713-2.94-4.135-.1-.055-.3-.156-.566-.287a32.05,32.05,0,0,1-2.94-1.585c.047-.1.092-.2.133-.287.564-1.227,1.1-2.386.166-3.116s-2.014.137-2.595.6a13.094,13.094,0,0,0-4.4,6.765,16.858,16.858,0,0,0-.081,2.8c.007.213.012.389.012.519,0,.585.706,3.917,1.3,6.6a1.255,1.255,0,0,0,.109.3l2,3.746a1.171,1.171,0,0,0,.841.6l2.26.365,1.957,3.929-2.452,2.573a16.777,16.777,0,0,1-3.758,1.8,14,14,0,0,1-3.194-.521,37.847,37.847,0,0,1-3.962-2.087c-.929-1.045-3.77-.626-4.329-.533-.825.14-1.708.384-2.021,1.142l-.083.2a6.639,6.639,0,0,1-.374.82l-.237.019a5.53,5.53,0,0,1-2.353-.069c-.3-1.334-.687-3.817-.689-3.843a1.166,1.166,0,0,0-.472-.768L307.93,273.7c-3.3-1.96-3.933-1.535-4.353-1.256a1.327,1.327,0,0,0-.562,1.31c.031.213.038.55.052.936a8.292,8.292,0,0,0,.668,3.706,14.31,14.31,0,0,1,1,3.964,23.146,23.146,0,0,1-2.2,3.966,1.147,1.147,0,0,0-.185.7l.239,4.1a1.419,1.419,0,0,0,.017.145l.917,4.95.192,4.206a14.8,14.8,0,0,1-.945,3.376,4.708,4.708,0,0,0-3.893-.024,2.176,2.176,0,0,0-1.054,1.974,17.67,17.67,0,0,0,.623,5.056c.372.917,2.109,4.782,2.182,4.947a.819.819,0,0,0,.073.135l.9,1.46-21.716,2.713a1.179,1.179,0,0,0-.713.367l-1.253,1.362-3.846,2.327a1.456,1.456,0,0,0-.168.123c-.336.3-2.023,1.867-2.023,3.478,0,1.23,1.587,8.478,1.905,9.918a1.284,1.284,0,0,0,.066.2c.434,1.019,1.872,4.376,2.18,4.9.232.4,1.528,2.734,2.035,3.649Z" transform="translate(-172.894 -170.587)" />
      </g>
      <g id="Group_2581" data-name="Group 2581">
        <text id="Thompson-Okanagan-2" data-name="Thompson-Okanagan" transform="translate(-5534.644 -4472.92)" fill="#2E6AB0" font-size="25" font-family="Poppins-Regular, Poppins"><tspan x="0" y="0">Thompson-Okanagan</tspan></text>
        <g id="Group_2580" data-name="Group 2580">
          <line id="Line_30" data-name="Line 30" x2="97.386" transform="translate(-5645.64 -4478.958)" />
        </g>
      </g>
    </g></a>
	<a xlink:href="/region-profile/kootenay" target="_parent">
    <g id="Group_2591" data-name="Group 2591" transform="translate(566 -298)" class= "Pathmap">
      <g id="Group_2573" data-name="Group 2573" transform="translate(-5666.049 -4466.92)">
        <path id="Kootenay" d="M378.581,304.045,350.023,309.2l-32.352,2.853L277.506,316.7l-41.515,2.166a1.13,1.13,0,0,0-.4.1l-2.559,1.116-13.193-.422.938-6.76,1.043-5.431a1.149,1.149,0,0,0-.126-.782s-1.974-3.559-2.268-4.064c-.173-.3-1.149-2.528-2.009-4.542-.9-4.08-1.822-8.648-1.827-9.31a3.786,3.786,0,0,1,1.163-1.663l3.893-2.355a1.27,1.27,0,0,0,.256-.206l1.076-1.17,23.095-2.886a1.165,1.165,0,0,0,.844-1.77l-1.82-2.938c-.242-.535-1.787-3.983-2.114-4.793a16.069,16.069,0,0,1-.45-4.2,3.335,3.335,0,0,1,2.047.365,1.616,1.616,0,0,0,1.5.031c1.289-.635,1.978-3.312,2.332-5.445a1.406,1.406,0,0,0,.014-.244l-.2-4.41a1.249,1.249,0,0,0-.019-.161l-.919-4.957-.211-3.642c1.569-2.445,2.365-4.068,2.365-4.829a15.014,15.014,0,0,0-1.336-5.267,6.93,6.93,0,0,1-.31-2.2c.4.2.848.436,1.246.668l2.251,1.616c.137.848.431,2.6.673,3.647.5,2.125,3.4,1.867,4.8,1.746.156-.012.28-.026.355-.026,1.227,0,1.8-1.251,2.149-2.109a8.279,8.279,0,0,1,2.765-.133,27.68,27.68,0,0,0,4.632,2.531.776.776,0,0,0,.2.073,17.117,17.117,0,0,0,4.068.618c1.315-.1,4.092-1.715,4.912-2.206a1.232,1.232,0,0,0,.246-.2l3.125-3.282a1.163,1.163,0,0,0,.2-1.322l-2.59-5.2a1.161,1.161,0,0,0-.855-.628l-2.282-.37-1.647-3.092c-.576-2.63-1.178-5.547-1.208-5.95,0-.142,0-.344-.012-.578a16.007,16.007,0,0,1,.05-2.372,10.437,10.437,0,0,1,1.948-3.682c.216.8,1.246,1.476,4.365,3.021.227.116.405.2.5.249.5.268,1.715,1.426,1.715,2.083v1.893a1.162,1.162,0,0,0,.043.315,17.073,17.073,0,0,1,.526,2.372c.033.607.085,1.526,5.623,3.542a1.137,1.137,0,0,0,.4.071c2.483,0,4.037-.384,4.613-1.149a1.454,1.454,0,0,0,.263-1.263c0-.036-.069-.919,1.573-4.613a9.345,9.345,0,0,1,2.9-1.557c3.026-.448,6.371-.912,6.812-.922s1.647-.024,2.576-3.7a1.168,1.168,0,0,0-.265-1.066,35.709,35.709,0,0,0-3.291-3.312l.149-.107a1.582,1.582,0,0,0,.519.028c1.064-.133,2.047-1.55,2.535-2.377a2.661,2.661,0,0,0-.272-2.668,4.076,4.076,0,0,0-1.216-1.37,10.134,10.134,0,0,1,.192-1.412,1.1,1.1,0,0,0,.026-.216l.05-2.9.685-1.538,2.384.457.943.858,3.116,4.462a1.194,1.194,0,0,0,.142.166l3.737,3.661a1.148,1.148,0,0,0,.879.332l3.559-.194-.159.907a1.164,1.164,0,0,0,.647,1.253l2.654,1.268,2.464,4.646.55.9-1.014.441a1.164,1.164,0,0,0-.3,1.95l3.038,2.616a1.172,1.172,0,0,0,.427.232l2.49.746,2.528,1.168a1.1,1.1,0,0,0,.23.081l2.637.6.455,2.981c-.036,1.109.118,2.9,1.41,3.341.893.308,2.666-.147,4.094-.611,1.152-.491,2.526-1.019,3.353-1.28.23.765.559,2,.817,3.068a.948.948,0,0,0,.055.164,4.464,4.464,0,0,0,1.836,1.749c.877.562,4.061,3.083,5.62,4.329l.341,3.291v5.161a1.179,1.179,0,0,0,.277.756l2.843,3.336.036,1.313a1.162,1.162,0,0,0,.372.82l.86.8.367,1.952-.7,2.481a1.172,1.172,0,0,0,.021.7l1.142,3.26a21.121,21.121,0,0,1,1.125,3.225,22.554,22.554,0,0,0,.559,3.358l.708,2.644-1.609,2.1a1.261,1.261,0,0,0-.175.318l-.633,1.791a1.175,1.175,0,0,0,0,.775l.583,1.647a1.167,1.167,0,0,0,.675.7c2.05.8,2.388.727,2.659.671a4.336,4.336,0,0,0,1.374-.723v6.516a1.174,1.174,0,0,0,.4.877l2.13,1.874,1.974,3.388a1.177,1.177,0,0,0,.216.268l2.2,2.042.673,1.381a1.166,1.166,0,0,0,1.047.654h4.995l3.3,2.121,1.54,3.77Z" transform="translate(-215.588 -199.19)" />
      </g>
      <g id="Group_2583" data-name="Group 2583">
        <text id="Kootenay-2" data-name="Kootenay" transform="translate(-5443.938 -4377.088)" fill="#2E6AB0" font-size="25" font-family="Poppins-Regular, Poppins"><tspan x="0" y="0">Kootenay</tspan></text>
        <g id="Group_2582" data-name="Group 2582">
          <line id="Line_31" data-name="Line 31" x2="123.665" transform="translate(-5580.193 -4382.473)" />
        </g>
      </g>
    </g></a>
	<a xlink:href="/region-profile/mainlandsouthwest" target="_parent">
    <g id="Group_2592" data-name="Group 2592" transform="translate(566 -298)" class= "Pathmap">
      <g id="Group_2571" data-name="Group 2571" transform="translate(-5813.388 -4447.768)">
        <path id="Mainland-_-Southwest" data-name="Mainland-/-Southwest" d="M253.824,311.452H215.5a1.8,1.8,0,0,0-.194.014l-6.822,1.149H195.571c-.652,0-1.178.01-1.6.012s-.846.009-1.1,0c-.071-.152-.161-.334-.284-.552a11.318,11.318,0,0,0-.723-1.107,1.8,1.8,0,0,1-.512-1.336,1.533,1.533,0,0,0-.777-1.474c-.839-.448-1.642.095-2.286.531a6.516,6.516,0,0,1-.554.351,2.233,2.233,0,0,0-1.855.723,4.957,4.957,0,0,1-2.36,1.22c-.194.043-.341.069-.448.081a2.851,2.851,0,0,0-1.178-2.016l-.161-.114a2.8,2.8,0,0,0-.441-.6l-.256-.272c-.566-.6-.976-1.033-1.6-3.853a11.1,11.1,0,0,1-.216-1.2,2.011,2.011,0,0,0,1.107-.817c.107-.156.223-.31.336-.464.656-.881,1.642-2.206.78-3.718a4.02,4.02,0,0,1-.249-.545c-.391-.971-.851-1.841-2.872-3.448a2.322,2.322,0,0,1-.426-.417,4.557,4.557,0,0,1,.772-.467c.365-.187,1.083-.559,1.08-1.315.088-.334.436-1.279.673-1.924.277-.746.552-1.5.7-1.981a3.421,3.421,0,0,0-.033-2.076c-.017-.059-.036-.114-.047-.168a1.593,1.593,0,0,0-.121-1.488,4.9,4.9,0,0,0-3.4-1.848c-1.429,0-1.967,1.54-2.49,3.031-.116.334-.237.675-.367,1.009a12.249,12.249,0,0,1-.893,1.68,6.254,6.254,0,0,0-1.192,3.012,5.952,5.952,0,0,1-1.467,3.175l-.014.007a1.154,1.154,0,0,0-.242-.152s-2.118-1-2.5-1.194a59.125,59.125,0,0,0-5.646-2.14,11.22,11.22,0,0,1-2.855-1.552c-.095-.168-.28-.493-.514-.9-.552-.971-1.964-3.455-2.275-4.106-.064-.808-.405-2.476-1.22-6.419l1.436-2.6.024-.012a1.156,1.156,0,0,0,.614-1.009l0-.137.239-.434-.232-.128.066-5.241a1.232,1.232,0,0,0-.081-.443l-2.476-6.234-.536-3.331.694-5.7a1.182,1.182,0,0,0-.239-.86,15.439,15.439,0,0,1-1.938-3.016c.187-.668.576-1.82.9-2.642.043.024.085.043.13.064,4.909,2.289,5.267,2.09,5.762,1.813a1.025,1.025,0,0,0,.585-.8c.045-.149.168-.426.308-.749a9.523,9.523,0,0,0,.737-2.078c.043-.322.159-1.178-2.071-3.715-.493-.517-1.05-1.14-1.438-1.611a5.278,5.278,0,0,1,1.033-.341c.585,0,5.995-.081,5.995-.081a1.153,1.153,0,0,0,.483-.126l.578-.3h0l.163-.052a1.133,1.133,0,0,0,.668-1.026,1.154,1.154,0,0,0-.111-.5,1.114,1.114,0,0,0-.237-.332c.038-.533.135-1.3.194-1.782a5.783,5.783,0,0,0,.088-2.377,20.423,20.423,0,0,0-1.787-2.877,1.119,1.119,0,0,0-.3-.3l-3.888-2.661.393-2.455,4.568-1.746-.036-.095,6.222-1.464a.943.943,0,0,0,.22-.078c1-.462,6.047-2.888,7.033-5.4.149-.384.261-.649.341-.829a1.147,1.147,0,0,0,.379-.41l3.2-5.774,4.085-.389,1.415,1.014a1.267,1.267,0,0,0,.249.135c.059.024,6.016,2.386,7.253,2.933,1.827.806,3-1.107,3.7-2.246a7.851,7.851,0,0,1,.668-.99,2.96,2.96,0,0,0,.581-1.1l1.142.708,3.564,3.687a1.126,1.126,0,0,0,.336.242l6.862,3.267a1.168,1.168,0,0,0,.246.085l4.732,1.061a1.164,1.164,0,0,0,.374.021l5.964-.607.948,2.474-1.9,7.947a1.318,1.318,0,0,0-.033.27v9.132l-2.869,2.9a1.162,1.162,0,0,0-.185.244l-1.753,3.092c-1.576-.249-4.305-.673-4.9-.673a2.2,2.2,0,0,0-1.888,1.3,3.531,3.531,0,0,1-.389.552,21.143,21.143,0,0,0-2.159,4.58l-3.158,4.829a1.165,1.165,0,0,0,.009,1.289l2.372,3.533a1.153,1.153,0,0,0,.535.431l4.779,1.907a1.076,1.076,0,0,0,.114.038l6.641,1.884a1.153,1.153,0,0,0,.787-.054c.419-.182,3.893-1.718,5.047-2.346a3.428,3.428,0,0,1,.763.7,1.164,1.164,0,0,0,.915.443h9a3,3,0,0,1,.607,1.715c-.7,1.805,1.708,3.865,3.3,4.983,1.128,1.294,2.391,2.779,2.938,3.478a15.963,15.963,0,0,1-2.116,2.2,2.372,2.372,0,0,0-.379,2.422,6.654,6.654,0,0,1,.149.917,1.5,1.5,0,0,0-.081,1.381c.36.813,1.531,1.434,3.561,1.851l4.042.566.095,1.772-2.715,3.033a1.178,1.178,0,0,0-.284.6l-.659,4.244-1.644,4.028a1.163,1.163,0,0,0,.77,1.564c.064.017,6.4,1.746,8.224,2.329a2.191,2.191,0,0,1,1.258.9c-.453.969-1.493,3.189-1.813,3.829-.5.993-.171,3.173.192,4.829a1.15,1.15,0,0,0,.36.611l1.6,1.412Z" transform="translate(-153.405 -207.273)" />
      </g>
      <g id="Group_2585" data-name="Group 2585">
        <text id="Mainland_Southwest" data-name="Mainland / Southwest" transform="translate(-6328 -4365.088)" fill="#2E6AB0" font-size="25" font-family="Poppins-Regular, Poppins"><tspan x="0" y="0">Mainland / Southwest</tspan></text>
        <g id="Group_2584" data-name="Group 2584">
          <line id="Line_34" data-name="Line 34" x2="265.07" transform="translate(-6011.63 -4371.612)" />
        </g>
      </g>
    </g></a>
	<a xlink:href="/region-profile/vancouver-islandcoast" target="_parent">
    <g id="Group_2593" data-name="Group 2593" transform="translate(566 -298)" class= "Pathmap">
      <g id="Group_2570" data-name="Group 2570" transform="translate(-5939.094 -4554.821)">
        <path id="Vancouver-Island-Coast" d="M112.112,227.668l-.564,3.315c-.4.711-.981,1.5-1.211,1.869a7.219,7.219,0,0,0-1.085-.085v-.04a1.707,1.707,0,0,0-.917-1.573,3.338,3.338,0,0,1-.853-.934c-.294-.578-.671-1.208-.919-1.614a10.358,10.358,0,0,0,.341-3.49,4.228,4.228,0,0,1,.964-1.509,13.366,13.366,0,0,0,3.168-1.948l1.685.576Zm2.874,21.659-.4,1.993-1.3.121a30.063,30.063,0,0,0-3.684-1.531,9.113,9.113,0,0,1-2.346-1.405,8.008,8.008,0,0,1-.012-1.462,9.641,9.641,0,0,0,.268-1.836,16.571,16.571,0,0,1,.213-1.7c.175-.346,1.531-2.275,2.623-3.782l.573-.656,1.282.569,1.855,3.893L115.2,247.1Zm-13.57-55.286a1.135,1.135,0,0,0,.235-.531l1.464-10.058,5.258,2.069,1.915,1.509-.964,4.369a1.041,1.041,0,0,0,.147.8l-.976.1-2.786-1.4a1.168,1.168,0,0,0-1.343.216ZM118.77,217.5a1.165,1.165,0,0,0-.538.287A.939.939,0,0,1,118.77,217.5Zm64.7,94.23,2.289,6.3a1.159,1.159,0,0,0,.9.749,1.172,1.172,0,0,0,1.095-.4l2.291-2.763a1.162,1.162,0,0,0,.121-1.308c-.017-.028-1.306-2.35-1.99-3.684a6.775,6.775,0,0,1,.945-.147l3.3.929-1.021,4.206a1,1,0,0,0-.028.168l-.727,7.864a1.173,1.173,0,0,0,.114.621l1.457,2.967a1.073,1.073,0,0,0,.168.254l5.694,6.533c2.125,2.211,4.473,4.684,5.376,5.68a35.45,35.45,0,0,1-2.554,3.04,1.164,1.164,0,0,0-.2,1.277l3.227,7.049a1.107,1.107,0,0,0,.171.27l2.813,3.312a1.128,1.128,0,0,0,.443.322l7.077,2.914,3.758,1.841a.848.848,0,0,0,.145.059l8.961,2.986,2.789,1.258a52.085,52.085,0,0,1,4.523,6.4c.412.787.763,1.391,1.059,1.9a5.663,5.663,0,0,1,1.024,2.547c.216,2.1,1.2,2.5,2.282,2.753.128.031.265.062.41.107a3.969,3.969,0,0,1,1.647,1.524,40.3,40.3,0,0,0,7,5.98c.059.033.1.059.123.069a3.145,3.145,0,0,1-1.687,1.3c-.967.374-1.282.225-1.355.19a1.164,1.164,0,0,0-1.971.8,18.158,18.158,0,0,0,.128,2.746,1.832,1.832,0,0,0,1.564,1.692c.2.047.239.055.341.163a8.043,8.043,0,0,0,3.4,1.666,12.083,12.083,0,0,0,1.846,3.279,17.953,17.953,0,0,1,1.725,6.12,4.252,4.252,0,0,0,.2,1.365,7.978,7.978,0,0,1-.358,1.007c-.121.294-.182.294-.287.294a5.122,5.122,0,0,1-1.708-.626c-.22-.111-.431-.213-.626-.3a2.734,2.734,0,0,0-1.116-.263,1.836,1.836,0,0,0-1.836,1.673,20.976,20.976,0,0,1-2,4.5,11.678,11.678,0,0,1-2.545-1.452c-.69-.46-1.4-.941-2.123-1.343a7.181,7.181,0,0,0-2.6-1.045,14.517,14.517,0,0,1-2.4-.685c-.58-.209-1.085-.384-1.535-.54a28.926,28.926,0,0,1-5.381-2.341c-1.768-.953-2.988-1.5-3.966-1.948-.7-.318-1.313-.592-1.933-.931a21.688,21.688,0,0,0-4.073-1.545c-.893-.282-1.974-.623-3.329-1.083a15.185,15.185,0,0,0-4.286-1.016c-.23-.017-.23-.017-.318-.059-.49-.261-3.7-2.538-6.528-4.594-2.223-1.4-5.995-3.872-6.653-4.514-.251-.249-.545-.493-.853-.751a4.271,4.271,0,0,1-1.756-2.222,9.877,9.877,0,0,1,1.834-.509,22.079,22.079,0,0,0,3.865-1.133c1.17-.483,2.23-1.009,2.374-2.026.135-.969-.6-1.554-1.31-2.123a8.837,8.837,0,0,1-1.779-1.753,3.117,3.117,0,0,0-2.322-1.625c-1.114,0-1.732.931-2.386,1.912a13.14,13.14,0,0,1-1.4,1.848c-.054.057-.1.107-.149.154a3.316,3.316,0,0,0-.858-1.249,8.519,8.519,0,0,0-5.7-1.6c-1.192.208-2.132,1.315-2.964,2.291-.164.192-.318.377-.481.55L180,375.922a1.186,1.186,0,0,0-.867-.45l-3.767-.171c-2.277-1.8-4.331-3.855-4.6-4.613.37-.922,1.256-1.824,2.106-1.614a6.379,6.379,0,0,1,1,.332,2.212,2.212,0,0,0,.853.216c.384,0,1.287-.159,1.37-1.614a8.257,8.257,0,0,0-2.55-6.153,3.619,3.619,0,0,0-2.516-1.4,3.138,3.138,0,0,0-2.05.948,2.832,2.832,0,0,1-.706.493,2.6,2.6,0,0,0-.147-.391c.066-.121.171-.282.254-.41a4.726,4.726,0,0,0,.8-4.386,3.024,3.024,0,0,0-3.023-2.154,7.031,7.031,0,0,0-3.059.867,1.181,1.181,0,0,0-.443.441,9.81,9.81,0,0,1-1.706,2.263,7.717,7.717,0,0,1-1.118-1.424,21.442,21.442,0,0,0-2-2.6,2.752,2.752,0,0,0-2.026-1.047,3.187,3.187,0,0,0-2.329,1.438,4.271,4.271,0,0,1-.592.621.876.876,0,0,1-.7-.168,34.232,34.232,0,0,1-.178-5.864,2.078,2.078,0,0,0,.318-.964c4.239-2.253,4.831-3.5,4.831-4.436,0-1.521-1.147-2.362-3.227-3.9-.77-.566-1.713-1.258-2.846-2.154-1.062-.839-1.666-1.149-2.223-1.149a1.317,1.317,0,0,0-1.147.642c-.507.865,0,1.851,1.31,4.2a20.1,20.1,0,0,1,1.173,2.294c.014.038.024.073.033.1-.2.052-.483.1-.694.142a8.865,8.865,0,0,0-1.564.384,2,2,0,0,1-.336.1c-.045-.04-.088-.088-.135-.137a4.1,4.1,0,0,0-1.263-.945c-.28-.133-.557-.256-.834-.379a14.737,14.737,0,0,1-2.775-1.5,6.25,6.25,0,0,1-1.265-1.088c-.059-.071-.126-.145-.2-.223a2.238,2.238,0,0,1,.382-1.72,5.477,5.477,0,0,1,.808-.855c1.012-.941,2.893-2.692.434-5.374a3.3,3.3,0,0,0-2.249-1.317,2.323,2.323,0,0,0-1.893,1.284c-.145.213-.365.533-.562.55-1.047,0-3.168-1.374-4.592-2.692a5.821,5.821,0,0,1,2.095-1.7c1.514-.844,3.057-2.251,1.519-5.715A4.764,4.764,0,0,0,132.5,319.6a6.368,6.368,0,0,0-1.955.308,1.852,1.852,0,0,0-1.374,2.185,11.664,11.664,0,0,1-.472,3.808c-.014.057-.028.114-.043.166-.107-.192-.213-.389-.308-.562a21.738,21.738,0,0,0-2.08-3.317,16.206,16.206,0,0,0-3.843-3.938c-.389-.291-.867-.656-1.493-1.149a4,4,0,0,0-2.414-1.092c-1.554,0-2.054,1.474-2.419,2.552a7.14,7.14,0,0,1-.7,1.618c-.085.128-.149.18-.14.182-.194,0-.64-.244-1.661-1.407-.142-.161-.263-.3-.351-.389-.291-.294-.825-.87-1.263-1.351L113.3,315.8a1.17,1.17,0,0,0,.294-.592c.287-1.675.614-4.658-.391-5.85a1.693,1.693,0,0,0-1.04-.595,4.91,4.91,0,0,1,.18-1.4,1.154,1.154,0,0,0,.031-.476l-.9-6.2a1.169,1.169,0,0,0-1.225-1c-.012,0-1.2.073-2.41.073a10.6,10.6,0,0,1-1.943-.116,20.312,20.312,0,0,1-1.649-2.488c-.355-.6-1.592-3.857-2.41-6.014-.483-1.27-.926-2.445-1.23-3.194-.348-.865-.3-.945-.081-1.289a4.374,4.374,0,0,0,.7-1.746c.045-.273.081-.524.1-.756a4.239,4.239,0,0,0,2.313-1.419,40.156,40.156,0,0,1,5.931-.986c2.069.552,7.772,2.068,8.205,2.147.344.062,3.087.512,4.274.7l2.5,4.331a1.164,1.164,0,0,0,.448.436c6.078,3.341,9.6,5.035,10.478,5.035a1.186,1.186,0,0,0,.306-.043,19.042,19.042,0,0,1,3.125,1.514,1.215,1.215,0,0,0,.467.152l2.279.23L146,297.97l4.642,2.585a1.076,1.076,0,0,0,.22.1l6.855,2.135L164,304.478l4.907,1.232,7.07,2.3a1.316,1.316,0,0,0,.438.055l4.6-.31Zm-4.706-6.153-2.282.154-6.933-2.253-4.962-1.246-.955-.256a9.256,9.256,0,0,1,1.891-.031c.772.05,2.246.291,3.673.528,3.166.526,4.04.63,4.587.457a22.412,22.412,0,0,1,5.421-.41,9.825,9.825,0,0,1-.457,2.327A1.148,1.148,0,0,0,178.766,305.58Zm26.637,9.665a22.627,22.627,0,0,1-1.808,2.346,1.131,1.131,0,0,0-.145.2,14.259,14.259,0,0,1-1.268,1.964s-.483-.014-.557-.036a1.164,1.164,0,0,0-1.524,1.107v3.094c-.2.22-.4.427-.557.578-.524-.244-1.407-.668-2.3-1.1l-.145-4.213,3.95-4.128,1.7-1.4C203.487,314.105,204.615,314.781,205.4,315.245Zm23.258,19.963-.026.047-2.834,1.521-3.493-.216a.979.979,0,0,0-.119,0l-5.3.213a1.165,1.165,0,0,0-.787,1.978l3.22,3.294a1.185,1.185,0,0,0,.114.1l3.334,2.611,2.959,3.31v2.237l-2.028-.37-4.971-2.284-5.428-7.4-2.879-4.933-.682-2.253a1.131,1.131,0,0,0-.045-.126c-1.476-3.44-2.452-5.407-2.9-5.85l-.609-.607a20.622,20.622,0,0,0,1.666-5.12,16.934,16.934,0,0,1,2.5-1.616,5.674,5.674,0,0,0,1.355-.891c.381-.417.742-.813-.405-5.862a1.163,1.163,0,0,0-.474-.7l-3.812-2.635a1.178,1.178,0,0,0-.772-.2l-2.68.258-4.772-.348.128-2.218a1.173,1.173,0,0,0-.633-1.107l-4.824-2.462a1.124,1.124,0,0,0-.389-.118l-5.232-.637a1.108,1.108,0,0,0-.32,0l-6.115.955a5.591,5.591,0,0,0,.021-2.241,1.585,1.585,0,0,0-.815-.988c-1.644-.9-6.53-.059-7.4.126a34.146,34.146,0,0,1-3.63-.5c-1.552-.261-3.019-.5-3.907-.557a13.1,13.1,0,0,0-1.843,0c-.085-.512-.185-1.178-.268-1.784.055-.626-.149-1.827-1.7-3.642-.993-1.161-1.912-1.711-2.817-1.668a1.868,1.868,0,0,0-.924.282l-2.986.5-1.661-.291-.348-1.82c.671-.763,1.519-1.718,1.706-1.907.46-.391,4.843-3.249,5.642-3.76a1.164,1.164,0,0,0,.543-.87c.1-1.007-.341-1.137-2.192-1.524a16.589,16.589,0,0,0-2.568-1.445,15.2,15.2,0,0,0-4.428-.6c-.5-.024-.931-.043-1.225-.074a3.44,3.44,0,0,0-1.77.291c-.007-.028-.017-.055-.026-.085-.118-.384-.3-.967-.654-1.869-.5-1.27-1.263-1.49-1.815-1.5-1.22.038-1.983,1.471-2.419,2.739-.111.121-.287.294-.5.5a11.6,11.6,0,0,0-2.538,3.2,6.974,6.974,0,0,0-2.628-.5,1.969,1.969,0,0,1-1.893-1.725,1.16,1.16,0,0,0-.922-.953c-1.365-.273-3.014-.626-3.256-.708-.545-.254-5.154-2.914-6.374-3.791,0-.825.1-2.841.22-4.554a1.173,1.173,0,0,0-.393-.957l-3.294-2.886-3.049-2.578-.417-2.265.846-1.708a8.308,8.308,0,0,1,3.374.694,2.639,2.639,0,0,0,3.066-.028c1.282-.758,2.516-2.377,2.277-3.884A1.859,1.859,0,0,0,127.4,257a3.725,3.725,0,0,0-3.061.419l-5.061-.675a6.231,6.231,0,0,1-.208-.8c.855-.573,3.412-1.933,5.6-3.021a1.158,1.158,0,0,0,.5-.481c3.692-6.7,3.327-7.867,3.206-8.25a1.381,1.381,0,0,0-.7-.836c-1.2-.6-2.483.45-5.116,2.988-.351.339-.777.746-.974.91a6.206,6.206,0,0,1-1.663.073,4.65,4.65,0,0,1-.3-1.362,1.229,1.229,0,0,0-.095-.389l-1.63-3.7-1.751-7.386.841-4.225a1.164,1.164,0,0,0,.021-.258c-.05-1.815-.085-3.874-.062-4.357a42.529,42.529,0,0,1,2.609-5.978c1.391-.756,1.2-3.966,1.192-4.116-.13-2.026-.964-3.421-2.289-3.914a.107.107,0,0,1,0-.012,1.166,1.166,0,0,0-.251-1.043c-.9-1.035-3.888-4.457-4.445-4.928-.315-.268-1.279-1.083-3.959,1.161a1.2,1.2,0,0,0-.256.3c-.675,1.144-1.5,2.469-1.981,3.147l0,0a8.574,8.574,0,0,0-1.765-1.066c-.915-.4-1.1-.573-1.133-.623a1.25,1.25,0,0,1-.012-.391,6.018,6.018,0,0,1,.716-1.867c2.573-.879,5.35-1.779,5.762-1.851a1.3,1.3,0,0,0,1.028-.708c.275-.585.514-1.1-3.177-6.267a1.164,1.164,0,0,0-1.983.137l-.988,1.9-2.606-1.535-.713-1.943,2.706-2.685,2.341,1.178a1.165,1.165,0,0,0,.644.118l2.722-.284.294.384c.209.282.536.28.889.28h.05c.334,0,.654.047.877-.206l3.222-3.488,5.58.7a1.165,1.165,0,0,0,1.256-.8l.858-2.685,1.817.576,1.346,3.391a1.169,1.169,0,0,0,1.628.6l3.386-1.791a1.148,1.148,0,0,0,.514-.545l2.952-6.476,1.5-3.488a1.17,1.17,0,0,0,.088-.6l-.616-5.263-.239-4.6a1.169,1.169,0,0,0-.4-.817,1.148,1.148,0,0,0-.862-.28l-1.552.128-.813-1.8,5.125-5.094,3.535-.033a1.251,1.251,0,0,0,.133-.009l2.971-.37,1.161.595-1.355,2.159a1.15,1.15,0,0,0-.159.412l-.872,4.8a1.171,1.171,0,0,0,.237.936l2.166,2.708a1.107,1.107,0,0,0,.943.436l3.222-.09,1.618,2.768a1.153,1.153,0,0,0,.673.528l3.175.948a1.147,1.147,0,0,0,.348.05l.206,0,1.1,5.2a1.168,1.168,0,0,0,.678.827l4.019,1.734.761,1.386c-.753.322-1.779.761-2.808,1.2-2.583,1.095-3.166,4.476-3.166,5.575,0,.621,0,1.4,7.8,6.551a1.166,1.166,0,0,0,1.332-.031l1.111-.813c.363-.192,1.851-.974,2.858-1.566a16.415,16.415,0,0,1,3.538-.675c.453-.059.877-.114,1.253-.171a3.348,3.348,0,0,0,.116.5,4.35,4.35,0,0,0,2.31,2.73,1.215,1.215,0,0,0,.41.092s5.054.182,7.338.256c1.069.033,1.595,2.137,1.675,2.7a1.166,1.166,0,0,0,.429.749c.017.014,1.782,1.422,3.881,3.206a1.465,1.465,0,0,1,.647,1.016.5.5,0,0,1-.107.275c-.637.009-1.488.5-2.474,2.727a1.258,1.258,0,0,0-.052.142,13.975,13.975,0,0,0-.564,3.073c0,.8-.021,1.351-.329,1.616-.758.654-2.661,2.317-2.661,2.317-.031.028-.062.057-.09.085L183.23,221a1.16,1.16,0,0,0-.3.633l-.583,4.229a1.173,1.173,0,0,0,.024.436l1.412,5.741a1.165,1.165,0,0,0,.4.628l6.409,5.168,2.822,4.092.507,2.77c-.154,1.507-.571,5.618-.571,6.184a5.743,5.743,0,0,1-1.983,2.976c-.426.384-1.429,1.284-.8,2.287.453.72,1.242.711,2.118.45l1.948,2.595c.512,1.9,1.327,4.173,2.384,4.767a4.179,4.179,0,0,0,1.213.426,4.612,4.612,0,0,1,2.2,1.142,2.828,2.828,0,0,0,2.241.834,2.049,2.049,0,0,0,1.37-1.246c.064-.121.159-.306.187-.339a4.861,4.861,0,0,1,1.5.083,9.145,9.145,0,0,0,1.512.133,7.585,7.585,0,0,0,.389,2.031,2.774,2.774,0,0,0,1.73,1.884,3.357,3.357,0,0,0,2.474-.282,54.813,54.813,0,0,0,6.125,1.289,12.1,12.1,0,0,0,1.36-.135,14.038,14.038,0,0,1,1.77-.166,14.624,14.624,0,0,0,1.441,1.047l2,3.746a1.132,1.132,0,0,0,.218.289l4.483,4.346,2.132,2,.09.078,1.815,1.379a1.086,1.086,0,0,0,.37.185l1.08.327-1.5.573a1.167,1.167,0,0,0-.735.905l-.616,3.848a1.164,1.164,0,0,0,.493,1.144l4.319,2.957c.545.794,1.144,1.708,1.334,2.054-.014.294-.095.926-.154,1.407-.109.872-.194,1.557-.22,2.1-1.5.019-4.76.064-5.2.064-.294,0-3.779.635-3.779,2.372,0,.393,0,.886,2.464,3.476a12.189,12.189,0,0,1,1.448,1.971c-.1.336-.384.988-.531,1.329-.007.019-.017.038-.024.055-.938-.36-2.478-1.031-3.509-1.512-.085-.038-.171-.09-.251-.133a2.014,2.014,0,0,0-1.7-.318,1.846,1.846,0,0,0-1.095,1.085,31.952,31.952,0,0,0-1.258,3.628c-.092.355-.336,1.282,2.1,4.5l-.656,5.388a1.064,1.064,0,0,0,.007.325l.583,3.621a1.194,1.194,0,0,0,.066.244l2.436,6.137Z" transform="translate(-100.352 -162.092)" />
      </g>
      <g id="Group_2587" data-name="Group 2587">
        <text id="Vancouver_Island_Coast" data-name="Vancouver Island / Coast" transform="translate(-6380 -4460.92)" fill="#2E6AB0" font-size="25" font-family="Poppins-Regular, Poppins"><tspan x="0" y="0">Vancouver Island / Coast</tspan></text>
        <g id="Group_2586" data-name="Group 2586">
          <line id="Line_33" data-name="Line 33" x2="157.672" transform="translate(-6020.776 -4466.683)"/>
        </g>
      </g>
    </g></a>
  </g>
</svg>
