<svg width="14" height="13" viewBox="0 0 14 13" fill="none" xmlns="http://www.w3.org/2000/svg">
<path d="M13.75 7.1626L8.25 12.4126C7.9375 12.6938 7.46875 12.6938 7.1875 12.3813C6.90625 12.0688 6.90625 11.6001 7.21875 11.3188L11.375 7.3501H0.75C0.3125 7.3501 0 7.0376 0 6.6001C0 6.19385 0.3125 5.8501 0.75 5.8501H11.375L7.21875 1.9126C6.90625 1.63135 6.90625 1.13135 7.1875 0.850098C7.46875 0.537598 7.96875 0.537598 8.25 0.818848L13.75 6.06885C13.9062 6.2251 14 6.4126 14 6.6001C14 6.81885 13.9062 7.00635 13.75 7.1626Z" fill="white"/>
</svg>
