<svg width="14" height="14" viewBox="0 0 14 14" fill="none" xmlns="http://www.w3.org/2000/svg">
<path d="M0 1.5C0 0.6875 0.65625 0 1.5 0.03125H6.15625C6.6875 0.03125 7.1875 0.21875 7.5625 0.59375L13.0625 6.09375C13.8438 6.875 13.8438 8.15625 13.0625 8.9375L8.90625 13.0938C8.125 13.875 6.84375 13.875 6.0625 13.0938L0.5625 7.59375C0.1875 7.21875 0 6.71875 0 6.1875V1.5ZM3.5 2.5C2.9375 2.5 2.5 2.96875 2.5 3.5C2.5 4.0625 2.9375 4.5 3.5 4.5C4.03125 4.5 4.5 4.0625 4.5 3.5C4.5 2.96875 4.03125 2.5 3.5 2.5Z" fill="#002857"/>
</svg>
