<svg xmlns="http://www.w3.org/2000/svg" width="9" height="15" viewBox="0 0 9 15"><path fill="#ffffff" d="M2.20072708,6.92337342 L7.57940885,1.54469169 C7.9105638,1.2135367 7.91104074,0.677775355 7.58088739,0.34762197 C7.24843224,0.0151668146 6.71478762,0.0181305411 6.38381769,0.349100496 L0.408818853,6.32409932 C0.408572373,6.3243458 0.408326063,6.3245924 0.408079921,6.32483914 C0.4078334,6.32508507 0.407586793,6.32533138 0.407340314,6.32557786 C0.241360085,6.49155809 0.158985217,6.70768609 0.159292382,6.92370389 C0.160090042,7.14025789 0.242509293,7.356338 0.407340314,7.52116902 C0.407586793,7.5214155 0.4078334,7.52166181 0.408080133,7.52190795 C0.408326063,7.52215447 0.408572373,7.52240108 0.408818853,7.52264756 L6.38381769,13.4976464 C6.71497264,13.8288013 7.250734,13.8292783 7.58088739,13.4991249 C7.91334254,13.1666697 7.91037879,12.6330252 7.57940885,12.3020552 L2.20072708,6.92337342 Z" transform="rotate(-180 4.224 7.308)"/></svg>