<svg width="79" height="54" viewBox="0 0 79 54" fill="none" xmlns="http://www.w3.org/2000/svg">
<path d="M9.5 0.25L39.5 3.75L69.375 0.25C71.125 0 72.875 1 73.5 2.625L77.5 12C78.75 14.875 77.125 18.125 74 18.875L54.125 23.375C51.75 24 49.375 23 47.875 21L39.5 9.125L31 21C29.5 23 27.125 24 24.75 23.375L4.875 18.75C1.75 18.125 0.125 14.875 1.375 12L5.375 2.625C6 1 7.75 0 9.5 0.25ZM9 4.25L5 13.5C4.75 14.125 5.125 14.75 5.75 14.875L25.625 19.5C26.375 19.75 27.25 19.375 27.75 18.75L35.875 7.375L9 4.25ZM67.5 23.625L71.5 22.5V41.375C71.5 44.125 69.625 46.5 66.875 47.25L40.875 53.75C40 54 39 54 38 53.75L12 47.25C9.375 46.5 7.5 44.125 7.5 41.375V22.5L11.5 23.625V41.375C11.5 42.25 12.125 43.125 13 43.25L37.5 49.375V20C37.5 19 38.375 18 39.5 18C40.5 18 41.5 19 41.5 20V49.375L65.875 43.25C66.875 43.125 67.5 42.25 67.5 41.375V23.625ZM43 7.375L51.125 18.75C51.625 19.375 52.5 19.625 53.25 19.5L73.125 14.875C73.75 14.75 74.125 14.125 73.875 13.5L69.875 4.25L43 7.375Z" fill="#E49E0A"/>
</svg>
