<svg xmlns="http://www.w3.org/2000/svg" width="18" height="18" viewBox="0 0 18 18"><path fill="#333" d="M17.325,17.55 C17.6625,17.2125 17.6625,16.70625 17.325,16.425 L10.0125,9.1125 L17.325,1.8 C17.6625,1.4625 17.6625,0.95625 17.325,0.675 C17.15625,0.50625 16.9875,0.45 16.7625,0.45 C16.5375,0.45 16.36875,0.5625 16.2,0.675 L8.8875,8.04375 L1.575,0.675 C1.2375,0.3375 0.73125,0.3375 0.45,0.675 C0.28125,0.84375 0.225,1.0125 0.225,1.2375 C0.225,1.4625 0.28125,1.63125 0.45,1.8 L7.7625,9.1125 L0.45,16.425 C0.1125,16.7625 0.1125,17.26875 0.45,17.55 C0.73125,17.83125 1.29375,17.83125 1.575,17.55 L8.8875,10.18125 L16.2,17.55 C16.36875,17.71875 16.5375,17.775 16.7625,17.775 C16.9875,17.775 17.15625,17.71875 17.325,17.55 Z"/></svg>