<?xml version="1.0" encoding="UTF-8"?>
<svg width="128pt" height="128pt" version="1.1" viewBox="0 0 128 128" xmlns="http://www.w3.org/2000/svg">
 <g fill="#2e69b0">
  <path d="m92.199 66.801h-0.57812c-1.207 0-2.3633 0.24609-3.4102 0.68359-0.96484-3.832-4.4414-6.6758-8.5664-6.6758h-0.58203c-1.4141 0-2.7539 0.33594-3.9414 0.92578-1.3906-3.0508-4.4727-5.1797-8.0391-5.1797h-0.58203c-1.1055 0-2.168 0.20312-3.1445 0.57812v-11.934c0-4.8711-3.9609-8.832-8.832-8.832h-0.58203c-4.8711 0-8.832 3.9609-8.832 8.832v31.418l-3.8086 2.8945c-3.1641 2.4023-5.1719 5.8984-5.6523 9.8438-0.47656 3.9453 0.63672 7.8164 3.1328 10.906l12.137 15.004v5.9062c0 3.7617 3.0625 6.8242 6.8242 6.8242h30.434c3.7617 0 6.8242-3.0625 6.8242-6.8242v-5.6016c3.8945-4.9297 6.0312-11.031 6.0312-17.301l0.003906-22.637c0-4.8711-3.9648-8.832-8.8359-8.832zm3.1445 31.473c0 5.2734-1.8984 10.402-5.3477 14.43-0.44141 0.51562-0.68359 1.1719-0.68359 1.8477v6.6211c0 0.625-0.50781 1.1367-1.1367 1.1367l-30.434 0.003906c-0.625 0-1.1367-0.50781-1.1367-1.1367v-6.9102c0-0.65234-0.22266-1.2812-0.63281-1.7891l-12.77-15.785c-1.5234-1.8828-2.1992-4.2422-1.9102-6.6445 0.29297-2.4023 1.5117-4.5352 3.4414-6l0.37109-0.28125v6.6523c0 1.5703 1.2734 2.8438 2.8438 2.8438 1.5703 0 2.8438-1.2734 2.8438-2.8438v-12.355-0.058594l0.003906-32.801c0-1.7344 1.4102-3.1445 3.1445-3.1445h0.58203c1.7344 0 3.1445 1.4102 3.1445 3.1445v20.188l0.011719 16.793c0 1.5703 1.2734 2.8398 2.8438 2.8398 1.5703 0 2.8438-1.2734 2.8438-2.8477l-0.011719-16.789c0-1.7344 1.4102-3.1445 3.1445-3.1445h0.58203c1.7344 0 3.1445 1.4102 3.1445 3.1445v4.25l0.011719 12.543c0 1.5703 1.2734 2.8398 2.8438 2.8398h0.003907c1.5703 0 2.8438-1.2773 2.8398-2.8477l-0.011719-12.539c0-1.7344 1.4102-3.1445 3.1445-3.1445h0.58203c1.7344 0 3.1445 1.4102 3.1445 3.1445v5.3164c-0.007812 0.082031-0.027344 0.16797-0.027344 0.25391l0.011719 6.9766c0.003907 1.5703 1.2773 2.8398 2.8438 2.8398h0.003907c1.5703-0.003906 2.8398-1.2773 2.8398-2.8516l-0.011719-6.3125c0.007813-0.078125 0.023438-0.15625 0.023438-0.23438 0-1.7344 1.4102-3.1445 3.1445-3.1445h0.58203c1.7344 0 3.1445 1.4102 3.1445 3.1445z"/>
  <path d="m82.41 15.73c-0.015625-0.082031-0.046875-0.16406-0.074218-0.24219-0.027344-0.097656-0.050782-0.19531-0.089844-0.28906-0.039063-0.09375-0.09375-0.18359-0.14453-0.27344-0.039062-0.074219-0.070312-0.14844-0.11719-0.21875-0.10547-0.15625-0.22266-0.30469-0.35547-0.43359l-13.441-13.441c-0.12891-0.12891-0.27734-0.25-0.43359-0.35547-0.066406-0.042968-0.13672-0.074218-0.20703-0.11328-0.09375-0.050781-0.18359-0.10938-0.28125-0.14844-0.089844-0.035156-0.18359-0.058594-0.27734-0.085938-0.082031-0.027344-0.16406-0.058594-0.25391-0.074218-0.17969-0.035156-0.36328-0.054688-0.54688-0.054688h-0.011719-36.559c-1.5703 0-2.8438 1.2734-2.8438 2.8438v65.398c0 1.5703 1.2734 2.8438 2.8438 2.8438h5.7422c1.5703 0 2.8438-1.2734 2.8438-2.8438 0-1.5703-1.2734-2.8438-2.8438-2.8438h-2.8984v-59.711h30.871v10.602c0 1.5703 1.2734 2.8438 2.8438 2.8438h10.602v32.266c0 1.5703 1.2734 2.8438 2.8438 2.8438 1.5703 0 2.8438-1.2734 2.8438-2.8438v-35.109c0-0.1875-0.015625-0.37109-0.054688-0.55859zm-13.387-6.0195 3.7344 3.7344h-3.7344z"/>
  <path d="m55.508 19.133h-15.102c-1.5703 0-2.8438-1.2734-2.8438-2.8438 0-1.5703 1.2734-2.8438 2.8438-2.8438h15.102c1.5703 0 2.8438 1.2734 2.8438 2.8438 0 1.5703-1.2734 2.8438-2.8438 2.8438z"/>
  <path d="m69.199 31.094h-28.793c-1.5703 0-2.8438-1.2734-2.8438-2.8438s1.2734-2.8438 2.8438-2.8438h28.793c1.5703 0 2.8438 1.2734 2.8438 2.8438 0 1.5664-1.2734 2.8438-2.8438 2.8438z"/>
 </g>
</svg>
