<svg xmlns="http://www.w3.org/2000/svg" width="24" height="24" viewBox="0 0 24 24"><path fill="#029CDD" d="M22.3799054,16.741241 L19.6546429,14.0112143 C19.1044857,13.4388018 18.4392411,13.1372643 17.7294857,13.1372643 C17.0274107,13.1372643 16.3567839,13.4342054 15.79435,13.9989375 L14.3970946,15.3961929 C14.3625664,15.3793122 14.3280382,15.3616646 14.2965782,15.3447836 L14.2252196,15.3102554 C14.0755961,15.2342925 13.903725,15.148355 13.761,15.0601232 C12.3269143,14.1493429 11.0186607,12.9561768 9.75641071,11.4093018 C9.21623214,10.7294821 8.83795,10.1524732 8.56096607,9.5777625 C8.91239643,9.24628929 9.2384875,8.91481607 9.54540714,8.60021607 C9.61446357,8.53115964 9.68275393,8.46056714 9.7541125,8.3892125 C9.82316893,8.31785393 9.89376143,8.24649536 9.96511607,8.17591071 C10.5498054,7.59122143 10.8590232,6.9137 10.856725,6.21622143 C10.856725,5.52104107 10.5475071,4.84581786 9.96511607,4.26651071 L8.60698929,2.90838393 C8.52872429,2.83011893 8.44969321,2.75108786 8.37373036,2.67282679 C8.2977675,2.59456179 8.21873643,2.51553071 8.14276964,2.43956786 L8.03458071,2.32907679 C7.76678964,2.05668929 7.48980571,1.77432321 7.20973786,1.51651071 C6.66496286,0.974033929 6.00431464,0.686285714 5.30453786,0.686285714 C4.60705929,0.686285714 3.94181464,0.973248214 3.37478429,1.51651071 C3.37248234,1.51881266 3.37018039,1.51881266 3.37018039,1.52111461 L1.66830361,3.21990746 C0.97312325,3.91508782 0.577967893,4.76218604 0.492030393,5.73655032 L0.492030393,5.73885207 C0.401488607,6.89286993 0.610193964,8.11053064 1.15038039,9.57156636 C1.96832861,11.7813878 3.19598754,13.8293521 5.00980896,16.0146199 C7.22414825,18.6542271 9.88359468,20.7365664 12.9115411,22.2021199 L12.9138431,22.2021199 C14.0801377,22.7591717 15.6469502,23.4129253 17.4148073,23.5280128 L17.4224804,23.5280128 L17.4347572,23.5280128 C17.5352736,23.5326167 17.6411644,23.5379878 17.7516554,23.5379878 C18.9916108,23.5379878 20.0374947,23.0883432 20.857584,22.2021164 L20.8698608,22.1898396 C20.8798356,22.1798648 20.8867415,22.1729591 20.8944144,22.1629839 C21.1399501,21.868341 21.4223161,21.5959535 21.7392144,21.2913321 C21.9578983,21.0826267 22.1811786,20.869325 22.3975644,20.6383642 C22.9546161,20.0567589 23.249259,19.3784517 23.2469741,18.678675 C23.244659,17.9766 22.9446376,17.3059732 22.3799054,16.741241 Z M19.3835496,20.8524779 L19.3845536,20.8547857 C18.9471857,21.3213036 18.4469214,21.5300089 17.7640179,21.5300089 C17.7003318,21.5300089 17.6289732,21.5254052 17.5553125,21.5200341 C16.1411839,21.4294923 14.8029554,20.8693644 13.7962589,20.3905698 C11.0171875,19.0524002 8.58088393,17.1471412 6.5553125,14.7263555 C4.89794643,12.7298555 3.78075893,10.8690877 3.04179464,8.8749448 C2.59983036,7.68869302 2.43255179,6.77099838 2.50161607,5.90396266 C2.54611893,5.39831623 2.734875,4.99548052 3.09549821,4.63945373 L4.78509821,2.94985373 C4.9615775,2.78028088 5.14342321,2.68974302 5.313,2.68974302 C5.47259821,2.68974302 5.642175,2.77798266 5.82094464,2.95215195 C5.82324659,2.95445389 5.82554834,2.95675584 5.82861754,2.95982504 C6.12096218,3.23451075 6.40562646,3.52455718 6.70794968,3.82917861 L6.71792452,3.83915345 C6.8629438,3.98877702 7.02944059,4.16064809 7.19901738,4.32562845 L8.55406023,5.6806713 C8.94921559,6.07582666 8.94921559,6.3535963 8.55406023,6.74875166 C8.41134309,6.8914688 8.26709773,7.03571416 8.12437273,7.18303559 L8.0238563,7.28585416 C7.64327595,7.67103095 7.28495095,8.03473809 6.89439202,8.3807863 C6.88978832,8.38539 6.88211523,8.39076114 6.87751154,8.39766679 L6.85295796,8.42222036 C6.43784546,8.83733286 6.32505618,9.33300071 6.51918654,9.89313643 C6.52379043,9.90771496 6.52916157,9.91999214 6.53376527,9.93226893 C6.53606721,9.93994202 6.53836896,9.94684766 6.54374011,9.95452036 C6.90744725,10.8307686 7.41769011,11.6632918 8.20340439,12.6577704 C8.20340439,12.6600723 8.20570634,12.6600723 8.20570634,12.6623742 C9.60066348,14.378826 11.0708135,15.7191957 12.7035278,16.75516 C12.9168296,16.8902046 13.1378117,17.0029939 13.3442188,17.1065903 C13.4961446,17.1825532 13.6680117,17.2707928 13.8107367,17.3567225 C13.8207115,17.3643954 13.830686,17.3689992 13.8398946,17.3736029 L13.8475674,17.3782066 C13.8621462,17.3858797 13.8767253,17.3950873 13.8943724,17.4027602 C14.1076742,17.5109491 14.3194635,17.5623584 14.5373617,17.5623584 C14.9102617,17.5623584 15.2540117,17.4073645 15.5317814,17.1157977 L17.2305742,15.4170049 C17.3533421,15.294237 17.5451742,15.1469156 17.7461992,15.1469156 C17.9326532,15.1469156 18.1145028,15.2919349 18.2326742,15.4147066 L20.9795314,18.1615638 C21.2496207,18.4316531 21.4337724,18.7508495 20.9572799,19.2518995 L20.9549782,19.2542014 C20.8053546,19.4161018 20.6457603,19.5710997 20.4761836,19.7352943 C20.4393532,19.7698225 20.4025228,19.8066529 20.3656925,19.8434832 C20.0219425,20.1649779 19.6927675,20.4841743 19.3835496,20.8524779 Z"/></svg>