<svg xmlns="http://www.w3.org/2000/svg" width="24" height="24" viewBox="0 0 24 24"><g fill="#029CDD"><path d="M12.8808387 6.2396129C14.0927806 6.44752258 15.2010968 7.02137419 16.0842581 7.9014 16.9627935 8.77993548 17.5381355 9.88759355 17.7460452 11.1024968 17.8261858 11.5818387 18.2374839 11.9273419 18.7236194 11.9273419 18.7863716 11.9273419 18.8423187 11.9197815 18.8808774 11.912977 18.8831456 11.912977 18.8854138 11.912977 18.888438 11.9107088 19.1523025 11.8668585 19.3821412 11.7247204 19.5340961 11.5039475 19.6868174 11.2862055 19.7442703 11.0246055 19.6989141 10.7660443 19.4229528 9.14507652 18.6585915 7.66927006 17.4851077 6.49597974 16.3071915 5.32259265 14.828269 4.55817329 13.210398 4.28449587L13.20813 4.28449587C12.6683042 4.19528168 12.1579752 4.56045716 12.0687687 5.09724426 11.9840913 5.63933458 12.3469945 6.14966361 12.8815171 6.23887006L12.8808387 6.2396129ZM18.9793548 14.5447742C18.4372645 13.9807548 17.7817742 13.6836387 17.0824258 13.6836387 16.3906452 13.6836387 15.7298516 13.9762258 15.1756645 14.5326774L13.7988968 15.9094452C13.7648748 15.892812 13.7308529 15.8754232 13.6998542 15.8587897L13.6295419 15.8247677C13.4821123 15.7499187 13.3127613 15.6652413 13.172129 15.5783032 11.759071 14.6808774 10.47 13.5052065 9.22625806 11.9810129 8.694 11.3111613 8.32126452 10.7426129 8.04834194 10.176329 8.39461935 9.84971613 8.71592903 9.52310323 9.01834839 9.21311613 9.08639226 9.14507226 9.15368129 9.07551484 9.22399355 9.00520645 9.29203742 8.93489419 9.36159484 8.86458194 9.43190323 8.79503226 10.0080194 8.21891613 10.3127032 7.55132903 10.3104387 6.86407742 10.3104387 6.17909032 10.0057548 5.51376774 9.43190323 4.94295484L8.09369032 3.60474194C8.0165729 3.52762452 7.93870065 3.44975226 7.86385161 3.37263871 7.78900258 3.29552129 7.71113032 3.21764903 7.63627742 3.1428L7.52967484 3.03392903C7.26581032 2.76553548 6.99288774 2.48730968 6.71692645 2.23327742 6.18013935 1.69875484 5.52917806 1.41522581 4.83966194 1.41522581 4.15241032 1.41522581 3.49692 1.69798065 2.93820387 2.23327742 2.93593568 2.23554561 2.93366748 2.23554561 2.93366748 2.23781381L1.2567449 3.91169768C.571757806 4.59668477.182396516 5.43136219.0977190968 6.39143961L.0977190968 6.39370761C.00850490323 7.53080439.214150065 8.73061084.746415871 10.1702237 1.55237071 12.3476431 2.76202877 14.3655786 4.54925458 16.5188044 6.73112555 19.1197076 9.35157716 21.1715141 12.3351255 22.6155786L12.3373937 22.6155786C13.4865873 23.1644625 15.030426 23.8086302 16.7723615 23.9220302L16.7799221 23.9220302 16.7920188 23.9220302C16.8910614 23.9265666 16.9953995 23.931859 17.1042705 23.931859 18.3260446 23.931859 19.356593 23.4888074 20.1646575 22.6155751L20.1767543 22.6034783C20.1865829 22.5936497 20.1933875 22.5868454 20.2009479 22.5770164 20.4428834 22.2866938 20.7211092 22.0183003 21.0333608 21.7181454 21.2488382 21.5125003 21.4688446 21.3023261 21.6820575 21.0747519 22.2309414 20.5016745 22.521264 19.8333132 22.5190126 19.143797 22.5167315 18.4520164 22.2211092 17.7912228 21.6646575 17.2347712L18.9793548 14.5447742ZM18.7132258 21.288C18.282271 21.7476774 17.7893419 21.9533226 17.1164516 21.9533226 17.0536994 21.9533226 16.9833871 21.9487864 16.9108065 21.943494 15.5174129 21.8542798 14.1988065 21.302365 13.206871 20.8305908 10.4685484 19.5120424 8.06796774 17.6347198 6.07209677 15.2494295 4.43903226 13.2822037 3.33822581 11.4487198 2.61009677 9.48381658 2.1746129 8.31495852 2.0097871 7.41071981 2.07783871 6.55639723 2.12168903 6.05816497 2.30767742 5.66123594 2.6630129 5.31042948L4.32783871 3.64560368C4.50173032 3.47851723 4.68090968 3.3893069 4.848 3.3893069 5.00525806 3.3893069 5.17234839 3.47625271 5.34849677 3.64786819 5.35076497 3.65013639 5.35303297 3.65240458 5.35605716 3.65542877 5.64411523 3.92608684 5.92460555 4.21188039 6.22249587 4.51203523L6.23232445 4.52186381C6.37521735 4.66929348 6.53927284 4.83864445 6.70636316 5.00120574L8.04153735 6.33637994C8.43089865 6.72574123 8.43089865 6.999438 8.04153735 7.38879929 7.90091284 7.52942381 7.75878252 7.67155413 7.61815026 7.81671542L7.51910768 7.91802639C7.14410768 8.29755542 6.79103671 8.65592961 6.40620445 8.99690381 6.40166826 9.00144 6.39410768 9.00673239 6.38957148 9.01353677L6.36537794 9.03773032C5.95635213 9.44675613 5.84521665 9.93515613 6.03650052 10.4870787 6.0410369 10.5014435 6.04632929 10.5135406 6.05086548 10.5256374 6.05313368 10.533198 6.05540168 10.5400024 6.06069406 10.5475626 6.41906826 11.4109626 6.92182955 12.2312787 7.6960231 13.2111755 7.6960231 13.2134437 7.69829129 13.2134437 7.69829129 13.2157119 9.07279452 14.9069957 10.5213881 16.2277119 12.1301623 17.2484861 12.3403365 17.3815506 12.5580784 17.4926861 12.761459 17.5947635 12.9111571 17.6696125 13.0805042 17.7565583 13.2211365 17.841228 13.230965 17.8487884 13.2407932 17.8533248 13.2498668 17.857861L13.2574272 17.8623972C13.2717921 17.8699577 13.2861575 17.8790303 13.3035459 17.8865907 13.5137201 17.9931933 13.7224039 18.0438488 13.9371072 18.0438488 14.3045394 18.0438488 14.6432491 17.8911275 14.9169459 17.6038359L16.5908297 15.929952C16.7117975 15.8089843 16.9008168 15.663823 17.0988943 15.663823 17.2826143 15.663823 17.4617975 15.8067159 17.5782362 15.9276875L20.2848168 18.6342681C20.5509459 18.9003972 20.7323975 19.2149133 20.2628917 19.7086165L20.2606237 19.7108847C20.113194 19.8704112 19.9559398 20.0231363 19.7888495 20.1849234 19.7525592 20.2189454 19.7162688 20.2552357 19.6799785 20.291526 19.3412688 20.6083066 19.0169205 20.9228228 18.7122366 21.285726L18.7132258 21.288Z"/><path d="M23.9051613,10.5725806 C23.4598452,7.95212903 22.2214452,5.56219355 20.3221935,3.66309677 C18.4154323,1.76163871 16.0256129,0.522387097 13.4028387,0.0801290323 C12.8630129,-0.00908516129 12.3526839,0.356090323 12.2634774,0.892877419 C12.1742632,1.43270323 12.5394387,1.94303226 13.0739613,2.03223871 C15.2922194,2.40950323 17.3122839,3.45965806 18.918929,5.06398065 C20.5255355,6.6705871 21.572671,8.69069032 21.950671,10.9068194 C22.0308116,11.3861613 22.4421097,11.7316645 22.9282452,11.7316645 L22.9358055,11.7316645 C22.9962894,11.7316645 23.0469449,11.7241041 23.0855036,11.7172995 C23.0877716,11.7172995 23.0900398,11.7172995 23.093064,11.7150315 C23.3569285,11.6711812 23.5867672,11.5290432 23.7387221,11.3082703 C23.8937117,11.0927928 23.951935,10.831967 23.9058085,10.5726315 L23.9051613,10.5725806 Z"/></g></svg>