<svg height='100px' width='100px'  fill="#029cdd" xmlns="http://www.w3.org/2000/svg" xmlns:xlink="http://www.w3.org/1999/xlink" version="1.1" x="0px" y="0px" viewBox="0 0 100 100" enable-background="new 0 0 100 100" xml:space="preserve"><path d="M50,8C26.804,8,8,26.804,8,50s18.804,42,42,42s42-18.804,42-42S73.196,8,50,8z M50,86  c-19.85,0-36-16.15-36-36s16.15-36,36-36s36,16.15,36,36S69.85,86,50,86z"></path><path d="M67.121,62.879c1.172,1.172,1.172,3.07,0,4.242c-1.172,1.172-3.07,1.172-4.242,0l-15-15C47.316,51.559,47,50.797,47,50V29  c0-1.658,1.342-3,3-3s3,1.342,3,3v19.758L67.121,62.879z"></path></svg>