<?xml version="1.0" encoding="utf-8"?>
<!-- Generator: Adobe Illustrator 25.2.0, SVG Export Plug-In . SVG Version: 6.00 Build 0)  -->
<svg version="1.1" id="Layer_1" xmlns="http://www.w3.org/2000/svg" xmlns:xlink="http://www.w3.org/1999/xlink" x="0px" y="0px"
	 viewBox="0 0 100 100" style="enable-background:new 0 0 100 100;" xml:space="preserve">
<style type="text/css">
	.st0{fill:#029CDD;}
</style>
<g transform="matrix(1 0 0 1 -828 -123 )">
	<path class="st0" d="M912.9,160.9c0-19.6-15.6-35.6-34.8-35.6c-19.2,0-34.8,16-34.8,35.6c0,7,1.7,12,5.2,17.3l27.6,41.8
		c0.2,0.3,0.5,0.6,0.9,0.8c0.3,0.2,0.7,0.3,1.1,0.3c0.4,0,0.8-0.1,1.1-0.3c0.3-0.2,0.6-0.5,0.9-0.8l27.6-41.8
		C911.2,172.9,912.9,167.9,912.9,160.9z M848,160.9c0-17,13.4-30.7,30-30.7c16.6,0,30,13.7,30,30.7c0,6.2-1.2,9.8-4.4,14.6
		l-25.6,38.8l-25.6-38.8C849.2,170.7,848,167.2,848,160.9z M894.9,159.7c0-9.5-7.6-17.2-16.8-17.2c-9.3,0-16.8,7.7-16.8,17.2
		c0,9.5,7.6,17.2,16.8,17.2C887.3,176.9,894.9,169.2,894.9,159.7z M866.1,159.7c0-6.8,5.3-12.3,12-12.3c6.7,0,12,5.5,12,12.3
		c0,6.8-5.3,12.3-12,12.3C871.4,172,866.1,166.5,866.1,159.7z"/>
</g>
</svg>
