<?xml version="1.0" encoding="UTF-8"?>
<svg width="100pt" height="100pt" version="1.1" viewBox="0 0 100 100" xmlns="http://www.w3.org/2000/svg">
 <g fill="#ffcf26">
  <path d="m94.508 72.309-30.695-59.383c-1.7578-3.0938-4.5586-5.4609-7.8984-6.6758-3.3438-1.2188-7.0117-1.2109-10.348 0.027344-3.3359 1.2344-6.125 3.6133-7.8672 6.7148l-32.145 59.219h0.003906c-2.6523 4.6445-2.6289 10.352 0.0625 14.977 2.6875 4.6211 7.6367 7.4609 12.984 7.457h62.789c5.3281 0.007813 10.266-2.8086 12.965-7.4062 2.6992-4.5977 2.7539-10.281 0.14844-14.93zm-6.293 11.262c-1.3945 2.4414-4 3.9453-6.8125 3.9297h-62.797c-2.8047-0.003906-5.3945-1.5039-6.8008-3.9297-1.4062-2.4297-1.4141-5.4219-0.019532-7.8555l0.039063-0.066406 32.145-59.184c1.3906-2.4297 3.9609-3.9375 6.7617-3.9648 2.7969-0.027344 5.4023 1.4297 6.8359 3.832l30.664 59.383c1.4141 2.4297 1.4062 5.4336-0.015625 7.8555z"/>
  <path d="m50 32.145c-1.9727 0-3.5703 1.5977-3.5703 3.5703v25c0 1.9727 1.5977 3.5703 3.5703 3.5703s3.5703-1.5977 3.5703-3.5703v-25c0-0.94922-0.375-1.8555-1.0469-2.5273-0.66797-0.66797-1.5781-1.043-2.5234-1.043z"/>
  <path d="m53.57 71.43c0 4.7617-7.1406 4.7617-7.1406 0 0-4.7617 7.1406-4.7617 7.1406 0"/>
 </g>
</svg>
