<svg xmlns="http://www.w3.org/2000/svg" width="24" height="24" viewBox="0 0 24 24"><path fill="#029CDD" d="M20.9302326,4.55776744 L20.9302326,1.58176744 C20.9302326,1.18713488 20.7732558,0.807795349 20.494186,0.528725581 C20.2151163,0.249655814 19.8368372,0.0926790698 19.4422326,0.0926790698 L10.512,0.0926790698 C9.69005581,0.0926790698 9.02291163,0.759823256 9.02291163,1.58176744 L9.02291163,4.55776744 L3.06979535,4.55776744 C1.42590698,4.55776744 0.0926790698,5.89096744 0.0926790698,7.53488372 L0.0926790698,20.9302326 C0.0926790698,21.7194698 0.406632558,22.4771163 0.964772093,23.0352558 C1.52291163,23.5933953 2.28053023,23.9073488 3.06979535,23.9073488 L20.9302605,23.9073488 C21.7194977,23.9073488 22.4771442,23.5933953 23.0352837,23.0352558 C23.5934233,22.4771163 23.9073767,21.7194977 23.9073767,20.9302326 L23.9073767,7.53488372 C23.9073767,6.74564651 23.5934233,5.988 23.0352837,5.42986047 C22.4771442,4.87172093 21.7195256,4.55776744 20.9302605,4.55776744 L20.9302326,4.55776744 Z M10.512,1.58176744 L19.4422326,1.58176744 L19.4422326,7.53488372 L10.512,7.53488372 L10.512,1.58176744 Z M3.06976744,22.4182326 C2.24782326,22.4171425 1.58285581,21.7521767 1.58176744,20.9302326 L1.58176744,7.53488372 C1.58285749,6.71293953 2.24782326,6.04797209 3.06976744,6.04688372 L6.04688372,6.04688372 L6.04688372,22.4182326 L3.06976744,22.4182326 Z M22.4182326,20.9302326 C22.4171425,21.7521767 21.7521767,22.4171442 20.9302326,22.4182326 L7.53488372,22.4182326 L7.53488372,6.04688372 L9.02288372,6.04688372 L9.02288372,7.53488372 C9.02288372,7.92951628 9.17986047,8.30776744 9.45893023,8.58683721 C9.738,8.86590698 10.1173674,9.02288372 10.5119721,9.02288372 L19.4422047,9.02288372 C19.8368372,9.02288372 20.2150884,8.86590698 20.4941581,8.58683721 C20.7732279,8.30776744 20.9302047,7.92948837 20.9302047,7.53488372 L20.9302047,6.04688372 C21.7521488,6.04797377 22.4171163,6.71293953 22.4182326,7.53488372 L22.4182326,20.9302326 Z M12.0000084,12.7445581 C12.0000084,13.0454233 11.81904,13.3168744 11.5410698,13.4313209 C11.262,13.5468726 10.9426047,13.4836465 10.7300372,13.2699851 C10.5163758,13.0574121 10.453147,12.7380223 10.5687014,12.4589526 C10.6831647,12.180974 10.9545991,12.0000223 11.2554642,12.0000223 C11.4527749,12.0000223 11.6424502,12.0785107 11.7819851,12.2180456 C11.92152,12.3575805 12.0000084,12.5472642 12.0000084,12.7445665 L12.0000084,12.7445581 Z M19.4422409,12.7445581 C19.4422409,13.0454233 19.2601842,13.3168744 18.982214,13.4313209 C18.7042353,13.5468726 18.3848372,13.4836465 18.1711814,13.2699851 C17.9586084,13.0574121 17.8953823,12.7380223 18.0098456,12.4589526 C18.1253972,12.180974 18.3968316,12.0000223 18.6976967,12.0000223 C18.8950074,12.0000223 19.0846828,12.0785107 19.2242177,12.2180456 C19.3637526,12.3575805 19.4422409,12.5472642 19.4422409,12.7445665 L19.4422409,12.7445581 Z M15.7216744,12.7445581 L15.7205841,12.7445581 C15.7205841,13.0454233 15.5396241,13.3168744 15.2616539,13.4313209 C14.9836753,13.5468726 14.6631887,13.4836465 14.4506213,13.2699851 C14.2380483,13.0574121 14.1737311,12.7380223 14.2892855,12.4589526 C14.4048371,12.180974 14.6762715,12.0000223 14.9771367,12.0000223 C15.1744473,12.0000223 15.3630343,12.0785107 15.5025692,12.2180456 C15.6421041,12.3575805 15.7205925,12.5472642 15.7205925,12.7445665 L15.7216744,12.7445581 Z M12.0011163,15.7216744 L12.0000262,15.7205841 C12.0000262,16.0214492 11.8190662,16.2929004 11.541096,16.4084353 C11.2620262,16.5239869 10.9426309,16.4596697 10.7300634,16.2470994 C10.516402,16.0345264 10.4531732,15.7140204 10.5687276,15.4360669 C10.6831909,15.1580883 10.9546253,14.9771367 11.2554904,14.9771367 C11.4528011,14.9771367 11.6424765,15.055625 11.7820113,15.1951599 C11.9215462,15.3346948 12.0000346,15.5232901 12.0000346,15.7205925 L12.0011163,15.7216744 Z M19.4433488,15.7216744 L19.4422588,15.7205841 C19.4422588,16.0214492 19.2602104,16.2929004 18.9822402,16.4084353 C18.7042616,16.5239869 18.3848634,16.4596697 18.1712076,16.2470994 C17.9586346,16.0345264 17.8954086,15.7140204 18.0098718,15.4360669 C18.1254234,15.1580883 18.3968579,14.9771367 18.697723,14.9771367 C18.8950337,14.9771367 19.084709,15.055625 19.2242439,15.1951599 C19.3637788,15.3346948 19.4422672,15.5232901 19.4422672,15.7205925 L19.4433488,15.7216744 Z M15.7227907,15.7216744 L15.7206103,15.7205841 C15.7206103,16.0214492 15.5396503,16.2929004 15.2616801,16.4084353 C14.9837099,16.5239701 14.663215,16.4596697 14.4506475,16.2470994 C14.2380801,16.0345292 14.1737573,15.7140204 14.2893117,15.4360669 C14.4048661,15.1581134 14.6762978,14.9771367 14.9771629,14.9771367 C15.1744736,14.9771367 15.3630606,15.055625 15.5025954,15.1951599 C15.6421303,15.3346948 15.7206187,15.5232901 15.7206187,15.7205925 L15.7227907,15.7216744 Z M12.0022326,18.6987907 L12.0000525,18.6977007 C12.0000525,18.9985658 11.8190925,19.2700169 11.5411222,19.3855518 C11.2620525,19.5000151 10.9426571,19.4367862 10.7300897,19.224216 C10.5164283,19.0105546 10.4531994,18.6911369 10.5687539,18.4131834 C10.6832171,18.1352048 10.9546515,17.9531648 11.2555167,17.9531648 C11.4528273,17.9531648 11.6425027,18.0316532 11.7820376,18.1711881 C11.9215725,18.310723 12.0000608,18.5004067 12.0000608,18.697709 L12.0022326,18.6987907 Z M19.4444651,18.6987907 L19.442285,18.6977007 C19.442285,18.9985658 19.2602367,19.2700169 18.9822664,19.3855518 C18.7042878,19.5000151 18.3848897,19.4367862 18.1712339,19.224216 C17.9586608,19.0105546 17.8954348,18.6911369 18.009898,18.4131834 C18.1254497,18.1352048 18.3968841,17.9531648 18.6977492,17.9531648 C18.8950599,17.9531648 19.0847353,18.0316532 19.2242701,18.1711881 C19.363805,18.310723 19.4422934,18.5004067 19.4422934,18.697709 L19.4444651,18.6987907 Z M15.723907,18.6987907 L15.7206366,18.6977007 C15.7206366,18.9985658 15.5396766,19.2700169 15.2617063,19.3855518 C14.9837277,19.5000151 14.6632412,19.4367862 14.4506738,19.224216 C14.2381007,19.0105546 14.1737835,18.6911369 14.289338,18.4131834 C14.4048896,18.1352048 14.676324,17.9531648 14.9771891,17.9531648 C15.1744998,17.9531648 15.3630868,18.0316532 15.5026217,18.1711881 C15.6421566,18.310723 15.7206449,18.5004067 15.7206449,18.697709 L15.723907,18.6987907 Z"/></svg>