<svg xmlns="http://www.w3.org/2000/svg" width="24" height="24" viewBox="0 0 24 24"><g fill="#029CDD"><path d="M12,0 C5.37257143,0 0,5.37257143 0,12 C0,18.6274286 5.37257143,24 12,24 C18.6274286,24 24,18.6274286 24,12 C24,5.37257143 18.6274286,0 12,0 Z M12,22.2857143 C6.32857143,22.2857143 1.71428571,17.6714286 1.71428571,12 C1.71428571,6.32857143 6.32857143,1.71428571 12,1.71428571 C17.6714286,1.71428571 22.2857143,6.32857143 22.2857143,12 C22.2857143,17.6714286 17.6714286,22.2857143 12,22.2857143 Z"/><path d="M16.8917143,15.6797143 C17.2265714,16.0145714 17.2265714,16.5568571 16.8917143,16.8917143 C16.5568571,17.2265714 16.0145714,17.2265714 15.6797143,16.8917143 L11.394,12.606 C11.2331429,12.4454286 11.1428571,12.2277143 11.1428571,12 L11.1428571,6 C11.1428571,5.52628571 11.5262857,5.14285714 12,5.14285714 C12.4737143,5.14285714 12.8571429,5.52628571 12.8571429,6 L12.8571429,11.6451429 L16.8917143,15.6797143 Z"/></g></svg>