<?xml version="1.0" encoding="utf-8"?>
<svg version="1.1" width="20px" height="20px" xmlns="http://www.w3.org/2000/svg">
  <g>
    <path d="M 20 10  C 20 15.5228474545455  15.5228474545455 20  10 20  C 4.4771525 20  0 15.5228474545455  0 10  C 0 4.4771525  4.4771525 0  10 0  C 15.5228474545455 0  20 4.4771525  20 10  Z M 1.81818181818182 10  C 1.81818181818182 14.5186933636364  5.48130659090909 18.1818181818182  10 18.1818181818182  C 14.5186933636364 18.1818181818182  18.1818181818182 14.5186933636364  18.1818181818182 10  C 18.1818181818182 5.48130659090909  14.5186933636364 1.81818181818182  10 1.81818181818182  C 5.48130659090909 1.81818181818182  1.81818181818182 5.48130659090909  1.81818181818182 10  Z M 9.09090909090909 15.4545454545455  L 9.09090909090909 8.18181818181818  L 10.9090909090909 8.18181818181818  L 10.9090909090909 15.4545454545455  L 9.09090909090909 15.4545454545455  Z M 11.1818181818182 5.72727272727273  C 11.1818181818182 6.37997288181818  10.6527001818182 6.90909090909091  10 6.90909090909091  C 9.34729981818182 6.90909090909091  8.81818181818182 6.37997288181818  8.81818181818182 5.72727272727273  C 8.81818181818182 5.07457257272727  9.34729981818182 4.54545454545454  10 4.54545454545454  C 10.6527001818182 4.54545454545454  11.1818181818182 5.07457257272727  11.1818181818182 5.72727272727273  Z " fill-rule="nonzero" stroke="none" style="fill: rgb(255, 255, 255);"/>
  </g>
</svg>