<svg xmlns="http://www.w3.org/2000/svg" width="200" height="53" viewBox="0 0 200 53"><g fill="none"><path fill="#FFF" d="M11.3681241,44.0620592 C23.977433,44.0620592 41.4104372,51.1706629 54.0761636,51.1706629 C63.1029619,51.1706629 71.932299,48.7729196 76.9252468,45.2186178 C77.2637518,43.1311707 77.461213,40.9873061 77.461213,38.8152327 C77.461213,17.6304654 60.2820874,0.451339915 39.0973202,0.451339915 C17.9125529,0.451339915 0.733427362,17.6304654 0.733427362,38.8152327 C0.733427362,40.9873061 0.902679831,43.1029619 1.26939351,45.1622003 C2.62341326,44.8801128 7.33427362,44.0620592 11.3681241,44.0620592 Z"/><g transform="translate(83.78 9.873)"><rect width="88.773" height="1.072" x="13.85" y="41.721" fill="#E3A82B"/><path fill="#FFF" d="M16.135402 3.24400564C16.135402 1.43864598 15.9943583.95909732 14.7813822.874471086L13.9351199.818053597C13.7940762.705218618 13.8222849.225669958 13.9633286.197461213 15.4301834.0564174894 17.2637518-3.55271368e-15 19.77433-3.55271368e-15 21.4668547-3.55271368e-15 23.1029619.112834979 24.3159379.677009873 25.4724965 1.18476728 26.3751763 2.17207334 26.3751763 3.7235543 26.3751763 5.47249647 25.2468265 6.3751763 23.6107193 7.05218618 23.6107193 7.30606488 23.8363893 7.36248237 24.1184767 7.41889986 25.5853315 7.67277856 27.7291961 8.88575458 27.7291961 11.4809591 27.7291961 14.3018336 25.416079 16.1918195 20.5359661 16.1918195 19.7461213 16.1918195 18.4203103 16.1071932 17.2919605 16.1071932 16.1071932 16.1071932 15.1763047 16.1636107 14.1889986 16.1918195 14.0197461 16.1071932 13.9633286 15.7404795 14.1325811 15.5712271L14.6121298 15.4866008C16.0507757 15.2609309 16.1071932 15.0070522 16.1071932 12.4400564L16.1071932 3.24400564 16.135402 3.24400564ZM18.3356841 6.48801128C18.3356841 7.16502116 18.3638928 7.22143865 19.7461213 7.16502116 22.5105783 7.08039492 23.977433 6.34696756 23.977433 4.06205924 23.977433 1.66431594 22.0028209.761636107 19.9435825.761636107 19.3511989.761636107 18.9562764.818053597 18.7023977.902679831 18.4203103.987306065 18.3356841 1.10014104 18.3356841 1.52327221L18.3356841 6.48801128 18.3356841 6.48801128ZM18.3356841 12.1297602C18.3356841 13.0042313 18.3921016 14.2454161 18.899859 14.7813822 19.4076164 15.3455571 20.22567 15.4583921 21.0437236 15.4583921 23.4414669 15.4583921 25.2750353 14.471086 25.2750353 12.045134 25.2750353 10.1269394 24.203103 7.87023977 19.887165 7.87023977 18.4203103 7.87023977 18.3074753 8.0112835 18.3074753 8.49083216L18.3074753 12.1297602 18.3356841 12.1297602ZM46.5444288 5.64174894C46.5444288 3.44146685 46.4880113 3.07475317 45.1339915 2.99012694L44.5698166 2.96191819C44.4287729 2.87729196 44.4851904 2.51057828 44.6262341 2.45416079 45.7827927 2.48236953 46.5726375 2.51057828 47.5317348 2.51057828 48.4626234 2.51057828 49.2524683 2.48236953 50.3808181 2.45416079 50.5218618 2.51057828 50.5782793 2.87729196 50.4372355 2.96191819L49.8730606 2.99012694C48.5190409 3.10296192 48.4626234 3.44146685 48.4626234 5.64174894L48.4626234 13.0324401C48.4626234 15.2327221 48.5190409 15.5148096 49.8730606 15.6840621L50.4372355 15.7404795C50.5782793 15.8251058 50.5218618 16.1918195 50.3808181 16.248237 49.2242595 16.2200282 48.4344147 16.1918195 47.5317348 16.1918195 46.5726375 16.1918195 45.7827927 16.2200282 44.6262341 16.248237 44.4851904 16.1918195 44.4287729 15.8533145 44.5698166 15.7404795L45.1339915 15.6840621C46.4880113 15.5430183 46.5444288 15.2609309 46.5444288 13.0324401L46.5444288 5.64174894ZM59.3511989 13.0888575C59.3511989 15.2609309 59.4076164 15.5712271 60.6488011 15.6840621L61.3540197 15.7404795C61.4950635 15.8251058 61.438646 16.1918195 61.2976023 16.248237 60.0564175 16.2200282 59.3229901 16.1918195 58.4767278 16.1918195 57.6022567 16.1918195 56.8406206 16.2200282 55.4583921 16.248237 55.3173484 16.1918195 55.2891396 15.8251058 55.4583921 15.7404795L56.248237 15.6840621C57.4894217 15.5712271 57.6022567 15.2609309 57.6022567 13.0888575L57.6022567 3.77997179C57.6022567 3.13117066 57.6022567 3.10296192 56.9534556 3.10296192L55.7686883 3.10296192C54.8377997 3.10296192 53.6530324 3.13117066 53.1170663 3.61071932 52.6093089 4.06205924 52.3836389 4.51339915 52.157969 5.0493653 51.9887165 5.16220028 51.6784203 5.07757405 51.5937941 4.90832158 51.932299 3.977433 52.2708039 2.651622 52.4118477 1.80535966 52.4682652 1.77715092 52.7503526 1.74894217 52.8349788 1.80535966 52.9760226 2.48236953 53.6812412 2.45416079 54.6685472 2.45416079L63.4414669 2.45416079C64.5980254 2.45416079 64.7954866 2.42595205 65.1339915 1.86177715 65.2468265 1.83356841 65.4724965 1.83356841 65.528914 1.91819464 65.303244 2.76445698 65.1339915 4.45698166 65.190409 5.07757405 65.1057828 5.24682652 64.7390691 5.24682652 64.6262341 5.10578279 64.5698166 4.59802539 64.4005642 3.80818054 64.090268 3.58251058 63.5825106 3.2157969 62.764457 3.07475317 61.5796897 3.07475317L60.0564175 3.07475317C59.4076164 3.07475317 59.4358251 3.10296192 59.4358251 3.77997179L59.4358251 13.0888575 59.3511989 13.0888575ZM68.6036671 5.64174894C68.6036671 3.44146685 68.5472496 3.07475317 67.1932299 2.99012694L66.629055 2.96191819C66.4880113 2.87729196 66.5444288 2.51057828 66.6854725 2.45416079 67.842031 2.48236953 68.6318759 2.51057828 69.5909732 2.51057828 70.5218618 2.51057828 71.3117066 2.48236953 72.4400564 2.45416079 72.5811001 2.51057828 72.6375176 2.87729196 72.4964739 2.96191819L71.932299 2.99012694C70.5782793 3.10296192 70.5218618 3.44146685 70.5218618 5.64174894L70.5218618 13.0324401C70.5218618 15.2327221 70.5782793 15.5148096 71.932299 15.6840621L72.4964739 15.7404795C72.6375176 15.8251058 72.5811001 16.1918195 72.4400564 16.248237 71.2834979 16.2200282 70.493653 16.1918195 69.5909732 16.1918195 68.6318759 16.1918195 67.842031 16.2200282 66.6854725 16.248237 66.5444288 16.1918195 66.4880113 15.8533145 66.629055 15.7404795L67.1932299 15.6840621C68.5472496 15.5430183 68.6036671 15.2609309 68.6036671 13.0324401L68.6036671 5.64174894ZM78.9562764 16.5021157C76.8970381 16.5021157 75.5994358 15.9661495 75.1198872 15.7404795 74.8377997 15.2891396 74.4992948 13.7940762 74.471086 12.8349788 74.583921 12.6939351 74.9506347 12.6375176 75.0634697 12.7785614 75.4301834 13.8504937 76.4456982 15.8815233 79.2947814 15.8815233 81.3540197 15.8815233 82.3695346 14.7249647 82.3695346 13.48378 82.3695346 12.5811001 82.1438646 11.5373766 80.3667137 10.5782793L78.0253879 9.28067701C76.8124118 8.60366714 75.3737659 7.41889986 75.3737659 5.69816643 75.3737659 3.7235543 77.1791255 2.11565585 80.3667137 2.11565585 81.1283498 2.11565585 82.0028209 2.22849083 82.651622 2.3977433 82.9619182 2.48236953 83.3004231 2.51057828 83.4978843 2.51057828 83.7235543 3.01833568 83.9492243 4.17489422 83.9492243 5.0493653 83.864598 5.16220028 83.4696756 5.24682652 83.3286319 5.10578279 83.0183357 4.11847673 82.3413258 2.76445698 80 2.76445698 77.6022567 2.76445698 77.0662906 4.11847673 77.0662906 5.07757405 77.0662906 6.29055007 78.2510578 7.16502116 79.1537377 7.64456982L81.1283498 8.68829337C82.6798307 9.50634697 84.203103 10.719323 84.203103 12.6939351 84.1748942 14.922426 82.1438646 16.5021157 78.9562764 16.5021157ZM91.3117066 9.50634697C90.2397743 9.50634697 90.1833568 9.53455571 90.1833568 10.1833568L90.1833568 13.1170663C90.1833568 15.2891396 90.2961918 15.5994358 91.5373766 15.7122708L92.1861777 15.7686883C92.3272214 15.8533145 92.2708039 16.2200282 92.1297602 16.2764457 90.9167842 16.248237 90.1551481 16.2200282 89.280677 16.2200282 88.3215797 16.2200282 87.5599436 16.248237 86.6854725 16.2764457 86.5444288 16.2200282 86.51622 15.8815233 86.629055 15.7686883L86.9957687 15.7122708C88.2369535 15.5148096 88.2933709 15.2891396 88.2933709 13.1170663L88.2933709 5.6135402C88.2933709 3.44146685 88.1241185 3.07475317 86.9675599 2.99012694L86.3751763 2.96191819C86.2341326 2.87729196 86.2905501 2.51057828 86.4315938 2.45416079 87.5317348 2.48236953 88.2933709 2.51057828 89.2524683 2.51057828 90.1269394 2.51057828 90.8885755 2.48236953 91.8476728 2.45416079 91.9887165 2.51057828 92.0169252 2.87729196 91.9040903 2.96191819L91.4809591 2.99012694C90.1833568 3.10296192 90.1269394 3.41325811 90.1269394 5.6135402L90.1269394 8.0112835C90.1269394 8.66008463 90.1833568 8.68829337 91.2552891 8.68829337L97.6586742 8.68829337C98.7306065 8.68829337 98.787024 8.66008463 98.787024 8.0112835L98.787024 5.6135402C98.787024 3.44146685 98.7306065 3.13117066 97.4330042 2.99012694L97.0098731 2.96191819C96.8688293 2.87729196 96.9252468 2.51057828 97.0662906 2.45416079 98.1100141 2.48236953 98.8434415 2.51057828 99.77433 2.51057828 100.648801 2.51057828 101.410437 2.48236953 102.425952 2.45416079 102.566996 2.51057828 102.595205 2.87729196 102.48237 2.96191819L102.002821 2.99012694C100.705219 3.10296192 100.648801 3.41325811 100.648801 5.6135402L100.648801 13.0888575C100.648801 15.2609309 100.705219 15.5430183 102.002821 15.6840621L102.538787 15.7404795C102.679831 15.8251058 102.623413 16.1918195 102.48237 16.248237 101.410437 16.2200282 100.648801 16.1918195 99.77433 16.1918195 98.8434415 16.1918195 98.0535966 16.2200282 97.0662906 16.248237 96.9252468 16.1918195 96.8970381 15.8533145 97.0098731 15.7404795L97.4330042 15.6840621C98.787024 15.4866008 98.787024 15.2609309 98.787024 13.0888575L98.787024 10.1551481C98.787024 9.53455571 98.7306065 9.47813822 97.6586742 9.47813822L91.3117066 9.50634697 91.3117066 9.50634697ZM3.32863188 20.8462623C5.16220028 19.4076164 7.50352609 18.7023977 10.1269394 18.7023977 11.4809591 18.7023977 13.3991537 18.9844852 14.583921 19.2947814 14.8942172 19.3794076 15.0634697 19.4076164 15.2891396 19.4076164 15.3173484 19.9717913 15.4301834 21.5796897 15.6276446 23.1029619 15.5148096 23.2722144 15.1198872 23.3004231 14.9506347 23.1593794 14.583921 21.438646 13.4273625 19.4922426 9.78843441 19.4922426 5.92383639 19.4922426 2.651622 21.9181946 2.651622 27.1368124 2.651622 32.4118477 6.00846262 35.3173484 10.1269394 35.3173484 13.370945 35.3173484 14.809591 33.2016925 15.4019746 31.7348378 15.5712271 31.6220028 15.9661495 31.6502116 16.0507757 31.8476728 15.8815233 33.145275 15.2327221 34.809591 14.8377997 35.2891396 14.5275035 35.3455571 14.2454161 35.4301834 13.9633286 35.5430183 13.3991537 35.7404795 11.5937941 36.1071932 9.98589563 36.1071932 7.72919605 36.1071932 5.55712271 35.6558533 3.7235543 34.4146685 1.72073343 33.0324401.141043724 30.7475317.141043724 27.5035261.141043724 24.7108604 1.41043724 22.3413258 3.32863188 20.8462623ZM17.0944993 28.9703808C17.0944993 24.8236953 20.3667137 21.6361072 24.8801128 21.6361072 29.9294781 21.6361072 32.4682652 25.1057828 32.4682652 28.7729196 32.4682652 32.9760226 29.1114245 36.022567 24.8801128 36.022567 20.0282087 36.022567 17.0944993 32.7221439 17.0944993 28.9703808ZM30.2679831 29.4217207C30.2679831 25.9802539 28.6600846 22.2849083 24.5133992 22.2849083 22.2284908 22.2849083 19.2947814 23.751763 19.2947814 28.3215797 19.2947814 31.3963329 20.8744711 35.4019746 25.1622003 35.4019746 27.7856135 35.3737659 30.2679831 33.5119887 30.2679831 29.4217207ZM57.0944993 27.1932299C57.0944993 25.8956276 57.0380818 23.4978843 56.6713681 22.877292 56.5303244 22.6234133 56.1071932 22.4823695 55.5712271 22.4541608L55.0070522 22.425952C54.8660085 22.2849083 54.922426 22.0028209 55.0634697 21.9181946 55.909732 21.9464034 56.7277856 21.9746121 57.574048 21.9746121 58.5049365 21.9746121 59.0973202 21.9464034 59.887165 21.9181946 60.0564175 22.0310296 60.0282087 22.2849083 59.9435825 22.425952L59.4076164 22.4541608C58.8434415 22.4823695 58.448519 22.6798307 58.3074753 22.9619182 57.9971791 23.6389281 57.9971791 26.0366714 57.9971791 27.1932299L57.9971791 29.5345557C57.9971791 31.3399154 57.6868829 33.25811 56.4456982 34.4992948 55.4866008 35.4866008 53.8787024 36.022567 52.2425952 36.022567 50.719323 36.022567 49.1960508 35.7404795 48.1241185 34.8660085 46.9675599 33.9633286 46.403385 32.4400564 46.403385 29.9576869L46.403385 25.0493653C46.403385 22.877292 46.3469676 22.538787 45.077574 22.425952L44.5133992 22.3977433C44.3723554 22.3131171 44.4287729 21.9746121 44.5698166 21.8899859 45.6699577 21.9181946 46.4315938 21.9464034 47.3060649 21.9464034 48.2087447 21.9464034 48.9421721 21.9181946 50.0141044 21.8899859 50.1551481 21.9464034 50.1833568 22.3131171 50.0705219 22.3977433L49.5345557 22.425952C48.2651622 22.538787 48.2087447 22.877292 48.2087447 25.0493653L48.2087447 29.5345557C48.2087447 32.8913963 49.3088858 35.0916784 52.6939351 35.0916784 55.8815233 35.0916784 57.0944993 32.7221439 57.0944993 29.5627645L57.0944993 27.1932299ZM82.7080395 24.5980254C82.7080395 23.0465444 82.6234133 22.651622 81.5232722 22.5669958L80.7334274 22.4823695C80.6488011 22.3977433 80.5923836 21.9746121 80.7616361 21.9746121 82.0874471 21.8899859 83.7235543 21.8053597 86.0084626 21.8053597 87.5317348 21.8053597 88.9985896 21.9181946 90.0987306 22.3977433 91.1424542 22.8490832 91.9605078 23.6671368 91.9605078 25.0211566 91.9605078 26.5444288 90.9449929 27.3060649 89.4781382 27.8984485 89.4781382 28.0959097 89.6755994 28.180536 89.9294781 28.2087447 91.2552891 28.4062059 93.2016925 29.4781382 93.2016925 31.7066291 93.2016925 34.1325811 91.1142454 35.7686883 86.7136812 35.7686883 86.0084626 35.7686883 84.8236953 35.7122708 83.7799718 35.7122708 82.7080395 35.7122708 81.8899859 35.7404795 80.9873061 35.7686883 80.8462623 35.7122708 80.7898449 35.3737659 80.9308886 35.2327221L81.3822285 35.1763047C82.6798307 34.9788434 82.7362482 34.7531735 82.7362482 32.5528914L82.7080395 24.5980254 82.7080395 24.5980254ZM84.7108604 27.3906911C84.7108604 27.9830748 84.7390691 28.0112835 85.9802539 27.9830748 88.4626234 27.8984485 89.8166432 27.2778561 89.8166432 25.303244 89.8166432 23.2440056 88.0394922 22.4541608 86.1777151 22.4541608 85.6417489 22.4541608 85.2750353 22.4823695 85.0493653 22.5669958 84.7954866 22.6234133 84.7108604 22.7362482 84.7108604 23.1029619L84.7108604 27.3906911 84.7108604 27.3906911ZM84.7108604 32.2425952C84.7108604 33.0042313 84.7672779 34.0761636 85.2186178 34.5275035 85.6699577 35.0070522 86.403385 35.1198872 87.1368124 35.1198872 89.3088858 35.1198872 90.9732017 34.2736248 90.9732017 32.1861777 90.9732017 30.5218618 89.9858956 28.6036671 86.1212976 28.6036671 84.7954866 28.6036671 84.7108604 28.7165021 84.7108604 29.1396333L84.7108604 32.2425952 84.7108604 32.2425952ZM42.9901269 15.7686883 42.425952 15.7122708C42.3131171 15.7122708 42.2002821 15.6840621 42.1156559 15.6558533 41.2693935 15.5148096 40.9308886 14.7531735 40.5359661 14.0479549L38.5331453 10.5782793C38.1946403 9.98589563 37.8279267 9.22425952 37.0380818 9.11142454 39.0973202 8.85754584 40.9308886 7.67277856 40.9308886 5.66995769 40.9308886 3.32863188 38.6177715 2.28490832 36.2764457 2.28490832 34.8660085 2.28490832 33.596615 2.31311707 32.157969 2.31311707 31.3681241 2.31311707 30.4372355 2.28490832 29.6473907 2.28490832 29.1960508 2.28490832 29.1960508 2.36953456 29.1960508 2.62341326 29.1960508 2.99012694 29.3370945 2.87729196 29.8166432 2.90550071 31.4809591 2.99012694 31.4245416 3.30042313 31.4245416 4.73906911L31.4245416 13.8504937C31.4245416 15.1480959 31.5373766 15.5430183 30.1551481 15.6558533 30.1551481 15.6558533 29.9576869 15.6840621 29.8166432 15.6840621L29.2524683 15.7686883C29.1114245 15.8815233 29.167842 16.2200282 29.3088858 16.2764457 29.6191819 16.2764457 30.1551481 16.248237 30.1551481 16.248237 30.9167842 16.2200282 31.6784203 16.1636107 32.4400564 16.1636107 33.2016925 16.1636107 33.9351199 16.2200282 34.6685472 16.248237L34.6685472 16.248237C34.922426 16.248237 35.2045134 16.2764457 35.5148096 16.2764457 35.6558533 16.2200282 35.7122708 15.8815233 35.5712271 15.7686883L34.9788434 15.7122708C34.8660085 15.7122708 34.6685472 15.6840621 34.6685472 15.6840621 33.2863188 15.5994358 33.370945 15.2045134 33.370945 13.8504937L33.370945 10.4090268C33.370945 10.2115656 33.3427362 9.67559944 33.48378 9.50634697 33.596615 9.36530324 33.8222849 9.39351199 34.0197461 9.39351199 35.8815233 9.39351199 35.8815233 9.56276446 36.7559944 11.1424542L39.1819464 15.4866008C39.3794076 15.8251058 39.5204513 16.248237 40.0282087 16.248237L42.1156559 16.248237C42.3695346 16.248237 42.651622 16.2764457 42.9619182 16.2764457 43.1029619 16.2200282 43.1311707 15.8815233 42.9901269 15.7686883ZM34.583921 8.91396333C34.1607898 8.91396333 33.3145275 9.0832158 33.3145275 8.5190409L33.3145275 4.5416079C33.3145275 2.99012694 33.370945 2.76445698 35.2327221 2.76445698 37.4330042 2.76445698 38.787024 3.86459803 38.787024 5.92383639 38.787024 6.82651622 38.4767278 7.64456982 37.6586742 8.20874471 36.7277856 8.82933709 35.7122708 8.91396333 34.583921 8.91396333ZM35.0351171 25.1332581C35.0351171 22.9611848 34.9786996 22.6226798 33.5400536 22.5098449L32.9758787 22.4816361C32.834835 22.3970099 32.8912525 22.0302962 33.0322962 21.9738787 34.3016897 22.0020874 35.0915346 22.0302962 35.9942144 22.0302962 36.8968942 22.0302962 37.6585303 22.0020874 38.8150889 21.9738787 38.9561326 22.0302962 38.9843413 22.3970099 38.8715064 22.4816361L38.3355402 22.5098449C36.9815205 22.6226798 36.9533117 22.932976 36.9533117 25.1332581L36.9533117 32.3829055C36.9533117 33.6805078 37.0097292 34.2446827 37.4328604 34.6396051 37.6867391 34.865275 38.1098702 35.1191537 39.9152299 35.1191537 41.8616333 35.1191537 42.341182 35.0345275 42.7078956 34.8370663 43.1592355 34.5831876 43.7516192 33.8497602 44.2311678 32.7778279 44.3722116 32.6649929 44.7953427 32.7496192 44.7953427 32.8906629 44.7953427 33.1163329 44.1465416 35.2319887 43.8362454 35.7961636 42.6796869 35.7679549 40.5076135 35.7397461 38.138079 35.7397461L36.0224231 35.7397461C35.0633258 35.7397461 34.3298985 35.7679549 33.0605049 35.7961636 32.9194612 35.7397461 32.8912525 35.4012412 33.0040874 35.2884062L33.6810973 35.2319887C35.0069083 35.1191537 35.0633258 34.8088575 35.0633258 32.6367842L35.0633258 25.1332581 35.0351171 25.1332581ZM96.3327193 25.1614668C96.3327193 22.9611848 96.2763018 22.5944711 94.9504908 22.5098449L94.3863159 22.4816361C94.2452722 22.3970099 94.3016897 22.0302962 94.4427334 21.9738787 95.5710832 22.0020874 96.3327193 22.0302962 97.2636079 22.0302962 98.1662877 22.0302962 98.9279238 22.0020874 100.056274 21.9738787 100.197317 22.0302962 100.225526 22.3970099 100.112691 22.4816361L99.5485162 22.5098449C98.2227052 22.6226798 98.1662877 22.9611848 98.1662877 25.1614668L98.1662877 32.552158C98.1662877 34.7524401 98.2227052 35.0345275 99.5485162 35.20378L100.112691 35.2601975C100.253735 35.3448237 100.197317 35.7115374 100.056274 35.7679549 98.9279238 35.7397461 98.1662877 35.7115374 97.2636079 35.7115374 96.3327193 35.7115374 95.5428745 35.7397461 94.4427334 35.7679549 94.3016897 35.7115374 94.273481 35.3730324 94.3863159 35.2601975L94.9504908 35.20378C96.2763018 35.0627362 96.3327193 34.7806488 96.3327193 32.552158L96.3327193 25.1614668ZM78.3919577 35.20378C78.2791227 35.20378 78.0534528 35.1755712 78.0534528 35.1755712 77.8277828 35.1473625 77.6021128 35.1191537 77.4328604 34.9216925 77.1507729 34.6113963 77.1789817 33.7369252 77.1789817 33.3702116L77.1789817 24.258787C77.1789817 23.8638646 77.0943554 22.9893935 77.3764429 22.6790973 77.5174866 22.5098449 77.8277828 22.4816361 78.0816615 22.4816361L78.0816615 22.4816361C78.250914 22.4816361 78.250914 22.4816361 78.3919577 22.4534274L78.9561326 22.4252186C79.0971763 22.3405924 79.0407588 21.9738787 78.8997151 21.9174612 78.5894189 21.9174612 78.3073315 21.9174612 78.0534528 21.94567L78.0534528 21.94567 75.599292 21.94567C75.3454133 21.94567 75.0915346 21.94567 74.9504908 22.2277574L69.957543 32.6367842 65.5287701 22.5662623C65.3877264 22.1995487 65.3595176 21.9174612 64.9081777 21.9174612L62.3411819 21.9174612C62.0873032 21.9174612 61.7770071 21.9174612 61.4667109 21.8892525 61.3256671 21.94567 61.2692496 22.3123836 61.4102934 22.3970099L61.9744683 22.4252186C62.0873032 22.4252186 62.3129732 22.4534274 62.3129732 22.4534274 63.2720705 22.5098449 63.328488 22.7355148 63.2438618 23.7510296L62.4822257 33.539464C62.4258082 34.5267701 62.3693907 35.0345275 61.3256671 35.1473625 61.3256671 35.1473625 61.0999972 35.1755712 60.9871622 35.1755712L60.4229873 35.2319887C60.2819436 35.3448237 60.3383611 35.6833286 60.4794048 35.7397461 60.789701 35.7397461 61.3256671 35.7115374 61.3256671 35.7115374 61.8334245 35.6833286 62.3693907 35.6269111 62.9053568 35.6269111 63.4695317 35.6269111 64.0619154 35.6833286 64.6260903 35.7115374L64.6260903 35.7115374C64.879969 35.7115374 65.1620564 35.7397461 65.4723526 35.7397461 65.6133963 35.6833286 65.6698138 35.3448237 65.5287701 35.2319887L64.9645952 35.1755712C64.8235515 35.1755712 64.654299 35.1473625 64.654299 35.1473625 63.1592355 35.0345275 63.215653 33.9908039 63.3002793 32.7214104L64.0054979 23.6381946 64.1747504 23.6381946 68.970237 34.8370663C69.0266544 34.97811 69.0830719 35.2601975 69.3369506 35.2601975 69.5626206 35.2601975 69.6190381 35.0063188 69.7036643 34.865275L75.0915346 23.3843159 75.260787 23.3843159 75.260787 33.3702116C75.260787 33.765134 75.3172045 34.5831876 74.8940733 34.8934838 74.6684034 35.0627362 73.9913935 35.1473625 73.9913935 35.1473625 73.9067673 35.1755712 73.7939323 35.1755712 73.6810973 35.1755712L73.1169224 35.2319887C72.9758787 35.3448237 73.0322962 35.6833286 73.1733399 35.7397461 73.4836361 35.7397461 74.0196023 35.7115374 74.0196023 35.7115374 74.8094471 35.6833286 75.599292 35.6269111 76.3891368 35.6269111 76.9533117 35.6269111 78.0816615 35.6833286 78.0816615 35.6833286 78.3355402 35.6833286 78.6458364 35.7115374 78.9561326 35.7397461 79.0971763 35.6833286 79.1535938 35.3448237 79.0125501 35.2319887L78.3919577 35.20378ZM115.881379 35.2601975 115.796753 35.20378C115.683918 35.20378 115.571083 35.1755712 115.486457 35.1755712 114.583777 34.97811 114.245272 33.877969 113.906767 33.1163329L109.280533 22.1713399C109.224116 22.0302962 109.139489 21.7482087 108.970237 21.7482087 108.716358 21.7482087 108.659941 22.0585049 108.575315 22.2277574L104.146542 33.1727504C103.977289 33.5958815 103.582367 34.5831876 103.272071 34.8934838 103.046401 35.1191537 102.736104 35.1755712 102.425808 35.20378 102.425808 35.20378 102.17193 35.2319887 102.059095 35.2319887L101.523128 35.2884062C101.382085 35.4012412 101.438502 35.7397461 101.579546 35.7961636 101.889842 35.7961636 102.425808 35.7679549 102.425808 35.7679549 103.018192 35.7679549 103.638784 35.6833286 104.231168 35.6833286 104.738925 35.6833286 105.246683 35.7397461 105.75444 35.7679549 105.75444 35.7679549 106.290406 35.7961636 106.600702 35.7961636 106.741746 35.7397461 106.798164 35.4012412 106.65712 35.2884062L106.092945 35.2319887C105.98011 35.2319887 105.782649 35.20378 105.782649 35.20378 105.246683 35.1473625 104.597882 35.0627362 104.597882 34.4703526 104.597882 34.0754302 104.795343 33.6240903 104.908178 33.2573766L105.585188 31.6212694C105.923693 30.8314245 105.782649 30.7467983 106.713537 30.7467983L109.816499 30.7467983C110.91664 30.7467983 110.747388 30.7467983 111.226937 31.8469394L111.960364 33.5112553C112.073199 33.7933427 112.27066 34.2728914 112.27066 34.5831876 112.27066 35.1191537 111.678276 35.1755712 111.114102 35.20378 111.114102 35.20378 110.91664 35.2319887 110.775597 35.2319887L110.211422 35.2601975C110.070378 35.3730324 110.126796 35.7115374 110.267839 35.7679549 110.578135 35.7679549 111.114102 35.7397461 111.114102 35.7397461 111.762903 35.7115374 112.411704 35.6551199 113.060505 35.6551199 113.85035 35.6551199 114.668403 35.7115374 115.458248 35.7397461L115.458248 35.7397461C115.712127 35.7397461 115.486457 35.7679549 115.796753 35.7679549 115.994214 35.7397461 116.022423 35.4012412 115.881379 35.2601975ZM109.816499 30.1262059 107.10846 30.1262059C107.023834 30.1262059 106.262198 30.2108322 106.262198 29.9851622 106.262198 29.9287447 106.318615 29.787701 106.318615 29.7312835L107.926513 25.7256417C107.982931 25.6128068 108.123975 25.0768406 108.321436 25.0768406 108.46248 25.0768406 108.659941 25.6410155 108.68815 25.7256417L110.296048 29.4774048C110.296048 29.5338223 110.4653 29.8723272 110.4653 29.9569535 110.521718 30.1826234 109.957543 30.1262059 109.816499 30.1262059Z"/></g><g fill="#E3A82B" transform="translate(.846)"><polygon points="63.075 29.929 64.598 30.55 67.955 28.209"/><path d="M6.54442877,27.3060649 L2.56699577,25.8956276 L2.76445698,25.416079 L7.24964739,26.9111425 L7.27785614,26.9111425 L7.87023977,26.5726375 L8.09590973,26.4315938 L3.18758815,24.3441467 L3.38504937,23.8363893 L14.3300423,28.2651622 L14.696756,28.1241185 L3.86459803,22.8490832 L4.11847673,22.3413258 L15.5994358,27.7009873 L15.7686883,27.6163611 L4.62623413,21.2976023 L4.85190409,20.8180536 L20.9308886,29.5627645 C21.0719323,29.3088858 21.325811,28.8857546 21.4668547,28.6318759 C15.3455571,22.877292 9.44992948,18.561354 9.44992948,18.561354 C9.44992948,18.561354 15.5148096,22.6234133 23.0183357,26.403385 C23.2722144,26.0930889 23.4696756,25.8392102 23.7235543,25.5571227 L9.98589563,13.48378 L10.3526093,13.1170663 L21.438646,22.5669958 L11.1706629,12.2990127 L11.5655853,11.9040903 L23.0747532,23.0465444 L12.3554302,11.1424542 L12.7785614,10.7757405 L22.6798307,21.3822285 L13.6248237,9.98589563 L14.0197461,9.61918195 L25.6135402,23.7235543 C25.9238364,23.4696756 26.1495063,23.2722144 26.4880113,23.0183357 C22.9901269,15.4301834 19.1537377,9.25246827 19.1537377,9.25246827 C19.1537377,9.25246827 23.2440056,15.2609309 28.7447109,21.551481 C29.0832158,21.3540197 29.4217207,21.1847673 29.7602257,21.0155148 L29.7038082,20.9873061 L21.5796897,4.76727786 L22.0592384,4.5416079 L28.8011283,17.4330042 L23.1311707,4.06205924 L23.6389281,3.83638928 L30.1551481,18.4767278 L24.6826516,3.41325811 L25.190409,3.2157969 L30.4090268,16.7842031 L26.2623413,2.79266573 L26.7700987,2.62341326 L32.1861777,19.9435825 L32.1861777,20 L32.1861777,20 C32.5528914,19.887165 32.9196051,19.77433 33.2863188,19.6614951 C32.8631876,11.3399154 31.6502116,4.23131171 31.6502116,4.23131171 C31.6502116,4.23131171 33.1734838,11.2834979 35.909732,19.1537377 C36.2764457,19.0973202 36.6713681,19.0691114 37.0662906,19.0409027 L37.0662906,19.0126939 L37.122708,19.0126939 L37.0944993,18.9844852 L35.6276446,0.902679831 L36.1636107,0.874471086 L37.574048,15.3737659 L37.2637518,0.818053597 L37.8279267,0.789844852 L38.3921016,16.8124118 L38.9562764,0.789844852 L39.5204513,0.818053597 L39.2665726,15.3455571 L40.6770099,0.846262341 L41.212976,0.874471086 L39.7461213,18.9562764 L39.7179126,18.9844852 L39.7179126,18.9844852 L39.7179126,18.9844852 L39.7461213,18.9844852 C40.112835,19.0126939 40.5077574,19.0409027 40.8744711,19.0973202 C43.6107193,11.2552891 45.1339915,4.20310296 45.1339915,4.20310296 C45.1339915,4.20310296 43.9210155,11.2834979 43.4978843,19.6050776 C43.864598,19.6897038 44.2313117,19.8025388 44.5980254,19.9435825 L50.0141044,2.67983075 L50.5218618,2.84908322 L46.403385,16.8124118 L51.5373766,3.24400564 L52.045134,3.44146685 L46.5726375,18.5049365 L53.0888575,3.86459803 L53.596615,4.09026798 L47.9266573,17.461213 L54.6685472,4.56981664 L55.1480959,4.7954866 L47.0521862,20.9590973 L47.0521862,20.9590973 C47.3906911,21.1283498 47.7009873,21.2976023 48.0394922,21.4668547 C53.5119887,15.2045134 57.574048,9.22425952 57.574048,9.22425952 C57.574048,9.22425952 53.7658674,15.3455571 50.2679831,22.9055007 C50.5782793,23.1311707 50.8885755,23.3850494 51.1706629,23.6389281 L62.6234133,9.67559944 L63.0183357,10.0423131 L53.9633286,21.438646 L63.864598,10.832158 L64.2877292,11.1988717 L53.5684062,23.1029619 L65.077574,11.9605078 L65.4724965,12.3554302 L55.2045134,22.6234133 L66.2905501,13.1734838 L66.6572638,13.5401975 L53.0888575,25.4724965 L53.0888575,25.4724965 C53.3145275,25.7263752 53.5401975,26.0084626 53.7658674,26.2905501 C61.212976,22.538787 67.2214386,18.5049365 67.2214386,18.5049365 C67.2214386,18.5049365 61.3822285,22.7926657 55.2891396,28.4908322 C55.4583921,28.7729196 55.7122708,29.2524683 55.8815233,29.5345557 L71.7348378,20.9026798 L71.9605078,21.3822285 L59.2947814,28.5754584 L72.4682652,22.4541608 L72.7221439,22.9619182 L60.4513399,28.9421721 L60.6770099,29.0267983 L73.145275,23.977433 L73.3427362,24.4851904 L61.7489422,29.4217207 L61.9746121,29.506347 L69.7038082,26.9393512 L70.8603667,26.1212976 L71.2552891,26.403385 L73.7940762,25.5571227 L73.9915374,26.0366714 L71.7912553,26.7983075 L74.9788434,29.2242595 L75.9943583,29.7884344 C71.9040903,12.6939351 56.5303244,0 38.1946403,0 C19.5204513,0 3.94922426,13.145275 0.197461213,30.6911142 C0.253878702,30.6629055 0.282087447,30.6346968 0.338504937,30.6346968 L0.818053597,30.4372355 L1.10014104,30.2961918 L6.54442877,27.3060649 Z"/></g><path fill="#234075" d="M0.902679831,45.9520451 C0.902679831,45.9520451 6.62905501,44.7954866 11.4245416,44.7954866 C24.0338505,44.7954866 41.4668547,51.9040903 54.1325811,51.9040903 C63.4132581,51.9040903 72.4682652,49.3653032 77.4047955,45.6417489 C77.7997179,43.4414669 77.9971791,41.1847673 77.9971791,38.8716502 C77.9971791,35.7404795 77.6304654,32.7221439 76.9252468,29.7884344 L71.6502116,26.854725 L65.4724965,31.1988717 L61.2976023,29.5909732 C59.887165,30.2961918 51.1988717,36.1071932 51.1988717,36.1071932 L47.8702398,33.6812412 L44.2877292,32.9760226 L39.5204513,29.506347 L34.0479549,33.25811 C34.0479549,33.25811 27.9266573,36.8124118 27.7291961,36.8124118 C27.5317348,36.8124118 20.3667137,31.1424542 20.3667137,31.1424542 L17.0662906,27.6727786 C16.5021157,28.0394922 14.2454161,29.0550071 14.2454161,29.0550071 L14.1325811,29.0832158 L11.9605078,28.4062059 L9.30888575,26.9957687 L1.29760226,30.6346968 C1.24118477,30.6629055 1.21297602,30.6911142 1.15655853,30.6911142 C0.592383639,33.3145275 0.282087447,36.0507757 0.282087447,38.8716502 C0.253878702,41.2976023 0.47954866,43.6671368 0.902679831,45.9520451 Z"/></g></svg>