<?xml version="1.0" encoding="utf-8"?>
<svg version="1.1" xmlns:xlink="http://www.w3.org/1999/xlink" width="18px" height="18px" xmlns="http://www.w3.org/2000/svg">
  <g transform="matrix(1 0 0 1 -106 -59 )">
    <path d="M 8.73437490000001 17.4042968  C 9.09960920000001 17.4042968  9.4365234 17.2050781  9.6113281 16.8837891  L 10.8134765 14.6855469  C 11.6933593 13.078125  13.0078124 11.7636719  14.6142577 10.8857422  L 16.8134765 9.6835938  C 17.1347656 9.50781259999999  17.3339843 9.1708985  17.3339843 8.80566409999999  C 17.3339843 8.44042969999999  17.1347655 8.1035157  16.8134765 7.92773439999999  L 14.6152343 6.72656249999999  C 13.0078124 5.8466797  11.6933593 4.53222659999999  10.8134765 2.9248047  L 9.6113281 0.726562499999993  C 9.2617187 0.0839843999999914  8.2070312 0.0839843999999914  7.8574219 0.726562499999993  L 6.6542969 2.9248047  C 5.7763672 4.53222659999999  4.4619141 5.8466797  2.8544922 6.72656249999999  L 0.65625 7.9287109  C 0.334960899999999 8.1035156  0.135742199999999 8.4404297  0.135742199999999 8.805664  C 0.135742199999999 9.1708983  0.334961 9.5078124  0.65625 9.6826171  L 2.8544922 10.8857421  C 4.4619141 11.7636718  5.7763672 13.0781249  6.65527340000001 14.6855468  L 7.8574218 16.883789  C 8.03222650000001 17.2050781  8.3691406 17.4042968  8.73437490000001 17.4042968  Z M 8.4101562 13.7265625  C 7.3466797 11.7822266  5.7578125 10.1933594  3.8134766 9.1308594  L 3.2197266 8.8056641  L 3.8134766 8.4804688  C 5.7578125 7.4169922  7.3476563 5.82714850000001  8.4091797 3.8837891  L 8.734375 3.2900391  L 9.0595703 3.8837891  C 10.1220703 5.8271485  11.7119141 7.4169922  13.6552734 8.4814453  L 14.2490234 8.8056641  L 13.6552734 9.1308594  C 11.711914 10.1933594  10.1230468 11.7822266  9.0595703 13.7265625  L 8.734375 14.3203125  L 8.4101562 13.7265625  Z " fill-rule="nonzero" fill="#333333" stroke="none" transform="matrix(1 0 0 1 106 59 )" />
  </g>
</svg>