<?xml version="1.0" encoding="utf-8"?>
<svg version="1.1" xmlns:xlink="http://www.w3.org/1999/xlink" width="77px" height="81px" xmlns="http://www.w3.org/2000/svg">
  <g transform="matrix(1 0 0 1 -87 -25 )">
    <path d="M 77 44  C 77 41.7908610006768  75.2091389993232 40  73 40  L 63 40  L 63 34  C 63 31.7908610006768  61.2091389993232 30  59 30  L 54 30  L 54 9  C 54 8.44771525016921  53.5522847498308 8  53 8  L 46 8  L 46 1  C 46 0.449999999999999  45.8 0  45.25 0  L 0.75 0  C 0.199999999999999 0  0 0.449999999999999  0 1  L 0 65.25  C 0 65.8  0.199999999999999 66  0.75 66  L 8 66  L 8 73  C 8 73.5522847498308  8.44771525016921 74  9 74  L 19 74  L 19 77  C 19 79.2091389993232  20.7908610006768 81  23 81  L 73 81  C 75.2091389993232 81  77 79.2091389993232  77 77  L 77 44  Z M 73 42  C 74.1045694996616 42  75 42.8954305003384  75 44  L 75 55.07  L 55.57 57.9  C 50.5960136351764 58.6212993161849  45.5439863648236 58.6212993161849  40.57 57.9  L 21 55.06  L 21 44  C 21 42.8954305003384  21.8954305003384 42  23 42  L 73 42  Z M 54 36  L 57 36  L 57 40  L 54 40  L 54 36  Z M 52 36  L 52 40  L 39 40  L 39 36  L 52 36  Z M 59 32  C 60.1045694996616 32  61 32.8954305003384  61 34  L 61 40  L 59 40  L 59 35  C 59 34.4477152501692  58.5522847498308 34  58 34  L 38 34  C 37.4477152501692 34  37 34.4477152501692  37 35  L 37 40  L 35 40  L 35 34  C 35 32.8954305003384  35.8954305003384 32  37 32  L 59 32  Z M 8 64  L 2 64  L 2 2  L 44 2  L 44 8  L 9 8  C 8.44771525016921 8  8 8.44771525016921  8 9  L 8 64  Z M 19 72  L 10 72  L 10 10  L 52 10  L 52 30  L 37 30  C 34.7908610006768 30  33 31.7908610006768  33 34  L 33 40  L 23 40  C 20.7908610006768 40  19 41.7908610006768  19 44  L 19 72  Z M 75 77  C 75 78.1045694996616  74.1045694996616 79  73 79  L 23 79  C 21.8954305003384 79  21 78.1045694996616  21 77  L 21 57.08  L 40.23 59.88  C 45.409446468679 60.6329315972177  50.670553531321 60.6329315972177  55.85 59.88  L 75 57.09  L 75 77  Z " fill-rule="nonzero" fill="#333333" stroke="none" transform="matrix(1 0 0 1 87 25 )" />
  </g>
</svg>