<?xml version="1.0" encoding="utf-8"?>
<svg version="1.1" xmlns:xlink="http://www.w3.org/1999/xlink" width="85px" height="88px" xmlns="http://www.w3.org/2000/svg">
  <g transform="matrix(1 0 0 1 -82 -18 )">
    <path d="M 2.01492741426468 40.2359346938776  L 13.881395960446 23.019812244898  L 14.1866663160109 23.3772  C 15.2247107090259 24.6056979591837  17.1249158426257 24.6142285714286  18.1750315590154 23.3728  C 18.4994371975594 22.9930530612245  19.117667788765 22.9891918367347  19.4525352409005 23.3767510204082  C 20.4993425205134 24.6175510204082  22.4066116137177 24.5910612244898  23.4413475699558 23.3811510204082  C 23.530854197349 23.3455020408163  24.1227067115506 22.6908897959184  24.7097306964023 23.3688489795918  C 25.7514411950347 24.6008489795918  27.6414527666737 24.6080326530612  28.7003313696613 23.3697469387755  L 29.0715022091311 22.9322612244898  L 42.9229434041658 39.724906122449  L 39.8219545550179 44.2130857142857  C 37.342862402693 41.9695346938775  29.3263412581528 35.7285387755102  19.2411529560278 38.2610530612245  L 19.6751840942563 40.0034530612245  C 30.6047391121397 37.2595591836735  39.2295655375552 46.1186448979592  39.3154954765411 46.2085306122449  L 40.072590995161 47.0003510204082  L 44.3689985272459 40.7819836734694  C 45.9291500105197 45.6229714285714  47.5419682305912 51.023387755102  42.6236640016832 54.0389142857143  C 34.8075268251631 58.8312326530612  30.2445665895224 64.6337551020408  29.4276509572901 70.8190775510204  C 28.7155322953924 76.2147346938775  30.8771933515674 81.6204489795918  35.851919840101 86.8871591836735  L 37.1495423942773 85.6506693877551  C 32.5643172733011 80.7973795918367  30.562891857774 75.8867102040816  31.2007942352199 71.0553306122449  C 32.1394961077214 63.9431346938775  38.437597306964 58.7097387755102  43.5554807490006 55.5716408163265  C 49.7902745634336 51.7492081632653  47.5788081211866 44.8987673469388  45.9642015569114 39.8972244897959  C 45.856990321902 39.5653387755102  45.7553229539238 39.244587755102  45.6533873343152 38.9229387755102  L 46.4259520302967 37.8048  C 49.6950452345887 40.381493877551  54.4949610772144 44.9538122448979  55.0740269303598 49.9475428571429  C 55.3578371554808 52.3967265306122  54.5815169366716 54.7464163265306  52.7669734904271 56.9316897959184  C 48.1022564695982 62.5548897959184  46.5422838207448 68.4004244897959  48.3738165369241 73.3918204081633  C 50.09626025668 78.0855428571429  55.6433463075952 84.2835265306122  72.2889859036398 87.1536734693878  L 72.5920208289501 85.3840653061224  C 70.091289711761 84.9528653061224  67.7880812118662 84.4295346938776  65.6709499263623 83.8259265306122  L 65.6709499263623 76.7427346938776  L 69.2179518199032 80.2984734693877  L 70.4815064169998 79.0278612244898  L 65.6709499263623 74.2051020408163  L 65.6709499263623 72.1680816326531  L 68.1988638754471 74.7024816326531  L 69.4624184725437 73.4318693877551  L 65.6709499263623 69.6303591836734  L 65.6709499263623 68.2706693877551  L 67.3850778455712 69.9891836734694  L 68.6486324426678 68.7185714285714  L 64.7767778245319 64.8365142857143  L 60.904476120345 68.7185714285714  L 62.1680307174416 69.9891836734694  L 63.8826057227014 68.2705795918367  L 63.8826057227014 69.6303591836734  L 60.0906900904692 73.4319591836735  L 61.3542446875657 74.7025714285714  L 63.8826057227014 72.1679918367347  L 63.8826057227014 74.2051020408163  L 59.072049232064 79.0278612244898  L 60.3356038291605 80.2984734693878  L 63.8826057227014 76.7427346938776  L 63.8826057227014 83.2832  C 56.4412160740585 80.8617632653061  51.7119398274774 77.2950693877551  50.0517304860088 72.7710612244898  C 48.4507153376815 68.4070693877551  49.9028508310541 63.1903755102041  54.1409583420997 58.0818857142857  C 56.1585682726699 55.6514693877551  57.0698190616453 53.0162285714286  56.8821323374711 50.2447673469388  C 61.3942141805176 46.7627510204082  67.6899905322954 47.256987755102  72.2383757626762 48.3205306122449  L 72.6435251420156 46.5711265306123  C 67.9628024405639 45.4781306122449  61.538533557753 44.9628816326531  56.5664001683148 48.2616244897959  C 55.3530980433411 43.438506122449  51.1588943824953 39.2304897959184  47.4473648222175 36.3267591836735  L 52.4621502209131 29.0687346938776  L 53.0329002735115 29.7370857142857  C 53.5328318956449 30.3153714285714  54.2580054702293 30.6473469387755  55.0225226172943 30.6473469387755  C 55.7870397643594 30.6473469387755  56.5122133389438 30.3154612244898  57.0274353040185 29.7209224489796  C 57.338338943825 29.3530285714286  57.9814275194614 29.3525795918367  58.2923311592678 29.7204734693878  C 58.7878813381023 30.3075591836735  59.5152903429413 30.644293877551  60.2880338733432 30.6447428571429  C 61.0608668209552 30.6447428571429  61.788633494635 30.3080081632653  62.2846307595203 29.7209224489796  C 62.4400378708184 29.5367510204082  62.6705554386703 29.4315102040816  62.9172575215653 29.4315102040816  C 63.1635125184094 29.4315102040816  63.3935830002104 29.5367510204082  63.5524773827057 29.7248734693878  C 64.05285609089 30.3098040816327  64.7798180096781 30.6451918367347  65.548180096781 30.6451918367347  C 65.5512202819272 30.6451918367347  65.5538133810225 30.6447428571429  65.556495897328 30.6447428571429  C 66.3240532295392 30.642587755102  67.0475278771302 30.3058530612245  67.5382495266148 29.7244244897959  L 68.0528455712182 29.1214448979592  L 82.9479644435093 47.1823673469388  L 84.3249894803282 46.0371102040816  L 59.4239953713444 15.8423346938776  L 43.9813749211025 38.1932571428571  L 29.3446717862403 20.4482367346939  L 35.5098095939407 11.507706122449  C 36.2394540290343 11.4800489795918  36.934941089838 11.1590285714286  37.4194035346097 10.5836163265306  C 37.6315905743741 10.3328163265306  37.9027035556491 10.2946530612245  38.0455028403114 10.2942040816327  C 38.2358720807911 10.3223102040816  38.4642436355986 10.3735836734694  38.6196507468967 10.5173469387755  C 38.7090679570797 10.5561387755102  40.7788081211866 12.8125306122449  42.6726646328634 10.5967265306122  C 42.7621712602567 10.5635020408163  43.3791500105197 9.91948571428571  43.9427466863034 10.5862204081633  C 44.4195192509994 11.1465469387755  45.1102671996634 11.4832816326531  45.8384809593941 11.5095918367347  C 46.2357616242373 11.5250367346939  46.6219545550179 11.4413469387755  46.9768514622344 11.2847428571429  L 52.4347885545971 17.8996489795918  L 53.8118135914159 16.753493877551  L 40.6865295602777 0.846236734693878  L 28.1598043341048 19.0115918367347  L 20.7016936671576 9.96968163265306  L 0.544461392804544 39.2134285714286  L 2.01492741426468 40.2359346938776  Z M 53.5156637912897 27.5442693877551  L 59.5497159688618 18.8107183673469  L 66.8954292026089 27.7178448979592  L 66.177409004839 28.559412244898  C 65.9652219650747 28.810212244898  65.6941089837997 28.8483755102041  65.5513096991374 28.8488244897959  C 65.5504155270356 28.8488244897959  65.5495213549337 28.8492734693878  65.5482695139912 28.8492734693878  C 65.3020145171471 28.8492734693878  65.0693509362508 28.7418775510204  64.9130496528508 28.559412244898  C 64.4174994740164 27.9723265306122  63.6900904691774 27.6355918367347  62.9173469387755 27.6355918367347  C 62.1441563223227 27.6355918367347  61.4167473174837 27.9723265306122  60.9207500525984 28.5589632653061  C 60.7653429413002 28.7431346938776  60.5348253734483 28.8488244897959  60.2885703766043 28.8488244897959  C 60.0418682937092 28.8488244897959  59.8117978119083 28.7431346938776  59.6563907006101 28.5589632653061  C 59.1603934357248 27.9718775510204  58.4325373448348 27.6351428571429  57.659793814433 27.6355918367347  C 56.886960866821 27.6355918367347  56.1591941931412 27.9723265306122  55.6614085840522 28.5603102040816  C 55.337450031559 28.9356571428571  54.704823269514 28.931706122449  54.3869450873133 28.5642612244898  L 53.5156637912897 27.5442693877551  Z M 37.5469124763307 8.5533306122449  L 40.8140385019987 3.81542857142857  L 45.6240584893751 9.6450693877551  C 45.5036135072586 9.59532244897959  45.3923784977909 9.52555102040816  45.3045707973911 9.42246530612245  C 43.4570324005891 7.23198367346939  41.3492899221544 9.44796734693877  41.2598727119714 9.48648979591837  C 40.9175836313907 9.81855510204082  40.7879286766253 9.71924081632653  40.0443351567431 9.41806530612245  C 39.4669682305912 8.7430693877551  38.5501735745845 8.35712653061225  37.5469124763307 8.5533306122449  Z M 14.9334788554597 21.4931918367347  L 20.8292026088786 12.9397714285714  L 27.9133705028403 21.5281224489796  L 27.341189774879 22.2025795918367  C 27.0132074479276 22.5864571428571  26.4175099936882 22.613306122449  26.0662791920892 22.1986285714286  C 24.1635703766043 19.999706122449  22.1131443298969 22.2369714285714  22.0237271197139 22.2753142857143  C 21.6885914159478 22.5929224489796  21.1356353881759 22.5924734693878  20.8038081211866 22.2021306122449  C 19.7606669471913 20.9825224489796  17.8778981695771 20.9653714285714  16.8062329055333 22.2156897959184  C 16.484152114454 22.5967836734694  15.8830896276036 22.6092653061225  15.5470597517357 22.2112897959184  L 14.9334788554597 21.4931918367347  Z " fill-rule="nonzero" fill="#333333" stroke="none" transform="matrix(1 0 0 1 82 18 )" />
  </g>
</svg>