<?xml version="1.0" encoding="utf-8"?>
<svg version="1.1" xmlns:xlink="http://www.w3.org/1999/xlink" width="21px" height="24px" xmlns="http://www.w3.org/2000/svg">
  <g transform="matrix(1 0 0 1 -635 -211 )">
    <path d="M 15.8046875 0.910714285714286  L 20.0703125 5.08928571428571  C 20.3255208333333 5.33928571428571  20.5442708333333 5.67857142857143  20.7265625 6.10714285714286  C 20.9088541666667 6.53571428571429  21 6.92857142857143  21 7.28571428571429  L 21 22.7142857142857  C 21 23.0714285714286  20.8723958333333 23.375  20.6171875 23.625  C 20.3619791666667 23.875  20.0520833333333 24  19.6875 24  L 1.3125 24  C 0.947916666666667 24  0.638020833333333 23.875  0.3828125 23.625  C 0.127604166666667 23.375  0 23.0714285714286  0 22.7142857142857  L 0 1.28571428571429  C 0 0.928571428571428  0.127604166666667 0.624999999999999  0.3828125 0.375  C 0.638020833333333 0.125000000000001  0.947916666666667 0  1.3125 0  L 13.5625 0  C 13.9270833333333 0  14.328125 0.0892857142857153  14.765625 0.267857142857143  C 15.203125 0.446428571428571  15.5494791666667 0.660714285714285  15.8046875 0.910714285714286  Z M 14.560546875 2.11607142857143  C 14.451171875 2.00892857142857  14.2643229166667 1.91071428571428  14 1.82142857142857  L 14 6.85714285714286  L 19.140625 6.85714285714286  C 19.0494791666667 6.59821428571428  18.94921875 6.41517857142857  18.83984375 6.30803571428571  L 14.560546875 2.11607142857143  Z M 2 22  L 19 22  L 19 8.57142857142857  L 13.5625 8.57142857142857  C 13.1979166666667 8.57142857142857  12.8880208333333 8.44642857142857  12.6328125 8.19642857142857  C 12.3776041666667 7.94642857142857  12.25 7.64285714285714  12.25 7.28571428571429  L 12.25 2  L 2 2  L 2 22  Z M 10.2265625 11.15625  C 10.7278645833333 12.6205357142857  11.3932291666667 13.6830357142857  12.22265625 14.34375  C 12.5234375 14.5758928571429  12.90625 14.8258928571429  13.37109375 15.09375  C 13.9088541666667 15.03125  14.4420572916667 15  14.970703125 15  C 16.310546875 15  17.1171875 15.21875  17.390625 15.65625  C 17.5364583333333 15.8526785714286  17.5455729166667 16.0848214285714  17.41796875 16.3526785714286  C 17.41796875 16.3616071428571  17.4134114583333 16.3705357142857  17.404296875 16.3794642857143  L 17.376953125 16.40625  L 17.376953125 16.4196428571429  C 17.322265625 16.7589285714286  16.9986979166667 16.9285714285714  16.40625 16.9285714285714  C 15.96875 16.9285714285714  15.4446614583333 16.8392857142857  14.833984375 16.6607142857143  C 14.2233072916667 16.4821428571429  13.630859375 16.2455357142857  13.056640625 15.9508928571429  C 11.0423177083333 16.1651785714286  9.255859375 16.5357142857143  7.697265625 17.0625  C 6.302734375 19.4017857142857  5.19986979166667 20.5714285714286  4.388671875 20.5714285714286  C 4.251953125 20.5714285714286  4.12434895833333 20.5401785714286  4.005859375 20.4776785714286  L 3.677734375 20.3169642857143  C 3.66861979166667 20.3080357142857  3.64127604166667 20.2857142857143  3.595703125 20.25  C 3.50455729166667 20.1607142857143  3.47721354166667 20  3.513671875 19.7678571428571  C 3.595703125 19.4107142857143  3.85091145833333 19.0022321428571  4.279296875 18.5424107142857  C 4.70768229166667 18.0825892857143  5.30924479166667 17.6517857142857  6.083984375 17.25  C 6.21158854166667 17.1696428571429  6.31640625 17.1964285714286  6.3984375 17.3303571428571  C 6.41666666666667 17.3482142857143  6.42578125 17.3660714285714  6.42578125 17.3839285714286  C 6.89973958333333 16.625  7.38736979166667 15.7455357142857  7.888671875 14.7455357142857  C 8.50846354166667 13.53125  8.982421875 12.3616071428571  9.310546875 11.2366071428571  C 9.091796875 10.5044642857143  8.95279947916667 9.79241071428571  8.8935546875 9.10044642857143  C 8.83430989583333 8.40848214285714  8.86393229166667 7.83928571428571  8.982421875 7.39285714285714  C 9.08268229166667 7.03571428571428  9.27408854166667 6.85714285714286  9.556640625 6.85714285714286  L 9.84375 6.85714285714286  L 9.857421875 6.85714285714286  C 10.0670572916667 6.85714285714286  10.2265625 6.92410714285714  10.3359375 7.05803571428571  C 10.5 7.24553571428571  10.541015625 7.54910714285714  10.458984375 7.96875  C 10.4407552083333 8.02232142857143  10.4225260416667 8.05803571428571  10.404296875 8.07589285714286  C 10.4134114583333 8.10267857142857  10.41796875 8.13839285714286  10.41796875 8.18303571428571  L 10.41796875 8.58482142857143  C 10.3997395833333 9.68303571428571  10.3359375 10.5401785714286  10.2265625 11.15625  Z M 5.0244140625 18.8571428571429  C 4.69173177083333 19.25  4.46614583333333 19.5803571428571  4.34765625 19.8482142857143  C 4.82161458333333 19.6339285714286  5.44596354166667 18.9285714285714  6.220703125 17.7321428571429  C 5.755859375 18.0892857142857  5.35709635416667 18.4642857142857  5.0244140625 18.8571428571429  Z M 9.7890625 7.5  L 9.7890625 7.52678571428571  C 9.65234375 7.90178571428571  9.64322916666667 8.49107142857143  9.76171875 9.29464285714286  C 9.77083333333333 9.23214285714285  9.802734375 9.03571428571428  9.857421875 8.70535714285714  C 9.857421875 8.67857142857143  9.88932291666667 8.48660714285714  9.953125 8.12946428571429  C 9.96223958333333 8.09375  9.98046875 8.05803571428571  10.0078125 8.02232142857143  C 9.99869791666667 8.01339285714285  9.994140625 8.00446428571428  9.994140625 7.99553571428571  C 9.98502604166667 7.97767857142857  9.98046875 7.96428571428571  9.98046875 7.95535714285714  C 9.97135416666667 7.75892857142857  9.912109375 7.59821428571428  9.802734375 7.47321428571429  C 9.802734375 7.48214285714286  9.79817708333333 7.49107142857143  9.7890625 7.5  Z M 8.708984375 15.2678571428571  C 8.435546875 15.7678571428571  8.23046875 16.1383928571429  8.09375 16.3794642857143  C 9.32421875 15.8973214285714  10.6184895833333 15.5357142857143  11.9765625 15.2946428571429  C 11.9583333333333 15.2857142857143  11.8990885416667 15.2433035714286  11.798828125 15.1674107142857  C 11.6985677083333 15.0915178571429  11.6256510416667 15.03125  11.580078125 14.9866071428571  C 10.8873697916667 14.3883928571429  10.30859375 13.6026785714286  9.84375 12.6294642857143  C 9.59765625 13.3973214285714  9.21940104166667 14.2767857142857  8.708984375 15.2678571428571  Z M 16.953125 16.2053571428571  C 16.953125 16.1964285714286  16.9440104166667 16.1830357142857  16.92578125 16.1651785714286  C 16.70703125 15.9508928571429  16.0690104166667 15.84375  15.01171875 15.84375  C 15.7044270833333 16.09375  16.26953125 16.21875  16.70703125 16.21875  C 16.8346354166667 16.21875  16.9166666666667 16.2142857142857  16.953125 16.2053571428571  Z " fill-rule="nonzero" fill="#2e6ab0" stroke="none" transform="matrix(1 0 0 1 635 211 )" />
  </g>
</svg>