<?xml version="1.0" encoding="utf-8"?>
<svg version="1.1" xmlns:xlink="http://www.w3.org/1999/xlink" width="15px" height="15px" xmlns="http://www.w3.org/2000/svg">
  <g transform="matrix(1 0 0 1 -28 -14 )">
    <path d="M 3.75 10  L 3.75 13.75  L 11.25 13.75  L 11.25 10  L 3.75 10  Z M 12.5 9.6875  L 12.5 13.75  L 13.75 13.75  L 13.75 5  C 13.75 4.90885416666666  13.7174479166667 4.78352864583333  13.65234375 4.6240234375  C 13.5872395833333 4.46451822916667  13.5221354166667 4.35221354166666  13.45703125 4.287109375  L 10.712890625 1.54296875  C 10.6477864583333 1.47786458333333  10.537109375 1.41276041666667  10.380859375 1.34765625  C 10.224609375 1.28255208333333  10.09765625 1.25  10 1.25  L 10 5.3125  C 10 5.57291666666667  9.90885416666667 5.79427083333333  9.7265625 5.9765625  C 9.54427083333333 6.15885416666667  9.32291666666667 6.25  9.0625 6.25  L 3.4375 6.25  C 3.17708333333333 6.25  2.95572916666667 6.15885416666667  2.7734375 5.9765625  C 2.59114583333333 5.79427083333333  2.5 5.57291666666667  2.5 5.3125  L 2.5 1.25  L 1.25 1.25  L 1.25 13.75  L 2.5 13.75  L 2.5 9.6875  C 2.5 9.42708333333333  2.59114583333333 9.20572916666666  2.7734375 9.0234375  C 2.95572916666667 8.84114583333333  3.17708333333333 8.75  3.4375 8.75  L 11.5625 8.75  C 11.8229166666667 8.75  12.0442708333333 8.84114583333333  12.2265625 9.0234375  C 12.4088541666667 9.20572916666666  12.5 9.42708333333333  12.5 9.6875  Z M 8.6572265625 4.9072265625  C 8.71907552083333 4.84537760416667  8.75 4.77213541666667  8.75 4.6875  L 8.75 1.5625  C 8.75 1.47786458333333  8.71907552083333 1.40462239583333  8.6572265625 1.3427734375  C 8.59537760416667 1.28092447916667  8.52213541666667 1.25  8.4375 1.25  L 6.5625 1.25  C 6.47786458333333 1.25  6.40462239583333 1.28092447916667  6.3427734375 1.3427734375  C 6.28092447916667 1.40462239583333  6.25 1.47786458333333  6.25 1.5625  L 6.25 4.6875  C 6.25 4.77213541666667  6.28092447916667 4.84537760416667  6.3427734375 4.9072265625  C 6.40462239583333 4.96907552083333  6.47786458333333 5  6.5625 5  L 8.4375 5  C 8.52213541666667 5  8.59537760416667 4.96907552083333  8.6572265625 4.9072265625  Z M 14.8046875 4.140625  C 14.9348958333333 4.453125  15 4.73958333333333  15 5  L 15 14.0625  C 15 14.3229166666667  14.9088541666667 14.5442708333333  14.7265625 14.7265625  C 14.5442708333333 14.9088541666667  14.3229166666667 15  14.0625 15  L 0.9375 15  C 0.677083333333333 15  0.455729166666667 14.9088541666667  0.2734375 14.7265625  C 0.0911458333333333 14.5442708333333  0 14.3229166666667  0 14.0625  L 0 0.9375  C 0 0.677083333333333  0.0911458333333333 0.455729166666665  0.2734375 0.273437499999999  C 0.455729166666667 0.0911458333333326  0.677083333333333 0  0.9375 0  L 10 0  C 10.2604166666667 0  10.546875 0.0651041666666652  10.859375 0.195312500000001  C 11.171875 0.325520833333333  11.4192708333333 0.481770833333332  11.6015625 0.664062500000001  L 14.3359375 3.3984375  C 14.5182291666667 3.58072916666667  14.6744791666667 3.828125  14.8046875 4.140625  Z " fill-rule="nonzero" fill="#2e6ab0" stroke="none" transform="matrix(1 0 0 1 28 14 )" />
  </g>
</svg>