<svg xmlns="http://www.w3.org/2000/svg" width="18" height="18" viewBox="0 0 18 18"><path fill="#333" d="M17.82,17.2451613 C18.06,16.8967742 18.06,16.4903226 17.76,16.2 L12.66,11.2645161 C13.68,10.1032258 14.22,8.59354839 14.22,6.90967742 C14.22,3.07741935 11.04,0 7.14,0 C3.24,0 0,3.07741935 0,6.90967742 C0,10.7419355 3.18,13.8193548 7.14,13.8193548 C8.82,13.8193548 10.38,13.2387097 11.64,12.3096774 L16.74,17.2451613 C16.86,17.3612903 17.1,17.4774194 17.28,17.4774194 C17.46,17.4774194 17.64,17.4193548 17.82,17.2451613 Z M12.78,6.8516129 C12.78,9.87096774 10.2,12.3096774 7.14,12.3096774 C4.02,12.3096774 1.5,9.87096774 1.5,6.8516129 C1.5,3.83225806 4.02,1.39354839 7.14,1.39354839 C10.26,1.39354839 12.78,3.83225806 12.78,6.8516129 Z"/></svg>