<?xml version="1.0" encoding="utf-8"?>
<svg version="1.1" xmlns:xlink="http://www.w3.org/1999/xlink" width="20px" height="19px" xmlns="http://www.w3.org/2000/svg">
  <g transform="matrix(1 0 0 1 -9 -8 )">
    <path d="M 0.247395833333333 6.17370572207085  L 4.54427083333333 6.17370572207085  L 4.54427083333333 19  L 0.247395833333333 19  L 0.247395833333333 6.17370572207085  Z M 4.15364583333333 0.627724795640327  C 4.58767361111111 1.04620799273388  4.80902777777778 1.57470481380563  4.81770833333333 2.21321525885559  C 4.82638888888889 2.84309718437784  4.60720486111111 3.36943687556766  4.16015625 3.79223433242507  C 3.71310763888889 4.21503178928247  3.125 4.42643051771117  2.39583333333333 4.42643051771117  L 2.36979166666667 4.42643051771117  C 1.65798611111111 4.42643051771117  1.08506944444444 4.21503178928247  0.651041666666667 3.79223433242507  C 0.217013888888889 3.36943687556766  0 2.84309718437784  0 2.21321525885559  C 0 1.57470481380563  0.223524305555556 1.04620799273388  0.670572916666667 0.627724795640327  C 1.11762152777778 0.209241598546774  1.70138888888889 0  2.421875 0  C 3.14236111111111 0  3.71961805555556 0.209241598546774  4.15364583333333 0.627724795640327  Z M 18.6458333333333 7.3450272479564  C 19.5486111111111 8.32436421435059  20 9.75885558583106  20 11.6485013623978  L 20 19  L 15.7161458333333 19  L 15.7161458333333 12.1403269754768  C 15.7161458333333 11.2343324250681  15.5403645833333 10.5246366939146  15.1888020833333 10.0112397820163  C 14.8372395833333 9.49784287011807  14.2881944444444 9.24114441416894  13.5416666666667 9.24114441416894  C 12.9947916666667 9.24114441416894  12.5368923611111 9.3899863760218  12.16796875 9.68767029972752  C 11.7990451388889 9.98535422343324  11.5234375 10.3542234332425  11.3411458333333 10.7942779291553  C 11.2456597222222 11.0531335149864  11.1979166666667 11.4025885558583  11.1979166666667 11.8426430517711  L 11.1979166666667 19  L 6.9140625 19  C 6.93142361111111 15.5572207084469  6.94010416666667 12.7658946412352  6.94010416666667 10.6260217983651  C 6.94010416666667 8.486148955495  6.93576388888889 7.20912806539509  6.92708333333333 6.7949591280654  L 6.9140625 6.17370572207085  L 11.1979166666667 6.17370572207085  L 11.1979166666667 8.0374659400545  L 11.171875 8.0374659400545  C 11.3454861111111 7.76135331516803  11.5234375 7.51975476839237  11.7057291666667 7.31267029972752  C 11.8880208333333 7.10558583106267  12.1332465277778 6.88124432334241  12.44140625 6.63964577656676  C 12.7495659722222 6.3980472297911  13.1271701388889 6.21037693006358  13.57421875 6.0766348773842  C 14.0212673611111 5.94289282470481  14.5182291666667 5.87602179836512  15.0651041666667 5.87602179836512  C 16.5494791666667 5.87602179836512  17.7430555555556 6.36569028156222  18.6458333333333 7.3450272479564  Z " fill-rule="nonzero" fill="#0066c9" stroke="none" transform="matrix(1 0 0 1 9 8 )" />
  </g>
</svg>