<?xml version="1.0" encoding="utf-8"?>
<!-- Generator: Adobe Illustrator 27.3.1, SVG Export Plug-In . SVG Version: 6.00 Build 0)  -->
<svg version="1.1" id="svg5" xmlns:svg="http://www.w3.org/2000/svg"
	 xmlns="http://www.w3.org/2000/svg" xmlns:xlink="http://www.w3.org/1999/xlink" x="0px" y="0px" viewBox="0 0 1668.6 1221.2"
	 style="enable-background:new 0 0 1668.6 1221.2;" xml:space="preserve">
<style type="text/css">
	.st0{fill:#999999;stroke:#FFFFFF;stroke-miterlimit:10;}
	.st1{fill:#FFFFFF;}
</style>
<path class="st0" d="M1168.1,1056.6H511.7c-55.1,0-99.8-44.7-99.8-99.8V300.4c0-55.1,44.7-99.8,99.8-99.8h656.4
	c55.1,0,99.8,44.7,99.8,99.8v656.4C1267.9,1011.9,1223.2,1056.6,1168.1,1056.6z"/>
<g id="layer1" transform="translate(52.390088,-25.058597)">
	<path id="path1009" class="st1" d="M491,374.8l230.1,307.6L489.6,932.5h52.1l202.7-219l163.8,219h177.3l-243-324.9L1058,374.8
		h-52.1L819.2,576.4L668.3,374.8H491z M567.7,413.1h81.5l359.7,481h-81.5L567.7,413.1z"/>
</g>
</svg>
