<?xml version="1.0" encoding="utf-8"?>
<svg version="1.1" xmlns:xlink="http://www.w3.org/1999/xlink" width="20px" height="17px" xmlns="http://www.w3.org/2000/svg">
  <g transform="matrix(1 0 0 1 -9 -11 )">
    <path d="M 17.6395939086294 2.6828125  C 18.4263959390863 2.59427083333333  19.2131979695431 2.37291666666666  20 2.01875  C 19.4331641285956 2.88645833333333  18.7478849407783 3.62578125  17.9441624365482 4.23671875  C 17.9526226734349 4.36067708333333  17.9568527918782 4.54661458333333  17.9568527918782 4.79453125  C 17.9568527918782 5.94557291666666  17.7961082910322 7.09440104166667  17.4746192893401 8.241015625  C 17.1531302876481 9.38763020833333  16.664551607445 10.4877604166667  16.008883248731 11.54140625  C 15.3532148900169 12.5950520833333  14.572758037225 13.526953125  13.6675126903553 14.337109375  C 12.7622673434856 15.147265625  11.67089678511 15.7936197916667  10.3934010152284 16.276171875  C 9.11590524534687 16.7587239583333  7.74957698815567 17  6.29441624365482 17  C 4.00169204737733 17  1.90355329949239 16.3580729166667  0 15.07421875  C 0.296108291032149 15.1096354166667  0.626057529610829 15.12734375  0.989847715736041 15.12734375  C 2.89340101522843 15.12734375  4.58967851099831 14.51640625  6.07868020304569 13.29453125  C 5.19035532994924 13.2768229166667  4.39509306260575 12.9912760416667  3.69289340101523 12.437890625  C 2.9906937394247 11.8845052083333  2.50846023688663 11.1783854166667  2.24619289340102 10.31953125  C 2.5253807106599 10.3638020833333  2.7834179357022 10.3859375  3.02030456852792 10.3859375  C 3.38409475465313 10.3859375  3.74365482233503 10.3372395833333  4.0989847715736 10.23984375  C 3.15143824027073 10.0361979166667  2.36675126903553 9.542578125  1.74492385786802 8.758984375  C 1.12309644670051 7.975390625  0.812182741116751 7.065625  0.812182741116751 6.0296875  L 0.812182741116751 5.9765625  C 1.38747884940778 6.31302083333333  2.00507614213198 6.49453125  2.66497461928934 6.52109375  C 2.10659898477157 6.13151041666667  1.66243654822335 5.62239583333333  1.33248730964467 4.99375  C 1.00253807106599 4.36510416666666  0.83756345177665 3.68333333333333  0.83756345177665 2.9484375  C 0.83756345177665 2.16927083333333  1.02368866328257 1.44765625  1.39593908629442 0.783593750000001  C 2.41962774957699 2.10286458333333  3.66539763113367 3.15872395833333  5.13324873096447 3.951171875  C 6.60109983079526 4.74361979166667  8.17258883248731 5.18411458333333  9.84771573604061 5.27265625  C 9.78003384094755 4.93619791666667  9.74619289340102 4.60859375  9.74619289340102 4.28984375  C 9.74619289340102 3.10338541666666  10.1459390862944 2.091796875  10.9454314720812 1.255078125  C 11.744923857868 0.418359375000001  12.7115059221658 0  13.8451776649746 0  C 15.0296108291032 0  16.0279187817259 0.451562500000001  16.8401015228426 1.3546875  C 17.7622673434856 1.16875  18.6294416243655 0.8234375  19.4416243654822 0.318750000000001  C 19.1285956006768 1.33697916666666  18.5279187817259 2.125  17.6395939086294 2.6828125  Z " fill-rule="nonzero" fill="#1da1f2" stroke="none" transform="matrix(1 0 0 1 9 11 )" />
  </g>
</svg>