<?xml version="1.0" encoding="utf-8"?>
<svg version="1.1" xmlns:xlink="http://www.w3.org/1999/xlink" width="9px" height="16px" xmlns="http://www.w3.org/2000/svg">
  <g transform="matrix(1 0 0 1 -1013 -740 )">
    <path d="M 5.17272727272727 15  L 2.32424242424242 15  L 2.32424242424242 8.291015625  L 0 8.291015625  L 0 5.625  L 2.32424242424242 5.625  L 2.32424242424242 3.5244140625  C 2.32424242424242 1.2421875  3.76666666666667 0  5.87272727272727 0  C 6.88181818181818 0  7.74848484848485 0.0732421875000008  8 0.105468750000001  L 8 2.490234375  L 6.53939393939394 2.490234375  C 5.39393939393939 2.490234375  5.17272727272727 3.017578125  5.17272727272727 3.7880859375  L 5.17272727272727 5.625  L 7.75757575757576 5.625  L 7.4030303030303 8.291015625  L 5.17272727272727 8.291015625  L 5.17272727272727 15  Z " fill-rule="nonzero" fill="#b3b3b3" stroke="none" transform="matrix(1 0 0 1 1013 740 )" />
  </g>
</svg>