<?xml version="1.0" encoding="utf-8"?>
<svg version="1.1" xmlns:xlink="http://www.w3.org/1999/xlink" width="18px" height="15px" xmlns="http://www.w3.org/2000/svg">
  <g transform="matrix(1 0 0 1 -1043 -740 )">
    <path d="M 17.9999296875 1.78352163461538  C 17.4974765625 2.53319711538462  16.86926953125 3.20087740384615  16.1497265625 3.73975961538462  C 16.16115234375 3.90375  16.16115234375 4.06777644230769  16.16115234375 4.23176682692308  C 16.16115234375 9.23368990384615  12.44925 14.9970793269231  5.66497265625 14.9970793269231  C 3.57486328125 14.9970793269231  1.63325390625 14.3762019230769  0 13.2985456730769  C 0.29696484375 13.3336658653846  0.58246875 13.3453846153846  0.890859375 13.3453846153846  C 2.61544921875 13.3453846153846  4.20303515625 12.7479807692308  5.4708046875 11.7288461538462  C 3.8489765625 11.6936899038462  2.4898359375 10.6042788461538  2.0215546875 9.10485576923077  C 2.25 9.13997596153846  2.47841015625 9.16341346153846  2.71828125 9.16341346153846  C 3.04948828125 9.16341346153846  3.38073046875 9.11653846153846  3.6890859375 9.03457932692308  C 1.99873828125 8.683125  0.73093359375 7.16030048076923  0.73093359375 5.32117788461538  L 0.73093359375 5.27433894230769  C 1.22203125 5.55548076923077  1.79314453125 5.73118990384615  2.3984296875 5.75459134615385  C 1.4047734375 5.07515625  0.75378515625 3.91546875  0.75378515625 2.60347355769231  C 0.75378515625 1.90063701923077  0.9364921875 1.25635817307692  1.25630859375 0.694074519230769  C 3.0723046875 2.99004807692308  5.80201171875 4.48943509615385  8.862890625 4.65346153846154  C 8.805796875 4.37231971153846  8.77151953125 4.07949519230769  8.77151953125 3.78663461538462  C 8.77151953125 1.70149038461538  10.41619921875 0.00295673076923054  12.46060546875 0.00295673076923054  C 13.52278125 0.00295673076923054  14.48216015625 0.459807692307692  15.15603515625 1.19780048076923  C 15.989765625 1.03381009615385  16.78925390625 0.717512019230769  17.49740625 0.284098557692307  C 17.2232578125 1.16268028846154  16.6407890625 1.90067307692308  15.875578125 2.36920673076923  C 16.61797265625 2.28724759615385  17.337515625 2.07634615384615  17.9999296875 1.78352163461538  Z " fill-rule="nonzero" fill="#2e6ab0" stroke="none" transform="matrix(1 0 0 1 1043 740 )" />
  </g>
</svg>