<?xml version="1.0" encoding="utf-8"?>
<svg version="1.1" xmlns:xlink="http://www.w3.org/1999/xlink" width="16px" height="15px" xmlns="http://www.w3.org/2000/svg">
  <g transform="matrix(1 0 0 1 -1173 -740 )">
    <path d="M 3.69230769230769 11.25  L 3.69230769230769 13.75  L 12.3076923076923 13.75  L 12.3076923076923 11.25  L 3.69230769230769 11.25  Z M 3.69230769230769 1.25  L 3.69230769230769 7.5  L 12.3076923076923 7.5  L 12.3076923076923 3.75  L 10.7692307692308 3.75  C 10.5128205128205 3.75  10.2948717948718 3.65885416666667  10.1153846153846 3.4765625  C 9.93589743589744 3.29427083333333  9.84615384615385 3.07291666666667  9.84615384615385 2.8125  L 9.84615384615385 1.25  L 3.69230769230769 1.25  Z M 14.5865384615385 8.564453125  C 14.7083333333333 8.44075520833333  14.7692307692308 8.29427083333333  14.7692307692308 8.125  C 14.7692307692308 7.95572916666667  14.7083333333333 7.80924479166667  14.5865384615385 7.685546875  C 14.4647435897436 7.56184895833333  14.3205128205128 7.5  14.1538461538462 7.5  C 13.9871794871795 7.5  13.8429487179487 7.56184895833333  13.7211538461538 7.685546875  C 13.599358974359 7.80924479166667  13.5384615384615 7.95572916666667  13.5384615384615 8.125  C 13.5384615384615 8.29427083333333  13.599358974359 8.44075520833333  13.7211538461538 8.564453125  C 13.8429487179487 8.68815104166667  13.9871794871795 8.75  14.1538461538462 8.75  C 14.3205128205128 8.75  14.4647435897436 8.68815104166667  14.5865384615385 8.564453125  Z M 15.4567307692308 6.8017578125  C 15.8189102564103 7.16959635416667  16 7.61067708333333  16 8.125  L 16 12.1875  C 16 12.2721354166667  15.9695512820513 12.3453776041667  15.9086538461538 12.4072265625  C 15.8477564102564 12.4690755208333  15.775641025641 12.5  15.6923076923077 12.5  L 13.5384615384615 12.5  L 13.5384615384615 14.0625  C 13.5384615384615 14.3229166666667  13.4487179487179 14.5442708333333  13.2692307692308 14.7265625  C 13.0897435897436 14.9088541666667  12.8717948717949 15  12.6153846153846 15  L 3.38461538461538 15  C 3.12820512820513 15  2.91025641025641 14.9088541666667  2.73076923076923 14.7265625  C 2.55128205128205 14.5442708333333  2.46153846153846 14.3229166666667  2.46153846153846 14.0625  L 2.46153846153846 12.5  L 0.307692307692308 12.5  C 0.224358974358974 12.5  0.15224358974359 12.4690755208333  0.0913461538461538 12.4072265625  C 0.0304487179487179 12.3453776041667  0 12.2721354166667  0 12.1875  L 0 8.125  C 0 7.61067708333333  0.181089743589744 7.16959635416667  0.543269230769231 6.8017578125  C 0.905448717948718 6.43391927083333  1.33974358974359 6.25  1.84615384615385 6.25  L 2.46153846153846 6.25  L 2.46153846153846 0.9375  C 2.46153846153846 0.677083333333333  2.55128205128205 0.455729166666665  2.73076923076923 0.273437499999999  C 2.91025641025641 0.0911458333333326  3.12820512820513 0  3.38461538461538 0  L 9.84615384615385 0  C 10.1025641025641 0  10.3846153846154 0.0651041666666652  10.6923076923077 0.195312500000001  C 11 0.325520833333333  11.2435897435897 0.481770833333332  11.4230769230769 0.664062500000001  L 12.8846153846154 2.1484375  C 13.0641025641026 2.33072916666666  13.2179487179487 2.578125  13.3461538461538 2.890625  C 13.474358974359 3.203125  13.5384615384615 3.48958333333333  13.5384615384615 3.75  L 13.5384615384615 6.25  L 14.1538461538462 6.25  C 14.6602564102564 6.25  15.0945512820513 6.43391927083333  15.4567307692308 6.8017578125  Z " fill-rule="nonzero" fill="#b3b3b3" stroke="none" transform="matrix(1 0 0 1 1173 740 )" />
  </g>
</svg>