<?xml version="1.0" encoding="UTF-8" standalone="no"?>
<svg
   width="128"
   height="128"
   viewBox="0 0 33.866667 33.866667"
   version="1.1"
   id="svg973"
   xmlns="http://www.w3.org/2000/svg"
   xmlns:svg="http://www.w3.org/2000/svg">
  <defs
     id="defs970" />
  <g
     id="layer1"
     transform="translate(-0.18045766,-0.57694176)">
    <path
       id="path13"
       d="m 25.180762,25.610214 c 0,1.991431 -1.615017,3.606091 -3.606447,3.606091 H 5.7868017 c -1.991783,0 -3.606447,-1.61466 -3.606447,-3.606091 V 9.8227013 c 0,-1.9917838 1.614664,-3.6064478 3.606447,-3.6064478 H 19.033609 L 18.501267,4.2163565 H 5.7868017 c -3.091391,0 -5.60634404,2.514953 -5.60634404,5.6059918 V 25.609861 c 0,3.091394 2.51495304,5.606344 5.60634404,5.606344 H 21.574315 c 3.091391,0 5.606344,-2.51495 5.606344,-5.606344 v -5.579887 l -1.999897,1.396648 v 4.183592"
       style="fill:#2e6ab0;fill-opacity:1;fill-rule:nonzero;stroke:none;stroke-width:0.0352778" />
    <path
       id="path14"
       d="m 21.297737,3.0592455 c -0.236009,-0.867481 0.170039,-1.1535841 0.907344,-0.638881 l 11.607801,8.1064805 c 0.479072,0.334787 0.479072,0.877359 0,1.212146 l -11.607801,8.106833 c -0.737305,0.514703 -1.143353,0.2286 -0.907344,-0.63888 l 1.39453,-5.127273 c 0,0 -9.304867,-0.693914 -13.0118563,8.636706 C 8.8012887,7.7413125 22.570559,7.7395485 22.570559,7.7395485 l -1.272822,-4.680303"
       style="fill:#2e6ab0;fill-opacity:1;fill-rule:nonzero;stroke:none;stroke-width:0.0352778" />
  </g>
</svg>
