<?xml version="1.0" encoding="utf-8"?>
<svg version="1.1" xmlns:xlink="http://www.w3.org/1999/xlink" width="11px" height="20px" xmlns="http://www.w3.org/2000/svg">
  <g transform="matrix(1 0 0 1 -14 -9 )">
    <path d="M 8.09722222222222 0  C 9.34490740740741 0  10.3125 0.0480769230769229  11 0.144230769230769  L 11 3.31730769230769  L 9.00115740740741 3.31730769230769  C 8.27121913580247 3.31730769230769  7.77893518518519 3.46153846153846  7.52430555555556 3.75  C 7.26967592592593 4.03846153846154  7.14236111111111 4.47115384615385  7.14236111111111 5.04807692307692  L 7.14236111111111 7.31971153846154  L 10.8726851851852 7.31971153846154  L 10.3761574074074 10.8774038461538  L 7.14236111111111 10.8774038461538  L 7.14236111111111 20  L 3.24652777777778 20  L 3.24652777777778 10.8774038461538  L 0 10.8774038461538  L 0 7.31971153846154  L 3.24652777777778 7.31971153846154  L 3.24652777777778 4.69951923076923  C 3.24652777777778 3.20913461538461  3.68788580246914 2.05328525641026  4.57060185185185 1.23197115384615  C 5.45331790123457 0.410657051282053  6.62885802469136 0  8.09722222222222 0  Z " fill-rule="nonzero" fill="#4267b2" stroke="none" transform="matrix(1 0 0 1 14 9 )" />
  </g>
</svg>