<svg width="41" height="40" viewBox="0 0 41 40" fill="none" xmlns="http://www.w3.org/2000/svg">
<path d="M7.83776 17.2274C7.9433 17.1218 8.04073 17.0082 8.11379 16.8702C8.30864 16.5048 8.34923 16.0908 8.22745 15.693C8.08944 15.2221 7.73222 14.873 7.31005 14.7025L7.66727 10.5783C7.67539 10.5295 7.66727 10.4808 7.65915 10.4321C7.65103 10.3915 7.45619 9.49849 6.52255 8.92207C5.68634 8.40248 4.54973 8.30506 3.14522 8.64604C3.11275 8.64604 3.08839 8.65416 3.05592 8.66227L2.97473 8.68663C2.94225 8.69475 2.9179 8.70287 2.89354 8.71911C1.54586 9.22246 0.644695 9.92877 0.238766 10.8218C-0.215875 11.8204 0.116987 12.6729 0.125106 12.7053C0.141343 12.754 0.165699 12.7946 0.198173 12.8352L2.81236 16.1151C2.58504 16.4805 2.50385 16.9351 2.64187 17.3735C2.81236 17.9337 3.27512 18.3315 3.81094 18.4371L10.4276 38.701C10.6468 39.383 11.2882 39.8214 11.9701 39.8214C12.1244 39.8214 12.2786 39.797 12.4329 39.7565C13.2691 39.5048 13.7562 38.6117 13.5289 37.7755L7.83776 17.2274ZM1.14805 11.2196C1.45655 10.5783 2.19535 10.0262 3.30759 9.6365C4.44419 9.35235 5.36971 9.39295 5.97861 9.75828C6.44948 10.0424 6.61997 10.4402 6.66868 10.5864L6.31147 14.6538H6.30335L3.67293 15.4494C3.64045 15.4575 3.6161 15.4738 3.58362 15.4819L1.03439 12.2832C0.993795 12.137 0.920727 11.7149 1.14805 11.2196ZM3.59174 17.0975C3.50244 16.8052 3.66481 16.4967 3.95708 16.4074L6.5875 15.6118C6.63621 15.5955 6.69304 15.5874 6.74175 15.5874C6.97719 15.5874 7.19639 15.7417 7.26946 15.9771C7.31005 16.1151 7.29382 16.2694 7.22887 16.3993C7.1558 16.5292 7.04214 16.6266 6.90412 16.6672L4.2737 17.4628C3.98955 17.5521 3.68105 17.3816 3.59174 17.0975ZM12.1487 38.8066C11.824 38.904 11.4749 38.7254 11.3775 38.4007L4.82577 18.3396L6.9366 17.7064L12.5709 38.0434C12.6602 38.3601 12.4735 38.7092 12.1487 38.8066Z" fill="#80B317"/>
<path d="M28.8324 19.2895L32.908 11.9828C32.9161 11.9828 32.9242 11.9828 32.9404 11.9828C33.119 11.9828 33.2895 11.9584 33.46 11.9016C33.9065 11.7636 34.2638 11.4551 34.483 11.041C34.7428 10.5458 34.7265 9.97747 34.5073 9.50659L39.5571 7.02231C39.7276 6.94112 39.8331 6.77063 39.8331 6.5839C39.8331 6.44589 39.8412 3.24717 36.0011 0.949606C35.9768 0.933369 35.9524 0.917132 35.92 0.900895L35.8307 0.852183C35.7982 0.835946 35.7738 0.827827 35.7413 0.819709C31.6658 -1.03133 29.0679 0.819709 28.9623 0.900895C28.8081 1.01455 28.735 1.19316 28.7675 1.37989L29.6605 7.04666C29.6199 7.05478 29.5712 7.0629 29.5306 7.07102C29.0841 7.20903 28.7269 7.51754 28.5077 7.93159C28.1911 8.54048 28.2804 9.23868 28.6538 9.75827L25.7393 15.904L21.274 11.0004C21.339 10.8137 21.3877 10.6188 21.3958 10.4159C21.4039 9.92876 21.2253 9.47412 20.8925 9.12502C20.5596 8.77592 20.105 8.57296 19.626 8.56484C19.4392 8.56484 19.2606 8.59731 19.082 8.64602C19.2363 8.15891 19.3256 7.65556 19.3337 7.12785C19.3662 5.69898 18.8385 4.33506 17.848 3.29588C15.0877 0.397542 8.10568 0.0240875 7.8053 0.00785029C7.66728 -0.000268296 7.52926 0.0484432 7.43184 0.145866C7.33442 0.243289 7.27759 0.373187 7.27759 0.511203C7.28571 0.81159 7.46432 7.93971 10.0785 10.6919C11.069 11.7311 12.4004 12.3237 13.8374 12.3562C13.8861 12.3562 13.9267 12.3562 13.9754 12.3562C14.4544 12.3562 14.9172 12.2913 15.3637 12.1695C15.3069 12.34 15.2663 12.5186 15.2582 12.7053C15.25 13.1924 15.4286 13.6471 15.7615 13.9962C16.0944 14.3453 16.549 14.5482 17.028 14.5564C17.0442 14.5564 17.0605 14.5564 17.0767 14.5564C17.2634 14.5564 17.4502 14.5239 17.6207 14.467L23.4417 20.2962L15.4611 36.9718C14.8035 38.3519 14.9009 39.2774 15.7453 39.724C15.9401 39.8295 16.135 39.8701 16.3136 39.8701C17.2716 39.8701 17.9616 38.6117 18.2214 38.149L26.4618 23.3163L36.5776 33.4564C36.9429 33.8299 37.4381 34.0085 37.9252 34.0085C38.3961 34.0085 38.8751 33.838 39.2405 33.4889C39.9874 32.7826 40.028 31.581 39.3379 30.826L28.8324 19.2895ZM35.4166 1.76146C38.2094 3.3933 38.7209 5.51225 38.8183 6.2754L33.8254 8.73533C33.8172 8.73533 33.8172 8.74345 33.8172 8.74345C33.7929 8.72721 33.7685 8.71097 33.7442 8.69474L30.8621 7.18468C30.8052 7.1522 30.7484 7.13597 30.6835 7.11161C30.6835 7.10349 30.6835 7.09538 30.6835 7.08726L29.8067 1.55038C30.4886 1.19316 32.5101 0.405661 35.4166 1.76146ZM29.4007 8.38623C29.49 8.20762 29.6443 8.07772 29.8391 8.02089C30.0259 7.96406 30.2207 7.9803 30.3993 8.06961L33.2814 9.57966C33.6468 9.76639 33.7848 10.221 33.598 10.5945C33.5087 10.7731 33.3545 10.903 33.1678 10.9598C32.981 11.0167 32.7781 11.0004 32.6076 10.9111L29.7255 9.40105C29.352 9.20621 29.214 8.75157 29.4007 8.38623ZM29.4657 10.3915L31.9337 11.6824L28.1261 18.5182L26.4699 16.6997L29.4657 10.3915ZM13.8861 11.3576C12.717 11.3252 11.6291 10.8462 10.8254 10.0018C8.86071 7.93971 8.41419 2.74381 8.32489 1.03891C9.99731 1.18504 15.0714 1.80206 17.1498 3.97784C17.9535 4.82217 18.3838 5.93442 18.3595 7.10349C18.3351 8.27257 17.8561 9.35234 17.0118 10.1642C16.1593 10.9598 15.0471 11.382 13.8861 11.3576ZM17.0767 13.5659C16.8575 13.5578 16.6546 13.4685 16.5003 13.3142C16.346 13.1518 16.273 12.9489 16.273 12.7297C16.2811 12.5105 16.3704 12.3075 16.5247 12.1614L19.0252 9.78263C19.1794 9.63649 19.3743 9.55531 19.5854 9.55531H19.6097C19.8289 9.56342 20.0319 9.65273 20.1861 9.80698C20.3404 9.96935 20.4135 10.1723 20.4135 10.3915C20.4053 10.6107 20.316 10.8137 20.1618 10.9598L17.6613 13.3386C17.4989 13.4928 17.3122 13.574 17.0767 13.5659ZM25.6987 22.6425L17.369 37.67C16.89 38.5305 16.4597 38.9689 16.2243 38.839C16.1187 38.7822 15.794 38.6117 16.3704 37.4021L24.1967 21.0512L25.7311 22.5856C25.7311 22.61 25.7149 22.6181 25.6987 22.6425ZM38.5585 32.7745C38.2013 33.1154 37.633 33.1073 37.2839 32.7582L18.4975 13.9231L20.6895 11.8366L38.6072 31.4998C38.932 31.8652 38.9157 32.4335 38.5585 32.7745Z" fill="#80B317"/>
<path d="M39.8412 17.5521L38.7452 16.9514C37.9415 16.5129 37.292 15.8553 36.8536 15.0597L36.2528 13.9637C36.1635 13.8013 36.0011 13.7039 35.8144 13.7039C35.6358 13.7039 35.4653 13.8013 35.376 13.9637L34.7752 15.0597C34.3368 15.8635 33.6792 16.5129 32.8836 16.9514L31.7876 17.5521C31.6252 17.6414 31.5278 17.8038 31.5278 17.9905C31.5278 18.1691 31.6252 18.3396 31.7876 18.4289L32.8836 19.0297C33.6873 19.4681 34.3368 20.1257 34.7752 20.9213L35.376 22.0173C35.4653 22.1797 35.6277 22.2771 35.8144 22.2771C35.993 22.2771 36.1635 22.1797 36.2528 22.0173L36.8536 20.9213C37.292 20.1176 37.9496 19.4681 38.7452 19.0297L39.8412 18.4289C40.0036 18.3396 40.101 18.1773 40.101 17.9905C40.101 17.8038 40.0036 17.6333 39.8412 17.5521ZM38.2662 18.1448C37.3001 18.6725 36.5045 19.4681 35.9768 20.4342L35.8144 20.7346L35.652 20.4342C35.1243 19.4681 34.3287 18.6725 33.3626 18.1448L33.0703 17.9824L33.3626 17.82C34.3287 17.2923 35.1243 16.4967 35.652 15.5306L35.8144 15.2302L35.9768 15.5225C36.5045 16.4886 37.3001 17.2842 38.2662 17.8119L38.5585 17.9743L38.2662 18.1448Z" fill="#80B317"/>
<path d="M15.5017 24.5179L16.1025 23.4218C16.5409 22.6181 17.1985 21.9686 17.9941 21.5302L19.0901 20.9294C19.2525 20.8401 19.3499 20.6778 19.3499 20.491C19.3499 20.3043 19.2525 20.1419 19.0901 20.0526L17.9941 19.4519C17.1904 19.0134 16.5409 18.3558 16.1025 17.5602L15.5017 16.4642C15.3312 16.1476 14.8035 16.1476 14.6249 16.4642L14.0241 17.5602C13.5857 18.364 12.9281 19.0134 12.1325 19.4519L11.0365 20.0526C10.8741 20.1419 10.7767 20.3043 10.7767 20.491C10.7767 20.6696 10.8741 20.8401 11.0365 20.9294L12.1325 21.5302C12.9362 21.9686 13.5857 22.6262 14.0241 23.4218L14.6249 24.5179C14.7142 24.6802 14.8766 24.7776 15.0633 24.7776C15.25 24.7776 15.4124 24.6802 15.5017 24.5179ZM12.6115 20.6615L12.3192 20.4992L12.6115 20.3368C13.5776 19.8091 14.3732 19.0134 14.9009 18.0473L15.0633 17.7551L15.2257 18.0473C15.7534 19.0134 16.549 19.8091 17.5151 20.3368L17.8074 20.4992L17.5151 20.6615C16.549 21.1892 15.7534 21.9849 15.2257 22.951L15.0633 23.2432L14.9009 22.951C14.3732 21.9767 13.5857 21.1892 12.6115 20.6615Z" fill="#80B317"/>
<path d="M31.6252 35.275L30.5292 34.6742C29.7254 34.2358 29.076 33.5782 28.6376 32.7826L28.0368 31.6866C27.8582 31.3618 27.3386 31.3699 27.16 31.6866L26.5592 32.7826C26.1208 33.5863 25.4632 34.2358 24.6676 34.6742L23.5716 35.275C23.4092 35.3643 23.3118 35.5267 23.3118 35.7134C23.3118 35.892 23.4092 36.0625 23.5716 36.1518L24.6676 36.7526C25.4713 37.191 26.1208 37.8486 26.5592 38.6442L27.16 39.7402C27.2493 39.9026 27.4117 40 27.5984 40C27.777 40 27.9475 39.9026 28.0368 39.7402L28.6376 38.6442C29.076 37.8405 29.7336 37.191 30.5292 36.7526L31.6252 36.1518C31.7876 36.0625 31.885 35.9001 31.885 35.7134C31.885 35.5348 31.7876 35.3643 31.6252 35.275ZM30.0502 35.8758C29.0841 36.4035 28.2885 37.1991 27.7608 38.1652L27.5984 38.4656L27.436 38.1733C26.9083 37.2072 26.1127 36.4116 25.1466 35.8839L24.8543 35.7215L25.1466 35.5591C26.1127 35.0314 26.9083 34.2358 27.436 33.2697L27.5984 32.9693L27.7608 33.2697C28.2885 34.2358 29.0841 35.0314 30.0502 35.5591L30.3425 35.7215L30.0502 35.8758Z" fill="#80B317"/>
</svg>
