<svg width="37" height="40" viewBox="0 0 37 40" fill="none" xmlns="http://www.w3.org/2000/svg">
<path d="M35.0177 12.6665H29.732V6.66667C29.732 3.36499 26.397 0 23.1249 0H1.98213C0.888672 0.00333312 0.00329827 0.896683 0 2V38C0.00330334 39.1033 0.888672 39.9967 1.98213 40H27.7501C28.8435 39.9967 29.7289 39.1033 29.7322 38V37.3333H35.0179C36.1113 37.33 36.9967 36.4367 37 35.3333V14.6665C36.9967 13.5631 36.1111 12.6698 35.0177 12.6665ZM23.1249 1.33333C25.6422 1.33333 28.4106 4.12668 28.4106 6.66667V7.94999C27.2345 7.51667 25.2045 7.53 23.6995 7.58666C22.8918 7.59 22.2311 6.94001 22.2113 6.12499C22.3748 4.51334 22.2195 2.88497 21.7587 1.33352L23.1249 1.33333ZM28.4106 38.0002C28.4089 38.3685 28.1149 38.6652 27.7498 38.6669H1.98192C1.61688 38.6652 1.32286 38.3685 1.32121 38.0002V2.00021C1.32286 1.63188 1.61688 1.33521 1.98192 1.33355H20.2408C20.6768 1.77186 21.0468 3.35522 20.8916 6.08704C20.8933 6.84203 21.1922 7.56369 21.7224 8.09536C22.2526 8.62703 22.9712 8.92369 23.7194 8.92036C27.2212 8.79203 28.2634 9.21203 28.4106 9.42037V12.6671H21.8035C20.71 12.6704 19.8247 13.5637 19.8214 14.6671V18.6671H3.96431C3.59926 18.6671 3.3036 18.9654 3.3036 19.3337C3.3036 19.7021 3.59926 20.0004 3.96431 20.0004H19.8214V22.6671H3.96431C3.59926 22.6671 3.3036 22.9654 3.3036 23.3337C3.3036 23.7021 3.59926 24.0004 3.96431 24.0004H19.8214V26.6671H3.96431C3.59926 26.6671 3.3036 26.9654 3.3036 27.3337C3.3036 27.7021 3.59926 28.0004 3.96431 28.0004H19.8214V30.6671H3.96431C3.59926 30.6671 3.3036 30.9654 3.3036 31.3337C3.3036 31.7021 3.59926 32.0004 3.96431 32.0004H19.8214V34.6671H3.96431C3.59926 34.6671 3.3036 34.9654 3.3036 35.3337C3.3036 35.7021 3.59926 36.0004 3.96431 36.0004H19.9436C20.2227 36.7954 20.9677 37.3304 21.8034 37.3337H28.4106V38.0002ZM35.6786 35.3335C35.6769 35.7019 35.3829 35.9986 35.0179 36.0002H21.8037C21.4386 35.9985 21.1446 35.7019 21.1429 35.3335V14.6667C21.1446 14.2983 21.4386 14.0017 21.8037 14H35.0179C35.3829 14.0017 35.6769 14.2983 35.6786 14.6667V35.3335ZM33.0357 15.3335H23.7858C21.1033 15.2952 21.105 20.0384 23.7858 20.0004H33.0357C35.7182 20.0388 35.7166 15.2956 33.0357 15.3335ZM33.6964 18.0002C33.6964 18.3685 33.4008 18.6669 33.0357 18.6669H23.7858C22.8509 18.7119 22.8493 16.6219 23.7858 16.6669H33.0357C33.7493 16.6552 33.7262 17.4902 33.6964 18.0002ZM24.4465 21.3335H23.1251C22.395 21.3335 21.8037 21.9302 21.8037 22.6669V24.0002C21.8037 24.7369 22.395 25.3335 23.1251 25.3335H24.4465C25.1766 25.3335 25.7679 24.7369 25.7679 24.0002V22.6669C25.7679 21.9302 25.1766 21.3335 24.4465 21.3335ZM23.1251 24.0002V22.6669H24.4465L24.4482 24.0002H23.1251ZM29.0713 21.3335H27.7498C27.0197 21.3335 26.4284 21.9302 26.4284 22.6669V24.0002C26.4284 24.7369 27.0197 25.3335 27.7498 25.3335H29.0713C29.8014 25.3335 30.3927 24.7369 30.3927 24.0002V22.6669C30.3927 21.9302 29.8014 21.3335 29.0713 21.3335ZM27.7498 24.0002V22.6669H29.0713L29.0729 24.0002H27.7498ZM33.696 21.3335H32.3746C31.6445 21.3335 31.0532 21.9302 31.0532 22.6669V24.0002C31.0532 24.7369 31.6445 25.3335 32.3746 25.3335H33.696C34.4261 25.3335 35.0174 24.7369 35.0174 24.0002V22.6669C35.0174 21.9302 34.4261 21.3335 33.696 21.3335ZM32.3746 24.0002V22.6669H33.696L33.6977 24.0002H32.3746ZM24.4461 26.0002H23.1247C22.3946 26.0002 21.8032 26.5969 21.8032 27.3335V28.6669C21.8032 29.4036 22.3946 30.0002 23.1247 30.0002H24.4461C25.1762 30.0002 25.7675 29.4036 25.7675 28.6669V27.3335C25.7675 26.5969 25.1762 26.0002 24.4461 26.0002ZM23.1247 28.6669V27.3335H24.4461L24.4477 28.6669H23.1247ZM29.0708 26.0002H27.7494C27.0193 26.0002 26.428 26.5969 26.428 27.3335V28.6669C26.428 29.4036 27.0193 30.0002 27.7494 30.0002H29.0708C29.8009 30.0002 30.3923 29.4036 30.3923 28.6669V27.3335C30.3923 26.5969 29.8009 26.0002 29.0708 26.0002ZM27.7494 28.6669V27.3335H29.0708L29.0725 28.6669H27.7494ZM33.6956 26.0002H32.3742C31.6441 26.0002 31.0528 26.5969 31.0528 27.3335V33.3333C31.0528 34.07 31.6441 34.6667 32.3742 34.6667H33.6956C34.4257 34.6667 35.017 34.07 35.017 33.3333V27.3335C35.017 26.5969 34.4257 26.0002 33.6956 26.0002ZM32.3742 33.3338V27.334H33.6956L33.6973 33.3338H32.3742ZM24.4457 30.6671H23.1242C22.3941 30.6671 21.8028 31.2637 21.8028 32.0004V33.3338C21.8028 34.0704 22.3941 34.6671 23.1242 34.6671H24.4457C25.1758 34.6671 25.7671 34.0704 25.7671 33.3338V32.0004C25.7671 31.2637 25.1758 30.6671 24.4457 30.6671ZM23.1242 33.3338V32.0004H24.4457L24.4473 33.3338H23.1242ZM29.0704 30.6671H27.749C27.0189 30.6671 26.4276 31.2637 26.4276 32.0004V33.3338C26.4276 34.0704 27.0189 34.6671 27.749 34.6671H29.0704C29.8005 34.6671 30.3918 34.0704 30.3918 33.3338V32.0004C30.3918 31.2637 29.8005 30.6671 29.0704 30.6671ZM27.749 33.3338V32.0004H29.0704L29.0721 33.3338H27.749ZM12.2222 15.3335C19.7097 15.2952 19.7114 4.0384 12.2222 4.00043C4.7347 4.03876 4.73301 15.2956 12.2222 15.3335ZM12.2222 5.33333C17.9472 5.36333 17.9489 13.9699 12.2222 13.9998C6.49716 13.9698 6.49547 5.3632 12.2222 5.33333ZM12.7722 11.2815C13.3338 10.7365 12.7326 10.3598 12.057 10.2748C11.4888 10.2165 10.952 9.98315 10.5192 9.60482C10.1558 9.11484 10.0881 8.46315 10.3425 7.90647C10.5969 7.3498 11.132 6.97813 11.7382 6.93982V6.27149H12.4089V6.9315C13.1786 6.94317 13.8575 7.44316 14.1036 8.17984L13.0464 8.53484C12.9325 8.13151 12.5509 7.86651 12.1363 7.89983C11.0742 7.8815 11.2097 8.87651 12.1611 8.9415C13.0646 9.16316 13.504 9.16483 13.9913 9.82316H13.9929C14.3051 10.3765 14.2952 11.0581 13.9665 11.6015C13.6378 12.1465 13.0398 12.4665 12.4089 12.4365V13.2365H11.7382V12.4365C10.8612 12.4365 10.098 11.8265 9.8965 10.9648L11.0495 10.6982C11.1486 11.4148 12.2338 11.6482 12.7722 11.2815Z" fill="#DA5700"/>
</svg>
