<?xml version="1.0" encoding="UTF-8"?>
<svg id="Layer_1" xmlns="http://www.w3.org/2000/svg" viewBox="0 0 37.1 40">
  <defs>
    <style>
      .cls-1 {
        fill: #da5700;
      }
    </style>
  </defs>
  <g id="Layer_1-2" data-name="Layer_1">
    <path class="cls-1" d="M35,12.7h-5.3v-6c0-3.3-3.3-6.7-6.6-6.7H2C.9,0,0,.9,0,2v36c0,1.1.9,2,2,2h25.8c1.1,0,2-.9,2-2v-.7h5.3c1.1,0,2-.9,2-2V14.7c0-1.1-.9-2-2-2h-.1ZM23.1,1.3c2.5,0,5.3,2.8,5.3,5.3v1.3c-1.2-.4-3.2-.4-4.7-.4-.8,0-1.5-.6-1.5-1.5.2-1.6,0-3.2-.5-4.8h1.4v.1ZM28.4,38c0,.4-.3.7-.7.7H2c-.4,0-.7-.3-.7-.7V2c0-.4.3-.7.7-.7h18.3c.4.4.8,2,.7,4.8,0,.8.3,1.5.8,2s1.2.8,2,.8c3.5-.1,4.5.3,4.7.5v3.2h-6.6c-1.1,0-2,.9-2,2v4H4c-.4,0-.7.3-.7.7s.3.7.7.7h15.9v2.7H4c-.4,0-.7.3-.7.7s.3.7.7.7h15.9v2.7H4c-.4,0-.7.3-.7.7s.3.7.7.7h15.9v2.7H4c-.4,0-.7.3-.7.7s.3.7.7.7h15.9v2.7H4c-.4,0-.7.3-.7.7s.3.7.7.7h16c.3.8,1,1.3,1.9,1.3h6.6v.7l-.1-.4ZM35.7,35.3c0,.4-.3.7-.7.7h-13.2c-.4,0-.7-.3-.7-.7V14.7c0-.4.3-.7.7-.7h13.2c.4,0,.7.3.7.7v20.7-.1ZM33,15.3h-9.2c-2.7,0-2.7,4.7,0,4.7h9.2c2.7,0,2.7-4.7,0-4.7ZM33.7,18c0,.4-.3.7-.7.7h-9.2c-.9,0-.9-2,0-2h9.2c.7,0,.7.8.7,1.3ZM24.4,21.3h-1.3c-.7,0-1.3.6-1.3,1.3v1.3c0,.7.6,1.3,1.3,1.3h1.3c.7,0,1.3-.6,1.3-1.3v-1.3c0-.7-.6-1.3-1.3-1.3ZM23.1,24v-1.3h1.3v1.3h-1.3ZM29.1,21.3h-1.3c-.7,0-1.3.6-1.3,1.3v1.3c0,.7.6,1.3,1.3,1.3h1.3c.7,0,1.3-.6,1.3-1.3v-1.3c0-.7-.6-1.3-1.3-1.3ZM27.7,24v-1.3h1.3v1.3h-1.3ZM33.7,21.3h-1.3c-.7,0-1.3.6-1.3,1.3v1.3c0,.7.6,1.3,1.3,1.3h1.3c.7,0,1.3-.6,1.3-1.3v-1.3c0-.7-.6-1.3-1.3-1.3ZM32.4,24v-1.3h1.3v1.3h-1.3ZM24.4,26h-1.3c-.7,0-1.3.6-1.3,1.3v1.3c0,.7.6,1.3,1.3,1.3h1.3c.7,0,1.3-.6,1.3-1.3v-1.3c0-.7-.6-1.3-1.3-1.3ZM23.1,28.7v-1.3h1.3v1.3h-1.3ZM29.1,26h-1.3c-.7,0-1.3.6-1.3,1.3v1.3c0,.7.6,1.3,1.3,1.3h1.3c.7,0,1.3-.6,1.3-1.3v-1.3c0-.7-.6-1.3-1.3-1.3ZM27.7,28.7v-1.3h1.3v1.3h-1.3ZM33.7,26h-1.3c-.7,0-1.3.6-1.3,1.3v6c0,.7.6,1.3,1.3,1.3h1.3c.7,0,1.3-.6,1.3-1.3v-6c0-.7-.6-1.3-1.3-1.3ZM32.4,33.3v-6h1.3v6h-1.3ZM24.4,30.7h-1.3c-.7,0-1.3.6-1.3,1.3v1.3c0,.7.6,1.3,1.3,1.3h1.3c.7,0,1.3-.6,1.3-1.3v-1.3c0-.7-.6-1.3-1.3-1.3ZM23.1,33.3v-1.3h1.3v1.3h-1.3ZM29.1,30.7h-1.3c-.7,0-1.3.6-1.3,1.3v1.3c0,.7.6,1.3,1.3,1.3h1.3c.7,0,1.3-.6,1.3-1.3v-1.3c0-.7-.6-1.3-1.3-1.3ZM27.7,33.3v-1.3h1.3v1.3h-1.3Z"/>
  </g>
</svg>