<svg width="42" height="40" viewBox="0 0 42 40" fill="none" xmlns="http://www.w3.org/2000/svg">
<path d="M30.1773 23.747H25.7416C25.7862 23.5274 25.8737 23.3078 25.9166 23.1328C26.1362 22.5185 26.1362 21.9025 25.9612 21.2436C25.6541 20.1008 24.7309 19.1794 23.5899 18.9151C22.5792 18.6955 21.5685 18.9151 20.7793 19.5294C19.9882 20.1436 19.549 21.0668 19.549 22.0775C19.549 22.4292 19.5936 22.781 19.724 23.0881C19.8115 23.3078 19.8561 23.5274 19.899 23.747H16.2527V18.9151C16.2527 18.6955 16.1652 18.4758 15.9885 18.3008C15.8135 18.1687 15.5938 18.0812 15.3296 18.1258C14.6261 18.2579 14.0993 18.39 13.5725 18.5651C12.869 18.7847 12.1226 18.5651 11.7279 17.9937C11.4208 17.599 11.2887 17.0705 11.4208 16.5009C11.5529 15.9295 12.0351 15.4473 12.6065 15.2706C12.9582 15.183 13.31 15.183 13.5725 15.2706C14.0993 15.4456 14.6707 15.5777 15.3742 15.7098C15.5938 15.7544 15.8135 15.6652 15.9885 15.5348C16.1635 15.4027 16.2527 15.183 16.2527 14.9205V9.82283C16.2527 9.38356 15.901 9.0318 15.4617 9.0318H0.791033C0.351766 9.0318 0 9.38356 0 9.82283V39.209C0 39.6482 0.351757 40 0.791033 40H30.1772C30.6164 40 30.9682 39.6482 30.9682 39.209V24.5383C30.9682 24.099 30.6166 23.747 30.1773 23.747ZM14.7155 10.6138V14.0833C14.4959 14.0387 14.2763 13.9512 14.1013 13.9083C13.487 13.6887 12.871 13.6887 12.2121 13.8637C11.0693 14.1708 10.1907 15.094 9.88359 16.235C9.66395 17.2457 9.88359 18.2564 10.4979 19.0456C11.3318 20.0992 12.7388 20.5385 14.0566 20.0992C14.2763 20.0117 14.4513 19.9671 14.7155 19.9242V23.7901L10.0584 23.7918C9.83878 23.7918 9.61915 23.8793 9.44414 24.056C9.31202 24.2311 9.22451 24.4507 9.26912 24.7149C9.40124 25.3738 9.53337 25.9452 9.70839 26.472C9.753 26.647 9.7959 26.8238 9.7959 26.9988C9.7959 27.5255 9.57627 28.0094 9.137 28.3166C8.74234 28.6683 8.21383 28.7558 7.64419 28.6237C7.07279 28.4916 6.59065 28.0095 6.41389 27.4381C6.32638 27.0863 6.32638 26.7791 6.4585 26.4274C6.63352 25.9006 6.76565 25.2846 6.89777 24.6703C6.94238 24.4507 6.85316 24.231 6.72275 24.056C6.59062 23.881 6.37099 23.7918 6.10847 23.7918H1.58182V10.6138L14.7155 10.6138ZM1.5823 25.2845H5.22858C5.18397 25.5041 5.09645 25.7237 5.05356 25.8987C4.83392 26.513 4.83392 27.1291 5.00894 27.788C5.31609 28.9308 6.23925 29.8522 7.38029 30.1164C7.64453 30.161 7.90706 30.2039 8.17132 30.2039C8.91772 30.2039 9.62125 29.9397 10.1927 29.5004C10.9837 28.8861 11.423 27.963 11.423 26.9523C11.423 26.6005 11.3783 26.2488 11.2479 25.9416C11.1604 25.722 11.1158 25.5024 11.0729 25.2827L14.7158 25.2844V29.8968C14.7158 30.1164 14.8033 30.336 14.98 30.511C15.155 30.6431 15.3747 30.7307 15.6389 30.6861C16.2978 30.5539 16.9121 30.4218 17.396 30.2468C18.0549 30.0271 18.8013 30.2468 19.2406 30.8182C19.5477 31.2128 19.6798 31.7413 19.5477 32.311C19.4156 32.8824 18.9334 33.3645 18.362 33.5413C18.0103 33.6288 17.7031 33.6288 17.3514 33.4967C16.78 33.3217 16.2086 33.1895 15.5943 33.0574C15.3747 33.0128 15.155 33.102 14.98 33.2324C14.805 33.3646 14.7158 33.5842 14.7158 33.8467V38.4625H1.58254L1.5823 25.2845ZM29.3866 38.4625H16.2534V34.8162C16.473 34.8608 16.6927 34.9484 16.8677 34.9913C17.482 35.2109 18.098 35.2109 18.7569 35.0359C19.8997 34.7287 20.8211 33.8056 21.0854 32.6645C21.305 31.6539 21.0854 30.6432 20.4711 29.8539C19.8568 29.0629 18.9336 28.6236 17.923 28.6236C17.5712 28.6236 17.2194 28.6682 16.9123 28.7986C16.6927 28.8861 16.473 28.9308 16.2534 28.9737V25.2845H20.8657C21.0854 25.2845 21.305 25.197 21.48 25.0203C21.6121 24.8452 21.6996 24.6256 21.655 24.3614C21.5229 23.7025 21.3908 23.0882 21.2157 22.6043C21.1711 22.4293 21.1282 22.2525 21.1282 22.0775C21.1282 21.5508 21.3479 21.0669 21.7871 20.7597C22.1818 20.4526 22.7103 20.3205 23.2799 20.4526C23.8513 20.5847 24.3335 21.0668 24.5102 21.6382C24.5978 21.99 24.5978 22.2971 24.4656 22.6489C24.2906 23.1757 24.1585 23.7917 24.0264 24.406C23.9818 24.6256 24.071 24.8453 24.2014 25.0203C24.3335 25.1953 24.5531 25.2845 24.8157 25.2845H29.428L29.4314 38.4625L29.3866 38.4625Z" fill="#E7BF3E"/>
<path d="M41.6431 4.24443C41.5556 4.06941 41.3788 3.93729 41.1592 3.89267L26.9704 0.026766C26.7508 -0.0178461 26.5757 -0.0178462 26.399 0.114277C26.224 0.201788 26.0918 0.378523 26.0472 0.598174L24.8616 4.90335C24.6865 4.77123 24.4669 4.68372 24.2902 4.55159C23.7634 4.19984 23.192 4.02482 22.5331 4.02482C21.3474 4.02482 20.2046 4.6391 19.6332 5.69439C19.1493 6.57293 19.1064 7.62647 19.5011 8.54963C19.8958 9.4728 20.6868 10.1317 21.6528 10.3942C22.0046 10.4817 22.3117 10.5263 22.6635 10.4817H23.3224L22.1796 14.7869C22.0475 15.1815 22.3117 15.6208 22.7063 15.7529L27.8937 17.1582C28.1133 17.2028 28.3776 17.1582 28.5526 17.0261C28.7276 16.894 28.8597 16.6744 28.9043 16.4547C28.9489 15.7958 28.9918 15.269 28.9489 14.7423C28.9489 14.5672 28.9489 14.3905 28.9935 14.2155C29.1257 13.7316 29.4774 13.2923 29.9596 13.1173C30.4435 12.8977 30.9702 12.9423 31.4524 13.2048C31.9792 13.4691 32.3309 14.0834 32.3309 14.6976C32.3309 15.0494 32.2434 15.3565 32.0667 15.6208C31.7595 16.0601 31.4953 16.544 31.2328 17.1136C31.1453 17.3333 31.1453 17.5529 31.2328 17.7725C31.3203 17.9922 31.497 18.1243 31.7167 18.2118L36.8987 19.5742C36.9862 19.5742 37.0308 19.6188 37.1183 19.6188C37.4701 19.6188 37.7772 19.3992 37.8647 19.0474L41.7307 4.85865C41.7753 4.63902 41.7306 4.41943 41.6431 4.24443ZM36.5467 17.8617L33.0325 16.8957C33.1201 16.7207 33.2076 16.5885 33.3397 16.4118C33.6914 15.885 33.8665 15.269 33.8665 14.6547C33.9111 13.4691 33.2076 12.3263 32.1969 11.7549C31.3184 11.271 30.2648 11.2281 29.3417 11.6227C28.4185 12.0174 27.7596 12.8084 27.4971 13.7744C27.4096 14.1262 27.365 14.4333 27.4096 14.7851V15.3565L23.8954 14.3905L25.1257 9.91038C25.1703 9.69074 25.1257 9.47111 24.9936 9.25148C24.8632 9.03184 24.6436 9.03184 24.3793 8.98723C23.7204 8.94262 23.1062 8.89972 22.5348 8.94262C22.3597 8.94262 22.183 8.94262 22.008 8.89801C21.5241 8.76588 21.0848 8.41411 20.9098 7.93197C20.6902 7.44807 20.7348 6.9213 20.9973 6.43916C21.2616 5.91239 21.8759 5.56063 22.4473 5.56063H22.4919C22.8436 5.56063 23.1508 5.64814 23.415 5.82487C23.8989 6.13202 24.4257 6.43914 25.04 6.70341C25.2596 6.79092 25.4792 6.79092 25.6989 6.70341C25.9185 6.6159 26.0506 6.43916 26.1382 6.21951L27.3685 1.73942L40.0624 5.16606L36.5467 17.8617Z" fill="#E7BF3E"/>
</svg>
