<?xml version="1.0" encoding="UTF-8"?>
<svg xmlns="http://www.w3.org/2000/svg" version="1.1" viewBox="0 0 34 40">
  <defs>
    <style>
      .cls-1 {
        fill: #880364;
      }
    </style>
  </defs>
  <!-- Generator: Adobe Illustrator 28.7.4, SVG Export Plug-In . SVG Version: 1.2.0 Build 166)  -->
  <g>
    <g id="Layer_1">
      <path class="cls-1" d="M.7,22h20v2c0,.4.3.7.7.7h8.7c.4,0,.7-.3.7-.7v-2h2c.4,0,.7-.3.7-.7V.7c0-.4-.3-.7-.7-.7H.7c-.4,0-.7.3-.7.7v20.7c0,.4.3.7.7.7ZM29.3,23.3h-7.3v-7.3c0-.4-.3-.7-.7-.7h-6c-.4,0-.7-.3-.7-.7s.3-.7.7-.7h7.7l2.5,2.5c.3.3.7.3.9,0l2.5-2.5h.4v9.3ZM1.3,1.3h30.7v19.3h-1.3v-7.3c0-.4-.3-.7-.7-.7h-1.3c-.2,0-.3,0-.5.2l-2.2,2.2-2.2-2.2c-.1-.1-.3-.2-.5-.2h-8c-1.1,0-2,.9-2,2s.9,2,2,2h5.3v4H1.3V1.3Z"/>
      <path class="cls-1" d="M26,12.7c2.2,0,4-1.8,4-4s-1.8-4-4-4-4,1.8-4,4,1.8,4,4,4ZM26,6c1.5,0,2.7,1.2,2.7,2.7s-1.2,2.7-2.7,2.7-2.7-1.2-2.7-2.7,1.2-2.7,2.7-2.7Z"/>
      <path class="cls-1" d="M20.7,39.3v-7.3c0-.4-.3-.7-.7-.7h-.7c.4-.5.7-1.3.7-2,0-1.9-1.5-3.3-3.3-3.3s-3.3,1.5-3.3,3.3.3,1.5.7,2h-.7c-.4,0-.7.3-.7.7v7.3c0,.4.3.7.7.7h6.7c.4,0,.7-.3.7-.7ZM16.7,27.3c1.1,0,2,.9,2,2s-.9,2-2,2-2-.9-2-2,.9-2,2-2ZM19.3,38.7h-5.3v-6h5.3v6Z"/>
      <path class="cls-1" d="M10,39.3v-7.3c0-.4-.3-.7-.7-.7h-.7c.4-.5.7-1.3.7-2,0-1.9-1.5-3.3-3.3-3.3s-3.3,1.5-3.3,3.3.3,1.5.7,2h-.7c-.4,0-.7.3-.7.7v7.3c0,.4.3.7.7.7h6.7c.4,0,.7-.3.7-.7ZM6,27.3c1.1,0,2,.9,2,2s-.9,2-2,2-2-.9-2-2,.9-2,2-2ZM8.7,38.7H3.3v-6h5.3v6Z"/>
      <path class="cls-1" d="M31.3,39.3v-7.3c0-.4-.3-.7-.7-.7h-.7c.4-.5.7-1.3.7-2,0-1.9-1.5-3.3-3.3-3.3s-3.3,1.5-3.3,3.3.3,1.5.7,2h-.7c-.4,0-.7.3-.7.7v7.3c0,.4.3.7.7.7h6.7c.4,0,.7-.3.7-.7ZM27.3,27.3c1.1,0,2,.9,2,2s-.9,2-2,2-2-.9-2-2,.9-2,2-2ZM30,38.7h-5.3v-6h5.3v6Z"/>
      <path class="cls-1" d="M3.3,4.7h10v1.3H3.3v-1.3Z"/>
      <path class="cls-1" d="M9.3,8.7h8.7v1.3h-8.7v-1.3Z"/>
      <path class="cls-1" d="M3.3,8.7h3.3v1.3h-3.3v-1.3Z"/>
      <path class="cls-1" d="M15.3,4.7h1.3v1.3h-1.3v-1.3Z"/>
    </g>
  </g>
</svg>