<?xml version="1.0" encoding="UTF-8"?>
<svg xmlns="http://www.w3.org/2000/svg" version="1.1" viewBox="0 0 40 40">
  <defs>
    <style>
      .cls-1 {
        fill: #81b216;
        fill-rule: evenodd;
      }
    </style>
  </defs>
  <!-- Generator: Adobe Illustrator 28.7.4, SVG Export Plug-In . SVG Version: 1.2.0 Build 166)  -->
  <g>
    <g id="Layer_1">
      <path class="cls-1" d="M18.2,40c-.9,0-1.6-.6-1.7-1.5l-.5-3.5c-1.3-.3-2.5-.9-3.7-1.5l-2.9,2.1c-.3.2-.7.3-1,.3s-.9-.2-1.2-.5l-2.5-2.4c-.6-.6-.7-1.6-.2-2.3l2.1-2.9c-.7-1.2-1.2-2.4-1.5-3.7l-3.5-.5c-.9-.1-1.5-.9-1.5-1.7v-3.5c0-.9.6-1.6,1.5-1.7l3.5-.5c.3-1.3.9-2.5,1.5-3.7l-2.1-2.9c-.5-.7-.5-1.7.2-2.3l2.5-2.5c.3-.3.8-.5,1.2-.5s.7.1,1,.3l2.9,2.1c1.2-.7,2.4-1.2,3.7-1.5l.5-3.5c.1-.9.9-1.5,1.7-1.5h3.5c.9,0,1.6.6,1.7,1.5l.5,3.5c1.3.3,2.5.9,3.7,1.5l2.9-2.1c.3-.2.7-.3,1-.3s.9.2,1.2.5l2.5,2.4c.6.6.7,1.6.2,2.3l-2.1,2.9c.7,1.2,1.2,2.4,1.5,3.7l3.5.5c.9.1,1.5.9,1.5,1.7v3.5c0,.9-.6,1.6-1.5,1.7l-3.5.6c-.3,1.3-.9,2.5-1.5,3.7l2.1,2.9c.5.7.5,1.7-.2,2.3l-2.5,2.5c-.3.3-.8.5-1.2.5s-.7-.1-1-.3l-2.9-2.1c-1.2.7-2.4,1.2-3.7,1.5l-.5,3.5c-.1.9-.9,1.5-1.7,1.5h-3.5ZM12.2,31.7c.2,0,.3,0,.4.1,1.3.8,2.7,1.4,4.2,1.7.3,0,.6.3.6.7l.6,4c0,0,0,.1.2.1h3.5c0,0,.2,0,.2-.1l.6-4c0-.3.3-.6.6-.7,1.5-.3,2.9-.9,4.2-1.7.1,0,.3-.1.4-.1s.3,0,.5.2l3.3,2.4s0,0,0,0,0,0,.1,0l2.5-2.5s0-.1,0-.2l-2.4-3.3c-.2-.2-.2-.6,0-.9.8-1.3,1.4-2.7,1.7-4.2,0-.3.3-.6.7-.6l4-.6c0,0,.1,0,.1-.2v-3.5c0,0,0-.2-.1-.2l-4-.6c-.3,0-.6-.3-.7-.6-.3-1.5-.9-2.9-1.7-4.2-.2-.3-.2-.6,0-.9l2.4-3.3c0,0,0-.2,0-.2l-2.5-2.5s0,0-.1,0,0,0,0,0l-3.3,2.4c-.1,0-.3.2-.5.2s-.3,0-.4-.1c-1.3-.8-2.7-1.4-4.2-1.7-.3,0-.6-.3-.6-.7l-.6-4c0,0,0-.1-.2-.1h-3.5c0,0-.2,0-.2.1l-.6,4c0,.3-.3.6-.6.7-1.5.3-2.9.9-4.2,1.7-.1,0-.3.1-.4.1s-.3,0-.5-.2l-3.3-2.4s0,0,0,0,0,0-.1,0l-2.5,2.5s0,.1,0,.2l2.4,3.3c.2.2.2.6,0,.9-.8,1.3-1.4,2.7-1.7,4.2,0,.3-.3.6-.7.6l-4,.6c0,0-.1,0-.1.2v3.5c0,0,0,.2.1.2l4,.6c.3,0,.6.3.7.6.3,1.5.9,2.9,1.7,4.2.2.3.2.6,0,.9l-2.4,3.3c0,0,0,.2,0,.2l2.5,2.5s0,0,.1,0,0,0,0,0l3.3-2.4c.1,0,.3-.1.5-.1Z"/>
      <path class="cls-1" d="M20,32.5c-1.1,0-2.2-.1-3.2-.4-6.7-1.8-10.7-8.7-8.9-15.3.9-3.2,3-6,5.9-7.6,1.9-1.1,4.1-1.7,6.2-1.7s2.2.1,3.2.4c3.2.8,5.9,2.9,7.6,5.8,1.7,2.9,2.1,6.3,1.2,9.5-.8,3.2-2.9,5.9-5.8,7.6-1.9,1.1-4,1.7-6.2,1.7ZM20,9.1c-1.9,0-3.8.5-5.5,1.5-2.5,1.5-4.3,3.8-5.1,6.6-1.5,5.8,1.9,11.8,7.7,13.4.9.2,1.9.4,2.8.4,1.9,0,3.8-.5,5.4-1.5,2.5-1.5,4.3-3.8,5.1-6.6.7-2.8.4-5.7-1.1-8.3-1.5-2.5-3.8-4.3-6.6-5.1-.9-.2-1.8-.4-2.8-.4Z"/>
      <path class="cls-1" d="M14.3,31c-.2,0-.4,0-.6-.2s-.2-.4-.2-.6,0-.4.2-.6l2.7-2.7c.4-.4.8-.6,1.2-.6s.4,0,.6,0c.5,0,.9.1,1.3.1,1.6,0,3.2-.6,4.4-1.8,1.3-1.3,2-3.2,1.8-5l-3.1,3.1c-.2.2-.4.2-.6.2s-.1,0-.2,0l-3.5-.8c-.3,0-.5-.3-.6-.6l-.9-3.5c0-.3,0-.6.2-.8l3.1-3.1c-.2,0-.5,0-.7,0-1.6,0-3.2.6-4.3,1.8-1.5,1.5-2.1,3.6-1.7,5.6.4,1.1-.3,1.8-.7,2.2h-.1c0,.1-2.3,2.5-2.3,2.5-.2.2-.4.2-.6.2s-.4,0-.6-.2c-.2-.2-.2-.4-.2-.6s0-.4.2-.6l2.3-2.3h.1c.4-.5.4-.5.3-.6,0,0,0,0,0-.2-.5-2.6.2-5.2,2.1-7.1,1.5-1.5,3.4-2.3,5.5-2.3s1.7.1,2.5.4c.2,0,.5.3.5.6,0,.3,0,.5-.2.7l-3.8,3.8.7,2.6,2.5.6,3.8-3.8c.2-.2.4-.2.6-.2s.1,0,.2,0c.3,0,.5.2.6.5,1,2.8.2,5.9-1.9,8-1.5,1.5-3.4,2.3-5.5,2.3s-1.1,0-1.6-.2c-.1,0-.2,0-.3,0,0,0,0,0-.1.1l-2.7,2.7c-.1,0-.3.2-.5.2Z"/>
    </g>
  </g>
</svg>