<svg width="40" height="40" viewBox="0 0 40 40" fill="none" xmlns="http://www.w3.org/2000/svg">
<path fill-rule="evenodd" clip-rule="evenodd" d="M18.231 40C17.3569 40 16.6077 39.3757 16.4828 38.5016L15.9417 34.9636C14.6514 34.6306 13.4027 34.0895 12.2373 33.4235L9.36524 35.5047C9.07388 35.7128 8.69927 35.8377 8.32466 35.8377C7.86681 35.8377 7.40895 35.6712 7.07596 35.2966L4.62019 32.8824C3.99584 32.2581 3.91259 31.3007 4.45369 30.5931L6.53486 27.7211C5.86889 26.5557 5.32778 25.307 4.9948 24.0166L1.49844 23.4755C0.62435 23.3507 0 22.6015 0 21.7274V18.2726C0 17.3985 0.62435 16.6493 1.49844 16.5245L4.9948 15.9834C5.32778 14.693 5.86889 13.4443 6.53486 12.2789L4.45369 9.40687C3.95421 8.69927 3.99584 7.74194 4.62019 7.11759L7.07596 4.66181C7.40895 4.32882 7.86681 4.12071 8.32466 4.12071C8.69927 4.12071 9.07388 4.24558 9.36524 4.45369L12.2373 6.53486C13.4027 5.86889 14.6514 5.32778 15.9417 4.9948L16.4828 1.49844C16.6077 0.62435 17.3569 0 18.231 0H21.6857C22.5598 0 23.3091 0.62435 23.4339 1.49844L23.975 4.9948C25.2653 5.32778 26.514 5.86889 27.6795 6.53486L30.5515 4.45369C30.8429 4.24558 31.2175 4.12071 31.5921 4.12071C32.0499 4.12071 32.5078 4.2872 32.8408 4.66181L35.3798 7.07596C36.0042 7.70031 36.0874 8.65765 35.5463 9.36524L33.4651 12.2373C34.1311 13.4027 34.6722 14.6514 35.0052 15.9417L38.5016 16.4828C39.3757 16.6077 40 17.3569 40 18.231V21.6857C40 22.5598 39.3757 23.3091 38.5016 23.4339L34.9636 24.0166C34.6306 25.307 34.0895 26.5557 33.4235 27.7211L35.5047 30.5931C36.0042 31.3007 35.9625 32.2581 35.3382 32.8824L32.8824 35.3382C32.5494 35.6712 32.0916 35.8793 31.6337 35.8793C31.2591 35.8793 30.8845 35.7544 30.5931 35.5463L27.7211 33.4651C26.5557 34.1311 25.307 34.6722 24.0166 35.0052L23.4755 38.5016C23.3507 39.3757 22.6015 40 21.7274 40H18.231ZM12.1956 31.6753C12.3621 31.6753 12.487 31.717 12.6119 31.8002C13.9022 32.6327 15.3174 33.2154 16.8158 33.5484C17.1488 33.6316 17.3985 33.8814 17.4402 34.2144L18.0645 38.2518C18.0645 38.3351 18.1478 38.3767 18.231 38.3767H21.6857C21.769 38.3767 21.8522 38.3351 21.8522 38.2518L22.4766 34.2144C22.5182 33.8814 22.768 33.6316 23.1009 33.5484C24.5994 33.2154 26.0146 32.6327 27.3049 31.8002C27.4298 31.717 27.5963 31.6753 27.7211 31.6753C27.8876 31.6753 28.0541 31.717 28.179 31.8418L31.4672 34.256C31.5088 34.2976 31.5088 34.2976 31.5505 34.2976C31.5921 34.2976 31.6337 34.2976 31.6753 34.256L34.1311 31.8002C34.1727 31.7586 34.2144 31.6753 34.1311 31.5921L31.717 28.3039C31.5088 28.0541 31.5088 27.6795 31.6753 27.3881C32.5078 26.0978 33.0905 24.6826 33.4235 23.1842C33.5068 22.8512 33.7565 22.6015 34.0895 22.5598L38.127 21.9355C38.2102 21.9355 38.2518 21.8522 38.2518 21.769V18.2726C38.2518 18.1894 38.2102 18.1061 38.127 18.1061L34.0895 17.4818C33.7565 17.4402 33.5068 17.1904 33.4235 16.8574C33.0905 15.359 32.5078 13.9438 31.6753 12.6535C31.5088 12.3621 31.5088 12.0291 31.717 11.7378L34.1311 8.44953C34.1727 8.36628 34.1727 8.28304 34.1311 8.24141L31.6753 5.78564C31.6337 5.74402 31.5921 5.74402 31.5505 5.74402C31.5088 5.74402 31.4672 5.74402 31.4672 5.78564L28.179 8.19979C28.0541 8.28304 27.8876 8.36629 27.7211 8.36629C27.5546 8.36629 27.4298 8.32466 27.3049 8.24141C26.0146 7.40895 24.5994 6.82622 23.1009 6.49324C22.768 6.40999 22.5182 6.16025 22.4766 5.82726L21.8522 1.7898C21.8522 1.70656 21.769 1.66493 21.6857 1.66493H18.231C18.1478 1.66493 18.0645 1.70656 18.0645 1.7898L17.4402 5.82726C17.3985 6.16025 17.1488 6.40999 16.8158 6.49324C15.3174 6.82622 13.9022 7.40895 12.6119 8.24141C12.487 8.32466 12.3205 8.36629 12.1956 8.36629C12.0291 8.36629 11.8626 8.32466 11.7378 8.19979L8.44953 5.78564C8.40791 5.74402 8.40791 5.74402 8.36629 5.74402C8.32466 5.74402 8.28304 5.74402 8.24141 5.78564L5.78564 8.24141C5.74402 8.28304 5.70239 8.36628 5.78564 8.44953L8.19979 11.7378C8.40791 11.9875 8.40791 12.3621 8.24141 12.6535C7.40895 13.9438 6.82622 15.359 6.49324 16.8574C6.40999 17.1904 6.16025 17.4402 5.82726 17.4818L1.7898 18.1061C1.70656 18.1061 1.66493 18.1894 1.66493 18.2726V21.7274C1.66493 21.8106 1.70656 21.8939 1.7898 21.8939L5.82726 22.5182C6.16025 22.5598 6.40999 22.8096 6.49324 23.1426C6.82622 24.641 7.40895 26.0562 8.24141 27.3465C8.40791 27.6379 8.40791 27.9709 8.19979 28.2622L5.78564 31.5505C5.74402 31.6337 5.74402 31.717 5.78564 31.7586L8.24141 34.2144C8.28304 34.256 8.32466 34.256 8.36629 34.256C8.40791 34.256 8.44953 34.256 8.44953 34.2144L11.7378 31.8002C11.8626 31.717 12.0291 31.6753 12.1956 31.6753Z" fill="#80B317"/>
<path fill-rule="evenodd" clip-rule="evenodd" d="M19.9792 32.5078C18.897 32.5078 17.7732 32.3829 16.7326 32.0916C10.0728 30.3018 6.07701 23.4339 7.86681 16.7742C8.7409 13.5276 10.8221 10.8221 13.7357 9.15712C15.6504 8.07491 17.8148 7.49219 19.9792 7.49219C21.0614 7.49219 22.1852 7.61706 23.2258 7.90842C26.4308 8.74089 29.1363 10.8221 30.8013 13.7357C32.4662 16.6493 32.924 20.0208 32.05 23.2258C31.2175 26.4308 29.1363 29.1363 26.2227 30.8012C24.3496 31.9251 22.1852 32.5078 19.9792 32.5078ZM19.9792 9.07387C18.1061 9.07387 16.1915 9.57335 14.5265 10.5307C11.9875 11.9875 10.1977 14.3184 9.4485 17.1488C7.90843 22.9761 11.3632 28.9698 17.1488 30.5099C18.0645 30.7596 19.0219 30.8845 19.9792 30.8845C21.8522 30.8845 23.7669 30.385 25.3902 29.4277C27.9292 27.9709 29.719 25.64 30.4683 22.8096C31.2175 19.9792 30.8429 17.0655 29.3861 14.5265C27.9292 11.9875 25.5983 10.1977 22.768 9.44848C21.8522 9.19874 20.9365 9.07387 19.9792 9.07387Z" fill="#80B317"/>
<path fill-rule="evenodd" clip-rule="evenodd" d="M14.2768 31.0094C14.0687 31.0094 13.8606 30.9261 13.6941 30.7596C13.5276 30.5931 13.4444 30.385 13.4444 30.1769C13.4444 29.9688 13.5276 29.7607 13.6941 29.5942L16.358 26.9303C16.7742 26.514 17.1488 26.3475 17.6067 26.3475C17.8148 26.3475 18.0229 26.3892 18.231 26.4308C18.6889 26.514 19.1467 26.5557 19.563 26.5557C21.1863 26.5557 22.768 25.9313 23.9334 24.7659C25.2654 23.4339 25.9313 21.6025 25.7232 19.7711L22.6015 22.8928C22.435 23.0593 22.2269 23.1425 22.0188 23.1425C21.9355 23.1425 21.8939 23.1425 21.8106 23.1009L18.3559 22.2685C18.0645 22.1852 17.8564 21.9771 17.7732 21.6857L16.8991 18.1894C16.8158 17.898 16.8991 17.6066 17.1072 17.3985L20.1873 14.3184C19.9792 14.2768 19.7295 14.2768 19.5214 14.2768C17.898 14.2768 16.358 14.9011 15.1925 16.1082C13.7357 17.565 13.1114 19.6878 13.5276 21.6857C13.9438 22.7679 13.1946 23.4755 12.7784 23.8918L12.6535 24.0166L10.3226 26.3475C10.1561 26.514 9.94799 26.5973 9.73988 26.5973C9.53176 26.5973 9.32364 26.514 9.15715 26.3475C8.99066 26.181 8.90741 25.9729 8.90741 25.7648C8.90741 25.5567 8.99066 25.3486 9.15715 25.1821L11.4881 22.8512L11.6129 22.7263C11.9875 22.3517 11.9875 22.3101 11.9459 22.2268C11.9459 22.1852 11.9043 22.1436 11.9043 22.0603C11.3632 19.4797 12.154 16.8158 14.0271 14.9428C15.4839 13.4859 17.4402 12.6535 19.5214 12.6535C20.3954 12.6535 21.2279 12.7783 22.0604 13.0697C22.3101 13.153 22.5182 13.3611 22.6015 13.6524C22.6847 13.9438 22.6015 14.1935 22.3934 14.4017L18.564 18.231L19.23 20.8116L21.769 21.436L25.5984 17.6066C25.7648 17.4402 25.973 17.3569 26.1811 17.3569C26.2227 17.3569 26.306 17.3569 26.3476 17.3985C26.6389 17.4818 26.8471 17.6483 26.9303 17.9396C27.8876 20.77 27.18 23.8501 25.0573 25.9729C23.6004 27.4297 21.6441 28.2622 19.563 28.2622C19.0219 28.2622 18.4808 28.2206 17.9397 28.0957C17.8148 28.0957 17.6899 28.0541 17.6067 28.0541C17.5651 28.0957 17.5234 28.0957 17.4818 28.179L14.8179 30.8429C14.693 30.9261 14.5266 31.0094 14.2768 31.0094Z" fill="#80B317"/>
</svg>
