<?xml version="1.0" encoding="UTF-8"?>
<svg id="Layer_1" xmlns="http://www.w3.org/2000/svg" viewBox="0 0 40.25 40.24">
  <defs>
    <style>
      .cls-1 {
        fill: #009cde;
        stroke: #009cde;
        stroke-miterlimit: 10;
        stroke-width: .25px;
      }
    </style>
  </defs>
  <path class="cls-1" d="M7.28.13c.09,0,.18,0,.27,0,.22,0,.43,0,.65,0,.26,0,.52,0,.78,0,.51,0,1.02,0,1.53,0,.45,0,.89,0,1.34,0,.03,0,.06,0,.09,0,.12,0,.24,0,.36,0,1.13,0,2.25,0,3.38,0,1,0,2,0,3,0,.26,0,.51,0,.77,0,.03,0,.06,0,.1,0,.84,0,1.67,0,2.51,0,.09,0,.18,0,.27,0,.06,0,.12,0,.18,0,.45,0,.89,0,1.34,0,.51,0,1.01,0,1.52,0,.26,0,.52,0,.78,0,.24,0,.47,0,.71,0,.09,0,.17,0,.26,0,.12,0,.23,0,.35,0,.03,0,.07,0,.1,0,.5,0,.96.21,1.32.56.44.49.55,1.03.55,1.66,0,.04,0,.08,0,.12,0,.13,0,.26,0,.39,0,.09,0,.19,0,.28,0,.2,0,.4,0,.6,0,.29,0,.58,0,.87,0,.47,0,.94,0,1.41,0,.46,0,.91,0,1.37,0,.03,0,.06,0,.09,0,.14,0,.28,0,.42,0,1.17,0,2.34.01,3.52.02,0,.04-.02.06-.03.09-.04.18-.09.28-.13.03-.02.06-.03.09-.05,1.07-.51,2.31-.51,3.43-.13.53.19.99.46,1.42.83.02.02.04.03.06.05.89.75,1.42,1.83,1.55,2.99,0,.06,0,.11,0,.17,0,.03,0,.07,0,.1,0,.19,0,.32-.12.47q-.16.11-.26.11v1.66q.44,0,.87,0c.88,0,1.69.15,2.36.78.03.03.06.06.09.09.03.03.06.06.09.09.47.49.75,1.16.75,1.84,0,.03,0,.05,0,.08,0,.09,0,.17,0,.26,0,.06,0,.12,0,.19,0,.17,0,.34,0,.51,0,.19,0,.37,0,.56,0,.45,0,.89,0,1.34,0,.21,0,.42,0,.63,0,.7,0,1.4,0,2.1,0,.18,0,.36,0,.54,0,.05,0,.09,0,.14,0,.73,0,1.46,0,2.19,0,.75,0,1.5,0,2.25,0,.42,0,.84,0,1.26,0,.36,0,.72,0,1.08,0,.18,0,.37,0,.55,0,.17,0,.34,0,.5,0,.06,0,.12,0,.18,0,.51-.06,1.02-.31,1.48-.01.02-.03.05-.04.08-.12.22-.26.41-.42.59-.02.03-.05.05-.07.08-.24.26-.55.46-.87.6h-.08s.01.06.02.1c.09.62-.04,1.19-.4,1.71-.36.47-.85.77-1.43.87-.65.06-1.24-.05-1.77-.46-.43-.37-.68-.83-.8-1.39v-.6q-2.29.02-4.64.04v.41c-.06.61-.34,1.14-.81,1.54-.53.42-1.14.53-1.79.46-.58-.11-1.08-.43-1.43-.9-.28-.43-.4-.83-.39-1.34,0-.04,0-.08,0-.12,0-.09,0-.19,0-.28-.03-.01-.05-.03-.08-.04-.25-.13-.46-.27-.68-.45-.04-.03-.07-.05-.11-.08-.26-.23-.44-.52-.59-.83-.01-.02-.02-.05-.04-.07-.03-.06-.06-.12-.09-.18-.05,0-.1,0-.15,0-2.14,0-4.28,0-6.42,0-.03,0-.06,0-.1,0-.7,0-1.41,0-2.11,0-.35,0-.69,0-1.04,0-.03,0-.07,0-.1,0-1.11,0-2.23,0-3.34,0-1.14,0-2.29,0-3.43,0-.16,0-.32,0-.48,0-.03,0-.06,0-.1,0-.51,0-1.02,0-1.54,0-.51,0-1.03,0-1.54,0-.31,0-.61,0-.92,0-.23,0-.46,0-.68,0-.09,0-.19,0-.28,0-.13,0-.25,0-.38,0q-.05,0-.11,0-.24,0-.34-.08c-.13-.15-.15-.29-.15-.48,0-.03,0-.06,0-.09,0-.1,0-.19,0-.29,0-.07,0-.14,0-.2,0-.14,0-.28,0-.42,0-.18,0-.36,0-.54,0-.14,0-.28,0-.42,0-.07,0-.13,0-.2,0-.09,0-.19,0-.28,0-.03,0-.06,0-.08,0-.15.02-.21.11-.33.17-.13.33-.12.53-.12.03,0,.07,0,.1,0,.11,0,.22,0,.32,0,.08,0,.15,0,.23,0,.2,0,.4,0,.59,0,.24,0,.47,0,.71,0,.36,0,.72,0,1.08,0v-1.85c-.11-.02-.22-.05-.34-.08-.11-.04-.22-.09-.33-.13-.03-.01-.06-.03-.09-.04-1.22-.56-2.14-1.62-2.6-2.87-.46-1.3-.37-2.76.22-4,.61-1.23,1.68-2.11,2.97-2.57.32-.11.64-.18.97-.2.04,0,.08,0,.12,0,.03,0,.06,0,.09,0,0-.04,0-.08,0-.12,0-1.73,0-3.46,0-5.2t0-.08c0-.57,0-1.14,0-1.71,0-.28,0-.56,0-.84,0-.03,0-.06,0-.08,0-.9,0-1.8,0-2.7,0-.93,0-1.85,0-2.78,0-.13,0-.26,0-.39t0-.08c0-.41,0-.83,0-1.24,0-.42,0-.83,0-1.25,0-.23,0-.45,0-.68,0-.21,0-.41,0-.62,0-.07,0-.15,0-.22,0-.72.08-1.31.6-1.85.55-.51,1.16-.52,1.87-.52ZM5.84,1.31c-.19.27-.28.51-.27.85,0,.03,0,.06,0,.1,0,.11,0,.21,0,.32,0,.08,0,.15,0,.23,0,.21,0,.42,0,.64,0,.23,0,.46,0,.69,0,.4,0,.79,0,1.19,0,.42,0,.83,0,1.25,0,.03,0,.05,0,.08,0,.13,0,.26,0,.39,0,.93,0,1.86,0,2.79,0,.9,0,1.81,0,2.71,0,.03,0,.06,0,.08,0,.28,0,.56,0,.84,0,.57,0,1.14,0,1.71,0,.03,0,.05,0,.08,0,1.75,0,3.5,0,5.25.03,0,.05,0,.08.01.12.02.23.04.35.06.04,0,.08.01.12.02,1.27.21,2.45.92,3.2,1.96.8,1.14,1.12,2.52.9,3.9-.24,1.33-1,2.5-2.09,3.28-.44.3-.92.52-1.43.69v1.85h4.9c0-.71,0-1.41,0-2.14,0-.45,0-.89,0-1.34,0-.23,0-.47,0-.7,0-.03,0-.06,0-.09,0-.47,0-.95,0-1.42,0-.49,0-.97,0-1.46,0-.3,0-.6,0-.9,0-.23,0-.46,0-.69,0-.09,0-.19,0-.28,0-.13,0-.26,0-.39,0-.04,0-.08,0-.11,0-.16.01-.26.09-.4.18-.11.34-.1.54-.09.04,0,.09,0,.13,0,.14,0,.29,0,.43,0,.1,0,.21,0,.31,0,.25,0,.51,0,.76,0,.21,0,.41,0,.62,0,.03,0,.06,0,.09,0,.06,0,.12,0,.18,0,.56,0,1.11,0,1.67,0,.48,0,.96,0,1.43,0,.55,0,1.11,0,1.66,0,.06,0,.12,0,.18,0,.03,0,.06,0,.09,0,.21,0,.41,0,.62,0,.25,0,.5,0,.75,0,.13,0,.26,0,.38,0,.14,0,.28,0,.41,0,.04,0,.08,0,.12,0,.17,0,.27,0,.42.1.1.17.1.32.09.51q0,.06,0,.12c0,.13,0,.27,0,.4,0,.1,0,.19,0,.29,0,.21,0,.42,0,.62,0,.3,0,.6,0,.9,0,.49,0,.98,0,1.46,0,.47,0,.95,0,1.42,0,.03,0,.06,0,.09,0,.15,0,.29,0,.44,0,1.22,0,2.43,0,3.65h.53v-11.84q-.84-.02-1.7-.04s-.07-.02-.11-.04c-.04-.11-.04-.17-.04-.29q0-.05,0-.11s0-.08,0-.12c0-.04,0-.08,0-.12,0-.14,0-.27,0-.41,0-.05,0-.09,0-.14,0-.22,0-.44,0-.66,0-.25,0-.51,0-.76,0-.22,0-.44,0-.66,0-.09,0-.19,0-.28,0-.13,0-.26,0-.39q0-.06,0-.12t0-.11s0-.06,0-.09c.03-.12.07-.16.17-.23q.09-.02.2-.02.06,0,.12,0,.07,0,.14,0s.09,0,.14,0c.13,0,.26,0,.39,0,.14,0,.27,0,.41,0,.23,0,.45,0,.68,0,.26,0,.53,0,.79,0,.23,0,.45,0,.68,0,.13,0,.27,0,.4,0,.15,0,.3,0,.45,0,.04,0,.09,0,.14,0,.04,0,.08,0,.12,0,.04,0,.07,0,.11,0,.12.02.17.07.24.17.02.11.02.21.02.33t0,.1c0,.1,0,.2,0,.3,0,.07,0,.14,0,.2,0,.17,0,.33,0,.5h.98c0-.23,0-.47.01-.7,0-.08,0-.16,0-.24,0-.11,0-.23,0-.34,0-.04,0-.07,0-.11,0-.1,0-.18-.03-.27q-.11-.1-.23-.15c-.11-.14-.08-.31-.07-.48,0-.03,0-.06,0-.1.07-.92.41-1.78.97-2.5.02-.02.03-.04.05-.06q.06-.07.15-.14c.19-.16.29-.29.32-.54.02-.26.01-.51.01-.77,0-.1,0-.2,0-.3,0-.24,0-.48,0-.72,0-.28,0-.56,0-.84,0-.5,0-1,0-1.51,0-.49,0-.97,0-1.46,0-.03,0-.06,0-.09t0-.09c0-.06,0-.12,0-.18,0-.03,0-.06,0-.09,0-.46,0-.93,0-1.39,0-.17,0-.34,0-.5,0-.27,0-.53,0-.8,0-.12,0-.24,0-.36,0-.13,0-.26,0-.4,0-.04,0-.08,0-.12,0-.37-.1-.7-.37-.97-.02-.02-.05-.04-.07-.06-.02-.02-.04-.04-.06-.06-.4-.33-1.01-.26-1.5-.26-.09,0-.17,0-.26,0-.24,0-.47,0-.71,0-.23,0-.46,0-.68,0-.5,0-.99,0-1.49,0-.43,0-.87,0-1.3,0-.03,0-.06,0-.09,0-.12,0-.23,0-.35,0-1.09,0-2.19,0-3.28,0-.97,0-1.94,0-2.92,0-.06,0-.12,0-.19,0-.03,0-.06,0-.09,0-.16,0-.31,0-.47,0-.03,0-.06,0-.09,0-.81,0-1.63,0-2.44,0-.09,0-.17,0-.26,0-.06,0-.12,0-.17,0-.4,0-.81,0-1.21,0-.52,0-1.04,0-1.56,0-.25,0-.5,0-.75,0-.23,0-.46,0-.69,0-.08,0-.17,0-.25,0-.11,0-.23,0-.34,0-.03,0-.06,0-.1,0-.46,0-.83.1-1.14.46ZM29.17,12.55s-.07.07-.11.1c-.58.55-1.02,1.33-1.14,2.12v.26h1.17c.02-.08.04-.16.06-.25.18-.69.57-1.26,1.17-1.64.65-.37,1.41-.48,2.13-.29.71.21,1.27.66,1.63,1.3.13.28.21.58.29.88h1.17c0-.93-.51-1.74-1.14-2.4-.74-.73-1.73-1.09-2.76-1.08-.91.02-1.81.37-2.47.99ZM30.29,14.12c-.31.39-.47.81-.5,1.31q-.02.16-.09.25c-.1.04-.2.07-.3.11v1.66h4.67v-1.66c-.1-.04-.2-.07-.3-.11-.1-.12-.09-.28-.11-.43-.06-.52-.28-.99-.69-1.33-.84-.6-1.96-.6-2.69.21ZM28.23,15.79v1.66h.41v-1.66h-.41ZM34.79,15.79v1.66h.41v-1.66h-.41ZM21.98,16.54v3.17h1.24c.05-.12.1-.25.15-.38.35-.79.85-1.33,1.66-1.66.25-.09.5-.15.75-.19v-.94h-3.81ZM24.39,19c-.42.51-.51,1.1-.5,1.74,0,.06,0,.12,0,.18,0,.17,0,.33,0,.5,0,.18,0,.36,0,.54,0,.35,0,.71,0,1.06,0,.29,0,.58,0,.86,0,.04,0,.08,0,.12,0,.08,0,.17,0,.25,0,.78,0,1.56,0,2.34,0,.71,0,1.43,0,2.14,0,.73,0,1.47,0,2.2,0,.41,0,.82,0,1.23,0,.35,0,.7,0,1.05,0,.18,0,.36,0,.54,0,.16,0,.33,0,.49,0,.06,0,.12,0,.18,0,.71.15,1.33.65,1.86q.32.32.73.46.05-.06.1-.13c.36-.48.82-.76,1.41-.86.64-.09,1.25.07,1.77.47.14.11.24.22.32.37q.13.24.35.38c.13.02.26.02.39.02.05,0,.1,0,.15,0,.13,0,.27,0,.4,0,.14,0,.28,0,.42,0,.24,0,.47,0,.71,0,.27,0,.55,0,.82,0,.26,0,.53,0,.79,0,.11,0,.22,0,.34,0,.16,0,.31,0,.47,0q.07,0,.14,0c.13,0,.23-.01.35-.06.09-.1.15-.19.21-.31.2-.39.63-.63,1.03-.79.59-.18,1.2-.13,1.75.12.35.19.64.45.86.79.46-.13.83-.51,1.06-.91.22-.44.28-.85.28-1.34,0-.06,0-.12,0-.19,0-.17,0-.34,0-.51,0-.18,0-.37,0-.55,0-.36,0-.72,0-1.08,0-.29,0-.59,0-.88q0-.06,0-.13c0-.08,0-.17,0-.25,0-.79,0-1.59,0-2.38,0-.68,0-1.36,0-2.04,0-.79,0-1.58,0-2.37,0-.08,0-.17,0-.25,0-.04,0-.08,0-.13,0-.29,0-.58,0-.88,0-.36,0-.71,0-1.07,0-.18,0-.36,0-.55,0-.17,0-.33,0-.5,0-.06,0-.12,0-.18,0-.69-.17-1.23-.65-1.74-.49-.47-1.08-.63-1.74-.62-.05,0-.1,0-.14,0-.13,0-.26,0-.39,0-.14,0-.28,0-.43,0-.28,0-.55,0-.83,0-.23,0-.45,0-.68,0-.03,0-.06,0-.1,0h-.2c-.61,0-1.22,0-1.84,0-.56,0-1.12,0-1.68,0-.57,0-1.15,0-1.72,0-.32,0-.64,0-.97,0-.27,0-.55,0-.82,0-.14,0-.28,0-.42,0-.15,0-.3,0-.46,0-.04,0-.09,0-.13,0-.74,0-1.3.27-1.8.81ZM1.92,22.76c-.6.73-.96,1.62-1.02,2.56,0,.03,0,.07,0,.1-.04,1.19.44,2.29,1.22,3.16.42.44,1,.84,1.57,1.03h.11s0-.06,0-.09c0-.27,0-.55,0-.82,0-.14,0-.28,0-.42,0-.14,0-.27,0-.41,0-.05,0-.1,0-.15,0-.45.07-.87.4-1.2.35-.29.72-.37,1.17-.35.42.04.75.2,1.03.52.25.36.28.78.28,1.2,0,.05,0,.1,0,.15,0,.13,0,.26,0,.39,0,.13,0,.27,0,.4,0,.26,0,.52,0,.78.05-.02.11-.04.16-.05.03,0,.06-.02.09-.03.82-.28,1.53-.96,1.97-1.69.01-.02.03-.04.04-.07.58-.98.76-2.16.5-3.27-.17-.65-.47-1.25-.91-1.76-.03-.03-.05-.07-.08-.1-.76-.89-1.86-1.34-3.01-1.45-1.35-.1-2.66.54-3.54,1.55ZM12.33,22.99v9.27h4.41v-9.27h-4.41ZM17.49,22.99v9.27h4.41v-9.27h-4.41ZM4.74,27.06c-.24.26-.23.59-.22.92,0,.05,0,.09,0,.14,0,.13,0,.25,0,.38,0,.13,0,.26,0,.4,0,.25,0,.5,0,.75,0,.28,0,.57,0,.85,0,.59,0,1.17,0,1.76h1.43c0-.63,0-1.26,0-1.89,0-.29,0-.59,0-.88,0-.26,0-.51,0-.77,0-.14,0-.27,0-.41,0-.15,0-.3,0-.45,0-.04,0-.09,0-.14,0-.25-.02-.43-.18-.63-.34-.3-.69-.27-1.05-.04ZM.9,33.01v2.04h22.28c-.01-.67-.02-1.34-.04-2.04H.9ZM26,36.94c-.3.37-.37.74-.34,1.2.04.36.23.66.5.89.37.26.77.39,1.22.33.39-.08.72-.3.94-.62.21-.36.3-.73.23-1.15-.11-.43-.39-.75-.76-.98-.6-.35-1.33-.15-1.8.33ZM34.97,37.03c-.25.36-.29.76-.25,1.18.1.39.35.75.7.96.39.19.81.27,1.22.13.42-.18.72-.46.9-.88.14-.41.11-.81-.07-1.2q-.07-.12-.15-.23s-.05-.07-.08-.11c-.22-.26-.59-.43-.93-.46-.54-.02-.99.19-1.34.6Z"/>
  <path class="cls-1" d="M14.94,9.37h.12s.09,0,.13,0q.07,0,.14,0c.13,0,.25,0,.38,0,.11,0,.21,0,.32,0,.25,0,.5,0,.75,0,.26,0,.51,0,.77,0,.22,0,.44,0,.66,0,.13,0,.26,0,.39,0,.15,0,.29,0,.44,0,.04,0,.09,0,.13,0,.04,0,.08,0,.12,0,.03,0,.07,0,.11,0,.12.02.19.05.29.13.07.11.08.19.09.32,0,.03,0,.07,0,.1,0,.04,0,.08,0,.11,0,.04,0,.08,0,.12,0,.13,0,.26,0,.39,0,.09,0,.18,0,.27,0,.19,0,.38,0,.58,0,.25,0,.49,0,.74,0,.19,0,.38,0,.57,0,.09,0,.18,0,.27,0,.13,0,.25,0,.38,0,.04,0,.08,0,.11q0,.33-.13.47c-.12.07-.21.08-.35.09-.04,0-.08,0-.12,0-.04,0-.09,0-.13,0-.05,0-.09,0-.14,0-.13,0-.25,0-.38,0-.11,0-.21,0-.32,0-.25,0-.5,0-.75,0-.26,0-.51,0-.77,0-.22,0-.44,0-.66,0-.13,0-.26,0-.39,0-.15,0-.29,0-.44,0q-.07,0-.13,0s-.08,0-.12,0c-.03,0-.07,0-.11,0-.12-.02-.19-.05-.29-.13-.07-.11-.08-.19-.09-.32,0-.03,0-.07,0-.1,0-.04,0-.08,0-.11,0-.04,0-.08,0-.12,0-.13,0-.26,0-.39,0-.09,0-.18,0-.27,0-.19,0-.38,0-.58,0-.25,0-.49,0-.74,0-.19,0-.38,0-.57,0-.09,0-.18,0-.27,0-.13,0-.25,0-.38,0-.04,0-.08,0-.11q0-.33.13-.47c.12-.07.21-.08.35-.09ZM15.23,10.13v3.13h3.77v-3.13h-3.77Z"/>
  <path class="cls-1" d="M8.41,9.36s.09,0,.14,0c.13,0,.25,0,.38,0,.13,0,.27,0,.4,0,.22,0,.45,0,.67,0,.26,0,.52,0,.77,0,.22,0,.44,0,.67,0,.13,0,.26,0,.4,0,.15,0,.3,0,.44,0,.04,0,.09,0,.13,0q.3,0,.45.09c.1.11.11.17.11.32q0,.05,0,.11s0,.08,0,.12c0,.04,0,.08,0,.12,0,.13,0,.27,0,.4,0,.05,0,.09,0,.14,0,.24,0,.49,0,.73,0,.25,0,.5,0,.75,0,.19,0,.39,0,.58,0,.09,0,.19,0,.28,0,.13,0,.26,0,.39q0,.06,0,.12c0,.16,0,.26-.09.41-.12.11-.23.11-.39.11-.04,0-.08,0-.12,0-.04,0-.09,0-.13,0-.05,0-.09,0-.14,0-.15,0-.3,0-.46,0-.05,0-.11,0-.16,0-.22,0-.44,0-.66,0-.31,0-.63,0-.94,0-.22,0-.44,0-.66,0-.13,0-.26,0-.39,0-.15,0-.29,0-.44,0-.04,0-.09,0-.13,0q-.33,0-.47-.11c-.12-.14-.13-.24-.13-.42,0-.03,0-.07,0-.1,0-.04,0-.07,0-.11,0-.04,0-.08,0-.12,0-.13,0-.25,0-.38,0-.09,0-.18,0-.26,0-.18,0-.37,0-.55,0-.24,0-.47,0-.71,0-.18,0-.36,0-.55,0-.09,0-.17,0-.26,0-.12,0-.24,0-.37,0-.04,0-.07,0-.11,0-.22.01-.37.16-.55.19-.1.37-.09.58-.08ZM8.44,10.13v3.13h3.77v-3.13h-3.77Z"/>
  <path class="cls-1" d="M21.67,9.37q.06,0,.12,0s.09,0,.13,0c.05,0,.09,0,.14,0,.13,0,.25,0,.38,0,.08,0,.16,0,.24,0,.25,0,.5,0,.75,0,.29,0,.58,0,.86,0,.22,0,.44,0,.67,0,.13,0,.27,0,.4,0,.15,0,.3,0,.44,0,.04,0,.09,0,.13,0q.3,0,.45.09c.1.11.11.17.11.32q0,.05,0,.11s0,.08,0,.12c0,.04,0,.08,0,.12,0,.13,0,.27,0,.4,0,.05,0,.09,0,.14,0,.24,0,.49,0,.73,0,.25,0,.5,0,.75,0,.19,0,.39,0,.58,0,.09,0,.19,0,.28,0,.13,0,.26,0,.39q0,.06,0,.12c0,.16,0,.26-.09.41-.12.11-.23.11-.39.11-.04,0-.08,0-.12,0q-.07,0-.13,0t-.14,0c-.13,0-.25,0-.38,0-.08,0-.16,0-.23,0-.25,0-.49,0-.74,0-.28,0-.57,0-.85,0-.22,0-.44,0-.66,0-.13,0-.26,0-.39,0-.15,0-.29,0-.44,0q-.06,0-.13,0-.06,0-.12,0s-.07,0-.1,0c-.12-.02-.19-.06-.28-.13-.08-.12-.08-.15-.09-.28,0-.04,0-.07,0-.11,0-.04,0-.08,0-.12,0-.04,0-.08,0-.12,0-.13,0-.27,0-.4,0-.09,0-.19,0-.28,0-.2,0-.39,0-.59,0-.25,0-.5,0-.75,0-.19,0-.39,0-.58,0-.09,0-.18,0-.28,0-.13,0-.26,0-.39,0-.04,0-.08,0-.12,0-.17,0-.26.09-.4.12-.11.19-.11.34-.11ZM21.98,10.13v3.13h3.81v-3.13h-3.81Z"/>
  <path class="cls-1" d="M15.13,15.8h.14c.13,0,.26,0,.39,0,.14,0,.27,0,.41,0,.23,0,.45,0,.68,0,.26,0,.52,0,.79,0,.25,0,.51,0,.76,0,.11,0,.21,0,.32,0,.15,0,.3,0,.45,0q.07,0,.13,0,.3,0,.45.09c.1.12.11.21.11.36,0,.03,0,.07,0,.1q0,.06,0,.11s0,.08,0,.12c0,.13,0,.26,0,.39,0,.09,0,.18,0,.27,0,.19,0,.38,0,.57,0,.24,0,.49,0,.73,0,.19,0,.37,0,.56,0,.09,0,.18,0,.27,0,.13,0,.25,0,.38,0,.04,0,.07,0,.11,0,.19,0,.32-.13.47-.12.08-.16.08-.31.09q-.06,0-.12,0s-.09,0-.13,0c-.05,0-.09,0-.14,0-.13,0-.26,0-.39,0-.11,0-.21,0-.32,0-.25,0-.51,0-.76,0-.26,0-.52,0-.78,0-.22,0-.45,0-.67,0-.13,0-.27,0-.4,0-.15,0-.3,0-.45,0-.04,0-.09,0-.13,0q-.3,0-.45-.09c-.1-.11-.11-.17-.11-.32,0-.03,0-.07,0-.11,0-.04,0-.08,0-.12,0-.04,0-.08,0-.12,0-.13,0-.27,0-.4,0-.05,0-.09,0-.14,0-.24,0-.48,0-.72,0-.25,0-.5,0-.75,0-.19,0-.38,0-.57,0-.09,0-.18,0-.27,0-.13,0-.26,0-.38,0-.04,0-.08,0-.11,0-.18,0-.34.14-.48.16-.09.35-.07.53-.07ZM15.23,16.54v3.17h3.77v-3.17h-3.77Z"/>
  <path class="cls-1" d="M15.13,2.94h.14c.13,0,.26,0,.39,0,.14,0,.27,0,.41,0,.23,0,.45,0,.68,0,.26,0,.52,0,.79,0,.25,0,.51,0,.76,0,.11,0,.21,0,.32,0,.15,0,.3,0,.45,0q.07,0,.13,0,.3,0,.45.09c.1.12.11.21.11.36,0,.03,0,.07,0,.1q0,.06,0,.11s0,.08,0,.12c0,.13,0,.26,0,.39,0,.09,0,.18,0,.27,0,.19,0,.38,0,.57,0,.24,0,.49,0,.73,0,.19,0,.37,0,.56,0,.09,0,.18,0,.27,0,.13,0,.25,0,.38,0,.04,0,.07,0,.11,0,.19,0,.32-.13.47-.12.08-.16.08-.31.09q-.06,0-.12,0s-.09,0-.13,0c-.05,0-.09,0-.14,0-.13,0-.26,0-.39,0-.11,0-.21,0-.32,0-.25,0-.51,0-.76,0-.26,0-.52,0-.78,0-.22,0-.45,0-.67,0-.13,0-.27,0-.4,0-.15,0-.3,0-.45,0-.04,0-.09,0-.13,0q-.3,0-.45-.09c-.1-.11-.11-.17-.11-.32,0-.03,0-.07,0-.11,0-.04,0-.08,0-.12,0-.04,0-.08,0-.12,0-.13,0-.27,0-.4,0-.05,0-.09,0-.14,0-.24,0-.48,0-.72,0-.25,0-.5,0-.75,0-.19,0-.38,0-.57,0-.09,0-.18,0-.27,0-.13,0-.26,0-.38,0-.04,0-.08,0-.11,0-.18,0-.34.14-.48.16-.09.35-.07.53-.07ZM15.23,3.69v3.17h3.77v-3.17h-3.77Z"/>
  <path class="cls-1" d="M8.11,2.96s.08,0,.12,0q.07,0,.14,0s.09,0,.14,0c.13,0,.26,0,.39,0,.11,0,.22,0,.32,0,.26,0,.51,0,.77,0,.26,0,.53,0,.79,0,.23,0,.45,0,.68,0,.13,0,.27,0,.4,0,.15,0,.3,0,.45,0,.04,0,.09,0,.14,0,.04,0,.08,0,.12,0,.04,0,.07,0,.11,0,.12.02.17.07.24.17.04.09.04.14.04.24q0,.05,0,.11s0,.08,0,.12c0,.04,0,.08,0,.12,0,.13,0,.27,0,.4,0,.09,0,.18,0,.28,0,.19,0,.39,0,.58,0,.25,0,.5,0,.75,0,.19,0,.38,0,.57,0,.09,0,.18,0,.28,0,.13,0,.26,0,.38,0,.04,0,.08,0,.12,0,.03,0,.07,0,.11,0,.03,0,.06,0,.09-.01.09-.03.15-.08.23-.13.08-.16.09-.31.09-.04,0-.08,0-.12,0-.04,0-.09,0-.14,0-.05,0-.09,0-.14,0-.13,0-.26,0-.39,0-.08,0-.16,0-.24,0-.28,0-.56,0-.85,0-.26,0-.53,0-.79,0-.23,0-.45,0-.68,0-.13,0-.27,0-.4,0-.15,0-.3,0-.45,0-.04,0-.09,0-.14,0q-.3,0-.45-.11c-.09-.14-.11-.25-.11-.42,0-.03,0-.07,0-.1,0-.04,0-.07,0-.11,0-.04,0-.08,0-.11,0-.13,0-.25,0-.38,0-.09,0-.17,0-.26,0-.18,0-.37,0-.55,0-.23,0-.47,0-.7,0-.18,0-.36,0-.54,0-.09,0-.17,0-.26,0-.12,0-.24,0-.36,0-.04,0-.07,0-.11,0-.21.02-.36.13-.54.13-.08.16-.08.31-.09ZM8.44,3.69v3.17h3.77v-3.17h-3.77Z"/>
  <path class="cls-1" d="M8.11,15.82s.08,0,.12,0q.07,0,.14,0s.09,0,.14,0c.13,0,.26,0,.39,0,.11,0,.22,0,.32,0,.26,0,.51,0,.77,0,.26,0,.53,0,.79,0,.23,0,.45,0,.68,0,.13,0,.27,0,.4,0,.15,0,.3,0,.45,0,.04,0,.09,0,.14,0,.04,0,.08,0,.12,0,.04,0,.07,0,.11,0,.12.02.17.07.24.17.04.09.04.14.04.24,0,.03,0,.07,0,.11q0,.06,0,.12t0,.12c0,.13,0,.27,0,.4,0,.05,0,.09,0,.14,0,.24,0,.48,0,.72,0,.25,0,.5,0,.75,0,.19,0,.38,0,.57,0,.09,0,.18,0,.27,0,.13,0,.26,0,.38,0,.04,0,.08,0,.11,0,.18,0,.34-.14.48-.16.09-.35.07-.53.07q-.07,0-.14,0c-.13,0-.26,0-.39,0-.14,0-.27,0-.41,0-.23,0-.45,0-.68,0-.26,0-.52,0-.79,0-.25,0-.51,0-.76,0-.11,0-.21,0-.32,0-.15,0-.3,0-.45,0-.04,0-.09,0-.13,0q-.3,0-.45-.11c-.09-.14-.11-.25-.11-.42,0-.03,0-.07,0-.1,0-.04,0-.07,0-.11,0-.04,0-.08,0-.11,0-.13,0-.25,0-.38,0-.09,0-.17,0-.26,0-.18,0-.37,0-.55,0-.23,0-.47,0-.7,0-.18,0-.36,0-.54,0-.09,0-.17,0-.26,0-.12,0-.24,0-.36,0-.04,0-.07,0-.11,0-.21.02-.36.13-.54.13-.08.16-.08.31-.09ZM8.44,16.54v3.17h3.77v-3.17h-3.77Z"/>
  <path class="cls-1" d="M21.91,2.95s.09,0,.14,0c.13,0,.26,0,.39,0,.14,0,.27,0,.41,0,.23,0,.45,0,.68,0,.26,0,.52,0,.79,0,.23,0,.45,0,.68,0,.13,0,.27,0,.4,0,.15,0,.3,0,.45,0,.04,0,.09,0,.13,0,.18,0,.3,0,.45.1.1.17.09.33.09.52,0,.04,0,.08,0,.12,0,.14,0,.27,0,.41,0,.09,0,.19,0,.28,0,.22,0,.44,0,.67,0,.18,0,.35,0,.53,0,.24,0,.49,0,.73,0,.09,0,.19,0,.28,0,.13,0,.26,0,.39,0,.04,0,.08,0,.12,0,.16-.01.26-.09.41-.19.11-.37.1-.59.09-.05,0-.09,0-.14,0-.13,0-.26,0-.39,0-.14,0-.27,0-.41,0-.23,0-.45,0-.68,0-.26,0-.52,0-.79,0-.23,0-.45,0-.68,0-.13,0-.27,0-.4,0-.15,0-.3,0-.45,0q-.07,0-.13,0c-.18,0-.3,0-.45-.1-.1-.17-.09-.33-.09-.52,0-.04,0-.08,0-.12,0-.14,0-.27,0-.41,0-.09,0-.19,0-.28,0-.22,0-.44,0-.67,0-.18,0-.35,0-.53,0-.24,0-.49,0-.73,0-.09,0-.19,0-.28,0-.13,0-.26,0-.39,0-.04,0-.08,0-.12,0-.16.01-.26.09-.41.19-.11.37-.1.59-.09ZM21.98,3.69v3.17h3.81v-3.17h-3.81Z"/>
  <path class="cls-1" d="M36.26,20.39c.09.07.14.13.19.23,0,.08,0,.15,0,.23,0,.05,0,.1,0,.15,0,.05,0,.11,0,.16,0,.06,0,.11,0,.17,0,.16,0,.32,0,.47,0,.17,0,.34,0,.51,0,.37,0,.74,0,1.11,0,.23,0,.46,0,.7,0,.64,0,1.28,0,1.92,0,.04,0,.08,0,.12,0,.04,0,.08,0,.12,0,.08,0,.17,0,.25,0,.04,0,.08,0,.13,0,.67,0,1.34,0,2.01,0,.69,0,1.38,0,2.06,0,.39,0,.77,0,1.16,0,.33,0,.66,0,.99,0,.17,0,.34,0,.5,0,.15,0,.31,0,.46,0,.06,0,.11,0,.17,0,.08,0,.15,0,.23,0,.04,0,.08,0,.13-.02.16-.09.26-.2.38-.17.03-.33.04-.47-.07-.09-.14-.1-.22-.1-.38,0-.05,0-.1,0-.15,0-.05,0-.11,0-.16,0-.06,0-.11,0-.17,0-.16,0-.32,0-.47,0-.17,0-.34,0-.51,0-.37,0-.74,0-1.12,0-.23,0-.46,0-.7,0-.64,0-1.29,0-1.93,0-.04,0-.08,0-.12,0-.04,0-.08,0-.13,0-.08,0-.17,0-.25,0-.04,0-.08,0-.13,0-.67,0-1.35,0-2.02,0-.69,0-1.38,0-2.07,0-.39,0-.78,0-1.16,0-.33,0-.66,0-.99,0-.17,0-.34,0-.51,0-.15,0-.31,0-.46,0-.06,0-.11,0-.17,0-.08,0-.15,0-.23,0-.04,0-.08,0-.13.02-.13.05-.2.13-.3.15-.09.28-.08.45-.04Z"/>
  <path class="cls-1" d="M30.43,20.44c.12.12.1.25.1.4,0,.05,0,.1,0,.15,0,.05,0,.11,0,.16,0,.06,0,.11,0,.17,0,.16,0,.32,0,.47,0,.17,0,.34,0,.51,0,.37,0,.74,0,1.12,0,.23,0,.46,0,.7,0,.64,0,1.29,0,1.93,0,.04,0,.08,0,.12,0,.04,0,.08,0,.13,0,.08,0,.17,0,.25,0,.04,0,.08,0,.13,0,.67,0,1.34,0,2.02,0,.69,0,1.38,0,2.07,0,.39,0,.78,0,1.16,0,.33,0,.66,0,.99,0,.17,0,.34,0,.51,0,.15,0,.31,0,.46,0,.06,0,.11,0,.17,0,.08,0,.15,0,.23,0,.04,0,.08,0,.13-.02.13-.05.2-.13.3-.14.07-.3.06-.45.04-.12-.08-.14-.13-.19-.26,0-.08,0-.15,0-.23,0-.05,0-.1,0-.15,0-.05,0-.11,0-.16,0-.06,0-.11,0-.17,0-.16,0-.32,0-.47,0-.17,0-.34,0-.51,0-.37,0-.74,0-1.11,0-.23,0-.46,0-.7,0-.64,0-1.28,0-1.92,0-.04,0-.08,0-.12,0-.04,0-.08,0-.12,0-.08,0-.17,0-.25,0-.04,0-.08,0-.13,0-.67,0-1.34,0-2.01,0-.69,0-1.38,0-2.06,0-.39,0-.77,0-1.16,0-.33,0-.66,0-.99,0-.17,0-.34,0-.5,0-.15,0-.31,0-.46,0-.06,0-.11,0-.17,0-.08,0-.15,0-.23,0-.04,0-.08,0-.13.02-.13.05-.2.13-.3.18-.11.36-.09.54.01Z"/>
  <path class="cls-1" d="M27.4,20.39c.12.09.16.16.19.3,0,.08,0,.16,0,.23,0,.05,0,.1,0,.15,0,.05,0,.11,0,.16,0,.06,0,.11,0,.17,0,.16,0,.31,0,.47,0,.17,0,.34,0,.5,0,.33,0,.66,0,.99,0,.27,0,.54,0,.8,0,.76,0,1.52,0,2.28,0,.04,0,.08,0,.12,0,.04,0,.08,0,.12,0,.66,0,1.33,0,1.99,0,.68,0,1.36,0,2.05,0,.38,0,.77,0,1.15,0,.33,0,.65,0,.98,0,.17,0,.33,0,.5,0,.15,0,.3,0,.46,0,.06,0,.11,0,.17,0,.07,0,.15,0,.22,0,.04,0,.08,0,.13-.01.15-.05.26-.14.37-.14.07-.28.08-.43.04-.12-.1-.18-.15-.21-.3,0-.04,0-.08,0-.13,0-.05,0-.1,0-.15,0-.05,0-.11,0-.16,0-.06,0-.12,0-.17,0-.16,0-.32,0-.48,0-.17,0-.34,0-.51,0-.34,0-.67,0-1.01,0-.27,0-.54,0-.82,0-.04,0-.08,0-.12,0-.08,0-.16,0-.24,0-.7,0-1.39,0-2.09,0-.68,0-1.35,0-2.03,0-.74,0-1.47,0-2.21,0-.08,0-.16,0-.24,0-.04,0-.08,0-.12,0-.27,0-.54,0-.82,0-.33,0-.66,0-.99,0-.17,0-.34,0-.51,0-.15,0-.31,0-.46,0-.06,0-.11,0-.17,0-.08,0-.15,0-.23,0-.04,0-.08,0-.13.02-.14.07-.2.17-.3.14-.05.27-.04.41,0Z"/>
  <path class="cls-1" d="M33.32,20.39c.1.08.15.13.17.26,0,.04,0,.08,0,.13q0,.07,0,.15c0,.05,0,.11,0,.16,0,.06,0,.12,0,.17,0,.16,0,.32,0,.48,0,.17,0,.34,0,.51,0,.34,0,.67,0,1.01,0,.27,0,.55,0,.82,0,.04,0,.08,0,.12,0,.08,0,.16,0,.24,0,.74,0,1.48,0,2.22,0,.68,0,1.36,0,2.03,0,.7,0,1.39,0,2.09,0,.08,0,.16,0,.24,0,.04,0,.08,0,.12,0,.27,0,.55,0,.82,0,.33,0,.67,0,1,0,.17,0,.34,0,.51,0,.16,0,.31,0,.47,0,.06,0,.11,0,.17,0,.08,0,.15,0,.23,0,.04,0,.08,0,.13-.03.15-.1.21-.21.3q-.09.03-.17.02s-.06,0-.08,0c-.13-.04-.19-.11-.27-.21q-.02-.11-.02-.24s0-.1,0-.15c0-.05,0-.11,0-.16,0-.06,0-.12,0-.17,0-.16,0-.32,0-.48,0-.17,0-.34,0-.51,0-.34,0-.67,0-1.01,0-.27,0-.55,0-.82,0-.04,0-.08,0-.12,0-.08,0-.16,0-.24,0-.7,0-1.4,0-2.09,0-.68,0-1.36,0-2.03,0-.74,0-1.48,0-2.21,0-.08,0-.16,0-.24,0-.04,0-.08,0-.12,0-.27,0-.55,0-.82,0-.33,0-.66,0-1,0-.17,0-.34,0-.51,0-.16,0-.31,0-.47,0-.06,0-.11,0-.17,0-.08,0-.15,0-.23,0-.04,0-.08,0-.13.02-.13.06-.18.17-.26.14-.05.27-.04.41,0Z"/>
  <path class="cls-1" d="M13.28,37.8s.06,0,.1,0h.11q.06,0,.11,0c.13,0,.25,0,.38,0,.09,0,.18,0,.27,0,.22,0,.44,0,.66,0,.18,0,.36,0,.54,0,.51,0,1.01,0,1.52,0,.03,0,.05,0,.08,0h.08c.44,0,.89,0,1.33,0,.46,0,.91,0,1.37,0,.26,0,.51,0,.77,0,.24,0,.48,0,.72,0,.09,0,.18,0,.27,0,.12,0,.24,0,.36,0,.04,0,.07,0,.11,0,.2,0,.36,0,.52.15.08.16.07.32.02.48-.06.08-.11.1-.2.14q-.08,0-.16,0s-.05,0-.1,0c-.04,0-.07,0-.11,0-.04,0-.08,0-.12,0-.13,0-.26,0-.39,0-.09,0-.18,0-.28,0-.25,0-.5,0-.75,0-.16,0-.31,0-.47,0-.43,0-.87,0-1.3,0-.03,0-.06,0-.08,0-.06,0-.11,0-.17,0-.03,0-.06,0-.08,0-.03,0-.06,0-.08,0-.45,0-.91,0-1.36,0-.46,0-.93,0-1.39,0-.26,0-.52,0-.78,0-.25,0-.49,0-.74,0-.09,0-.18,0-.27,0-.12,0-.25,0-.37,0-.04,0-.07,0-.11,0-.17,0-.25,0-.38-.11-.09-.13-.11-.21-.11-.36.05-.11.1-.18.19-.26.11-.04.2-.04.31-.04Z"/>
  <path class="cls-1" d="M15.83,26.53c.11.08.18.14.21.27,0,.11,0,.21,0,.32,0,.04,0,.08,0,.12,0,.08,0,.17,0,.25,0,.13,0,.25,0,.38,0,.08,0,.16,0,.24,0,.04,0,.08,0,.12,0,.17,0,.27-.09.41-.11.1-.19.11-.34.11-.12,0-.18-.04-.27-.12-.1-.18-.09-.36-.09-.56,0-.04,0-.07,0-.11,0-.08,0-.15,0-.23,0-.12,0-.23,0-.35,0-.07,0-.15,0-.22,0-.03,0-.07,0-.1,0-.19.02-.33.13-.5.15-.1.28-.08.45-.04Z"/>
  <path class="cls-1" d="M18.77,26.53c.1.07.14.11.17.23.02.15.02.3.02.45,0,.03,0,.07,0,.1,0,.07,0,.14,0,.21,0,.1,0,.21,0,.31,0,.07,0,.13,0,.2,0,.03,0,.06,0,.09,0,.19-.02.34-.08.52-.09.09-.15.11-.27.12-.13,0-.22-.02-.34-.09-.11-.16-.09-.32-.09-.51,0-.04,0-.08,0-.12,0-.09,0-.17,0-.26,0-.13,0-.26,0-.39,0-.08,0-.17,0-.25,0-.04,0-.08,0-.12,0-.17,0-.27.09-.42.15-.13.31-.12.5-.07Z"/>
  <path class="cls-1" d="M11.17,37.79s.09,0,.14,0h.14s.08,0,.12,0c.14.02.23.06.34.13.08.11.09.19.07.32,0,.03,0,.06,0,.09-.04.12-.11.16-.22.23q-.13.02-.27.02s-.05,0-.08,0c-.05,0-.11,0-.16,0-.08,0-.16,0-.24,0-.05,0-.1,0-.16,0q-.07,0-.14,0c-.15-.02-.21-.07-.31-.17-.06-.12-.06-.25-.04-.38.22-.28.47-.23.8-.24Z"/>
</svg>