<svg width="40" height="40" viewBox="0 0 40 40" fill="none" xmlns="http://www.w3.org/2000/svg">
<path d="M6.20672 10.2766L6.34892 10.4421C6.83214 11.0115 7.71645 11.0152 8.20529 10.4399C8.3562 10.2638 8.64402 10.2622 8.79991 10.4418C9.28718 11.0168 10.1749 11.0047 10.6563 10.444C10.698 10.4275 10.9734 10.1241 11.2466 10.4384C11.7313 11.0093 12.611 11.0128 13.1038 10.4387L13.2765 10.2358L19.723 18.0184L18.2799 20.0985C17.1262 19.0586 13.3951 16.1664 8.70131 17.3401L8.90325 18.1475C13.99 16.8758 18.0039 20.9815 18.0438 21.0233L18.396 21.3901L20.3955 18.5082C21.1217 20.7516 21.8722 23.2545 19.5831 24.6523C15.9454 26.8733 13.8218 29.5626 13.4415 32.429C13.1101 34.9298 14.1161 37.4349 16.4314 39.8758L17.0353 39.3027C14.9014 37.0534 13.9698 34.7775 14.2666 32.5385C14.7035 29.2424 17.6349 26.817 20.0168 25.3626C22.9187 23.5912 21.8894 20.4161 21.1379 18.0984C21.0881 17.9447 21.0408 17.796 20.9932 17.6469L21.3529 17.1288C22.8745 18.323 25.1083 20.442 25.3777 22.7564C25.5099 23.8915 25.1483 24.9805 24.3039 25.9933C22.133 28.5996 21.4068 31.3085 22.2593 33.622C23.0608 35.7973 25.6425 38.6698 33.3896 40L33.5306 39.1798C32.3666 38.98 31.2946 38.7373 30.3094 38.4576V35.1749L31.9601 36.8228L32.5482 36.2338L30.3095 33.9987L30.3101 33.0544L31.4866 34.229L32.0747 33.64L30.3102 31.8783V31.2482L31.108 32.0447L31.6961 31.4557L29.8942 29.6566L28.092 31.4557L28.6801 32.0447L29.4782 31.2482V31.8783L27.7134 33.64L28.3015 34.229L29.4782 33.0544V33.9985L27.2395 36.2336L27.8276 36.8226L29.4783 35.1747V38.206C26.0148 37.0836 23.814 35.4308 23.0411 33.3342C22.2959 31.3117 22.9717 28.894 24.9445 26.5264C25.8836 25.4 26.3077 24.1787 26.2203 22.8943C28.3202 21.2806 31.2504 21.5096 33.3672 22.0025L33.5558 21.1916C31.3774 20.6851 28.3875 20.4464 26.0731 21.9751C25.5083 19.7398 23.5564 17.7898 21.829 16.444L24.1629 13.0804L24.4287 13.39C24.6614 13.6579 24.9987 13.8119 25.3547 13.8119C25.7106 13.8119 26.0479 13.6582 26.2878 13.3825C26.4325 13.212 26.7319 13.2117 26.8765 13.3822C27.1071 13.6541 27.4456 13.8103 27.8053 13.8107H27.8056C28.165 13.8107 28.5039 13.6545 28.7347 13.3825C28.8069 13.2972 28.9143 13.2484 29.0291 13.2484C29.1436 13.2484 29.2506 13.2972 29.3247 13.3844C29.5574 13.6554 29.896 13.811 30.2535 13.811C30.255 13.811 30.256 13.8107 30.2572 13.8107C30.6144 13.8097 30.9511 13.6535 31.1795 13.3841L31.4191 13.1046L38.3513 21.4749L38.9922 20.944L27.4031 6.95011L20.2158 17.3085L13.4036 9.08488L16.2731 4.94119C16.6125 4.92843 16.9364 4.7797 17.1617 4.51304C17.2603 4.39667 17.3867 4.37924 17.4529 4.37893C17.5416 4.392 17.6477 4.41565 17.7202 4.48224C17.7619 4.50028 18.7252 5.54604 19.6065 4.51895C19.6482 4.50371 19.9354 4.205 20.1977 4.51397C20.4195 4.77379 20.7409 4.92968 21.0801 4.94181C21.2649 4.94897 21.4448 4.91007 21.61 4.83758L24.1503 7.90337L24.7913 7.37222L18.6824 0L12.8523 8.41882L9.38106 4.22821L0 17.7816L0.684227 18.2555L6.20672 10.2766ZM27.4613 8.32595L30.8799 12.454L30.5458 12.8439C30.4471 12.9603 30.3208 12.9777 30.2545 12.978C30.2542 12.978 30.2536 12.9783 30.253 12.9783C30.1385 12.9783 30.0302 12.9285 29.9574 12.8439C29.7268 12.572 29.3883 12.4158 29.0286 12.4158C28.6686 12.4158 28.33 12.572 28.0995 12.8436C28.0273 12.9289 27.9199 12.978 27.8051 12.978H27.8048C27.6903 12.978 27.5833 12.9292 27.5108 12.8436C27.2799 12.5716 26.941 12.4154 26.5817 12.4158C26.222 12.4158 25.8831 12.572 25.6516 12.8442C25.5007 13.0182 25.2063 13.0163 25.0585 12.8461L24.6531 12.3734L27.4613 8.32595ZM18.7413 1.3763L20.9801 4.07807C20.9241 4.05504 20.8721 4.02268 20.8313 3.97476C19.9716 2.95947 18.9906 3.98659 18.9488 4.00432C18.7895 4.15835 18.7292 4.1123 18.3832 3.97258C18.1143 3.65987 17.6877 3.48096 17.2207 3.57182L18.7413 1.3763ZM9.43994 5.60491L12.737 9.58523L12.4706 9.89794C12.3178 10.0759 12.0406 10.0884 11.8772 9.89608C10.9917 8.87704 10.0374 9.91381 9.9957 9.93155C9.83982 10.0787 9.58249 10.0784 9.42784 9.89763C8.94244 9.33226 8.06621 9.32448 7.56748 9.90386C7.41751 10.0806 7.13778 10.0862 6.98157 9.90168L6.69594 9.56874L9.43994 5.60491Z" fill="#029CDE"/>
<path d="M4.12723 19.809L4.66771 20.4418C5.50314 19.7287 6.36939 19.1577 7.2425 18.7454L6.88717 17.9927C5.94747 18.4364 5.01866 19.0475 4.12723 19.809Z" fill="#029CDE"/>
<path d="M15.3753 10.0926L15.7857 10.8163C20.1942 8.31616 22.6169 10.8698 22.7176 10.98L23.0254 10.6996L23.334 10.4205C23.3054 10.3885 20.3831 7.25174 15.3753 10.0926Z" fill="#029CDE"/>
<path d="M36.3129 22.0839C36.2799 22.069 35.4871 21.7137 34.2872 21.3788L34.0638 22.1807C35.198 22.4971 35.9631 22.8394 35.9706 22.8428L36.3129 22.0839Z" fill="#029CDE"/>
<path d="M7.96576 26.0054L8.55384 26.5944L10.2045 24.9465V28.2603H11.0369V24.9465L12.6876 26.5944L13.2757 26.0054L11.0369 23.7703V22.8262L12.2137 24.0008L12.8018 23.4118L11.0369 21.6501V21.02L11.8351 21.8162L12.4232 21.2272L10.6209 19.4284L8.81873 21.2272L9.40681 21.8162L10.2046 21.02V21.6501L8.44011 23.4118L9.02819 24.0008L10.2047 22.8262V23.7703L7.96576 26.0054Z" fill="#029CDE"/>
<path d="M0.140686 30.4573L0.728769 31.0464L2.37948 29.3984V32.7123H3.2118V29.3984L4.86282 31.0464L5.45091 30.4573L3.21186 28.2223V27.2782L4.38862 28.4528L4.9767 27.8638L3.21185 26.102V25.472L4.00968 26.2682L4.59776 25.6792L2.79587 23.8804L0.993656 25.6792L1.58174 26.2682L2.37957 25.472V26.102L0.615036 27.8638L1.20312 28.4528L2.37963 27.2782V28.2223L0.140686 30.4573Z" fill="#029CDE"/>
<path d="M6.82684 37.1707L7.41493 37.7597L9.06595 36.1118V39.4257H9.89827V36.1118L11.549 37.7597L12.1371 37.1707L9.89834 34.9357V33.9913L11.0749 35.1663L11.6629 34.5773L9.8984 32.8155V32.1854L10.6962 32.9817L11.2843 32.393L9.4821 30.5935L7.67989 32.393L8.26798 32.9817L9.06613 32.1851V32.8155L7.30127 34.5773L7.88936 35.1663L9.06611 33.9913V34.9357L6.82684 37.1707Z" fill="#029CDE"/>
<path d="M33.8818 30.5107L34.4699 31.0997L36.1209 29.4516V32.7657H36.9532V29.4516L38.6039 31.0997L39.192 30.5107L36.9533 28.2757V27.3313L38.1298 28.5059L38.7179 27.9169L36.9533 26.1555V25.5251L37.7508 26.3213L38.3389 25.7326L36.537 23.9335L34.7348 25.7323L35.3229 26.3216L36.1211 25.5251V26.1552L34.3562 27.9169L34.9443 28.5059L36.121 27.3313V28.2757L33.8818 30.5107Z" fill="#029CDE"/>
<path d="M36.8466 5.35217C36.8466 4.13774 35.859 3.15009 34.6445 3.15009C33.43 3.15009 32.4424 4.13766 32.4424 5.35217C32.4424 6.56668 33.43 7.55425 34.6445 7.55425C35.8586 7.55425 36.8466 6.56668 36.8466 5.35217ZM34.6445 6.72185C33.8893 6.72185 33.2748 6.10732 33.2748 5.35217C33.2748 4.59702 33.8893 3.98249 34.6445 3.98249C35.3996 3.98249 36.0141 4.59702 36.0141 5.35217C36.0141 6.10766 35.3996 6.72185 34.6445 6.72185Z" fill="#029CDE"/>
<path d="M34.2283 0.535858H35.0606V2.1081H34.2283V0.535858Z" fill="#029CDE"/>
<path d="M36.6259 2.75157L35.9049 2.33556L36.6909 0.973602L37.4119 1.38962L36.6259 2.75157Z" fill="#029CDE"/>
<path d="M37.6622 4.08954L37.2462 3.36859L38.6082 2.58261L39.0242 3.30356L37.6622 4.08954Z" fill="#029CDE"/>
<path d="M37.8884 4.93619H39.4607V5.76851H37.8884V4.93619Z" fill="#029CDE"/>
<path d="M37.6614 6.61328L39.0231 7.39957L38.6067 8.12052L37.2451 7.33423L37.6614 6.61328Z" fill="#029CDE"/>
<path d="M36.6283 7.95221L37.4146 9.31416L36.6936 9.73049L35.9073 8.36854L36.6283 7.95221Z" fill="#029CDE"/>
<path d="M34.2283 8.59662H35.0606V10.1689H34.2283V8.59662Z" fill="#029CDE"/>
<path d="M32.663 7.953L33.384 8.36902L32.598 9.73098L31.877 9.31496L32.663 7.953Z" fill="#029CDE"/>
<path d="M31.6259 6.61487L32.0419 7.33582L30.68 8.1218L30.2639 7.40085L31.6259 6.61487Z" fill="#029CDE"/>
<path d="M29.8273 4.93619H31.3995V5.76851H29.8273V4.93619Z" fill="#029CDE"/>
<path d="M31.6267 4.09104L30.2651 3.30475L30.6814 2.5838L32.043 3.37009L31.6267 4.09104Z" fill="#029CDE"/>
<path d="M32.5977 0.971405L33.384 2.33336L32.6631 2.74969L31.8768 1.38773L32.5977 0.971405Z" fill="#029CDE"/>
<path d="M19.1709 28.7599L19.8231 29.2767C20.1318 28.8872 20.5058 28.5147 20.9342 28.1699L20.4124 27.5211C19.9357 27.9051 19.5179 28.3218 19.1709 28.7599Z" fill="#029CDE"/>
<path d="M17.8741 32.0377L18.705 32.0891C18.7364 31.5806 18.85 31.0806 19.0426 30.6033L18.2709 30.2922C18.0447 30.8523 17.9109 31.4397 17.8741 32.0377Z" fill="#029CDE"/>
<path d="M22.7212 38.4492L22.2725 39.1503C22.4707 39.2772 22.6745 39.4001 22.8846 39.519L23.2947 38.7949C23.098 38.6835 22.907 38.5681 22.7212 38.4492Z" fill="#029CDE"/>
<path d="M21.4308 37.4941C21.0148 37.1379 20.6367 36.7576 20.3069 36.364L19.6687 36.8985C20.0278 37.3273 20.4385 37.7405 20.8894 38.1264L21.4308 37.4941Z" fill="#029CDE"/>
<path d="M18.0406 33.8141C18.1772 34.3679 18.3938 34.9209 18.6835 35.4576L19.4159 35.0621C19.1595 34.587 18.9688 34.1 18.8487 33.6146L18.0406 33.8141Z" fill="#029CDE"/>
<path d="M22.0943 27.1062C23.5829 25.5221 23.8001 24.1537 23.7201 23.2844L22.8915 23.3609C22.9836 24.3631 22.4982 25.4612 21.4879 26.5362L22.0943 27.1062Z" fill="#029CDE"/>
</svg>
