<svg width="29" height="40" viewBox="0 0 29 40" fill="none" xmlns="http://www.w3.org/2000/svg">
<path d="M0.71553 40C0.50508 40 0.33672 39.9155 0.21045 39.7888C0.08418 39.6621 0 39.4931 0 39.2819V22.7666C0 22.3442 0.29463 22.0063 0.71553 22.0063H7.19739C7.61829 22.0063 7.95501 22.3442 7.95501 22.7666V23.5269C8.62845 22.8089 9.42816 22.2175 9.97533 21.8374C10.312 21.584 10.6067 21.2883 10.8592 20.9504C11.238 20.4013 11.4906 19.7677 11.5327 19.0919L11.9536 13.3052C11.9536 13.094 12.0798 12.925 12.2482 12.7983C12.3745 12.7138 12.5428 12.6294 12.7112 12.6294C12.7533 12.6294 12.7954 12.6294 12.8374 12.6294L13.8897 12.7983C15.8679 13.0517 17.3832 14.7413 17.4253 16.7687L17.2569 21.9641H18.1829V11.0243C16.8781 9.92608 16.0784 8.36325 15.9942 6.67371C15.8679 4.94192 16.4993 3.25238 17.6357 1.98522C18.8142 0.718057 20.4557 0 22.1814 0C22.3919 0 22.5602 -4.09113e-08 22.7707 0.0422386C22.9811 0.0844773 23.1916 0.168955 23.3179 0.380148C23.4441 0.549102 23.4862 0.802534 23.402 1.01373L22.2235 4.4773L24.2859 5.19535L25.3382 2.11193C25.4223 1.8585 25.6328 1.68955 25.8433 1.64731C25.8853 1.64731 25.9695 1.64731 26.0116 1.64731C26.2221 1.64731 26.3904 1.73178 26.5167 1.8585C27.7794 3.08342 28.4949 4.81521 28.4107 6.58923C28.3266 8.32101 27.5269 9.96832 26.2221 11.1088V22.0908H26.2642C27.7794 22.0908 29 23.2735 29 24.7096C29 25.5544 28.5791 26.3147 27.8636 26.8215C28.2424 27.2862 28.4528 27.8775 28.4528 28.4689V28.5111C28.4528 29.3981 27.9898 30.2006 27.2743 30.6653C27.6531 31.1299 27.8215 31.679 27.8636 32.2281C27.8636 33.1151 27.3585 33.9599 26.6009 34.4245C26.8534 34.9736 26.8534 35.6072 26.8534 35.9451L26.643 35.9029H26.8113C26.8113 37.339 25.5907 38.5216 24.1176 38.5216C22.7707 38.5216 20.7925 38.5216 18.5617 38.5216C15.0261 38.5216 10.8592 38.5216 7.95501 38.5216V39.2819C7.95501 39.6621 7.61829 40 7.19739 40H0.71553ZM6.48186 38.5639V23.4425H1.47315V38.5216H6.48186V38.5639ZM7.95501 37.0433C10.8171 37.0433 14.7736 37.0433 18.2671 37.0433C20.582 37.0433 22.6865 37.0433 24.1176 37.0433C24.791 37.0433 25.3382 36.5364 25.3382 35.9029C25.3382 34.7202 25.1277 34.7202 24.791 34.7202H23.6125C23.1916 34.7202 22.897 34.3823 22.897 34.0021C22.897 33.5797 23.2337 33.2841 23.6125 33.2841H25.1277C25.8432 33.2841 26.3904 32.7772 26.3904 32.1436C26.3904 31.51 25.8012 31.0032 25.1277 31.0032H23.4862C23.0653 31.0032 22.7707 30.6653 22.7707 30.2851C22.7707 29.8627 23.1074 29.5671 23.4862 29.5671H25.7591C26.4325 29.5671 27.0218 29.0602 27.0218 28.4266C27.0218 27.793 26.5167 27.2862 25.8012 27.2439H23.1495C22.7286 27.2439 22.434 26.906 22.434 26.5259C22.434 26.1035 22.7707 25.8078 23.1495 25.8078H25.717V25.9768V25.8501V25.8078H25.8012H26.2221C26.9376 25.8078 27.4848 25.301 27.4848 24.6674C27.4848 24.0338 26.8955 23.5269 26.2221 23.5269H16.4572C16.2467 23.5269 16.0784 23.4425 15.9521 23.3157C15.8258 23.189 15.7417 22.9778 15.7417 22.7666L15.91 16.811C15.8679 15.5438 14.9419 14.4879 13.6372 14.3189L13.3425 14.2767L12.9637 19.2608C12.8795 20.1901 12.5849 21.0771 12.0377 21.8374C11.701 22.302 11.3222 22.7244 10.8592 23.0623L10.775 23.1045C9.34398 24.076 8.29173 25.1742 7.91292 26.1457V37.0433H7.95501ZM24.7489 21.9641V11.9535C23.9071 12.3337 23.0653 12.5026 22.2235 12.5026C21.3396 12.5026 20.4557 12.2914 19.656 11.9535V21.9641H24.7489ZM21.6763 1.52059C19.2772 1.77402 17.4253 3.80148 17.4253 6.25132C17.4253 7.51848 17.9303 8.7434 18.8142 9.63041C19.6981 10.5174 20.9187 11.0243 22.1814 11.0243C23.4441 11.0243 24.6647 10.5174 25.5486 9.63041C26.4325 8.7434 26.9376 7.51848 26.9376 6.25132C26.9376 5.36431 26.7271 4.51954 26.2642 3.80148L25.4224 6.3358C25.3382 6.63147 25.0435 6.84266 24.7489 6.84266C24.6647 6.84266 24.5805 6.84266 24.4964 6.80042L21.045 5.61774C20.8766 5.53326 20.7083 5.40655 20.6241 5.23759C20.5399 5.06864 20.5399 4.85744 20.582 4.68849L21.6763 1.52059Z" fill="#2E6AB0"/>
</svg>
