<svg width="33" height="40" viewBox="0 0 33 40" fill="none" xmlns="http://www.w3.org/2000/svg">
<path d="M32.6644 12.3567L27.1681 7.62107C26.8806 7.37374 26.4907 7.31933 26.1495 7.48092C25.8083 7.64086 25.5955 7.97888 25.5955 8.35975V9.941H19.6084V7.51718H21.1665C21.5434 7.51718 21.8748 7.30118 22.0324 6.95493C22.19 6.60867 22.138 6.21295 21.8943 5.92111L17.2282 0.342962C17.043 0.122014 16.7847 0 16.5004 0C16.216 0 15.9577 0.122014 15.7725 0.341312L11.1064 5.91946C10.8627 6.21131 10.8091 6.60703 10.9683 6.95328C11.1259 7.29954 11.4589 7.51553 11.8342 7.51553H13.3923V9.93935H7.40522V8.3581C7.40522 7.97556 7.19239 7.63921 6.85123 7.47927C6.51005 7.31933 6.12014 7.37209 5.83258 7.61942L0.336302 12.3567C0.118597 12.5431 0 12.8069 0 13.0954C0 13.384 0.120223 13.6461 0.336302 13.8341L5.83258 18.5697C6.00966 18.7231 6.22737 18.8022 6.44833 18.8022C6.5848 18.8022 6.72128 18.7725 6.85125 18.7115C7.19243 18.5516 7.40524 18.2136 7.40524 17.8327V16.2514H13.8111C14.0272 16.784 14.3391 17.2441 14.7177 17.5953C14.2173 17.6645 13.7202 17.7618 13.2263 17.8904C11.4733 18.3471 10.4692 19.3793 10.4692 20.7215V27.2608C10.4692 28.626 11.4538 29.7703 12.7649 30.0474V39.3751C12.7649 39.5416 12.8298 39.6999 12.9452 39.817C13.0605 39.934 13.2165 40 13.3806 40H19.6243C19.9638 40 20.24 39.7197 20.24 39.3751V30.0473C21.5511 29.7703 22.5357 28.626 22.5357 27.2608L22.5324 20.7215C22.5324 19.3645 21.5251 18.3306 19.7689 17.8888C19.2717 17.7634 18.773 17.6678 18.2775 17.5986C18.6576 17.2457 18.9712 16.784 19.1889 16.2498H25.5948V17.8311C25.5948 18.2136 25.8076 18.55 26.1488 18.7099C26.4899 18.8698 26.8798 18.8171 27.1674 18.5697L32.6637 13.8341C32.8814 13.6461 33 13.384 33 13.0954C33.0016 12.8052 32.8814 12.5431 32.6637 12.3567L32.6644 12.3567ZM21.3017 20.7212V27.2605C21.3017 27.9365 20.8598 28.5153 20.2375 28.7494L20.2392 22.8943C20.2392 22.5497 19.963 22.2694 19.6234 22.2694C19.2839 22.2694 19.0077 22.5497 19.0077 22.8943V38.7495H17.2027V32.0025C17.2027 31.6579 16.9265 31.3776 16.5869 31.3776C16.2474 31.3776 15.9712 31.6579 15.9712 32.0025V38.7495H13.9956V22.8943C13.9956 22.5497 13.7194 22.2694 13.3798 22.2694C13.0403 22.2694 12.7641 22.5497 12.7641 22.8943V28.7494C12.1418 28.5152 11.6999 27.9365 11.6999 27.2605V20.7212C11.6999 19.7764 12.6974 19.3196 13.5325 19.1004C15.4658 18.5958 17.4658 18.5958 19.4738 19.102C20.1562 19.2735 21.3017 19.7121 21.3017 20.7212ZM16.5008 17.0838C15.5293 17.0838 14.7072 15.8983 14.7072 14.4951C14.7072 12.9089 15.6836 12.5758 16.5008 12.5758C17.3197 12.5758 18.2944 12.9089 18.2944 14.4951C18.2944 15.8999 17.4724 17.0838 16.5008 17.0838ZM26.8287 17.2223V15.6245C26.8287 15.2799 26.5526 14.9996 26.213 14.9996H19.4998C19.5176 14.8347 19.5274 14.6665 19.5274 14.4951C19.5274 13.2238 19.0367 12.4917 18.6273 12.1009C18.0928 11.5931 17.3584 11.326 16.5022 11.326C15.646 11.326 14.9117 11.5947 14.3772 12.1009C13.9661 12.4917 13.4771 13.2238 13.4771 14.4951C13.4771 14.6665 13.4869 14.8347 13.5047 14.9996H6.78858C6.44903 14.9996 6.17282 15.2799 6.17282 15.6245V17.2223L1.38152 13.0936L6.17282 8.96486V10.5626C6.17282 10.9072 6.44901 11.1875 6.78858 11.1875H14.0067C14.3463 11.1875 14.6225 10.9072 14.6225 10.5626V6.88898C14.6225 6.54437 14.3463 6.26405 14.0067 6.26405H12.4324L16.5005 1.40475L20.5687 6.26743H18.9943C18.6548 6.26743 18.3786 6.54773 18.3786 6.89236V10.566C18.3786 10.9106 18.6548 11.1909 18.9943 11.1909H26.2125C26.552 11.1909 26.8283 10.9106 26.8283 10.566V8.96824L31.6196 13.097L26.8287 17.2223Z" fill="#DA5700"/>
</svg>
