<?xml version="1.0" encoding="UTF-8"?>
<svg id="Layer_1" xmlns="http://www.w3.org/2000/svg" viewBox="0 0 40.25 40.25">
  <defs>
    <style>
      .cls-1 {
        fill: #d95700;
        stroke: #d95700;
        stroke-miterlimit: 10;
        stroke-width: .25px;
      }
    </style>
  </defs>
  <path class="cls-1" d="M22.03.82c.62.54,1,1.29,1.07,2.12,0,.14,0,.28,0,.41,0,.04,0,.08,0,.12,0,.13,0,.26,0,.4,0,.09,0,.18,0,.28,0,.24,0,.48,0,.73,0,.25,0,.49,0,.74,0,.48,0,.97,0,1.45.03,0,.06,0,.09,0,.69,0,1.38,0,2.07,0,.33,0,.67,0,1,0,.29,0,.58,0,.87,0,.15,0,.31,0,.46,0,.14,0,.29,0,.43,0,.05,0,.11,0,.16,0q.5,0,.72.13t.13.16s.05.07.07.11c.03.05.06.09.09.14.04.06.08.12.12.18.14.22.28.43.42.65.07.11.14.22.22.34.04.07.09.14.13.21.04.06.08.12.12.19q.06.1.1.2c.06.12.11.19.22.28.25.08.53.05.79.04.08,0,.16,0,.25,0,.22,0,.44,0,.67,0,.23,0,.47,0,.7,0,.39,0,.78,0,1.17,0,.4,0,.8,0,1.21,0,.02,0,.05,0,.08,0,.41,0,.83,0,1.24,0,.28,0,.55,0,.83,0,.17,0,.34,0,.52,0,.08,0,.16,0,.24,0,.11,0,.22,0,.33,0,.03,0,.06,0,.1,0,.21,0,.38.03.53.2.09.16.09.27.04.45-.08.14-.15.22-.29.28-.15.02-.29.02-.44.02-.04,0-.09,0-.13,0-.12,0-.24,0-.36,0-.12,0-.25,0-.37,0-.24,0-.47,0-.71,0-.27,0-.54,0-.81,0-.55,0-1.11,0-1.66,0,.43.89.86,1.77,1.3,2.66.2.41.4.82.6,1.23.18.36.35.72.53,1.08.09.19.19.38.28.57.09.18.17.36.26.54.03.07.06.13.1.2.18.36.36.73.55,1.09.12.22.23.45.34.68.02.04.04.07.05.11.06.12.12.24.17.36.04.08.08.17.12.25.08.17.17.35.25.52.11.22.22.44.33.67.08.17.17.34.25.52.04.08.08.16.12.25.06.11.11.23.17.34.02.03.03.07.05.1.02.03.03.06.05.09.01.03.03.05.04.08.32.7-.02,1.84-.26,2.53q-.02.07-.05.14c-.61,1.66-1.84,2.91-3.39,3.67-.7.32-1.49.52-2.26.54-.02,0-.05,0-.07,0-1.7.06-3.34-.55-4.6-1.73-.07-.07-.14-.14-.21-.2-.03-.02-.05-.05-.08-.07-.62-.59-1.06-1.4-1.36-2.2-.02-.04-.03-.09-.05-.13-.19-.54-.31-1.13-.35-1.71,0-.07-.01-.14-.03-.21-.03-.29.06-.5.19-.76.02-.04.04-.08.05-.11.06-.12.12-.25.18-.37.04-.08.08-.17.12-.25.12-.25.25-.51.37-.76.06-.13.13-.26.19-.39.11-.23.22-.45.33-.68.16-.33.32-.65.48-.98.26-.53.52-1.06.78-1.59.25-.52.5-1.03.76-1.55.02-.03.03-.06.05-.1.08-.16.16-.32.23-.48.65-1.32,1.29-2.65,1.94-3.97-.03,0-.07,0-.1,0-.32,0-.65,0-.97,0-.17,0-.33,0-.5,0-.16,0-.32,0-.48,0-.06,0-.12,0-.18,0-.09,0-.17,0-.26,0q-.07,0-.15,0c-.16-.02-.29-.06-.41-.19t-.04-.07s-.03-.05-.05-.08c-.02-.03-.03-.06-.05-.08-.04-.06-.08-.12-.12-.19t-.06-.1c-.12-.18-.24-.37-.35-.55-.02-.04-.05-.08-.07-.11-.13-.2-.26-.39-.39-.59-.03-.04-.05-.08-.08-.12-.05-.07-.1-.15-.15-.22-.02-.03-.04-.07-.07-.1t-.06-.09q-.04-.07-.04-.15h-5.28v13.89h1.44q.22.18.26.34c0,.18-.01.28-.13.41-.16.13-.28.12-.48.12-.03,0-.06,0-.08,0-.1,0-.21,0-.31,0-.23,0-.46,0-.7,0v1.74q.47,0,.93-.01c.06,0,.12,0,.18,0,.03,0,.06,0,.09,0,.15,0,.22,0,.35.09.1.11.15.19.15.34,0,.15-.03.22-.13.34-.43.34-1.09.12-1.58.12v6.93h3.07q.28.17.32.29c.02.13.02.26.02.39,0,.03,0,.06,0,.09,0,.1,0,.2,0,.3,0,.07,0,.14,0,.21,0,.18,0,.36,0,.55,0,.19,0,.37,0,.56,0,.37,0,.73,0,1.1q.05,0,.1,0c.83,0,1.65,0,2.48,0,.4,0,.8,0,1.2,0,.35,0,.7,0,1.04,0,.18,0,.37,0,.55,0,.17,0,.35,0,.52,0,.06,0,.13,0,.19,0,.7,0,1.31.14,1.82.66.43.51.63,1.11.58,1.79-.07.55-.35,1.09-.76,1.44-.48.35-.92.48-1.51.48-.04,0-.09,0-.13,0-.12,0-.25,0-.37,0-.13,0-.27,0-.4,0-.27,0-.53,0-.8,0-.32,0-.63,0-.95,0-.77,0-1.53,0-2.3,0-.36,0-.73,0-1.09,0-1.24,0-2.48,0-3.73,0h-.23c-.08,0-.16,0-.23,0-.16,0-.31,0-.47,0-.04,0-.08,0-.12,0-1.26,0-2.52,0-3.78,0-1.33,0-2.67,0-4,0h-.44s-.07,0-.11,0c-.58,0-1.16,0-1.74,0-.58,0-1.17,0-1.75,0-.35,0-.69,0-1.04,0-.23,0-.46,0-.69,0-.13,0-.26,0-.4,0-.14,0-.28,0-.43,0-.04,0-.08,0-.12,0-.6,0-1.16-.22-1.59-.66-.42-.49-.62-1.07-.58-1.72.05-.45.21-.83.47-1.19.02-.03.04-.06.07-.09.33-.39.81-.63,1.3-.7.22-.01.43,0,.65,0,.07,0,.13,0,.2,0,.18,0,.35,0,.53,0,.19,0,.37,0,.56,0,.35,0,.7,0,1.05,0,.4,0,.8,0,1.2,0,.82,0,1.64,0,2.47,0,0-.04,0-.08,0-.12,0-.36,0-.73,0-1.09,0-.19,0-.37,0-.56,0-.18,0-.36,0-.54,0-.07,0-.14,0-.21,0-.1,0-.19,0-.29,0-.03,0-.06,0-.09,0-.2.02-.34.15-.49.83-.72,2.17-.1,3.25-.1v-6.93h-1.37q-.24-.15-.3-.23c-.04-.17-.05-.26,0-.43.07-.11.11-.15.21-.22.11-.02.22-.01.33-.01.03,0,.06,0,.09,0,.1,0,.21,0,.31,0q.35,0,.71,0v-1.74q-.45,0-.91.01c-.06,0-.11,0-.17,0-.03,0-.06,0-.09,0-.17,0-.28-.01-.42-.13-.08-.14-.11-.24-.11-.4.04-.14.08-.21.18-.32.45-.23,1.01-.04,1.52-.04V7.97h-5.28c-.02.06-.05.12-.07.19-.03.05-.07.11-.1.16-.02.03-.04.06-.06.09-.02.03-.04.06-.07.1-.02.03-.05.07-.07.1-.07.11-.15.22-.22.33-.07.11-.14.21-.21.32-.05.07-.09.14-.14.21-.11.17-.22.34-.33.51-.02.03-.04.06-.06.1-.04.06-.07.12-.11.18t-.05.08s-.03.05-.04.07c-.12.13-.25.17-.41.19-.05,0-.1,0-.15,0-.03,0-.05,0-.08,0-.09,0-.18,0-.27,0-.06,0-.12,0-.19,0-.16,0-.32,0-.49,0-.17,0-.33,0-.5,0-.32,0-.65,0-.97,0,.01.02.02.05.04.07.7,1.44,1.41,2.88,2.11,4.32.08.17.17.35.25.52.02.03.03.07.05.1.27.56.54,1.11.82,1.67.28.57.56,1.14.84,1.71.17.35.34.71.52,1.06.12.24.24.48.35.73.07.14.14.28.2.42.06.13.12.26.19.38.03.07.07.14.1.21.02.04.04.08.06.12q.03.05.05.11c.31.68-.06,1.87-.29,2.53-.61,1.66-1.82,2.99-3.4,3.73-.94.42-1.94.62-2.96.57-.03,0-.06,0-.08,0-1.62-.1-3.23-.88-4.31-2.12-.89-1.04-1.49-2.33-1.63-3.71,0-.03,0-.06,0-.09-.04-.42-.02-.78.17-1.16.02-.04.04-.07.05-.11.04-.08.08-.16.12-.24.07-.15.14-.29.22-.44.15-.31.3-.63.46-.94.06-.12.11-.24.17-.35.06-.12.11-.23.17-.35.03-.05.05-.11.08-.16.13-.26.26-.53.39-.79.21-.4.41-.81.61-1.22.04-.07.07-.14.11-.22.09-.19.19-.38.28-.58.1-.2.2-.4.3-.61.19-.38.37-.76.56-1.14.21-.43.42-.87.64-1.3.44-.89.87-1.78,1.31-2.68-.02,0-.05,0-.07,0-.56,0-1.11,0-1.67,0-.27,0-.54,0-.81,0-.23,0-.47,0-.7,0-.12,0-.25,0-.37,0-.14,0-.28,0-.42,0-.04,0-.08,0-.12,0-.23,0-.36-.01-.53-.17-.09-.15-.12-.25-.09-.42.04-.15.11-.22.24-.3.15-.05.28-.04.43-.03q.05,0,.1,0c.07,0,.15,0,.22,0,.2,0,.41.01.61.02.04,0,.09,0,.13,0,.61.02,1.22.02,1.83.03.1,0,.2,0,.3,0t.07,0c.37,0,.74.02,1.12.03.43.01.87.02,1.3.02.23,0,.46,0,.69.02q.92.07,1.75-.25c.39-.37.63-.86.87-1.34.12-.23.25-.44.39-.66q.03-.05.07-.1.21-.32.39-.39c.1-.02.2-.02.31-.02q.07,0,.14,0c.05,0,.1,0,.16,0,.05,0,.11,0,.16,0,.15,0,.3,0,.44,0,.15,0,.31,0,.46,0,.29,0,.59,0,.88,0,.33,0,.67,0,1,0,.69,0,1.37,0,2.06,0,0-.02,0-.04,0-.06,0-.51,0-1.01,0-1.52,0-.25,0-.49,0-.74,0-.24,0-.47,0-.71,0-.09,0-.18,0-.27,0-1.04.14-1.96.87-2.73,1.09-1.12,2.84-1.21,4.05-.22ZM18.55,1.69c-.7.86-.55,1.63-.55,2.8h4.21q.07-1.59-.63-2.88c-.92-.81-2.15-.77-3.03.08ZM18,5.36v16.5h4.21V5.36h-4.21ZM6.95,12.06v9.8h4.8q-.27-.58-.54-1.15s-.04-.08-.06-.11c-.06-.12-.12-.25-.18-.37-.04-.09-.09-.18-.13-.27-.09-.19-.19-.38-.28-.57-.14-.28-.27-.55-.41-.83-.22-.45-.44-.9-.66-1.35-.21-.44-.43-.87-.64-1.31-.01-.03-.03-.05-.04-.08-.07-.14-.13-.27-.2-.41-.55-1.12-1.09-2.24-1.64-3.35h-.04ZM33.23,12.06c-.61,1.24-1.21,2.49-1.82,3.73-.07.15-.14.29-.21.44-.01.03-.03.06-.04.09-.23.47-.46.95-.69,1.42-.24.49-.47.97-.71,1.46-.15.3-.29.6-.44.9-.1.21-.2.41-.3.62-.06.12-.12.24-.17.36-.06.13-.13.26-.19.38-.02.04-.04.08-.06.11-.02.03-.03.07-.05.1-.01.03-.03.06-.04.09q-.03.06-.03.11h4.8v-9.8h-.04ZM6.03,12.1c-.6,1.23-1.21,2.47-1.81,3.7-.07.15-.14.29-.21.44-.01.03-.03.06-.04.09-.23.47-.46.94-.69,1.41-.24.48-.47.96-.71,1.44-.15.3-.29.59-.44.89-.1.2-.2.41-.3.61-.06.12-.11.24-.17.35-.06.13-.12.25-.19.38-.02.04-.04.07-.06.11q-.02.05-.05.1s-.03.06-.04.09q-.04.07-.03.15h4.77v-9.77h-.04ZM34.15,12.1v9.77h4.8q-.28-.6-.57-1.2c-.25-.49-.49-.98-.73-1.47-.02-.04-.04-.08-.06-.12-.12-.25-.24-.5-.36-.74-.11-.22-.21-.44-.32-.66-.18-.37-.36-.74-.54-1.1-.18-.38-.37-.76-.55-1.13-.01-.02-.02-.05-.03-.07-.06-.12-.11-.24-.17-.35-.47-.97-.95-1.94-1.42-2.91h-.04ZM1.04,22.73q0,.26.03.51s.01.06.02.09c0,.03.01.06.02.09,0,.03.01.06.02.09.16.72.44,1.42.88,2.02.01.02.03.04.04.06.81,1.12,1.92,1.87,3.24,2.21.03,0,.05.01.08.02,1.36.33,2.85.01,4.03-.71.29-.19.56-.39.81-.63.02-.02.04-.04.07-.06,1.05-1.01,1.58-2.23,1.74-3.68H1.04ZM18,22.73v1.74h4.21v-1.74h-4.21ZM28.2,22.73q.05.5.15.99s.02.06.02.09c.4,1.45,1.36,2.67,2.64,3.42.4.22.81.38,1.24.51.03,0,.06.02.09.03,1.38.4,2.87.13,4.11-.57.44-.26.81-.58,1.18-.94t.06-.06c.15-.15.29-.31.41-.48.02-.03.04-.05.06-.08.59-.82,1.02-1.87,1.02-2.89h-10.98ZM18,25.35v6.93h4.21v-6.93h-4.21ZM14.6,33.18v2.57h11.01v-2.57h-11.01ZM6.37,37.12c-.22.31-.31.63-.27,1.02.09.37.27.68.57.89.32.19.67.23,1.03.22.04,0,.09,0,.13,0,.12,0,.24,0,.36,0,.13,0,.26,0,.4,0,.23,0,.46,0,.69,0,.34,0,.69,0,1.03,0,.61,0,1.22,0,1.84,0,.54,0,1.07,0,1.61,0q.05,0,.11,0c.14,0,.29,0,.43,0,1.35,0,2.71,0,4.06,0,1.2,0,2.4,0,3.61,0,1.35,0,2.7,0,4.05,0,.14,0,.29,0,.43,0,.04,0,.07,0,.11,0,.54,0,1.07,0,1.61,0,.61,0,1.22,0,1.83,0,.34,0,.68,0,1.02,0,.23,0,.46,0,.68,0,.13,0,.26,0,.39,0,.14,0,.28,0,.42,0,.04,0,.08,0,.12,0,.39,0,.78-.09,1.08-.36.26-.27.4-.58.42-.96-.01-.4-.18-.72-.45-1-.33-.28-.76-.34-1.17-.33-.04,0-.09,0-.13,0-.12,0-.24,0-.36,0-.13,0-.26,0-.4,0-.23,0-.46,0-.69,0-.34,0-.69,0-1.03,0-.61,0-1.22,0-1.84,0-.54,0-1.07,0-1.61,0-.04,0-.07,0-.11,0-.14,0-.29,0-.43,0-1.35,0-2.71,0-4.06,0-1.2,0-2.4,0-3.61,0-1.35,0-2.7,0-4.05,0-.14,0-.29,0-.43,0q-.05,0-.11,0c-.54,0-1.07,0-1.61,0-.61,0-1.22,0-1.83,0-.34,0-.68,0-1.02,0-.23,0-.46,0-.68,0-.13,0-.26,0-.39,0-.14,0-.28,0-.42,0-.04,0-.08,0-.12,0-.47,0-.91.14-1.22.52Z"/>
</svg>