<?xml version="1.0" encoding="UTF-8"?>
<svg xmlns="http://www.w3.org/2000/svg" version="1.1" viewBox="0 0 49 40">
  <defs>
    <style>
      .cls-1 {
        fill: #029cde;
      }
    </style>
  </defs>
  <!-- Generator: Adobe Illustrator 28.7.4, SVG Export Plug-In . SVG Version: 1.2.0 Build 166)  -->
  <g>
    <g id="Layer_1">
      <path class="cls-1" d="M44.2,0H4.2C1.9,0,0,1.9,0,4.2v31.7c0,2.3,1.9,4.2,4.2,4.2h40c2.3,0,4.2-1.9,4.2-4.2V4.2c0-2.3-1.9-4.2-4.2-4.2ZM1.7,4.2c0-1.4,1.1-2.5,2.5-2.5h40c1.4,0,2.5,1.1,2.5,2.5v2.5H1.7v-2.5ZM46.7,35.8c0,1.4-1.1,2.5-2.5,2.5H4.2c-1.4,0-2.5-1.1-2.5-2.5V8.3h45v27.5Z"/>
      <path class="cls-1" d="M5,4.2c0,1.1-1.7,1.1-1.7,0s1.7-1.1,1.7,0Z"/>
      <path class="cls-1" d="M8.3,4.2c0,1.1-1.7,1.1-1.7,0s1.7-1.1,1.7,0Z"/>
      <path class="cls-1" d="M11.7,4.2c0,1.1-1.7,1.1-1.7,0s1.7-1.1,1.7,0Z"/>
      <g>
        <path class="cls-1" d="M17.1,29.6c.5.5,1.3.5,1.7,0,.5-.5.5-1.3,0-1.7l-4.1-4.1,4.1-4.1c.5-.5.5-1.3,0-1.7-.5-.5-1.3-.5-1.7,0l-5,5c-.5.5-.5,1.3,0,1.8l5,5Z"/>
        <path class="cls-1" d="M28.3,29.6c.5.5,1.3.5,1.8,0l5-5c.5-.5.5-1.3,0-1.8l-5-5c-.5-.5-1.3-.5-1.7,0-.5.5-.5,1.3,0,1.7l4.1,4.1-4.1,4.1c-.5.5-.5,1.3,0,1.8Z"/>
      </g>
      <path class="cls-1" d="M21.4,31.1c.1,0,.2,0,.4,0,.5,0,1-.4,1.2-.9l3.7-12.4c.2-.7-.2-1.3-.8-1.5-.7-.2-1.3.2-1.5.8l-3.7,12.4c0,.3,0,.7,0,.9.2.3.4.5.7.6Z"/>
    </g>
  </g>
</svg>