<svg width="49" height="40" viewBox="0 0 49 40" fill="none" xmlns="http://www.w3.org/2000/svg">
<path d="M44.1667 0H4.16667C1.86667 0.0020832 0.00208 1.86667 0 4.16667V35.8333C0.0020832 38.1333 1.86667 39.9979 4.16667 40H44.1667C46.4667 39.9979 48.3313 38.1333 48.3333 35.8333V4.16667C48.3313 1.86667 46.4667 0.00208 44.1667 0ZM1.6664 4.16667C1.6664 2.78544 2.78517 1.66667 4.1664 1.66667H44.1664C45.5476 1.66667 46.6664 2.78544 46.6664 4.16667V6.66667H1.6664V4.16667ZM46.6664 35.8333C46.6664 37.2146 45.5476 38.3333 44.1664 38.3333H4.1664C2.78517 38.3333 1.6664 37.2146 1.6664 35.8333V8.3336H46.6664V35.8333Z" fill="#029CDE"/>
<path d="M5.00824 4.17065C5.00824 5.28734 3.33325 5.28734 3.33325 4.17065C3.33325 3.05396 5.00824 3.05396 5.00824 4.17065Z" fill="#029CDE"/>
<path d="M8.33734 4.17065C8.33734 5.28734 6.66235 5.28734 6.66235 4.17065C6.66235 3.05396 8.33734 3.05396 8.33734 4.17065Z" fill="#029CDE"/>
<path d="M11.6749 4.17065C11.6749 5.28734 9.99994 5.28734 9.99994 4.17065C9.99994 3.05396 11.6749 3.05396 11.6749 4.17065Z" fill="#029CDE"/>
<path d="M20.0003 13.3333H23.3336C23.794 13.3333 24.1669 12.9604 24.1669 12.5C24.1669 12.0396 23.794 11.6667 23.3336 11.6667H20.0003C19.5398 11.6667 19.1669 12.0396 19.1669 12.5C19.1669 12.9604 19.5398 13.3333 20.0003 13.3333Z" fill="#029CDE"/>
<path d="M11.6664 13.3333H16.6664C17.1268 13.3333 17.4997 12.9604 17.4997 12.5C17.4997 12.0396 17.1268 11.6667 16.6664 11.6667H11.6664C11.206 11.6667 10.8331 12.0396 10.8331 12.5C10.8331 12.9604 11.206 13.3333 11.6664 13.3333Z" fill="#029CDE"/>
<path d="M5.83333 13.3333H8.33333C8.79375 13.3333 9.16667 12.9604 9.16667 12.5C9.16667 12.0396 8.79375 11.6667 8.33333 11.6667H5.83333C5.37292 11.6667 5 12.0396 5 12.5C5 12.9604 5.37292 13.3333 5.83333 13.3333Z" fill="#029CDE"/>
<path d="M24.1667 15.8336C24.1667 15.6128 24.0792 15.4003 23.9229 15.244C23.7667 15.0877 23.5542 15.0002 23.3333 15.0002H15.8336C15.3732 15.0002 15.0002 15.3732 15.0002 15.8336C15.0002 16.294 15.3732 16.6669 15.8336 16.6669H23.3333C23.5541 16.6669 23.7666 16.5794 23.9229 16.4232C24.0792 16.2669 24.1667 16.0544 24.1667 15.8336Z" fill="#029CDE"/>
<path d="M5.83333 16.6667H12.5C12.9604 16.6667 13.3333 16.2937 13.3333 15.8333C13.3333 15.3729 12.9604 15 12.5 15H5.83333C5.37292 15 5 15.3729 5 15.8333C5 16.2937 5.37292 16.6667 5.83333 16.6667Z" fill="#029CDE"/>
<path d="M20.0003 20H23.3336C23.794 20 24.1669 19.6271 24.1669 19.1667C24.1669 18.7063 23.794 18.3333 23.3336 18.3333H20.0003C19.5398 18.3333 19.1669 18.7063 19.1669 19.1667C19.1669 19.6271 19.5398 20 20.0003 20Z" fill="#029CDE"/>
<path d="M5.83333 20H16.6664C17.1268 20 17.4997 19.6271 17.4997 19.1667C17.4997 18.7063 17.1268 18.3333 16.6664 18.3333H5.83333C5.37292 18.3333 5 18.7063 5 19.1667C5 19.6271 5.37292 20 5.83333 20Z" fill="#029CDE"/>
<path d="M10.8333 22.5002C10.8333 22.7211 10.9208 22.9336 11.0771 23.0898C11.2333 23.2461 11.4458 23.3336 11.6667 23.3336H23.3333C23.7937 23.3336 24.1667 22.9607 24.1667 22.5003C24.1667 22.0398 23.7937 21.6669 23.3333 21.6669H11.6667C11.2062 21.6669 10.8333 22.0398 10.8333 22.5002Z" fill="#029CDE"/>
<path d="M5.83333 23.3334H8.33333C8.79375 23.3334 9.16667 22.9604 9.16667 22.5C9.16667 22.0396 8.79375 21.6667 8.33333 21.6667H5.83333C5.37292 21.6667 5 22.0396 5 22.5C5 22.9604 5.37292 23.3334 5.83333 23.3334Z" fill="#029CDE"/>
<path d="M23.3336 25H15.8339C15.3735 25 15.0005 25.3729 15.0005 25.8333C15.0005 26.2937 15.3735 26.6667 15.8339 26.6667H23.3336C23.794 26.6667 24.1669 26.2937 24.1669 25.8333C24.1669 25.3729 23.794 25 23.3336 25Z" fill="#029CDE"/>
<path d="M5.83333 26.6667H12.5C12.9604 26.6667 13.3333 26.2937 13.3333 25.8333C13.3333 25.3729 12.9604 25 12.5 25H5.83333C5.37292 25 5 25.3729 5 25.8333C5 26.2937 5.37292 26.6667 5.83333 26.6667Z" fill="#029CDE"/>
<path d="M42.5 30H35.8333C35.3729 30 35 30.3729 35 30.8333C35 31.2937 35.3729 31.6667 35.8333 31.6667H42.5C42.9604 31.6667 43.3333 31.2937 43.3333 30.8333C43.3333 30.3729 42.9604 30 42.5 30Z" fill="#029CDE"/>
<path d="M15.8333 30C15.3729 30 15 30.3729 15 30.8333C15 31.2937 15.3729 31.6667 15.8333 31.6667H32.5C32.9604 31.6667 33.3333 31.2937 33.3333 30.8333C33.3333 30.3729 32.9604 30 32.5 30H15.8333Z" fill="#029CDE"/>
<path d="M5.83333 31.6667H12.5C12.9604 31.6667 13.3333 31.2937 13.3333 30.8333C13.3333 30.3729 12.9604 30 12.5 30H5.83333C5.37292 30 5 30.3729 5 30.8333C5 31.2937 5.37292 31.6667 5.83333 31.6667Z" fill="#029CDE"/>
<path d="M42.5 33.3333H25.8333C25.3729 33.3333 25 33.7063 25 34.1667C25 34.6271 25.3729 35 25.8333 35H42.5C42.9604 35 43.3333 34.6271 43.3333 34.1667C43.3333 33.7063 42.9604 33.3333 42.5 33.3333Z" fill="#029CDE"/>
<path d="M5.83333 35H22.5C22.9604 35 23.3333 34.6271 23.3333 34.1667C23.3333 33.7063 22.9604 33.3333 22.5 33.3333H5.83333C5.37292 33.3333 5 33.7063 5 34.1667C5 34.6271 5.37292 35 5.83333 35Z" fill="#029CDE"/>
<path d="M31.0771 23.0896C31.4042 23.4042 31.925 23.4 32.2458 23.0792C32.5667 22.7584 32.5708 22.2375 32.2562 21.9104L29.5125 19.1667L32.2562 16.423C32.5708 16.0959 32.5667 15.5751 32.2458 15.2542C31.925 14.9334 31.4042 14.9292 31.0771 15.2438L27.7438 18.5771C27.4187 18.9022 27.4187 19.4313 27.7438 19.7563L31.0771 23.0896Z" fill="#029CDE"/>
<path d="M38.5773 23.0896C38.9023 23.4146 39.4315 23.4146 39.7565 23.0896L43.0898 19.7563C43.4148 19.4313 43.4148 18.9021 43.0898 18.5771L39.7565 15.2438C39.4294 14.9292 38.9086 14.9334 38.5877 15.2542C38.2669 15.575 38.2627 16.0959 38.5773 16.4229L41.321 19.1667L38.5773 21.9104C38.2523 22.2354 38.2523 22.7646 38.5773 23.0896Z" fill="#029CDE"/>
<path d="M33.9272 24.1312C34.0043 24.1541 34.0855 24.1666 34.1668 24.1666C34.5355 24.1666 34.8585 23.9249 34.9647 23.5728L37.4647 15.2395C37.598 14.7978 37.3459 14.3333 36.9063 14.202C36.4647 14.0687 36.0001 14.3208 35.8689 14.7604L33.3689 23.0937C33.3043 23.3062 33.3293 23.5333 33.4334 23.7291C33.5376 23.9229 33.7168 24.0687 33.9272 24.1312Z" fill="#029CDE"/>
</svg>
