<?xml version="1.0" encoding="UTF-8"?>
<svg xmlns="http://www.w3.org/2000/svg" version="1.1" viewBox="0 0 29 40">
  <defs>
    <style>
      .cls-1 {
        fill: #880364;
      }
    </style>
  </defs>
  <!-- Generator: Adobe Illustrator 28.7.4, SVG Export Plug-In . SVG Version: 1.2.0 Build 166)  -->
  <g>
    <g id="Layer_1">
      <path class="cls-1" d="M14.2,2.2c-1.1,0-1.9.9-1.9,1.9s.8,1.9,1.9,1.9,1.9-.9,1.9-1.9-.8-1.9-1.9-1.9ZM14.2,4.9c-.4,0-.8-.3-.8-.8s.3-.8.8-.8.8.3.8.8-.3.8-.8.8Z"/>
      <path class="cls-1" d="M.7,40c-.4,0-.7-.3-.7-.7V7.4c0-.4.3-.7.7-.7h5.1v-2.1c0-.4.3-.7.7-.7h3.7c0-2.2,1.9-4,4.1-4s4,1.8,4.1,4h3.7c.4,0,.7.3.7.7v2.1h5.1c.4,0,.7.3.7.7v31.9c0,.4-.3.7-.7.7H.7ZM27.1,38.6V8.1h-4.4v1.6c0,.4-.3.7-.7.7H6.4c-.4,0-.7-.3-.7-.7v-1.6H1.3v30.5h25.7ZM21.3,8.9v-3.6h-3.7c-.4,0-.7-.3-.7-.7v-.6c0-1.5-1.2-2.7-2.7-2.7s-2.7,1.2-2.7,2.7v.5c0,.4-.3.7-.7.7h-3.7v3.6h14.2Z"/>
      <path class="cls-1" d="M28.2,39.3V7.4c0-.3-.3-.6-.6-.6h-5.1v-2.1c0-.3-.3-.6-.6-.6h-3.8C18.2,1.9,16.4,0,14.2,0s-4,1.8-4,4h-3.8c-.3,0-.6.3-.6.6v2.1H.6c-.3,0-.6.3-.6.6v31.9c0,.3.3.6.6.6h27.1c.3,0,.6-.3.6-.6ZM7,5.2h3.8c.3,0,.6-.3.6-.6v-.5c0-1.6,1.3-2.8,2.8-2.8s2.8,1.3,2.8,2.8v.6c0,.3.3.6.6.6h3.8v3.8H7v-3.8ZM27.1,38.7H1.2V8h4.6v1.6c0,.3.3.6.6.6h15.6c.3,0,.6-.3.6-.6v-1.6h4.6v30.7Z"/>
      <path class="cls-1" d="M21.8,24.2c-.3.3-.8.5-1.3.5h-4.7v4.7c0,.5-.2.9-.5,1.3-.3.3-.8.5-1.3.5-.9,0-1.8-.9-1.8-1.8v-4.7h-4.7c-.9,0-1.8-.9-1.8-1.8s.2-.9.5-1.3c.4-.4.8-.5,1.3-.5h4.7v-4.7c0-.5.2-.9.5-1.3s.8-.5,1.3-.5c.9,0,1.8.9,1.8,1.8v4.7h4.7c.5,0,.9.2,1.3.5.4.4.5.8.5,1.3,0,.5-.2.9-.6,1.2Z"/>
    </g>
  </g>
</svg>