<svg width="29" height="40" viewBox="0 0 29 40" fill="none" xmlns="http://www.w3.org/2000/svg">
<path d="M14.1623 2.19177C13.0664 2.19177 12.2234 3.07691 12.2234 4.13066C12.2234 5.1844 13.0664 6.06954 14.1623 6.06954C15.2582 6.06954 16.1012 5.1844 16.1012 4.13066C16.1012 3.07691 15.2582 2.19177 14.1623 2.19177ZM14.1623 4.88935C13.7408 4.88935 13.4036 4.55215 13.4036 4.13066C13.4036 3.70916 13.7408 3.37196 14.1623 3.37196C14.5838 3.37196 14.921 3.70916 14.921 4.13066C14.921 4.55215 14.5838 4.88935 14.1623 4.88935Z" fill="#870264"/>
<path d="M0.674394 40C0.295048 40 0 39.705 0 39.3256V7.41834C0 7.03899 0.295048 6.74394 0.674394 6.74394H5.73235V4.67861C5.73235 4.29926 6.0274 4.00421 6.40674 4.00421H10.0738C10.1159 1.81243 11.9705 0 14.1623 0C16.3962 0 18.2086 1.77028 18.2508 4.00421H21.9178C22.2972 4.00421 22.5922 4.29926 22.5922 4.67861V6.74394H27.6502C28.0295 6.74394 28.3246 7.03899 28.3246 7.41834V39.3256C28.3246 39.705 28.0295 40 27.6502 40H0.674394ZM27.0601 38.6091V8.09273H22.6765V9.65227C22.6765 10.0316 22.3815 10.3267 22.0021 10.3267H6.44889C6.06955 10.3267 5.7745 10.0316 5.7745 9.65227V8.09273H1.34879V38.6091H27.0601ZM21.2856 8.93572V5.31085H17.6185C17.2392 5.31085 16.9442 5.01581 16.9442 4.63646V4.04636C16.9442 2.52898 15.7218 1.30664 14.2044 1.30664C12.687 1.30664 11.4647 2.52898 11.4647 4.04636V4.59431C11.4647 4.97366 11.1697 5.2687 10.7903 5.2687H7.12329V8.89357L21.2856 8.93572Z" fill="#870264"/>
<path d="M28.2403 39.2834V7.41833C28.2403 7.08113 27.9874 6.82823 27.6502 6.82823H22.5079V4.6786C22.5079 4.3414 22.255 4.0885 21.9178 4.0885H18.1665C18.1665 1.89672 16.3541 0.0842896 14.1623 0.0842896C11.9705 0.0842896 10.1581 1.85457 10.1581 4.0885H6.40674C6.06955 4.0885 5.81665 4.3414 5.81665 4.6786V6.82823H0.590095C0.252898 6.82823 0 7.08113 0 7.41833V39.3256C0 39.6628 0.252898 39.9157 0.590095 39.9157H27.6502C27.9874 39.9157 28.2403 39.6206 28.2403 39.2834ZM6.95469 5.22654H10.706C11.0432 5.22654 11.2961 4.97365 11.2961 4.63645V4.0885C11.2961 2.52897 12.5606 1.26448 14.1201 1.26448C15.6797 1.26448 16.9442 2.52897 16.9442 4.0885V4.6786C16.9442 5.0158 17.197 5.26869 17.5342 5.26869H21.2856V7.41833V9.02001H6.95469V5.22654ZM27.0601 38.6934H1.18019V8.00842H5.73235V9.65226C5.73235 9.98945 5.98525 10.2424 6.32244 10.2424H21.8757C22.2129 10.2424 22.4658 9.98945 22.4658 9.65226V8.00842H27.0179L27.0601 38.6934Z" fill="#870264"/>
<path d="M21.8462 24.2227C21.536 24.5329 21.0707 24.688 20.5279 24.7655L15.8753 24.7655L15.8753 29.4181C15.8753 29.8834 15.7202 30.3486 15.3325 30.7364C15.0223 31.0465 14.5571 31.2016 14.0142 31.2792C13.0837 31.2792 12.2307 30.4262 12.2307 29.4957L12.2307 24.843L7.57812 24.843C6.64759 24.843 5.79462 23.9901 5.79462 23.0595C5.79462 22.5943 5.9497 22.129 6.33742 21.7413C6.72514 21.3536 7.11286 21.276 7.65567 21.1985L12.3083 21.1985L12.3083 16.5459C12.3083 16.0806 12.4634 15.6153 12.8511 15.2276C13.2388 14.8399 13.6265 14.7624 14.1693 14.6848C15.0999 14.6848 15.9528 15.5378 15.9528 16.4683L15.9528 21.1209L20.6055 21.1209C21.0707 21.1209 21.536 21.276 21.9237 21.6638C22.3114 22.0515 22.389 22.4392 22.4665 22.982C22.4665 23.4473 22.2339 23.835 21.8462 24.2227Z" fill="#870264"/>
</svg>
