<?xml version="1.0" encoding="UTF-8"?>
<svg xmlns="http://www.w3.org/2000/svg" version="1.1" viewBox="0 0 41 40">
  <defs>
    <style>
      .cls-1 {
        fill: #81b216;
      }
    </style>
  </defs>
  <!-- Generator: Adobe Illustrator 28.7.4, SVG Export Plug-In . SVG Version: 1.2.0 Build 166)  -->
  <g>
    <g id="Layer_1">
      <path class="cls-1" d="M7.8,17.2c.1-.1.2-.2.3-.4.2-.4.2-.8.1-1.2-.1-.5-.5-.8-.9-1l.4-4.1s0,0,0-.1c0,0-.2-.9-1.1-1.5-.8-.5-2-.6-3.4-.3,0,0,0,0,0,0h0s0,0,0,0c-1.3.5-2.2,1.2-2.7,2.1-.5,1-.1,1.9-.1,1.9,0,0,0,0,0,.1l2.6,3.3c-.2.4-.3.8-.2,1.3.2.6.6,1,1.2,1.1l6.6,20.3c.2.7.9,1.1,1.5,1.1s.3,0,.5,0c.8-.3,1.3-1.1,1.1-2l-5.7-20.5ZM1.1,11.2c.3-.6,1-1.2,2.2-1.6,1.1-.3,2.1-.2,2.7.1.5.3.6.7.7.8l-.4,4.1h0l-2.6.8s0,0,0,0l-2.5-3.2c0-.1-.1-.6.1-1.1ZM3.6,17.1c0-.3,0-.6.4-.7l2.6-.8s.1,0,.2,0c.2,0,.5.2.5.4,0,.1,0,.3,0,.4,0,.1-.2.2-.3.3l-2.6.8c-.3,0-.6,0-.7-.4ZM12.1,38.8c-.3,0-.7,0-.8-.4l-6.6-20.1,2.1-.6,5.6,20.3c0,.3,0,.7-.4.8Z"/>
      <path class="cls-1" d="M28.8,19.3l4.1-7.3h0c.2,0,.3,0,.5,0,.4-.1.8-.4,1-.9.3-.5.2-1.1,0-1.5l5-2.5c.2,0,.3-.3.3-.4s0-3.3-3.8-5.6c0,0,0,0,0,0h0c0,0,0,0,0,0-4.1-1.9-6.7,0-6.8,0-.2.1-.2.3-.2.5l.9,5.7s0,0-.1,0c-.4.1-.8.4-1,.9-.3.6-.2,1.3.1,1.8l-2.9,6.1-4.5-4.9c0-.2.1-.4.1-.6,0-.5-.2-.9-.5-1.3-.3-.3-.8-.6-1.3-.6-.2,0-.4,0-.5,0,.2-.5.2-1,.3-1.5,0-1.4-.5-2.8-1.5-3.8C15.1.4,8.1,0,7.8,0c-.1,0-.3,0-.4.1,0,0-.2.2-.2.4,0,.3.2,7.4,2.8,10.2,1,1,2.3,1.6,3.8,1.7h.1c.5,0,.9,0,1.4-.2,0,.2,0,.3-.1.5,0,.5.2.9.5,1.3.3.3.8.6,1.3.6h0c.2,0,.4,0,.5,0l5.8,5.8-8,16.7c-.7,1.4-.6,2.3.3,2.8.2.1.4.1.6.1,1,0,1.6-1.3,1.9-1.7l8.2-14.8,10.1,10.1c.4.4.9.6,1.3.6s.9-.2,1.3-.5c.7-.7.8-1.9,0-2.7l-10.5-11.5ZM35.4,1.8c2.8,1.6,3.3,3.8,3.4,4.5l-5,2.5s0,0,0,0c0,0,0,0,0,0l-2.9-1.5c0,0-.1,0-.2,0h0s-.9-5.6-.9-5.6c.7-.4,2.7-1.1,5.6.2ZM29.4,8.4c0-.2.2-.3.4-.4.2,0,.4,0,.6,0l2.9,1.5c.4.2.5.6.3,1,0,.2-.2.3-.4.4-.2,0-.4,0-.6,0l-2.9-1.5c-.4-.2-.5-.6-.3-1ZM29.5,10.4l2.5,1.3-3.8,6.8-1.7-1.8,3-6.3ZM13.9,11.4c-1.2,0-2.3-.5-3.1-1.4-2-2.1-2.4-7.3-2.5-9,1.7.1,6.7.8,8.8,2.9.8.8,1.2,2,1.2,3.1,0,1.2-.5,2.2-1.3,3.1-.9.8-2,1.2-3.1,1.2ZM17.1,13.6c-.2,0-.4,0-.6-.3-.2-.2-.2-.4-.2-.6,0-.2,0-.4.3-.6l2.5-2.4c.2-.1.3-.2.6-.2h0c.2,0,.4,0,.6.3.2.2.2.4.2.6,0,.2,0,.4-.3.6l-2.5,2.4c-.2.2-.3.2-.6.2ZM25.7,22.6l-8.3,15c-.5.9-.9,1.3-1.1,1.2-.1,0-.4-.2.1-1.4l7.8-16.4,1.5,1.5s0,0,0,0ZM38.6,32.8c-.4.3-.9.3-1.3,0L18.5,13.9l2.2-2.1,17.9,19.7c.3.4.3.9,0,1.3Z"/>
      <path class="cls-1" d="M39.8,17.6l-1.1-.6c-.8-.4-1.5-1.1-1.9-1.9l-.6-1.1c0-.2-.3-.3-.4-.3s-.3,0-.4.3l-.6,1.1c-.4.8-1.1,1.5-1.9,1.9l-1.1.6c-.2,0-.3.3-.3.4s0,.3.3.4l1.1.6c.8.4,1.5,1.1,1.9,1.9l.6,1.1c0,.2.3.3.4.3s.3,0,.4-.3l.6-1.1c.4-.8,1.1-1.5,1.9-1.9l1.1-.6c.2,0,.3-.3.3-.4s0-.4-.3-.4ZM38.3,18.1c-1,.5-1.8,1.3-2.3,2.3l-.2.3-.2-.3c-.5-1-1.3-1.8-2.3-2.3l-.3-.2.3-.2c1-.5,1.8-1.3,2.3-2.3l.2-.3.2.3c.5,1,1.3,1.8,2.3,2.3l.3.2-.3.2Z"/>
      <path class="cls-1" d="M15.5,24.5l.6-1.1c.4-.8,1.1-1.5,1.9-1.9l1.1-.6c.2,0,.3-.3.3-.4s0-.3-.3-.4l-1.1-.6c-.8-.4-1.5-1.1-1.9-1.9l-.6-1.1c-.2-.3-.7-.3-.9,0l-.6,1.1c-.4.8-1.1,1.5-1.9,1.9l-1.1.6c-.2,0-.3.3-.3.4s0,.3.3.4l1.1.6c.8.4,1.5,1.1,1.9,1.9l.6,1.1c0,.2.3.3.4.3s.3,0,.4-.3ZM12.6,20.7l-.3-.2.3-.2c1-.5,1.8-1.3,2.3-2.3l.2-.3.2.3c.5,1,1.3,1.8,2.3,2.3l.3.2-.3.2c-1,.5-1.8,1.3-2.3,2.3l-.2.3-.2-.3c-.5-1-1.3-1.8-2.3-2.3Z"/>
      <path class="cls-1" d="M31.6,35.3l-1.1-.6c-.8-.4-1.5-1.1-1.9-1.9l-.6-1.1c-.2-.3-.7-.3-.9,0l-.6,1.1c-.4.8-1.1,1.5-1.9,1.9l-1.1.6c-.2,0-.3.3-.3.4s0,.3.3.4l1.1.6c.8.4,1.5,1.1,1.9,1.9l.6,1.1c0,.2.3.3.4.3s.3,0,.4-.3l.6-1.1c.4-.8,1.1-1.5,1.9-1.9l1.1-.6c.2,0,.3-.3.3-.4s0-.3-.3-.4ZM30.1,35.9c-1,.5-1.8,1.3-2.3,2.3l-.2.3-.2-.3c-.5-1-1.3-1.8-2.3-2.3l-.3-.2.3-.2c1-.5,1.8-1.3,2.3-2.3l.2-.3.2.3c.5,1,1.3,1.8,2.3,2.3l.3.2-.3.2Z"/>
    </g>
  </g>
</svg>