<svg width="36" height="40" viewBox="0 0 36 40" fill="none" xmlns="http://www.w3.org/2000/svg">
<path d="M17.9774 0C19.1509 0 20.234 0.45045 21.1818 1.21622C21.6331 1.03604 22.0844 0.900901 22.5357 0.900901C24.2959 0.900901 25.7401 2.34234 25.7401 4.0991C25.7401 5 25.3339 5.85586 24.7472 6.44144C24.8826 6.8018 25.0631 7.20721 25.1985 7.61261C26.4622 7.38739 27.6807 7.25225 28.809 7.25225C31.7426 7.25225 34.1797 8.06306 35.3531 10.045C36.0752 11.2613 36.1204 12.7477 35.7593 14.2342C35.3531 15.7207 34.5408 17.2973 33.3673 18.8288C33.0514 19.2342 32.7355 19.6396 32.4196 20C32.7806 20.4054 33.0966 20.8108 33.3673 21.1712C34.5408 22.7477 35.3983 24.2793 35.7593 25.7658C36.1655 27.2523 36.0752 28.7387 35.3531 29.955C34.7213 31.0811 33.7284 31.7568 32.555 32.2072C32.3744 33.7838 31.0205 35 29.3958 35C27.9064 35 26.6427 33.964 26.3268 32.6126C25.9657 32.5676 25.6047 32.4775 25.2436 32.4324C25.0631 32.9279 24.8826 33.4234 24.6569 33.8739C23.8897 35.6757 22.9419 37.1622 21.8588 38.2432C20.7756 39.3243 19.4668 40 18.0226 40C16.6235 40 15.3147 39.3243 14.1864 38.2432C13.0581 37.1622 12.1554 35.6757 11.3431 33.8739C11.1625 33.4234 10.982 32.9279 10.8015 32.4324C10.2599 32.5225 9.71833 32.6126 9.22189 32.6577C8.86083 34.009 7.59715 35 6.15293 35C4.48306 35 3.08398 33.6937 2.99371 32.027C2.00082 31.5766 1.18844 30.9009 0.646864 30C-0.0752426 28.7838 -0.120374 27.2973 0.240679 25.8108C0.646865 24.3243 1.45923 22.7928 2.63266 21.2162C2.94858 20.8108 3.2645 20.4054 3.58042 20.045C3.21937 19.6396 2.90345 19.2342 2.63266 18.8739C1.45923 17.2973 0.601733 15.7658 0.240679 14.2793C-0.165506 12.7928 -0.0752426 11.3063 0.646864 10.0901C1.82029 8.10811 4.2574 7.2973 7.19096 7.2973C8.31925 7.2973 9.53781 7.43243 10.8015 7.65766C10.982 7.16216 11.1625 6.66667 11.3431 6.21622C12.1103 4.41441 13.0581 2.92793 14.1412 1.84685C15.2695 0.675676 16.5784 0 17.9774 0ZM17.9774 1.84685C17.1199 1.84685 16.3076 2.25225 15.4501 3.06306C14.5926 3.91892 13.7351 5.22523 13.0581 6.84685C12.9227 7.20721 12.7422 7.56757 12.6068 7.97297C14.3218 8.42342 16.127 9.05405 18.0226 9.86486C19.873 9.05405 21.6782 8.42342 23.4384 7.97297C23.3481 7.7027 23.2578 7.47748 23.1676 7.25225C22.9871 7.2973 22.8065 7.2973 22.626 7.2973C20.8659 7.2973 19.4216 5.85586 19.4216 4.0991C19.4216 3.51351 19.6022 2.92793 19.873 2.47748C19.196 2.02703 18.6093 1.8018 17.9774 1.84685ZM22.5357 2.74775C21.7685 2.74775 21.1818 3.33333 21.1818 4.0991C21.1818 4.86486 21.7685 5.45045 22.5357 5.45045C23.303 5.45045 23.8897 4.86486 23.8897 4.0991C23.9348 3.33333 23.303 2.74775 22.5357 2.74775ZM28.809 9.00901C27.8613 9.00901 26.8232 9.14414 25.7401 9.32432C26.2365 11.036 26.5976 12.9279 26.8232 14.9099C28.448 16.1261 29.8922 17.3874 31.1559 18.6486C31.4267 18.3333 31.6523 18.018 31.878 17.7027C32.9612 16.2613 33.6833 14.8649 33.9992 13.6937C34.3151 12.5225 34.2248 11.6216 33.8187 10.9009C33.0966 9.72973 31.3815 9.00901 28.809 9.00901ZM7.19096 9.00901C4.61845 9.00901 2.90345 9.72973 2.22647 10.9009C1.82029 11.6216 1.73003 12.5225 2.04595 13.6937C2.36187 14.8649 3.08398 16.2613 4.16714 17.7027C4.39279 18.018 4.66358 18.3333 4.88924 18.6486C6.15293 17.3874 7.59715 16.1261 9.22189 14.9099C9.44754 12.9279 9.8086 11.036 10.305 9.32432C9.13162 9.14414 8.09359 9.05405 7.19096 9.00901ZM23.9348 9.72973C22.7614 10.045 21.5428 10.4054 20.2792 10.9009C21.0464 11.2613 21.8136 11.7117 22.5357 12.1171C23.303 12.5676 24.0251 13.018 24.7472 13.5135C24.5667 12.1622 24.2507 10.9009 23.9348 9.72973ZM12.0201 9.72973C11.7041 10.9009 11.4333 12.1622 11.2077 13.5135C11.9298 13.0631 12.6519 12.5676 13.4191 12.1171C14.1864 11.6667 14.9536 11.2613 15.6757 10.9009C14.4572 10.4054 13.1935 10 12.0201 9.72973ZM17.9774 11.8468C16.7589 12.3874 15.5403 13.018 14.3218 13.6937C13.1032 14.4144 11.9749 15.1351 10.8918 15.9009C10.7564 17.2072 10.6661 18.6036 10.6661 20C10.6661 21.3964 10.7564 22.7928 10.8466 24.0991C11.9298 24.8649 13.0581 25.5856 14.2766 26.3063C15.4952 27.027 16.7137 27.6126 17.9323 28.1982C19.1509 27.6577 20.3694 27.027 21.588 26.3063C22.8065 25.5856 23.9348 24.8649 25.018 24.0991C25.1534 22.7928 25.1985 21.3964 25.1985 20C25.1985 18.6036 25.1082 17.2072 24.9728 15.9009C23.8897 15.1351 22.7614 14.3694 21.5428 13.6937C20.4145 13.018 19.196 12.3874 17.9774 11.8468ZM8.9511 17.3874C7.86794 18.2432 6.92017 19.1441 6.06267 20C6.92017 20.8559 7.86794 21.7568 8.9511 22.6126C8.90596 21.7568 8.86083 20.9009 8.86083 20C8.90596 19.1441 8.90596 18.2432 8.9511 17.3874ZM27.0489 17.4324C27.094 18.2883 27.1392 19.1441 27.1392 20.045C27.1392 20.9459 27.094 21.8018 27.0489 22.6577C28.1321 21.8018 29.0798 20.9009 29.9373 20.045C29.0798 19.1441 28.0869 18.2883 27.0489 17.4324ZM31.1108 21.3514C29.8471 22.6126 28.4029 23.8739 26.7781 25.0901C26.5525 27.1171 26.1914 28.964 25.695 30.6757C25.9206 30.7207 26.1463 30.7658 26.3719 30.7658C26.8232 29.5495 27.9967 28.6036 29.3958 28.6036C30.6143 28.6036 31.6975 29.3243 32.239 30.3604C32.9612 30.045 33.5027 29.5946 33.8187 29.0541C34.2248 28.3333 34.3151 27.3874 33.9992 26.2162C33.6833 25.045 32.9612 23.6486 31.878 22.2072C31.6523 21.982 31.3815 21.6667 31.1108 21.3514ZM4.84411 21.3514C4.57332 21.6667 4.34766 21.982 4.12201 22.2523C3.03884 23.6937 2.31674 25.0901 2.00082 26.2613C1.68489 27.4324 1.77516 28.3784 2.18134 29.0991C2.45213 29.5495 2.85832 29.9099 3.35477 30.2252C3.89635 29.2793 4.93438 28.6486 6.1078 28.6486C7.50688 28.6486 8.72544 29.5946 9.13162 30.8559C9.49268 30.8108 9.85373 30.7658 10.2148 30.6757C9.71834 28.964 9.35728 27.0721 9.13162 25.0901C7.55201 23.9189 6.1078 22.6577 4.84411 21.3514ZM24.7923 26.5315C24.0702 26.982 23.3481 27.4324 22.5809 27.8829C21.8136 28.3333 21.0464 28.7387 20.2792 29.0991C21.5428 29.5946 22.8065 30 23.9799 30.2703C24.2959 29.1441 24.5667 27.8829 24.7923 26.5315ZM11.2077 26.5315C11.4333 27.8829 11.7041 29.1441 12.0201 30.3153C13.1935 30 14.4572 29.5946 15.7208 29.1441C14.9536 28.7387 14.1864 28.3333 13.4191 27.9279C12.6519 27.4324 11.9298 26.982 11.2077 26.5315ZM18.0226 30.1802C16.1722 30.991 14.3218 31.6216 12.6068 32.0721C12.7422 32.4775 12.8776 32.8378 13.0581 33.1982C13.7802 34.8649 14.5926 36.1261 15.4501 36.982C16.3076 37.8378 17.1651 38.2432 17.9774 38.2432C18.7898 38.2432 19.6473 37.8378 20.5048 36.982C21.3623 36.1261 22.2198 34.8198 22.8968 33.1982C23.0322 32.8378 23.2127 32.4775 23.3481 32.0721C21.6782 31.6216 19.873 30.991 18.0226 30.1802ZM29.3958 30.4504C28.6285 30.4504 28.0418 31.036 28.0418 31.8018C28.0418 32.5676 28.6285 33.1532 29.3958 33.1532C30.163 33.1532 30.7497 32.5676 30.7497 31.8018C30.7497 31.036 30.163 30.4504 29.3958 30.4504ZM6.15293 30.4504C5.38569 30.4504 4.79898 31.036 4.79898 31.8018C4.79898 32.5676 5.38569 33.1532 6.15293 33.1532C6.92017 33.1532 7.50688 32.5676 7.50688 31.8018C7.50688 31.036 6.92017 30.4504 6.15293 30.4504Z" fill="#E7BF3E"/>
</svg>
