<svg width="40" height="40" viewBox="0 0 40 40" fill="none" xmlns="http://www.w3.org/2000/svg">
<path d="M6.42879 6.26709C6.77224 6.61054 7.11738 6.95568 7.45745 7.29575C8.28207 8.12037 9.10672 8.94503 9.93134 9.76964L12.9102 12.7485C13.774 13.6123 14.636 14.4743 15.498 15.3363C15.9146 15.7529 16.3175 16.195 16.7562 16.5945L16.7732 16.6115V15.4077C16.1815 15.9994 15.5915 16.5894 15.0015 17.1794H16.2053L15.1766 16.1507C14.352 15.3261 13.5274 14.5015 12.7028 13.6768C11.7081 12.6822 10.7168 11.6909 9.72387 10.698C8.86013 9.83422 7.99813 8.97221 7.13608 8.11017C6.71441 7.6885 6.30637 7.26005 5.8779 6.85198C5.87449 6.84858 5.86429 6.83838 5.86089 6.83498C5.53784 6.51193 4.98527 6.50853 4.65712 6.83498C4.57211 6.91999 4.48369 7.00841 4.39868 7.09342C4.35107 7.14102 4.30516 7.18693 4.25416 7.23794C4.24565 7.24644 4.23715 7.25834 4.22355 7.26855C4.20995 7.28215 4.19805 7.29405 4.18614 7.30595C4.10113 7.39947 4.21165 7.26855 4.23715 7.27195C4.23375 7.27195 4.10963 7.34336 4.10453 7.34846C4.10453 7.35186 4.27456 7.27705 4.19294 7.30085C4.10793 7.33145 4.30856 7.28385 4.30346 7.28385C4.37147 7.28385 4.42588 7.30425 4.48709 7.32125C4.58911 7.35186 4.5245 7.33825 4.49049 7.31785C4.49899 7.32125 4.62312 7.41136 4.5415 7.34336C4.45649 7.26684 4.60101 7.42497 4.60101 7.42837C4.58401 7.40286 4.56361 7.37736 4.5466 7.35696C4.24906 6.96079 3.9549 6.57143 3.65905 6.17529C3.02996 5.33366 2.38385 4.50052 1.76324 3.65039C1.74964 3.63339 1.73264 3.61299 1.72074 3.59599C1.67313 3.52458 1.63572 3.42936 1.69013 3.57048C1.67653 3.53648 1.63062 3.47357 1.68163 3.56708C1.71904 3.63849 1.67823 3.62149 1.68503 3.56368C1.68503 3.56368 1.64763 3.73711 1.67653 3.64529C1.71054 3.53477 1.60512 3.78982 1.65953 3.6878C1.70203 3.60279 1.57791 3.75921 1.63912 3.72181C1.65953 3.7082 1.68163 3.6793 1.70374 3.65719L3.23905 2.12188C3.25946 2.10147 3.28666 2.08447 3.29856 2.06237C3.34617 1.99776 3.18295 2.12698 3.26456 2.08277C3.34957 2.03516 3.19655 2.10317 3.19655 2.10827C3.21695 2.09977 3.31897 2.07767 3.19655 2.09977C3.08093 2.12017 3.16594 2.10827 3.19995 2.10827C3.19655 2.10827 3.02652 2.07767 3.11834 2.10487C3.21185 2.13038 3.05883 2.07937 3.06393 2.07427C3.06733 2.07087 3.14554 2.12187 3.14894 2.12528C3.17954 2.14228 3.20335 2.16268 3.23395 2.18479C3.25946 2.20519 3.28496 2.22219 3.31556 2.2443C3.46859 2.35992 3.61821 2.46873 3.77125 2.58435C4.29831 2.98051 4.82202 3.37497 5.34909 3.77115C5.81665 4.1248 6.28761 4.47676 6.75692 4.82532C6.84533 4.89333 6.93035 4.96134 7.02046 5.02596C7.02386 5.02936 6.90994 4.94094 6.90994 4.94094C6.93034 4.95795 7.02046 5.00895 6.93544 4.94944C6.87594 4.90184 6.91844 4.91544 6.93885 4.95795C6.90824 4.89844 6.89124 4.85253 6.88444 4.78792C6.87594 4.71991 6.88104 4.6553 6.89804 4.59239C6.88954 4.62639 6.86063 4.6859 6.91164 4.58389C6.99325 4.42746 6.85723 4.6519 6.86063 4.6553C6.85723 4.64169 6.97625 4.52777 6.91164 4.58389C6.89124 4.60089 6.87424 4.62129 6.85723 4.6434C6.84873 4.6519 6.84363 4.657 6.83683 4.6638C6.78582 4.71481 6.73991 4.76072 6.68721 4.81342C6.60219 4.89843 6.51718 4.98345 6.42877 5.07186C6.11592 5.38301 6.09383 5.95765 6.42879 6.26709C6.76884 6.57654 7.29591 6.6038 7.63254 6.26715C7.87908 6.02061 8.15112 5.78257 8.34325 5.48841C8.55918 5.15176 8.63569 4.73179 8.51668 4.34923C8.40616 3.99558 8.15622 3.76262 7.87056 3.54668C7.50501 3.27124 7.13605 2.99411 6.76538 2.71698C6.16688 2.26639 5.56669 1.81584 4.9665 1.37035C4.63495 1.11871 4.30002 0.800757 3.92595 0.610327C3.28837 0.283877 2.58276 0.389294 2.07607 0.89087C1.87543 1.0864 1.6799 1.28703 1.48097 1.48597L0.710764 2.25617C0.48123 2.48571 0.248292 2.70163 0.115666 3.0128C-0.105367 3.53647 0.00514773 4.11799 0.3367 4.56344C0.452315 4.71646 0.571335 4.87289 0.685253 5.02591C1.11372 5.60059 1.5439 6.17358 1.97404 6.74317C2.33109 7.21927 2.68814 7.69192 3.04179 8.16798C3.28323 8.49103 3.53147 8.79707 3.93444 8.93309C4.58055 9.15412 5.13821 8.76306 5.57008 8.3295C5.667 8.23259 5.76051 8.13907 5.85913 8.04046H4.65535L5.68402 9.06913C6.50863 9.89374 7.33329 10.7184 8.15791 11.543L11.1368 14.5219C12.0005 15.3856 12.8625 16.2476 13.7246 17.1097C14.1462 17.5314 14.5543 17.9598 14.9828 18.3679L14.9998 18.3849C15.3228 18.7079 15.8754 18.7113 16.2035 18.3849C16.7952 17.7932 17.3852 17.2032 17.9752 16.6132C18.2983 16.2902 18.3017 15.7376 17.9752 15.4094L8.90598 6.3402C8.48432 5.91854 8.07628 5.49008 7.6478 5.08202L7.6308 5.06501C7.31625 4.75046 6.73815 4.72496 6.42702 5.06501C6.11927 5.40337 6.09384 5.93045 6.42879 6.26709Z" fill="#2E6AB0"/>
<path d="M37.3023 35.9332L35.9761 37.2594C35.823 37.4124 35.6734 37.5654 35.517 37.7185C35.4575 37.778 35.3946 37.8341 35.3333 37.8885C35.2177 37.9905 35.4609 37.8035 35.2857 37.9225C35.1633 38.0075 35.0307 38.0755 34.8947 38.1469C34.7621 38.2183 35.0341 38.0959 34.8522 38.1639C34.7876 38.1894 34.7247 38.2115 34.6566 38.2285C34.5801 38.249 34.507 38.2711 34.4322 38.283C34.4016 38.2864 34.3727 38.2915 34.3472 38.3C34.2418 38.3255 34.5342 38.2864 34.3727 38.2966C34.2367 38.3051 34.1007 38.3136 33.9646 38.3102C33.8966 38.3068 33.8286 38.3017 33.7606 38.2932C33.6416 38.2847 33.9306 38.3272 33.8116 38.2966C33.764 38.283 33.7147 38.2796 33.6671 38.266C33.5311 38.2353 33.4036 38.1945 33.276 38.1469C33.1315 38.0959 33.4257 38.2183 33.2335 38.1265C33.1621 38.0925 33.0941 38.0551 33.0244 38.0109C32.9649 37.9735 32.9054 37.9344 32.8459 37.8953C32.7132 37.8069 32.8544 37.9089 32.8714 37.9157C32.8408 37.9021 32.7949 37.8511 32.7779 37.8341C32.7302 37.7916 32.6843 37.7491 32.6384 37.7015C32.6214 37.6845 32.601 37.6641 32.584 37.6471L31.7679 36.8309C30.6933 35.7563 29.6222 34.6852 28.5459 33.609L25.681 30.744C25.579 30.642 25.4804 30.5434 25.3783 30.4414C25.3579 30.421 25.3409 30.404 25.3188 30.3819C25.3103 30.3683 25.2338 30.2849 25.2304 30.2884C25.244 30.285 25.3409 30.4584 25.2559 30.3139C25.2389 30.2884 25.2253 30.2628 25.2083 30.2373C25.1913 30.2067 25.1199 30.1047 25.1879 30.2067C25.2525 30.3003 25.1794 30.1863 25.1709 30.1472C25.1624 30.1132 25.1165 29.8956 25.1403 30.0367C25.1658 30.1642 25.1488 29.9653 25.1437 29.9211C25.1352 29.7715 25.1063 30.0826 25.1471 29.8905C25.1556 29.8531 25.1641 29.814 25.1777 29.78C25.1913 29.7426 25.2457 29.6576 25.1862 29.746C25.1148 29.8565 25.2372 29.6695 25.2542 29.6405C25.3392 29.496 25.2287 29.661 25.2287 29.6661C25.2321 29.6491 25.3052 29.581 25.3137 29.5776C25.3341 29.5572 25.3511 29.5402 25.3732 29.5181C25.6283 29.2597 25.8867 29.0046 26.1468 28.7445C26.2149 28.6765 26.2863 28.6051 26.356 28.5354C26.679 28.2123 26.6824 27.6598 26.356 27.3316L23.2564 24.232C23.1119 24.0875 22.9639 23.9396 22.8177 23.7934V24.9972C23.4094 24.4055 23.9994 23.8155 24.5894 23.2255H23.3856C24.4194 24.2592 25.4514 25.2913 26.4852 26.3251C26.6297 26.4696 26.7777 26.6175 26.9239 26.7637C27.2469 27.0868 27.7995 27.0902 28.1276 26.7637C28.4711 26.4203 28.8128 26.0666 29.1648 25.7266C29.1733 25.7181 29.2583 25.6416 29.2583 25.6416C29.2617 25.6501 29.1223 25.73 29.2073 25.6841C29.2328 25.6705 29.2583 25.6501 29.2838 25.6365C29.3093 25.6229 29.3382 25.611 29.3603 25.594C29.4317 25.5463 29.3008 25.6195 29.2923 25.6195C29.3433 25.6229 29.4317 25.5718 29.4827 25.5599C29.5083 25.5565 29.5474 25.5565 29.5678 25.5429C29.5593 25.5463 29.3943 25.5514 29.4827 25.5565C29.5372 25.5599 29.6018 25.5599 29.6528 25.5565C29.7412 25.5531 29.5763 25.548 29.5678 25.5429C29.5882 25.5565 29.6273 25.5565 29.6528 25.5599C29.7038 25.5735 29.7973 25.6246 29.8432 25.6195C29.8296 25.6195 29.6987 25.5429 29.7752 25.594C29.8007 25.611 29.8262 25.6195 29.8517 25.6365C29.8772 25.6535 29.9027 25.6705 29.9282 25.6841C30.0132 25.7317 29.8738 25.6501 29.8772 25.6416C29.8772 25.645 29.9622 25.7181 29.9707 25.73C29.9877 25.7436 30.0013 25.7606 30.0132 25.7725C30.6049 26.3642 31.1949 26.9541 31.7849 27.5442C32.771 28.5303 33.7538 29.513 34.74 30.4992L37.0013 32.7606C37.0778 32.8371 37.1577 32.917 37.2359 32.9952C37.2529 33.0122 37.27 33.0292 37.287 33.0462L37.2904 33.0496C37.3329 33.0972 37.3788 33.138 37.4179 33.1856C37.4383 33.206 37.4553 33.2332 37.4774 33.257C37.5539 33.3421 37.3958 33.1346 37.457 33.2315C37.525 33.3336 37.593 33.4322 37.6525 33.5376C37.6831 33.5886 37.7035 33.643 37.7341 33.6991C37.7766 33.7807 37.7086 33.6345 37.7086 33.6311C37.7171 33.6736 37.746 33.728 37.7596 33.7671C37.797 33.8776 37.831 33.9916 37.8531 34.1072C37.8565 34.1378 37.8667 34.1616 37.8701 34.1922C37.8786 34.2398 37.9127 34.2738 37.8735 34.1956C37.8361 34.1191 37.8701 34.1446 37.8735 34.199C37.8769 34.2364 37.882 34.2755 37.882 34.3146C37.8905 34.4302 37.8905 34.5492 37.882 34.6632C37.8786 34.7176 37.865 34.7822 37.865 34.8366C37.865 34.8366 37.8956 34.6632 37.8735 34.755C37.865 34.7924 37.8599 34.8315 37.8531 34.8706C37.8276 34.9862 37.7987 35.1001 37.7596 35.2106C37.7511 35.2412 37.7392 35.265 37.729 35.2957C37.6746 35.4453 37.7324 35.265 37.746 35.2582C37.712 35.2786 37.6746 35.4079 37.6525 35.4453C37.593 35.5507 37.525 35.6493 37.457 35.7513C37.406 35.8329 37.491 35.7003 37.4944 35.7003C37.491 35.7003 37.44 35.7683 37.4349 35.7717C37.4043 35.8261 37.3533 35.8771 37.3023 35.9332C36.9928 36.2528 36.9622 36.8208 37.3023 37.137C37.6389 37.4465 38.1728 37.4771 38.506 37.137C39.4106 36.2104 39.7897 34.9012 39.5058 33.6345C39.3443 32.9118 38.9362 32.2827 38.4176 31.7642L33.2828 26.6293C32.6112 25.9577 31.9396 25.2861 31.268 24.6145C30.6644 24.0109 29.8312 23.71 28.9811 23.9378C28.1956 24.1503 27.6464 24.8474 27.0938 25.4034L26.9323 25.565H28.1361L25.0365 22.4654C24.892 22.3208 24.7441 22.1729 24.5979 22.0267C24.2748 21.7037 23.7222 21.7003 23.3941 22.0267L21.6224 23.7984C21.2994 24.1214 21.296 24.674 21.6224 25.0022C22.6562 26.0359 23.6882 27.068 24.722 28.1017C24.8665 28.2463 25.0144 28.3942 25.1607 28.5404V27.3366C24.9396 27.5577 24.7152 27.7821 24.4942 28.0031C24.1915 28.3057 23.8651 28.5982 23.6865 28.9926C23.3091 29.8258 23.423 30.7354 24.0011 31.4444C24.0776 31.5379 24.1575 31.6178 24.2391 31.6995C25.1029 32.5632 25.97 33.4303 26.832 34.2923L30.3006 37.7609C31.2017 38.662 32.0654 39.7128 33.3951 39.9372C34.6838 40.1498 35.8945 39.7366 36.8126 38.8185L38.5078 37.1233C38.8223 36.8088 38.8478 36.2307 38.5078 35.9195C38.166 35.6169 37.6389 35.5965 37.3023 35.9332Z" fill="#2E6AB0"/>
<path d="M28.8995 28.736C29.5762 29.4127 30.2512 30.0877 30.9313 30.7679L34.1652 34.0018C34.4117 34.2483 34.6617 34.4982 34.9099 34.7465C35.2244 35.061 35.8025 35.0865 36.1137 34.7465C36.4231 34.4064 36.4503 33.8793 36.1137 33.5427C35.4369 32.866 34.7619 32.191 34.0818 31.5109C33.0022 30.4312 31.9225 29.3515 30.8479 28.2769L30.1032 27.5323C29.7887 27.2177 29.2106 27.1922 28.8995 27.5323C28.5883 27.874 28.5628 28.4011 28.8995 28.736Z" fill="#2E6AB0"/>
<path d="M34.3403 35.3212C33.6636 34.6445 32.9886 33.9695 32.3084 33.2894C31.2288 32.2097 30.1491 31.13 29.0745 30.0555C28.828 29.8089 28.5781 29.559 28.3298 29.3108C28.0153 28.9962 27.4372 28.9707 27.1261 29.3108C26.8166 29.6508 26.7894 30.1779 27.1261 30.5145C27.8028 31.1912 28.4778 31.8663 29.1579 32.5464L32.3918 35.7803C32.6383 36.0268 32.8883 36.2767 33.1365 36.525C33.451 36.8395 34.0291 36.865 34.3403 36.525C34.6497 36.1832 34.6752 35.6561 34.3403 35.3212Z" fill="#2E6AB0"/>
<path d="M38.2203 8.64365C37.2035 9.66039 36.1833 10.6806 35.1683 11.6956C34.6786 12.1853 34.1855 12.6784 33.6976 13.1663C33.6636 13.2003 33.6296 13.2344 33.5956 13.2684C33.5071 13.3568 33.4119 13.4469 33.315 13.5268C33.2385 13.5948 33.1586 13.6594 33.0804 13.7223C33.1059 13.7053 33.2164 13.6203 33.0889 13.7087C33.0345 13.7461 32.9784 13.7852 32.9223 13.8243C32.7726 13.9213 32.6247 14.0148 32.4666 14.0998C32.3901 14.1423 32.3101 14.1814 32.2319 14.2188C32.1809 14.2443 32.135 14.2664 32.0823 14.2868C31.9888 14.3293 31.9803 14.3463 32.0738 14.2902C31.9174 14.3837 31.6963 14.4296 31.5212 14.4806C31.3342 14.5351 31.1438 14.5776 30.9516 14.6133C30.9091 14.6218 30.8666 14.6269 30.8241 14.6337C30.6915 14.6541 30.8377 14.6082 30.8581 14.6303C30.8411 14.6133 30.6337 14.6507 30.6031 14.6558C30.4127 14.6694 30.2154 14.6762 30.025 14.6694C29.838 14.666 29.6339 14.6609 29.4469 14.6269C29.4724 14.6303 29.6374 14.6575 29.4809 14.6303C29.4384 14.6218 29.3959 14.6167 29.3534 14.6099C29.248 14.5895 29.1375 14.5674 29.0304 14.5419C28.8518 14.4993 28.6767 14.4449 28.5033 14.3854C28.4489 14.3684 28.3979 14.348 28.3418 14.3259C28.3163 14.3174 28.1803 14.2613 28.2823 14.3055C28.3843 14.348 28.2483 14.2885 28.2228 14.28C28.1581 14.2494 28.0952 14.2205 28.0357 14.1916C27.8572 14.1032 27.6821 14.0046 27.5172 13.8941C27.4355 13.843 27.3607 13.7886 27.2825 13.7325C27.2451 13.7019 27.206 13.6781 27.1669 13.6475C27.3199 13.7631 27.1295 13.6135 27.1159 13.5999C27.0445 13.5353 26.9663 13.4724 26.9 13.4095C26.9085 13.418 26.7945 13.3075 26.7945 13.3075C26.7605 13.3381 27.019 13.5625 26.718 13.231C26.6534 13.1595 26.582 13.0915 26.5174 13.0184C26.48 12.9708 26.4358 12.93 26.3984 12.8824C26.3848 12.8654 26.2624 12.7124 26.3304 12.8008C26.395 12.8858 26.3049 12.7634 26.2879 12.7464C26.2539 12.6988 26.2199 12.6495 26.1858 12.6019C26.1348 12.5253 26.0838 12.4454 26.0328 12.3638C25.9223 12.1853 25.8237 11.9983 25.7353 11.8112C25.7149 11.7687 25.6979 11.7262 25.6809 11.6837C25.7523 11.8402 25.7013 11.7313 25.6843 11.6973C25.6469 11.6004 25.6129 11.5018 25.5789 11.4049C25.5142 11.2094 25.4598 11.0138 25.4173 10.8098C25.3969 10.7163 25.3833 10.6194 25.3629 10.5241C25.3544 10.4816 25.3255 10.3626 25.3663 10.5581C25.3578 10.5156 25.3578 10.4697 25.3527 10.4306C25.3323 10.2402 25.3221 10.043 25.3221 9.85255C25.3221 9.66892 25.3306 9.48699 25.3476 9.30507C25.351 9.26256 25.3561 9.22006 25.3612 9.17755C25.3748 9.04153 25.3238 9.39008 25.3612 9.18095C25.3782 9.08744 25.3952 8.99052 25.4122 8.8953C25.4496 8.71677 25.4972 8.53825 25.5517 8.3648C25.5772 8.28319 25.6061 8.19818 25.6367 8.11826C25.6503 8.07575 25.6673 8.03665 25.6843 7.99584C25.7489 7.81221 25.6248 8.11826 25.7013 7.95844C25.8679 7.59288 26.0702 7.25792 26.2964 6.92468C26.3168 6.89407 26.3933 6.79716 26.2828 6.93318C26.3134 6.89917 26.3372 6.86177 26.3678 6.82776C26.4273 6.75635 26.4868 6.68834 26.5463 6.61863C26.6109 6.54722 26.6789 6.47921 26.7418 6.40949C27.1193 6.02693 27.507 5.64438 27.8844 5.26692C29.0321 4.11925 30.1798 2.97158 31.3275 1.82387C31.353 1.79836 31.3751 1.77626 31.3989 1.75246C31.8409 1.3104 31.6505 0.480647 31.0248 0.332744C27.8113 -0.445993 24.3174 0.149113 21.5917 2.04491C20.1839 3.02257 18.9903 4.28584 18.1147 5.7651C17.273 7.1933 16.768 8.77967 16.5725 10.4238C16.3634 12.1665 16.581 13.9773 17.171 15.63C17.2424 15.3546 17.3155 15.0774 17.3869 14.8003C16.4943 15.6929 15.605 16.5822 14.7141 17.4731C13.5325 18.6548 12.3542 19.8331 11.1742 21.013C9.43652 22.7507 7.69714 24.4901 5.95795 26.2293C4.66916 27.5181 3.38203 28.8052 2.09495 30.0923C1.69539 30.4918 1.30433 30.8778 0.96939 31.3471C-0.315998 33.1561 -0.321091 35.7489 0.942185 37.5766C2.16637 39.3415 4.23729 40.2426 6.35735 39.9434C7.58493 39.77 8.6697 39.1579 9.53684 38.2856C10.5774 37.2451 11.6197 36.2028 12.6619 35.1605C14.3877 33.4348 16.1084 31.7141 17.8342 29.9883C19.2318 28.5907 20.6312 27.1913 22.0305 25.792C22.8636 24.9589 23.7001 24.1224 24.5332 23.2892C24.7679 23.0546 25.0059 22.8166 25.2389 22.5836C24.9634 22.655 24.6863 22.7281 24.4091 22.7995C27.4492 23.8401 30.8563 23.5647 33.706 22.0854C36.6475 20.5518 38.8491 17.7158 39.6196 14.4887C40.048 12.6899 40.0531 10.8128 39.64 9.01045C39.5431 8.57688 39.0143 8.27933 38.5943 8.41535C38.1386 8.56497 37.8972 8.99682 37.9992 9.46099C38.0366 9.63952 38.0757 9.81465 38.1097 9.99659C38.1267 10.0816 38.1404 10.1666 38.1523 10.2482C38.1608 10.2907 38.1659 10.3332 38.1693 10.3758C38.1863 10.4863 38.1523 10.2057 38.1693 10.3724C38.2067 10.7464 38.2407 11.117 38.2458 11.4911C38.2543 11.8516 38.2424 12.2188 38.2118 12.5793C38.2033 12.6762 38.1948 12.7697 38.1863 12.8683C38.1778 12.9363 38.1386 13.0554 38.1557 13.1234C38.1523 13.103 38.1863 12.9227 38.1591 13.0894C38.1506 13.1319 38.1455 13.1744 38.1387 13.2169C38.1216 13.3223 38.1046 13.4294 38.0842 13.5365C37.9482 14.2592 37.7357 14.9647 37.4585 15.6449C37.399 15.7945 37.467 15.6449 37.467 15.6245C37.4636 15.6585 37.4296 15.7095 37.416 15.7435C37.3786 15.8319 37.3344 15.922 37.2936 16.0121C37.212 16.1822 37.127 16.3488 37.0386 16.5086C36.8515 16.8487 36.6475 17.1802 36.4265 17.4981C36.3755 17.5696 36.3245 17.6427 36.2701 17.7141C36.2446 17.7515 36.2157 17.7855 36.1885 17.8195C36.1715 17.8399 36.083 17.9555 36.1545 17.8671C36.2361 17.7651 36.095 17.9385 36.095 17.9385C36.0643 17.9725 36.0405 18.0099 36.0099 18.0439C35.9453 18.1255 35.8773 18.2004 35.8093 18.2786C35.5458 18.5761 35.2686 18.8652 34.9762 19.1338C34.8435 19.2528 34.7126 19.3718 34.5715 19.4874C34.5035 19.5418 34.4355 19.598 34.3624 19.6541C34.2399 19.751 34.359 19.6626 34.3794 19.6405C34.3369 19.683 34.2688 19.7221 34.2229 19.7595C33.9254 19.9754 33.6143 20.1811 33.2963 20.3682C32.9818 20.5518 32.6536 20.7218 32.3237 20.8697C32.2472 20.9037 32.1673 20.9411 32.0891 20.9717C32.305 20.8867 32.0075 21.0023 31.9667 21.0193C31.7967 21.084 31.63 21.1469 31.4566 21.203C31.1029 21.3186 30.751 21.4189 30.3888 21.4954C30.2154 21.5328 30.0403 21.5668 29.8618 21.5974C29.7802 21.611 29.6951 21.6229 29.6101 21.6348C29.5625 21.6433 29.4435 21.6654 29.6475 21.6314C29.5965 21.6399 29.5421 21.645 29.4911 21.6518C28.692 21.7454 27.8793 21.7488 27.0767 21.6689C27.0121 21.6603 26.6857 21.6348 26.9271 21.6552C26.8251 21.6467 26.718 21.6246 26.6177 21.6076C26.4306 21.577 26.2487 21.5396 26.06 21.5022C25.6519 21.4138 25.2473 21.2982 24.8494 21.1622C24.5689 21.0653 24.2237 21.1758 24.0197 21.3781C23.1322 22.2657 22.243 23.1549 21.3537 24.0441C20.2145 25.1833 19.0787 26.3191 17.9396 27.4583C16.2308 29.167 14.522 30.8758 12.8182 32.5796L8.83961 36.5582C8.62707 36.7708 8.41794 36.9833 8.20712 37.1907C8.13571 37.2621 8.0575 37.3352 7.97758 37.4032C7.94018 37.4373 7.90107 37.4713 7.85856 37.5002C7.81095 37.5376 7.73955 37.6362 7.86196 37.5002C7.72594 37.6566 7.4539 37.7756 7.27535 37.8691C7.17844 37.9201 7.07982 37.966 6.98291 38.0136C6.83839 38.0817 7.01351 38.0051 7.02031 37.9966C6.98971 38.0272 6.89789 38.0442 6.85369 38.0613C6.64116 38.1378 6.42522 38.1973 6.20418 38.2398C6.15657 38.2483 6.10727 38.2568 6.05966 38.2653C5.98825 38.2789 5.83523 38.2619 6.05626 38.2687C5.96275 38.2653 5.86073 38.2891 5.76722 38.2942C5.55468 38.3078 5.33875 38.3027 5.1245 38.2857C5.0939 38.2823 4.97148 38.2857 4.95107 38.2687C4.98848 38.2721 5.02248 38.2772 5.06159 38.2857C5.02419 38.2823 4.98508 38.2721 4.94597 38.2687C4.84906 38.2517 4.75554 38.2347 4.66033 38.2092C4.4478 38.1582 4.24887 38.0902 4.04482 38.0187C3.85439 37.9507 4.21484 38.1004 4.02781 38.0153C3.97341 37.9898 3.9224 37.9643 3.86629 37.9388C3.77788 37.8963 3.68776 37.8504 3.60275 37.7994C3.51774 37.7484 3.42932 37.6974 3.34771 37.643C3.2967 37.609 3.25079 37.575 3.19809 37.5376C3.04506 37.4322 3.3086 37.6345 3.17768 37.5206C2.99406 37.3675 2.82063 37.2111 2.6591 37.0309C2.57749 36.9459 2.50268 36.8575 2.42957 36.7623C2.55199 36.9187 2.41257 36.7316 2.39557 36.7112C2.35816 36.6568 2.31905 36.5956 2.27995 36.5378C2.21194 36.4324 2.15243 36.3219 2.09292 36.2114C2.06741 36.1604 2.04191 36.1093 2.0164 36.0583C1.9994 36.0209 1.88888 35.8373 1.9909 36.0107C1.87188 35.8101 1.82088 35.5312 1.76647 35.3051C1.73586 35.1861 1.71886 35.0671 1.69846 34.9447C1.67295 34.8087 1.71546 35.1572 1.69846 34.9413C1.69506 34.8733 1.68485 34.8086 1.68145 34.7406C1.66785 34.4941 1.68145 34.2561 1.69846 34.0095C1.71206 33.7851 1.66445 34.1932 1.70186 33.9721C1.71036 33.9296 1.71546 33.8837 1.72226 33.8395C1.74776 33.7069 1.77667 33.5811 1.81068 33.4484C1.84128 33.343 1.87529 33.2359 1.91269 33.1288C1.93309 33.0693 1.9552 32.9962 1.9841 32.9418C1.91609 33.0693 1.9705 32.9724 2.0045 32.8992C2.10992 32.6748 2.23914 32.4538 2.37856 32.2497C2.40407 32.2123 2.43297 32.1732 2.46018 32.1341C2.5962 31.9471 2.34456 32.2565 2.49758 32.0865C2.59109 31.9811 2.68461 31.874 2.78323 31.772C2.83763 31.7176 2.89374 31.6614 2.94985 31.6053L15.4007 19.1545C16.2202 18.335 17.0414 17.5138 17.8661 16.6891C18.1007 16.4545 18.3336 16.2215 18.5717 15.9835C18.7757 15.7795 18.8913 15.436 18.7876 15.1538C18.6652 14.8052 18.553 14.4482 18.4646 14.086C18.3796 13.7426 18.2605 13.3549 18.252 12.9979C18.252 13.0234 18.2775 13.1934 18.2554 13.0353C18.252 12.9928 18.2469 12.9503 18.2384 12.9129C18.2299 12.8278 18.2214 12.7462 18.2129 12.6612C18.1959 12.4742 18.1823 12.2838 18.1789 12.0967C18.1653 11.7397 18.1704 11.3826 18.1925 11.0256C18.2061 10.847 18.218 10.6685 18.2401 10.49C18.2435 10.4594 18.2775 10.1924 18.2605 10.32C18.2401 10.4645 18.269 10.2553 18.2741 10.2485C18.2826 10.1975 18.2911 10.1465 18.2996 10.0921C18.3592 9.72656 18.4391 9.36949 18.5377 9.01244C18.6346 8.66388 18.7468 8.32384 18.8777 7.98886C18.9083 7.90725 18.9372 7.82734 18.9712 7.75082C18.8777 7.94125 18.9882 7.71342 19.0138 7.66241C19.0954 7.48898 19.1753 7.31386 19.2654 7.13874C19.4388 6.80209 19.6309 6.47566 19.8401 6.15599C19.9421 5.99957 20.0492 5.84995 20.1597 5.69692C20.1903 5.65441 20.3434 5.44528 20.2277 5.60851C20.2923 5.5201 20.3672 5.43508 20.4369 5.35007C20.9299 4.75497 21.4876 4.21937 22.0895 3.73823C22.212 3.64131 22.1031 3.72973 22.0759 3.74673C22.1235 3.71272 22.1643 3.67872 22.212 3.64471C22.2834 3.5937 22.3565 3.53929 22.4279 3.48829C22.5945 3.37267 22.7594 3.26385 22.9294 3.15674C23.2559 2.95271 23.5959 2.76908 23.9462 2.60417C24.0278 2.56676 24.1026 2.52766 24.1842 2.49365C24.2216 2.47665 24.2658 2.45964 24.3032 2.44264C24.3577 2.41713 24.4002 2.36613 24.2828 2.45114C24.4274 2.34912 24.6654 2.30152 24.8303 2.24201C25.1789 2.11959 25.5308 2.01757 25.8879 1.93256C26.097 1.88155 26.3096 1.83904 26.5204 1.79994C26.6258 1.78293 26.7329 1.76593 26.84 1.74893C26.8876 1.74043 27.0016 1.71492 26.806 1.75233C26.857 1.74383 26.9114 1.73873 26.9675 1.73192C27.3841 1.68431 27.8007 1.66391 28.2223 1.66391C28.6304 1.66391 29.0385 1.68942 29.4465 1.73532C29.489 1.73872 29.5349 1.74383 29.574 1.75233C29.3496 1.70472 29.5655 1.75233 29.6046 1.75573C29.7101 1.77273 29.8172 1.78973 29.9243 1.81014C30.1368 1.84754 30.3494 1.89515 30.5568 1.94616C30.4344 1.4735 30.3052 0.997404 30.1827 0.526445C29.1252 1.58401 28.071 2.63819 27.0117 3.69745C26.5322 4.17695 26.0511 4.653 25.575 5.13419C24.5922 6.11693 23.9002 7.38195 23.6962 8.76423C23.4208 10.6311 23.9053 12.4742 25.087 13.95C25.1465 14.0265 25.2094 14.0996 25.274 14.171C25.308 14.2084 25.3387 14.2424 25.371 14.2765C25.388 14.2935 25.405 14.3105 25.422 14.3309C25.4866 14.4023 25.49 14.4023 25.4305 14.3224C25.4169 14.302 25.405 14.285 25.388 14.2629C25.4305 14.3343 25.4849 14.4023 25.5444 14.4635C25.5869 14.506 25.6328 14.5485 25.677 14.591C25.7654 14.6726 25.8555 14.7525 25.9491 14.829C26.318 15.1317 26.7057 15.4037 27.1256 15.6197C27.9451 16.0413 28.8259 16.2794 29.744 16.3474C31.5038 16.4698 33.267 15.8237 34.5694 14.6437C34.9741 14.2782 35.3515 13.8735 35.7392 13.4875L39.3999 9.82686C39.7144 9.51231 39.7399 8.93422 39.3999 8.62309C39.0836 8.32724 38.5569 8.307 38.2203 8.64365Z" fill="#2E6AB0"/>
<path d="M5.53254 34.8228C5.39992 34.9503 5.66516 34.7582 5.51894 34.8398C5.48493 34.8602 5.45093 34.8823 5.41692 34.8993C5.52234 34.8568 5.54954 34.8483 5.48833 34.8687C5.43392 34.8857 5.37781 34.8993 5.3217 34.9163C5.25709 34.9299 5.2843 34.9248 5.40671 34.9027C5.36931 34.9061 5.3302 34.9061 5.2911 34.9061C5.12958 34.9197 5.45772 34.9605 5.2911 34.9095C5.25369 34.8959 5.14658 34.8925 5.12447 34.8585C5.22989 34.9061 5.25199 34.9129 5.19588 34.884C5.17038 34.8704 5.14488 34.8534 5.11937 34.8415C5.05476 34.799 5.05476 34.7939 5.11087 34.8381C5.16528 34.8806 5.16528 34.8755 5.10747 34.8245C5.04286 34.7565 5.05306 34.765 5.12447 34.8585C5.11087 34.8415 5.10407 34.8245 5.09047 34.8109C5.07007 34.7769 5.04796 34.7429 5.03096 34.7089C5.04456 34.7429 5.05646 34.7735 5.06837 34.8058C5.03776 34.7888 5.03096 34.6783 5.01736 34.6392C4.96635 34.4828 5.02076 34.8262 5.02076 34.6137C5.02076 34.4181 4.99015 34.6851 5.01226 34.6137C5.02076 34.5797 5.03266 34.4403 5.06666 34.4232C5.05306 34.4573 5.04116 34.4879 5.02926 34.5202C5.04626 34.4862 5.06666 34.4522 5.08877 34.4181C5.10237 34.4011 5.10917 34.3841 5.12277 34.3705C5.05136 34.4641 5.04626 34.476 5.10577 34.4045C5.16528 34.3535 5.16528 34.3501 5.10917 34.3909C5.05476 34.4283 5.05816 34.4283 5.11767 34.3875C5.14318 34.3705 5.16868 34.3569 5.19418 34.345C5.24859 34.3144 5.22819 34.3246 5.12277 34.3705C5.14318 34.3399 5.25029 34.3331 5.2894 34.3195C5.45602 34.2651 5.12787 34.311 5.2894 34.3229C5.3268 34.3229 5.36591 34.3229 5.40501 34.3263C5.28259 34.3059 5.25199 34.3008 5.32 34.3127C5.37441 34.3297 5.43052 34.3433 5.48663 34.3603C5.54614 34.3807 5.52403 34.3739 5.41522 34.3297C5.44072 34.3433 5.46623 34.3552 5.49173 34.3722C5.67536 34.4828 5.41011 34.2872 5.52913 34.4062C5.64815 34.5253 5.46112 34.2668 5.54614 34.4198C5.55464 34.4368 5.56654 34.4539 5.57674 34.4709C5.61925 34.5525 5.61415 34.5389 5.56824 34.4232C5.57164 34.4709 5.60565 34.5423 5.61925 34.5899C5.66685 34.7565 5.62775 34.4164 5.61585 34.5899C5.59884 34.8109 5.62945 34.5899 5.62945 34.5899C5.63285 34.5899 5.59204 34.7344 5.58694 34.7565C5.54954 34.9095 5.67195 34.6069 5.56144 34.7905C5.45262 34.9673 5.64645 34.6987 5.53254 34.8228C5.22649 35.1459 5.18908 35.7069 5.53254 36.0266C5.86409 36.3326 6.40816 36.37 6.73631 36.0266C7.3399 35.3941 7.47082 34.5048 7.10187 33.7176C6.77541 33.0205 5.97117 32.575 5.21115 32.6295C4.36612 32.6941 3.6078 33.2756 3.39526 34.1087C3.18273 34.9452 3.52788 35.7834 4.22497 36.2765C4.99857 36.824 6.06976 36.6591 6.73285 36.0249C7.0559 35.7188 7.0644 35.1271 6.73285 34.8211C6.38769 34.5049 5.8777 34.4947 5.53254 34.8228Z" fill="#2E6AB0"/>
<path d="M10.1403 31.009C10.5058 30.6434 10.868 30.2813 11.2318 29.9174C12.1125 29.0367 12.9865 28.1628 13.8672 27.282C14.9248 26.2245 15.9841 25.1652 17.0433 24.1059L19.7893 21.36C20.2347 20.9145 20.6938 20.4793 21.1291 20.0202C21.1325 20.0117 21.1427 20.0066 21.1495 19.9998C21.464 19.6852 21.4895 19.1071 21.1495 18.796C20.8094 18.4866 20.2823 18.4594 19.9457 18.796C19.5801 19.1616 19.218 19.5237 18.8541 19.8876C17.9734 20.7683 17.0995 21.6422 16.2187 22.523C15.1611 23.5806 14.1019 24.6398 13.0426 25.6991L10.2967 28.445C9.85123 28.8905 9.39216 29.3257 8.95689 29.7848C8.95349 29.7933 8.94329 29.7984 8.93649 29.8052C8.62194 30.1198 8.59643 30.6979 8.93649 31.009C9.27824 31.3201 9.80532 31.3457 10.1403 31.009Z" fill="#2E6AB0"/>
</svg>
