<?xml version="1.0" encoding="UTF-8"?>
<svg xmlns="http://www.w3.org/2000/svg" version="1.1" viewBox="0 0 700 700">
  <defs>
    <style>
      .cls-1 {
        fill: #d95700;
      }
    </style>
  </defs>
  <!-- Generator: Adobe Illustrator 28.7.4, SVG Export Plug-In . SVG Version: 1.2.0 Build 166)  -->
  <g>
    <g id="Layer_1">
      <path class="cls-1" d="M319.5,51.2H67.8c-7.8,0-15.3,3.1-20.9,8.6-5.5,5.5-8.6,13.1-8.6,20.9v551.5c0,7.8,3.1,15.3,8.6,20.9,5.5,5.5,13.1,8.6,20.9,8.6h251.6c7.8,0,15.3-3.1,20.9-8.6,5.5-5.5,8.6-13.1,8.6-20.9V80.7c0-7.8-3.1-15.3-8.6-20.8-5.5-5.5-13-8.7-20.8-8.7h0ZM338.1,80.7v93.2h-138.9V62.1h120.3c4.9,0,9.7,2,13.1,5.4,3.5,3.5,5.4,8.2,5.4,13.1h0ZM338.1,528.1h-138.9V184.8h138.9v343.2ZM49.2,184.8h139v343.2H49.2V184.8ZM67.8,62.1h120.3v111.8H49.2v-93.2c0-4.9,2-9.7,5.4-13.1,3.5-3.5,8.2-5.4,13.1-5.4h0ZM49.2,632.2v-93.2h139v111.8h-120.4c-4.9,0-9.7-2-13.1-5.4-3.5-3.5-5.4-8.2-5.4-13.1h0ZM319.5,650.8h-120.3v-111.8h138.9v93.2c0,4.9-2,9.7-5.4,13.1-3.5,3.5-8.2,5.4-13.1,5.4h0Z"/>
      <path class="cls-1" d="M660.7,592.6l-25.6-95.3-92-341.9-25.6-95.3c-2-7.6-7-14.1-13.8-18s-14.9-5-22.5-2.9l-98.4,26.4c-7.6,2.1-14,7-18,13.8-3.9,6.8-5,14.9-2.9,22.5l25.9,94.9,92,341.9,25.6,95.6c1.7,6.3,5.4,11.8,10.6,15.8,5.2,4,11.5,6.1,18,6.1,2.6,0,5.2-.3,7.7-1l98.4-26.4c7.6-2.1,14-7,18-13.8,3.9-6.8,5-14.9,2.9-22.5h-.2ZM399.9,199.6l134.2-35.5,89.4,330.9-134.5,36.1-89-331.4ZM386,76.6l98.4-26.5c1.6-.2,3.2-.2,4.8,0,4.1,0,8.1,1.4,11.3,3.9,3.3,2.5,5.6,6,6.7,9.9l24,89.2-134.2,35.9-24.2-89.9c-1.2-4.7-.5-9.7,1.9-14,2.5-4.2,6.5-7.3,11.2-8.6h0ZM648.5,610c-2.4,4.2-6.3,7.3-10.9,8.6l-98.4,26.5c-4.8,1.1-9.9.3-14.1-2.2-4.2-2.4-7.3-6.3-8.6-10.9l-24.2-90.5,134.2-36,24.3,89.9c1.1,4.9.2,9.9-2.3,14.2v.3Z"/>
    </g>
  </g>
</svg>