<svg width="700pt" height="700pt" version="1.1" viewBox="0 0 700 700" xmlns="http://www.w3.org/2000/svg">
 <path d="m596.59 359.23-248.93-248.93c-14.711-14.711-34.258-22.805-55.047-22.805h-172.48c-18.004 0-32.625 14.633-32.625 32.625v172.48c0 20.805 8.0938 40.348 22.805 55.059l248.93 248.93c10.258 10.258 23.91 15.914 38.414 15.914 14.504 0 28.152-5.6562 38.414-15.914l160.54-160.54c10.258-10.258 15.914-23.91 15.914-38.414s-5.6562-28.152-15.914-38.414zm-386.55-96.73c-28.93 0-52.457-23.527-52.457-52.457 0-28.93 23.527-52.457 52.457-52.457s52.469 23.539 52.469 52.457-23.539 52.457-52.469 52.457z"/>
</svg>
