<svg width="700pt" height="700pt" version="1.1" viewBox="0 0 700 700" xmlns="http://www.w3.org/2000/svg">
 <path d="m625.8 165.2h-126v-42.699c0-43.398-35-78.398-78.398-78.398h-143.5c-43.398 0-78.398 35-78.398 78.398v42.699h-126c-31.5 0-56.699 25.199-56.699 56.699v137.9h240.1v-12.602c0-30.801 24.5-55.301 55.301-55.301h74.199c30.801 0 55.301 24.5 55.301 55.301v12.602h240.1l-0.003907-137.9c0.69922-31.5-24.5-56.699-56-56.699zm-364.7 0v-42.699c0-9.1016 7.6992-16.801 16.801-16.801h143.5c9.1016 0 16.801 7.6992 16.801 16.801v42.699z"/>
 <path d="m442.4 415.8c0 30.801-24.5 55.301-55.301 55.301h-74.199c-30.801 0-55.301-24.5-55.301-55.301v-9.8008h-240.1v193.2c0 31.5 25.199 56.699 56.699 56.699h551.6c31.5 0 56.699-25.199 56.699-56.699v-193.9h-240.1z"/>
 <path d="m387.1 424.9c4.8984 0 9.1016-4.1992 9.1016-9.1016v-69.301c0-4.8984-4.1992-9.1016-9.1016-9.1016l-74.203 0.003907c-4.8984 0-9.1016 4.1992-9.1016 9.1016v69.301c0 4.8984 4.1992 9.1016 9.1016 9.1016z"/>
</svg>
