<?xml version="1.0" encoding="UTF-8"?>
<svg width="700pt" height="700pt" version="1.1" viewBox="0 0 700 700" xmlns="http://www.w3.org/2000/svg">
 <path d="m162.09 536.7c12.496-12.496 31.527 6.5078 19.004 19.004-8.4219 8.4219-53.594 55.453-59.254 58.27-5.168 2.5703-11.348 1.5312-15.449-2.543l-55.727-55.727c-12.496-12.496 6.5078-31.527 19.004-19.004l32.785 32.785v-471.57c0-17.691 26.879-17.691 26.879 0v471.54zm71.695-28.328c-17.691 0-17.691-26.879 0-26.879h203.19c17.691 0 17.691 26.879 0 26.879zm0-112.19c-17.691 0-17.691-26.879 0-26.879h270.89c17.691 0 17.691 26.879 0 26.879zm0-112.19c-17.691 0-17.691-26.879 0-26.879h338.62c17.691 0 17.691 26.879 0 26.879zm0-112.16c-17.691 0-17.691-26.879 0-26.879l406.36-0.027344c17.691 0 17.691 26.879 0 26.879z" fill-rule="evenodd"/>
</svg>
