<?xml version="1.0" encoding="utf-8"?>
<svg version="1.1" xmlns:xlink="http://www.w3.org/1999/xlink" width="12px" height="12px" xmlns="http://www.w3.org/2000/svg">
  <g transform="matrix(1 0 0 1 -532 -1965 )">
    <path d="M 538 1966  C 540.8 1966  543 1968.2  543 1971  C 543 1973.8  540.8 1976  538 1976  C 535.2 1976  533 1973.8  533 1971  C 533 1968.2  535.2 1966  538 1966  Z " fill-rule="nonzero" fill="#ffffff" stroke="none" />
    <path d="M 538 1966  C 540.8 1966  543 1968.2  543 1971  C 543 1973.8  540.8 1976  538 1976  C 535.2 1976  533 1973.8  533 1971  C 533 1968.2  535.2 1966  538 1966  Z " stroke-width="2" stroke="#008e2d" fill="none" />
  </g>
</svg>