<?xml version="1.0" encoding="utf-8"?>
<svg version="1.1" xmlns:xlink="http://www.w3.org/1999/xlink" width="12px" height="12px" xmlns="http://www.w3.org/2000/svg">
  <g transform="matrix(1 0 0 1 -631 -1893 )">
    <path d="M 637 1894  C 639.8 1894  642 1896.2  642 1899  C 642 1901.8  639.8 1904  637 1904  C 634.2 1904  632 1901.8  632 1899  C 632 1896.2  634.2 1894  637 1894  Z " fill-rule="nonzero" fill="#ffffff" stroke="none" />
    <path d="M 637 1894  C 639.8 1894  642 1896.2  642 1899  C 642 1901.8  639.8 1904  637 1904  C 634.2 1904  632 1901.8  632 1899  C 632 1896.2  634.2 1894  637 1894  Z " stroke-width="2" stroke="#ee0000" fill="none" />
  </g>
</svg>